<?xml version="1.0" encoding="UTF-8" standalone="no"?>
<!-- Created with Inkscape (http://www.inkscape.org/) -->

<svg
   version="1.1"
   id="svg471"
   width="653.67413"
   height="634.40814"
   viewBox="0 0 653.67415 634.40813"
   sodipodi:docname="Figure_2_2.svg"
   inkscape:version="1.1 (c68e22c387, 2021-05-23)"
   xmlns:inkscape="http://www.inkscape.org/namespaces/inkscape"
   xmlns:sodipodi="http://sodipodi.sourceforge.net/DTD/sodipodi-0.dtd"
   xmlns="http://www.w3.org/2000/svg"
   xmlns:svg="http://www.w3.org/2000/svg">
  <defs
     id="defs475" />
  <sodipodi:namedview
     id="namedview473"
     pagecolor="#ffffff"
     bordercolor="#666666"
     borderopacity="1.0"
     inkscape:pageshadow="2"
     inkscape:pageopacity="0.0"
     inkscape:pagecheckerboard="0"
     showgrid="false"
     inkscape:zoom="3.6116666"
     inkscape:cx="525.93449"
     inkscape:cy="73.78865"
     inkscape:window-width="1368"
     inkscape:window-height="842"
     inkscape:window-x="-6"
     inkscape:window-y="-6"
     inkscape:window-maximized="1"
     inkscape:current-layer="g477" />
  <g
     inkscape:groupmode="layer"
     inkscape:label="Image"
     id="g477"
     transform="translate(-8.6831608,-12.830137)">
    <path
       style="fill:none;stroke:#282832;stroke-width:1.09091"
       d="m 486.54544,44.727274 c -4.79236,-4.791928 -15.22145,-12.725019 -14.53418,-19.636364 0.75055,-7.5408 7.73455,-11.92211 14.53418,-11.707855 7.80437,0.245891 14.544,7.122545 16.06364,14.980582 0.95673,4.944 -0.25309,12.207382 -5.21455,15.564873 -2.82,1.908109 -8.91272,1.462364 -10.84909,2.116909 -2.90945,0.983455 -4.38763,2.552619 -6.52909,4.452982 -3.99927,3.549382 -9.30763,11.38931 -11.42182,17.137964 -3.34145,9.084873 -2.84945,10.58651 -7.1509,17.639673 -2.25819,3.702655 -2.61273,7.128546 -1.54582,10.690255 1.41272,4.713167 4.98172,4.240997 7.01127,2.761127 4.56366,-3.327652 3.03927,-12.025164 -1.09091,-16.908946 m -1.09091,19.636076 c 0.65346,3.52014 0.96873,6.13418 1.10291,9.81818 0.38291,10.52073 1.54145,23.22 2.268,33.81818 0.53782,7.86655 1.64727,16.17491 2.712,24 1.04073,7.63855 1.91455,13.93309 2.952,21.81819 3.49091,26.54945 5.70982,54.27381 13.24909,80.72727 3.732,13.08982 9.31855,25.07455 15.65891,37.09091 4.86327,9.21709 8.35091,15.67636 8.96618,21.81818 -3.72764,0.21709 -6.66654,0.41128 -10.90909,0.0382 -8.81673,-0.77345 -13.20873,-0.0142 -20.72727,-0.98727 -5.07055,-0.65563 -7.73237,-0.93054 -12,0.009 -4.94837,1.08873 -11.31055,5.93345 -15.81491,1.37345 -5.34982,-5.41636 5.65418,-17.07818 8.08036,-24.43309 5.32691,-16.14327 4.23164,-34.37345 2.33455,-51.27273 -4.46836,-39.79854 -12.77455,-77.80909 -21.99927,-116.72727 -5.26037,-22.19346 -8.67055,-44.134585 -16.23491,-65.454549 -2.92364,-8.239637 -5.12291,-15.659564 -4.26437,-26.181819 0.76473,-9.364364 6.32291,-15.542291 14.08037,-20.641419 4.23163,-2.781818 11.49382,-8.909236 15.22582,-3.010909 1.87527,2.964764 -0.46364,8.225019 -1.044,11.652328 h -7.63637 m 30.54546,-6.545455 c -7.1891,7.128764 -10.32109,6.821564 -18.08291,13.546255 -6.48655,5.619818 -13.23055,10.560437 -18.69273,15.978982 -3.67855,3.649527 -7.872,8.455309 -11.22436,11.929309 m 25.09091,-34.909091 5.45454,5.454545 M 471.27272,37.0912 c 3.03381,6.371891 5.6029,8.492618 9.81818,12 m -333.81818,72 c -5.45454,-4.16182 -9.74345,-6.21243 -15.27272,-7.42473 -9.41753,-2.06481 -17.43231,-3.47324 -28.9174,0.6024 -1.54876,-5.24182 -2.67588,-8.92134 2.98474,-14.762723 2.60291,-2.685927 5.95375,-4.172291 9.56793,-5.127055 2.45018,-0.647127 4.67236,-0.806727 6.86291,-2.346763 8.46545,-5.951782 16.81636,-8.110037 25.75091,0.809672 15.43854,15.411859 -3.33427,27.541059 -4.74073,41.339819 -1.888,18.52313 -5.05273,37.01748 -4.96327,55.63637 0.20015,41.65632 4.13066,83.51573 12.3,124.36364 2.23649,11.1828 4.31127,22.95163 9.98618,32.72291 2.44037,4.20218 4.06909,5.32909 6.86837,8.45345 1.94072,2.16545 2.75127,4.78255 2.3149,7.91127 -0.804,5.772 -4.42799,7.19128 -8.56036,8.64109 -2.63673,0.9251 -3.89563,1.00146 -6.54545,1.62546 -2.85928,0.67418 -4.40291,1.51527 -7.63637,0.83127 -5.28109,-1.11818 -6.49418,-1.27963 -12,-0.55527 -4.22181,0.55527 -8.45672,-0.85964 -12,-2.90291 m 3.6e-4,-278.181825 c 5.71091,4.401382 22.05491,11.069015 29.45455,16.363635 M 464.72726,92.727275 v 4.363636 M 103.0826,114.26887 c 0.39044,8.544 5.7795,16.75474 7.79958,25.3675 2.01945,8.61009 3.26371,17.39802 4.29164,26.18182 3.26261,27.87951 4.08213,55.99135 5.93345,84 0.38446,5.8165 0.67996,11.63872 1.07455,17.45454 0.26897,3.96443 0.69333,7.91892 0.88134,11.88801 0.15664,3.30706 0.17077,6.61959 0.20522,9.93018 0.0946,9.09041 0.004,18.05236 0.004,27.27272 0,5.17964 0.21819,8.47746 -0.0982,13.09091 -0.55963,8.17637 -1.52618,19.58946 -5.58763,27.27273 -4.81855,9.11564 -6.85309,10.53055 0.23127,20.72727 6.83127,-6.22036 3.41127,-13.04836 -1.09091,-18.54545 m 332.72762,-28.36364 c -0.87818,1.64509 -1.95054,3.07528 -2.10654,6.55091 -0.28036,6.23237 0.576,15.94255 7.56654,16.38982 4.78691,0.30655 8.41964,-5.424 11.532,-8.69455 4.25237,-4.46945 9.87055,-5.29963 15.73528,-5.51454 14.08254,-0.516 13.87745,8.57673 24,16.35927 -8.47419,5.89091 -14.49164,-5.26473 -25.09091,-5.34763 -10.104,-0.0786 -13.96037,7.93527 -22.90909,3.16581 m 49.0909,2.18182 c 5.53419,-8.40109 6.80728,-18.31636 5.45455,-24 m -350.18181,21.81818 c -3.42,8.39455 -3.864,11.45346 -3.27273,18.54546 m 300.7499,25.50813 c 0,0 8.82026,-0.27301 12.31231,1.97383 3.49205,2.24684 9.33054,7.77794 15.02454,5.91576 2.46496,-0.77457 5.83024,-2.63424 9.90698,-5.30128 4.07674,-2.66704 12.23754,-2.53126 12.23754,-2.53126 m -349.1404,-24.47427 c 0,1.95818 1.08,5.86473 -0.65782,9.48654 -2.2429,4.67455 -17.27563,4.23819 -22.25127,3.96219 -3.65673,-0.20291 -5.39345,1.02109 -8.72727,1.35054 -6.23891,0.61855 -10.28073,-6.36327 -10.90909,-10.43564 m 379.63635,-4.36363 c 5.13164,0 10.46837,-2.00837 14.92582,1.74873 4.27636,3.60545 1.94291,11.51018 0.58146,15.70581 -1.284,3.95564 -4.58837,9.34909 -7.00428,15.37517 -3.15035,7.07905 -4.20505,11.42143 -5.47495,17.35211 -2.45296,11.45575 -3.02675,23.24078 -4.07637,34.90909 -1.53937,16.52957 -0.026,31.76465 -0.0426,46.90909 0,20.916 2.67311,44.50399 5.73481,66.56207 0.57045,4.1098 1.7132,8.75089 2.34957,12.22385 l 2.66504,14.54449 c 1.29833,7.08565 3.21272,12.48955 3.21272,12.48955 0,0 -4.99418,-0.0499 -8.95135,0.54158 -3.95717,0.59151 -6.87733,1.82446 -9.37442,2.17519 -3.18,0.44673 -6.66954,-1.04899 -10.21023,-1.7638 -3.54068,-0.71482 -7.13249,-0.64874 -10.51704,-0.95474 1.95163,-10.06255 2.82174,-18.88237 3.91636,-28.36364 0.71204,-6.1675 1.22658,-13.09386 1.72364,-18.54546 3.18109,-33.43091 0.90763,-70.24363 0.90545,-104.72727 0,-4.59927 -0.0829,-7.98982 -0.62836,-12 -0.41782,-3.06873 -0.65673,-5.57128 -1.09091,-8.72728 -0.81818,-5.93563 -1.65818,-11.74254 -3.80618,-17.45454 -1.84037,-4.89491 -3.96219,-9.54 -6.19637,-14.18182 -1.44873,-3.00873 -4.2366,-6.96169 -6.07369,-9.40096 -1.88182,-2.49928 -1.49722,-1.85286 -3.01467,-3.42159 -2.66509,-2.75345 -6.35564,-8.112 -5.02364,-13.33854 1.81637,-7.13018 8.16109,-5.30727 13.83382,-6.25527 4.32327,-0.72328 7.60036,-6.552 11.98364,-6.01637 3.55527,0.43418 5.02691,4.30037 7.83818,5.95309 4.91563,2.88982 8.592,0.38946 11.81454,-1.33854 -4.12036,-4.78909 -8.42181,-5.93237 -14.18181,-2.18182 m -13.09091,3.27273 c 3.27927,1.75091 4.92436,2.16218 10.90909,2.18182 m -332.72727,0 v 7.63636 m 32.72727,15.27273 c -3.46254,-1.812 -9.57054,-3.19855 -11.98145,-6.87491 -2.18509,-3.33273 -1.36364,-10.28728 4.32,-8.32364 10.78691,3.72655 10.61433,11.34626 13.11603,18.47127 2.05139,5.84251 1.2633,10.86982 1.07458,18.54546 -0.29455,12.01854 -2.16546,26.11745 -2.16546,39.27273 0,23.05091 0.94473,45.82036 2.22,68.72727 0.26182,4.68327 1.02984,8.628 1.05164,13.09091 0.0142,2.90182 -0.10361,4.67564 0.0993,7.63636 0.29455,4.31673 0.93706,6.54437 0.98836,10.9091 0.0449,3.76691 -0.12328,5.92909 0.0469,9.81818 0.17673,4.03963 0.84437,6.13309 1.00582,9.81818 0.1353,3.10036 -0.0185,5.58109 0.0589,8.72727 0.13309,5.46218 3.61855,17.736 2.28218,22.84473 -0.63927,2.44582 -2.18291,3.47018 -4.50218,4.08109 -3.48218,0.91746 -10.89818,0.47346 -14.16,1.43782 -2.33127,-7.96255 0.80291,-12.58255 1.10618,-22.90909 0.31306,-10.67455 -0.0153,-21.94473 -0.0153,-32.72727 0,-35.62473 -2.28109,-75.03819 -7.008,-110.18183 -0.67746,-5.03454 -0.65455,-8.13927 -2.04655,-13.09091 -3.3229,-11.81781 -7.02545,-18.98072 -14.94545,-27.27272 4.99636,-3.58037 9.36982,-1.25346 13.94836,-4.25128 4.80655,-3.14727 4.48037,-7.14545 4.59709,-12.11236 m 260.72723,10.90909 c 0.002,-2.74582 -0.0873,-5.49164 0.312,-8.72727 0.29673,-2.40218 1.80545,-15.83891 9.03382,-10.07782 4.98218,3.96982 3.34691,13.39964 3.60327,18.80509 0.61527,13.00146 1.23273,28.2 1.23273,41.45455 0,4.07673 -0.18873,9.15927 0.18545,13.09091 0.43637,4.58291 0.89673,6.84872 0.90546,12 0.01,6.41672 -0.29346,10.65163 0.0982,16.36363 0.33927,4.96255 0.984,7.728 0.99273,13.09091 0.0327,20.14255 0,36.46473 0,56.72728 0,18.288 1.11151,38.90852 1.63637,58.36363 0.10295,3.81626 1.05819,7.34728 0.29674,11.4491 -0.67418,3.63054 -3.82582,8.14145 -7.93528,4.78036 -5.90181,-4.82727 -4.94576,-7.40771 -5.38948,-11.66923 -0.41262,-3.96287 2.09015,-7.70908 2.66876,-11.65113 0.79386,-5.40861 1.08327,-14.52655 1.08654,-16.36364 0.003,-2.13491 0,-4.02982 0,-6.54546 v -8.72727 -8.72727 c 0,-12.87818 0.23237,-26.68146 0.76364,-39.27273 0.21382,-5.076 -0.62618,-10.21309 -0.74727,-15.27273 -0.36873,-15.29345 -0.71782,-30.59345 -1.09091,-45.81818 -0.32509,-13.25673 -1.66255,-27.25746 -3.76691,-40.36364 -0.87491,-5.44691 -3.888,-14.15782 -2.72182,-19.51745 1.15964,-5.33128 5.88545,-4.90255 10.836,-5.57346 m -5.45455,-13.09091 1.09091,8.72728 M 151.63636,620.72729 c -6.19855,0.26618 -20.31055,4.72145 -23.34218,-1.43782 -3.01746,-6.13309 -1.40655,-17.93815 -1.74873,-26.92582 -0.21519,-8.11052 -0.68591,-15.45567 -1.13347,-22.90909 -1.06905,-9.71348 -1.82194,-18.30282 -2.13928,-27.27273 -0.25235,-6.90932 -0.67343,-13.8141 -0.77563,-20.72727 0.18688,-4.8421 -0.1193,-9.69108 -0.22143,-14.18182 -0.16972,-14.59541 -0.0938,-28.33745 -0.0938,-43.63637 0,-13.248 -1.1771,-25.82836 -1.08764,-39.27272 0.0262,-3.96219 -2.24291,-11.35855 0.0731,-14.61491 1.64182,-2.30728 5.08691,-1.68982 7.56,-1.764 2.88327,-0.0862 4.99527,-0.732 7.572,-0.29128 6.08291,1.04182 1.97236,6.34582 -2.11746,9.03382 2.424,5.73382 2.03455,7.37237 4.36255,12 1.08545,2.15782 1.76291,2.96837 1.96364,5.45455 0.21927,2.73163 -0.92182,5.19927 -1.47055,7.63636 -1.34618,5.98691 -2.59091,15.41455 -2.66945,21.81818 -0.3,24.37746 -2.14909,48.70146 0.18109,73.09092 1.33636,13.98545 4.25236,25.57418 6.63272,39.27272 1.32328,7.61673 3.1571,15.372 5.04328,22.9091 1.05054,4.19563 2.52327,9.00436 3.52254,13.0909 0.69818,2.8571 0.92291,4.848 1.83055,7.63528 0.71782,2.20582 2.32036,4.68982 0.55527,6.84327 -4.152,5.06727 -15.34145,2.76327 -21.04254,5.64982 -2.12837,1.07673 -4.83055,3.22364 -7.24582,1.74654 -3.65346,-2.23309 -1.5231,-7.48797 -0.39058,-10.96581 0.47484,-1.45816 2.01233,-3.09244 2.83964,-3.61964 m 46.2513,-210.19855 c -2.76545,8.64873 -0.54,15.78218 0.0382,26.18182 0.29237,5.24836 0.86182,8.45127 1.51527,13.09091 0.65673,4.65818 1.61782,10.36363 1.71928,15.27272 m -12,-49.48248 c 0,0 3.33559,1.88989 4.33544,3.44032 3.29245,5.10548 4.43001,17.67853 4.43001,17.67853 m -52.40186,-18.54546 h 11.99999 m 2.18182,13.09091 c 0.0796,3.41782 -0.14945,4.97673 2.18182,9.81818 m 371.78026,171.27451 c 0,0 0.42472,0.19196 0.50492,0.38863 3.47545,8.52181 3.17081,22.27869 -3.86228,27.33832 -5.03127,3.62073 -11.66291,-5.80363 -17.15018,-7.25782 -4.28182,-1.13345 -6.74182,-0.516 -10.90909,0.384 -15.97964,3.44946 -12.68187,-10.05926 -7.63641,-20.8549 m -275.99995,5.45454 c 1.78146,6.55964 -1.68327,11.52327 -7.63636,4.36364 -6.57055,2.772 -11.66182,1.43672 -13.09091,-3.27273 m 272.71064,-3.72127 -8.22334,0.59806"
       id="path561"
       sodipodi:nodetypes="ccsccsccscacccccccscccccccccccccccscccccccacccccaaacccscccccccccaaaaaascsccccccsccccccccscsccssccccccaccasscscscacccccccccccscccccccccacscsccsccccccscccccccccscccssaccaacscscccccccccccccccccccccscccccccccccaccccccaccccccaccccccccc" />
    <path
       d="m 181.09085,399.27274 c -3.46254,-1.812 -9.57054,-3.19855 -11.98145,-6.87491"
       style="fill:none;stroke:#62a0ea;stroke-width:2;stroke-miterlimit:4;stroke-dasharray:none"
       id="path45053" />
    <path
       d="m 147.27272,121.0912 c -5.45454,-4.16182 -9.74345,-6.21243 -15.27272,-7.42473 -9.41753,-2.06481 -17.43231,-3.47324 -28.9174,0.6024 m 0,0"
       style="fill:none;stroke:#62a0ea;stroke-width:2;stroke-miterlimit:4;stroke-dasharray:none"
       id="path13852" />
    <path
       style="fill:none;stroke:#000000;stroke-width:1px;stroke-linecap:butt;stroke-linejoin:miter;stroke-opacity:1"
       d="m 152.56115,124.04246 19.10475,9.41394"
       id="path14031" />
    <text
       xml:space="preserve"
       style="font-size:18.6667px;line-height:1.25;font-family:sans-serif;-inkscape-font-specification:'sans-serif, Normal'"
       x="172.77342"
       y="142.31657"
       id="text15127"><tspan
         sodipodi:role="line"
         id="tspan15125"
         x="172.77342"
         y="142.31657"
         style="font-style:normal;font-variant:normal;font-weight:bold;font-stretch:normal;font-size:16px;font-family:sans-serif;-inkscape-font-specification:'sans-serif, Bold';font-variant-ligatures:normal;font-variant-caps:normal;font-variant-numeric:normal;font-variant-east-asian:normal">Humerus</tspan><tspan
         sodipodi:role="line"
         x="172.77342"
         y="165.64995"
         id="tspan15129"
         style="font-style:normal;font-variant:normal;font-weight:normal;font-stretch:normal;font-size:16px;font-family:sans-serif;-inkscape-font-specification:'sans-serif, Normal';font-variant-ligatures:normal;font-variant-caps:normal;font-variant-numeric:normal;font-variant-east-asian:normal">proximal 80%</tspan></text>
    <text
       xml:space="preserve"
       style="font-size:18.6667px;line-height:1.25;font-family:sans-serif;-inkscape-font-specification:'sans-serif, Normal'"
       x="512.51825"
       y="79.729362"
       id="text15127-3"><tspan
         sodipodi:role="line"
         id="tspan15125-7"
         x="512.51825"
         y="79.729362"
         style="font-style:normal;font-variant:normal;font-weight:bold;font-stretch:normal;font-size:16px;font-family:sans-serif;-inkscape-font-specification:'sans-serif, Bold';font-variant-ligatures:normal;font-variant-caps:normal;font-variant-numeric:normal;font-variant-east-asian:normal">Femur</tspan><tspan
         sodipodi:role="line"
         x="512.51825"
         y="103.06274"
         id="tspan15129-8"
         style="font-style:normal;font-variant:normal;font-weight:normal;font-stretch:normal;font-size:16px;font-family:sans-serif;-inkscape-font-specification:'sans-serif, Normal';font-variant-ligatures:normal;font-variant-caps:normal;font-variant-numeric:normal;font-variant-east-asian:normal">proximal 30%</tspan></text>
    <text
       xml:space="preserve"
       style="font-size:18.6667px;line-height:1.25;font-family:sans-serif;-inkscape-font-specification:'sans-serif, Normal'"
       x="550.10883"
       y="337.3812"
       id="text15127-3-6"><tspan
         sodipodi:role="line"
         id="tspan15125-7-6"
         x="550.10883"
         y="337.3812"
         style="font-style:normal;font-variant:normal;font-weight:bold;font-stretch:normal;font-size:16px;font-family:sans-serif;-inkscape-font-specification:'sans-serif, Bold';font-variant-ligatures:normal;font-variant-caps:normal;font-variant-numeric:normal;font-variant-east-asian:normal">Femur</tspan><tspan
         sodipodi:role="line"
         x="550.10883"
         y="360.71457"
         id="tspan15129-8-3"
         style="font-style:normal;font-variant:normal;font-weight:normal;font-stretch:normal;font-size:16px;font-family:sans-serif;-inkscape-font-specification:'sans-serif, Normal';font-variant-ligatures:normal;font-variant-caps:normal;font-variant-numeric:normal;font-variant-east-asian:normal">diatal 70%</tspan></text>
    <text
       xml:space="preserve"
       style="font-size:18.6667px;line-height:1.25;font-family:sans-serif;-inkscape-font-specification:'sans-serif, Normal'"
       x="553.16199"
       y="403.49857"
       id="text15127-3-6-2"><tspan
         sodipodi:role="line"
         id="tspan15125-7-6-0"
         x="553.16199"
         y="403.49857"
         style="font-style:normal;font-variant:normal;font-weight:bold;font-stretch:normal;font-size:16px;font-family:sans-serif;-inkscape-font-specification:'sans-serif, Bold';font-variant-ligatures:normal;font-variant-caps:normal;font-variant-numeric:normal;font-variant-east-asian:normal">Tibia</tspan><tspan
         sodipodi:role="line"
         x="553.16199"
         y="426.83194"
         id="tspan15129-8-3-8"
         style="font-style:normal;font-variant:normal;font-weight:normal;font-stretch:normal;font-size:16px;font-family:sans-serif;-inkscape-font-specification:'sans-serif, Normal';font-variant-ligatures:normal;font-variant-caps:normal;font-variant-numeric:normal;font-variant-east-asian:normal">proximal 55%</tspan></text>
    <text
       xml:space="preserve"
       style="font-size:18.6667px;line-height:1.25;font-family:sans-serif;-inkscape-font-specification:'sans-serif, Normal'"
       x="557.0614"
       y="617.20697"
       id="text15127-3-6-2-8"><tspan
         sodipodi:role="line"
         id="tspan15125-7-6-0-1"
         x="557.0614"
         y="617.20697"
         style="font-style:normal;font-variant:normal;font-weight:bold;font-stretch:normal;font-size:16px;font-family:sans-serif;-inkscape-font-specification:'sans-serif, Bold';font-variant-ligatures:normal;font-variant-caps:normal;font-variant-numeric:normal;font-variant-east-asian:normal">Tibia</tspan><tspan
         sodipodi:role="line"
         x="557.0614"
         y="640.54034"
         id="tspan15129-8-3-8-4"
         style="font-style:normal;font-variant:normal;font-weight:normal;font-stretch:normal;font-size:16px;font-family:sans-serif;-inkscape-font-specification:'sans-serif, Normal';font-variant-ligatures:normal;font-variant-caps:normal;font-variant-numeric:normal;font-variant-east-asian:normal">diatal 45%</tspan></text>
    <text
       xml:space="preserve"
       style="font-size:18.6667px;line-height:1.25;font-family:sans-serif;-inkscape-font-specification:'sans-serif, Normal'"
       x="292.63852"
       y="386.43912"
       id="text15127-3-6-2-5"><tspan
         sodipodi:role="line"
         id="tspan15125-7-6-0-6"
         x="292.63852"
         y="386.43912"
         style="font-style:normal;font-variant:normal;font-weight:bold;font-stretch:normal;font-size:16px;font-family:sans-serif;-inkscape-font-specification:'sans-serif, Bold';font-variant-ligatures:normal;font-variant-caps:normal;font-variant-numeric:normal;font-variant-east-asian:normal">Fibula</tspan><tspan
         sodipodi:role="line"
         x="292.63852"
         y="409.77249"
         id="tspan15129-8-3-8-0"
         style="font-style:normal;font-variant:normal;font-weight:normal;font-stretch:normal;font-size:16px;font-family:sans-serif;-inkscape-font-specification:'sans-serif, Normal';font-variant-ligatures:normal;font-variant-caps:normal;font-variant-numeric:normal;font-variant-east-asian:normal">proximal 60%</tspan></text>
    <text
       xml:space="preserve"
       style="font-size:18.6667px;line-height:1.25;font-family:sans-serif;-inkscape-font-specification:'sans-serif, Normal'"
       x="332.39694"
       y="618.38165"
       id="text15127-3-6-2-5-5"><tspan
         sodipodi:role="line"
         id="tspan15125-7-6-0-6-8"
         x="332.39694"
         y="618.38165"
         style="font-style:normal;font-variant:normal;font-weight:bold;font-stretch:normal;font-size:16px;font-family:sans-serif;-inkscape-font-specification:'sans-serif, Bold';font-variant-ligatures:normal;font-variant-caps:normal;font-variant-numeric:normal;font-variant-east-asian:normal">Fibula</tspan><tspan
         sodipodi:role="line"
         x="332.39694"
         y="641.71503"
         id="tspan15129-8-3-8-0-0"
         style="font-style:normal;font-variant:normal;font-weight:normal;font-stretch:normal;font-size:16px;font-family:sans-serif;-inkscape-font-specification:'sans-serif, Normal';font-variant-ligatures:normal;font-variant-caps:normal;font-variant-numeric:normal;font-variant-east-asian:normal">distal 40%</tspan></text>
    <text
       xml:space="preserve"
       style="font-size:18.6667px;line-height:1.25;font-family:sans-serif;-inkscape-font-specification:'sans-serif, Normal'"
       x="192.92998"
       y="330.03302"
       id="text15127-1"><tspan
         sodipodi:role="line"
         id="tspan15125-9"
         x="192.92998"
         y="330.03302"
         style="font-style:normal;font-variant:normal;font-weight:bold;font-stretch:normal;font-size:16px;font-family:sans-serif;-inkscape-font-specification:'sans-serif, Bold';font-variant-ligatures:normal;font-variant-caps:normal;font-variant-numeric:normal;font-variant-east-asian:normal">Humerus</tspan><tspan
         sodipodi:role="line"
         x="192.92998"
         y="353.36639"
         id="tspan15129-6"
         style="font-style:normal;font-variant:normal;font-weight:normal;font-stretch:normal;font-size:16px;font-family:sans-serif;-inkscape-font-specification:'sans-serif, Normal';font-variant-ligatures:normal;font-variant-caps:normal;font-variant-numeric:normal;font-variant-east-asian:normal">distal 20%</tspan></text>
    <text
       xml:space="preserve"
       style="font-size:18.6667px;line-height:1.25;font-family:sans-serif;-inkscape-font-specification:'sans-serif, Normal'"
       x="14.428935"
       y="623.67834"
       id="text15127-1-8"><tspan
         sodipodi:role="line"
         id="tspan15125-9-1"
         x="14.428935"
         y="623.67834"
         style="font-style:normal;font-variant:normal;font-weight:bold;font-stretch:normal;font-size:16px;font-family:sans-serif;-inkscape-font-specification:'sans-serif, Bold';font-variant-ligatures:normal;font-variant-caps:normal;font-variant-numeric:normal;font-variant-east-asian:normal">Radius</tspan><tspan
         sodipodi:role="line"
         x="14.428935"
         y="647.01172"
         id="tspan15129-6-2"
         style="font-style:normal;font-variant:normal;font-weight:normal;font-stretch:normal;font-size:16px;font-family:sans-serif;-inkscape-font-specification:'sans-serif, Normal';font-variant-ligatures:normal;font-variant-caps:normal;font-variant-numeric:normal;font-variant-east-asian:normal">distal 75%</tspan></text>
    <text
       xml:space="preserve"
       style="font-size:18.6667px;line-height:1.25;font-family:sans-serif;-inkscape-font-specification:'sans-serif, Normal'"
       x="227.44989"
       y="618.48041"
       id="text15127-1-8-9"><tspan
         sodipodi:role="line"
         id="tspan15125-9-1-5"
         x="227.44989"
         y="618.48041"
         style="font-style:normal;font-variant:normal;font-weight:bold;font-stretch:normal;font-size:16px;font-family:sans-serif;-inkscape-font-specification:'sans-serif, Bold';font-variant-ligatures:normal;font-variant-caps:normal;font-variant-numeric:normal;font-variant-east-asian:normal">Ulna</tspan><tspan
         sodipodi:role="line"
         x="227.44989"
         y="641.81378"
         id="tspan15129-6-2-4"
         style="font-style:normal;font-variant:normal;font-weight:normal;font-stretch:normal;font-size:16px;font-family:sans-serif;-inkscape-font-specification:'sans-serif, Normal';font-variant-ligatures:normal;font-variant-caps:normal;font-variant-numeric:normal;font-variant-east-asian:normal">distal 20%</tspan></text>
    <text
       xml:space="preserve"
       style="font-size:18.6667px;line-height:1.25;font-family:sans-serif;-inkscape-font-specification:'sans-serif, Normal'"
       x="7.2300358"
       y="421.55554"
       id="text15127-1-2"><tspan
         sodipodi:role="line"
         id="tspan15125-9-9"
         x="7.2300358"
         y="421.55554"
         style="font-style:normal;font-variant:normal;font-weight:bold;font-stretch:normal;font-size:16px;font-family:sans-serif;-inkscape-font-specification:'sans-serif, Bold';font-variant-ligatures:normal;font-variant-caps:normal;font-variant-numeric:normal;font-variant-east-asian:normal">Radius</tspan><tspan
         sodipodi:role="line"
         x="7.2300358"
         y="444.88892"
         id="tspan15129-6-9"
         style="font-style:normal;font-variant:normal;font-weight:normal;font-stretch:normal;font-size:16px;font-family:sans-serif;-inkscape-font-specification:'sans-serif, Normal';font-variant-ligatures:normal;font-variant-caps:normal;font-variant-numeric:normal;font-variant-east-asian:normal">proximal 25%</tspan></text>
    <text
       xml:space="preserve"
       style="font-size:18.6667px;line-height:1.25;font-family:sans-serif;-inkscape-font-specification:'sans-serif, Normal'"
       x="221.37926"
       y="413.69934"
       id="text15127-1-2-5"><tspan
         sodipodi:role="line"
         id="tspan15125-9-9-8"
         x="221.37926"
         y="413.69934"
         style="font-style:normal;font-variant:normal;font-weight:bold;font-stretch:normal;font-size:16px;font-family:sans-serif;-inkscape-font-specification:'sans-serif, Bold';font-variant-ligatures:normal;font-variant-caps:normal;font-variant-numeric:normal;font-variant-east-asian:normal">Ulna</tspan><tspan
         sodipodi:role="line"
         x="221.37926"
         y="437.03271"
         id="tspan15129-6-9-0"
         style="font-style:normal;font-variant:normal;font-weight:normal;font-stretch:normal;font-size:16px;font-family:sans-serif;-inkscape-font-specification:'sans-serif, Normal';font-variant-ligatures:normal;font-variant-caps:normal;font-variant-numeric:normal;font-variant-east-asian:normal">proximal 80%</tspan></text>
    <path
       style="fill:none;stroke:#000000;stroke-width:1px;stroke-linecap:butt;stroke-linejoin:miter;stroke-opacity:1"
       d="m 136.26571,373.75179 51.29543,-48.55445"
       id="path29598" />
    <path
       d="m 170.01454,363.26946 c -0.804,5.772 -4.42799,7.19128 -8.56036,8.64109 -2.63673,0.9251 -3.89563,1.00146 -6.54545,1.62546 -2.85928,0.67418 -4.40291,1.51527 -7.63637,0.83127 -5.28109,-1.11818 -6.49418,-1.27963 -12,-0.55527 -4.22181,0.55527 -8.45672,-0.85964 -12,-2.90291 m 36.00036,1.09091 m 1.09087,1.09091"
       style="fill:none;stroke:#62a0ea;stroke-width:2;stroke-miterlimit:4;stroke-dasharray:none"
       id="path32921" />
    <path
       style="fill:none;stroke:#000000;stroke-width:1.1486px;stroke-linecap:butt;stroke-linejoin:miter;stroke-opacity:1"
       d="M 118.18182,416.72728 H 72.419014"
       id="path33742" />
    <path
       style="fill:none;stroke:#000000;stroke-width:1px;stroke-linecap:butt;stroke-linejoin:miter;stroke-opacity:1"
       d="M 124.29418,619.28947 H 82.386712"
       id="path33744" />
    <path
       d="m 151.63636,620.72729 c -6.19855,0.26618 -20.31055,4.72145 -23.34218,-1.43782"
       style="fill:none;stroke:#62a0ea;stroke-width:2;stroke-miterlimit:4;stroke-dasharray:none"
       id="path39446" />
    <path
       d="m 122.18182,416.72728 h 11.99999"
       style="fill:none;stroke:#62a0ea;stroke-width:2;stroke-miterlimit:4;stroke-dasharray:none"
       id="path39656" />
    <path
       style="fill:none;stroke:#000000;stroke-width:1px;stroke-linecap:butt;stroke-linejoin:miter;stroke-opacity:1"
       d="m 188.93236,401.01658 25.19612,4.43009"
       id="path39842" />
    <path
       style="fill:none;stroke:#000000;stroke-width:1px;stroke-linecap:butt;stroke-linejoin:miter;stroke-opacity:1"
       d="m 199.7307,612.55328 h 22.7042"
       id="path39844" />
    <path
       d="m 188.70547,616.01674 c -3.48218,0.91746 -10.89818,0.47346 -14.16,1.43782"
       style="fill:none;stroke:#62a0ea;stroke-width:2;stroke-miterlimit:4;stroke-dasharray:none"
       id="path45225" />
    <path
       style="fill:none;stroke:#000000;stroke-width:1px;stroke-linecap:butt;stroke-linejoin:miter;stroke-opacity:1"
       d="m 490.54544,48.727274 19.03769,21.747698"
       id="path45421" />
    <path
       style="fill:none;stroke:#000000;stroke-width:1px;stroke-linecap:butt;stroke-linejoin:miter;stroke-opacity:1"
       d="m 518.72726,331.63637 h 28.097"
       id="path45536" />
    <path
       style="fill:none;stroke:#000000;stroke-width:1px;stroke-linecap:butt;stroke-linejoin:miter;stroke-opacity:1"
       d="m 513.50399,397.56519 h 35.23596"
       id="path45651" />
    <path
       style="fill:none;stroke:#000000;stroke-width:1px;stroke-linecap:butt;stroke-linejoin:miter;stroke-opacity:1"
       d="m 514.32571,610.91088 h 36.76364"
       id="path45766" />
    <path
       style="fill:none;stroke:#000000;stroke-width:1px;stroke-linecap:butt;stroke-linejoin:miter;stroke-opacity:1"
       d="M 426.90903,405.81819 H 407.99835"
       id="path45996" />
    <path
       style="fill:none;stroke:#000000;stroke-width:1px;stroke-linecap:butt;stroke-linejoin:miter;stroke-opacity:1"
       d="M 435.03275,614.33135 H 393.11876"
       id="path65023" />
    <path
       d="m 447.25609,613.73329 -8.22334,0.59806"
       style="fill:none;stroke:#62a0ea;stroke-width:2;stroke-miterlimit:4;stroke-dasharray:none"
       id="path65208" />
    <path
       d="m 510.32571,610.91088 c 0,0 -4.99418,-0.0499 -8.95135,0.54158 -3.95717,0.59151 -6.87733,1.82446 -9.37442,2.17519 -3.18,0.44673 -6.66954,-1.04899 -10.21023,-1.7638 -3.54068,-0.71482 -7.13249,-0.64874 -10.51704,-0.95474"
       style="fill:none;stroke:#62a0ea;stroke-width:2;stroke-miterlimit:4;stroke-dasharray:none"
       id="path65654" />
    <path
       d="m 432.07307,409.20983 c 1.15964,-5.33128 5.88545,-4.90255 10.836,-5.57346"
       style="fill:none;stroke:#62a0ea;stroke-width:2;stroke-miterlimit:4;stroke-dasharray:none"
       id="path65864" />
    <path
       d="m 460.02262,397.50814 c 0,0 8.82026,-0.27301 12.31231,1.97383 3.49205,2.24684 9.33054,7.77794 15.02454,5.91576 2.46496,-0.77457 5.83024,-2.63424 9.90698,-5.30128 4.07674,-2.66704 12.23754,-2.53126 12.23754,-2.53126"
       style="fill:none;stroke:#62a0ea;stroke-width:2;stroke-miterlimit:4;stroke-dasharray:none"
       id="path66150" />
    <path
       d="m 511.63635,330.54546 c -3.72764,0.21709 -6.66654,0.41128 -10.90909,0.0382 -8.81673,-0.77345 -13.20873,-0.0142 -20.72727,-0.98727 -5.07055,-0.65563 -7.73237,-0.93054 -12,0.009 -4.94837,1.08873 -11.31055,5.93345 -15.81491,1.37345"
       style="fill:none;stroke:#62a0ea;stroke-width:2;stroke-miterlimit:4;stroke-dasharray:none"
       id="path66482" />
    <path
       d="M 486.54544,44.727274 C 481.75308,39.935346 471.32399,32.002255 472.01126,25.09091"
       style="fill:none;stroke:#62a0ea;stroke-width:2;stroke-miterlimit:4;stroke-dasharray:none"
       id="path66692" />
  </g>
</svg>
