<?xml version="1.0" encoding="UTF-8" standalone="no"?>
<!-- Created with Inkscape (http://www.inkscape.org/) -->

<svg
   version="1.1"
   id="svg668"
   width="679.1933"
   height="438.53683"
   viewBox="0 0 679.19328 438.53683"
   sodipodi:docname="Figure 2-3.svg"
   inkscape:version="1.1 (c68e22c387, 2021-05-23)"
   xmlns:inkscape="http://www.inkscape.org/namespaces/inkscape"
   xmlns:sodipodi="http://sodipodi.sourceforge.net/DTD/sodipodi-0.dtd"
   xmlns="http://www.w3.org/2000/svg"
   xmlns:svg="http://www.w3.org/2000/svg">
  <defs
     id="defs672" />
  <sodipodi:namedview
     id="namedview670"
     pagecolor="#ffffff"
     bordercolor="#666666"
     borderopacity="1.0"
     inkscape:pageshadow="2"
     inkscape:pageopacity="0.0"
     inkscape:pagecheckerboard="0"
     showgrid="false"
     inkscape:zoom="4.0614938"
     inkscape:cx="454.14325"
     inkscape:cy="74.479986"
     inkscape:window-width="1368"
     inkscape:window-height="842"
     inkscape:window-x="-6"
     inkscape:window-y="-6"
     inkscape:window-maximized="1"
     inkscape:current-layer="g674" />
  <g
     inkscape:groupmode="layer"
     inkscape:label="Image"
     id="g674"
     transform="translate(39.41601,-10.845424)">
    <text
       xml:space="preserve"
       style="font-style:normal;font-variant:normal;font-weight:normal;font-stretch:normal;font-size:10.6667px;line-height:1.25;font-family:sans-serif;-inkscape-font-specification:'sans-serif, Normal';font-variant-ligatures:normal;font-variant-caps:normal;font-variant-numeric:normal;font-variant-east-asian:normal"
       x="-38.262035"
       y="47.058266"
       id="text2873"><tspan
         sodipodi:role="line"
         id="tspan2871"
         x="-38.262035"
         y="47.058266">Greater tuberosity</tspan><tspan
         sodipodi:role="line"
         x="-38.262035"
         y="60.39164"
         id="tspan2875">Appears ♂︎ 6 mo-2y</tspan><tspan
         sodipodi:role="line"
         x="-38.262035"
         y="73.725014"
         id="tspan5307">              ♀︎ 3 mo-1.5y</tspan></text>
    <text
       xml:space="preserve"
       style="font-style:normal;font-variant:normal;font-weight:normal;font-stretch:normal;font-size:10.6667px;line-height:1.25;font-family:sans-serif;-inkscape-font-specification:'sans-serif, Normal';font-variant-ligatures:normal;font-variant-caps:normal;font-variant-numeric:normal;font-variant-east-asian:normal"
       x="-12.737612"
       y="132.71693"
       id="text2873-4"><tspan
         sodipodi:role="line"
         id="tspan2871-54"
         x="-12.737612"
         y="132.71693">Trochlea</tspan><tspan
         sodipodi:role="line"
         x="-12.737612"
         y="146.05031"
         id="tspan2875-2">Appears ♂︎ 9y  ♀︎ 8y</tspan><tspan
         sodipodi:role="line"
         x="-12.737612"
         y="159.38368"
         id="tspan5307-8">Range ♂︎ 8-10y  ♀︎ 7-9y</tspan></text>
    <text
       xml:space="preserve"
       style="font-style:normal;font-variant:normal;font-weight:normal;font-stretch:normal;font-size:10.6667px;line-height:1.25;font-family:sans-serif;-inkscape-font-specification:'sans-serif, Normal';font-variant-ligatures:normal;font-variant-caps:normal;font-variant-numeric:normal;font-variant-east-asian:normal"
       x="-14.992725"
       y="182.16139"
       id="text2873-4-1"><tspan
         sodipodi:role="line"
         id="tspan2871-54-6"
         x="-14.992725"
         y="182.16139">Lateral epicondyle</tspan><tspan
         sodipodi:role="line"
         x="-14.992725"
         y="195.49477"
         id="tspan2875-2-0">Appears ♂︎ 12y</tspan><tspan
         sodipodi:role="line"
         x="-14.992725"
         y="208.82814"
         id="tspan5307-8-0">              ♀︎ 11y</tspan></text>
    <text
       xml:space="preserve"
       style="font-style:normal;font-variant:normal;font-weight:normal;font-stretch:normal;font-size:10.6667px;line-height:1.25;font-family:sans-serif;-inkscape-font-specification:'sans-serif, Normal';font-variant-ligatures:normal;font-variant-caps:normal;font-variant-numeric:normal;font-variant-east-asian:normal"
       x="-19.533173"
       y="230.82886"
       id="text2873-4-1-1"><tspan
         sodipodi:role="line"
         id="tspan2871-54-6-9"
         x="-19.533173"
         y="230.82886">Capitulum</tspan><tspan
         sodipodi:role="line"
         x="-19.533173"
         y="244.16223"
         id="tspan2875-2-0-8">Appears ♂︎ 5mo  ♀︎ 4mo</tspan><tspan
         sodipodi:role="line"
         x="-19.533173"
         y="257.49561"
         id="tspan5307-8-0-4">Range   ♂︎ 6wk-8mo</tspan><tspan
         sodipodi:role="line"
         x="-19.533173"
         y="270.82898"
         id="tspan51520">             ♀︎ 1-6mo</tspan></text>
    <text
       xml:space="preserve"
       style="font-style:normal;font-variant:normal;font-weight:normal;font-stretch:normal;font-size:10.6667px;line-height:1.25;font-family:sans-serif;-inkscape-font-specification:'sans-serif, Normal';font-variant-ligatures:normal;font-variant-caps:normal;font-variant-numeric:normal;font-variant-east-asian:normal"
       x="177.03157"
       y="69.076866"
       id="text2873-1"><tspan
         sodipodi:role="line"
         id="tspan2871-5"
         x="177.03157"
         y="69.076866">Lesser tuberosity</tspan><tspan
         sodipodi:role="line"
         x="177.03157"
         y="82.41024"
         id="tspan5307-3">Appears  3-5 y</tspan></text>
    <text
       xml:space="preserve"
       style="font-style:normal;font-variant:normal;font-weight:normal;font-stretch:normal;font-size:10.6667px;line-height:1.25;font-family:sans-serif;-inkscape-font-specification:'sans-serif, Normal';font-variant-ligatures:normal;font-variant-caps:normal;font-variant-numeric:normal;font-variant-east-asian:normal"
       x="176.3338"
       y="161.13223"
       id="text2873-1-9"><tspan
         sodipodi:role="line"
         x="176.3338"
         y="161.13223"
         id="tspan5307-3-1">Media epicondyle</tspan><tspan
         sodipodi:role="line"
         x="176.3338"
         y="174.46561"
         id="tspan99574">Appears ♂︎ 7y  ♀︎ 5y</tspan><tspan
         sodipodi:role="line"
         x="176.3338"
         y="187.79898"
         id="tspan99576">Range  ♂︎ 5-7y  ♀︎ 3-6y</tspan></text>
    <text
       xml:space="preserve"
       style="font-style:normal;font-variant:normal;font-weight:normal;font-stretch:normal;font-size:10.6667px;line-height:1.25;font-family:sans-serif;-inkscape-font-specification:'sans-serif, Normal';font-variant-ligatures:normal;font-variant-caps:normal;font-variant-numeric:normal;font-variant-east-asian:normal"
       x="194.04419"
       y="231.06963"
       id="text2873-1-9-1"><tspan
         sodipodi:role="line"
         x="194.04419"
         y="231.06963"
         id="tspan5307-3-1-4">Olecranon</tspan><tspan
         sodipodi:role="line"
         x="194.04419"
         y="244.403"
         id="tspan99574-0">Appears ♂︎ 10y</tspan><tspan
         sodipodi:role="line"
         x="194.04419"
         y="257.73639"
         id="tspan99576-9">              ♀︎ 8y</tspan></text>
    <text
       xml:space="preserve"
       style="font-style:normal;font-variant:normal;font-weight:normal;font-stretch:normal;font-size:10.6667px;line-height:1.25;font-family:sans-serif;-inkscape-font-specification:'sans-serif, Normal';font-variant-ligatures:normal;font-variant-caps:normal;font-variant-numeric:normal;font-variant-east-asian:normal"
       x="278.638"
       y="254.64102"
       id="text2873-1-9-1-4"><tspan
         sodipodi:role="line"
         x="278.638"
         y="254.64102"
         id="tspan5307-3-1-4-6">Fibula, proximal epiphysis</tspan><tspan
         sodipodi:role="line"
         x="278.638"
         y="267.9744"
         id="tspan99574-0-4">Appears ♂︎ 4y</tspan><tspan
         sodipodi:role="line"
         x="278.638"
         y="281.30777"
         id="tspan99576-9-0">              ♀︎ 3y</tspan></text>
    <text
       xml:space="preserve"
       style="font-style:normal;font-variant:normal;font-weight:normal;font-stretch:normal;font-size:10.6667px;line-height:1.25;font-family:sans-serif;-inkscape-font-specification:'sans-serif, Normal';font-variant-ligatures:normal;font-variant-caps:normal;font-variant-numeric:normal;font-variant-east-asian:normal"
       x="308.61578"
       y="418.36719"
       id="text2873-1-9-1-4-3"><tspan
         sodipodi:role="line"
         x="308.61578"
         y="418.36719"
         id="tspan5307-3-1-4-6-3">Fibula, distal epiphysis</tspan><tspan
         sodipodi:role="line"
         x="308.61578"
         y="431.70056"
         id="tspan99574-0-4-7">Appears ♂︎ 1y</tspan><tspan
         sodipodi:role="line"
         x="308.61578"
         y="445.03394"
         id="tspan99576-9-0-8">              ♀︎ 9mo</tspan></text>
    <text
       xml:space="preserve"
       style="font-style:normal;font-variant:normal;font-weight:normal;font-stretch:normal;font-size:10.6667px;line-height:1.25;font-family:sans-serif;-inkscape-font-specification:'sans-serif, Normal';font-variant-ligatures:normal;font-variant-caps:normal;font-variant-numeric:normal;font-variant-east-asian:normal"
       x="505.68088"
       y="416.71747"
       id="text2873-1-9-1-4-3-1"><tspan
         sodipodi:role="line"
         x="505.68088"
         y="416.71747"
         id="tspan5307-3-1-4-6-3-2">Tibia, distal epiphysis</tspan><tspan
         sodipodi:role="line"
         x="505.68088"
         y="430.05084"
         id="tspan99576-9-0-8-9">Appears 6 mo</tspan></text>
    <text
       xml:space="preserve"
       style="font-style:normal;font-variant:normal;font-weight:normal;font-stretch:normal;font-size:10.6667px;line-height:1.25;font-family:sans-serif;-inkscape-font-specification:'sans-serif, Normal';font-variant-ligatures:normal;font-variant-caps:normal;font-variant-numeric:normal;font-variant-east-asian:normal"
       x="488.79141"
       y="322.59097"
       id="text2873-1-9-1-4-3-1-2"><tspan
         sodipodi:role="line"
         x="488.79141"
         y="322.59097"
         id="tspan5307-3-1-4-6-3-2-3">Tibial tuberosity</tspan><tspan
         sodipodi:role="line"
         x="488.79141"
         y="335.92435"
         id="tspan99576-9-0-8-9-0">Appears 7 - 15 y</tspan></text>
    <text
       xml:space="preserve"
       style="font-style:normal;font-variant:normal;font-weight:normal;font-stretch:normal;font-size:10.6667px;line-height:1.25;font-family:sans-serif;-inkscape-font-specification:'sans-serif, Normal';font-variant-ligatures:normal;font-variant-caps:normal;font-variant-numeric:normal;font-variant-east-asian:normal"
       x="505.23517"
       y="273.14651"
       id="text2873-1-9-1-4-3-1-2-4"><tspan
         sodipodi:role="line"
         x="505.23517"
         y="273.14651"
         id="tspan5307-3-1-4-6-3-2-3-2">Tibial, proximal epiphysis</tspan><tspan
         sodipodi:role="line"
         x="505.23517"
         y="286.47989"
         id="tspan99576-9-0-8-9-0-0">Appears 40th fetal week</tspan></text>
    <text
       xml:space="preserve"
       style="font-style:normal;font-variant:normal;font-weight:normal;font-stretch:normal;font-size:10.6667px;line-height:1.25;font-family:sans-serif;-inkscape-font-specification:'sans-serif, Normal';font-variant-ligatures:normal;font-variant-caps:normal;font-variant-numeric:normal;font-variant-east-asian:normal"
       x="535.75818"
       y="229.96968"
       id="text2873-1-9-1-4-3-1-2-4-2"><tspan
         sodipodi:role="line"
         x="535.75818"
         y="229.96968"
         id="tspan5307-3-1-4-6-3-2-3-2-9">Patella</tspan><tspan
         sodipodi:role="line"
         x="535.75818"
         y="243.30305"
         id="tspan99576-9-0-8-9-0-0-6">Appears ♂︎ 4-5y</tspan><tspan
         sodipodi:role="line"
         x="535.75818"
         y="256.63644"
         id="tspan209492">              ♀︎ 3y</tspan></text>
    <text
       xml:space="preserve"
       style="font-style:normal;font-variant:normal;font-weight:normal;font-stretch:normal;font-size:10.6667px;line-height:1.25;font-family:sans-serif;-inkscape-font-specification:'sans-serif, Normal';font-variant-ligatures:normal;font-variant-caps:normal;font-variant-numeric:normal;font-variant-east-asian:normal"
       x="484.07278"
       y="172.55893"
       id="text2873-1-9-1-4-3-1-2-4-2-4"><tspan
         sodipodi:role="line"
         x="484.07278"
         y="172.55893"
         id="tspan5307-3-1-4-6-3-2-3-2-9-1">Femur, distal epiphysis</tspan><tspan
         sodipodi:role="line"
         x="484.07278"
         y="185.8923"
         id="tspan209492-2">Appears 36th fetal week</tspan></text>
    <text
       xml:space="preserve"
       style="font-style:normal;font-variant:normal;font-weight:normal;font-stretch:normal;font-size:10.6667px;line-height:1.25;font-family:sans-serif;-inkscape-font-specification:'sans-serif, Normal';font-variant-ligatures:normal;font-variant-caps:normal;font-variant-numeric:normal;font-variant-east-asian:normal"
       x="202.38622"
       y="393.33099"
       id="text2873-1-9-1-3"><tspan
         sodipodi:role="line"
         x="202.38622"
         y="393.33099"
         id="tspan5307-3-1-4-2">Ulna, epiphysis</tspan><tspan
         sodipodi:role="line"
         x="202.38622"
         y="406.66437"
         id="tspan99574-0-9">Appears ♂︎ 5y ♀︎ 4y</tspan><tspan
         sodipodi:role="line"
         x="202.38622"
         y="419.99774"
         id="tspan99576-9-9">Range 3-6y</tspan></text>
    <text
       xml:space="preserve"
       style="font-style:normal;font-variant:normal;font-weight:normal;font-stretch:normal;font-size:10.6667px;line-height:1.25;font-family:sans-serif;-inkscape-font-specification:'sans-serif, Normal';font-variant-ligatures:normal;font-variant-caps:normal;font-variant-numeric:normal;font-variant-east-asian:normal"
       x="-7.9756169"
       y="402.38422"
       id="text2873-1-9-1-3-4"><tspan
         sodipodi:role="line"
         x="-7.9756169"
         y="402.38422"
         id="tspan5307-3-1-4-2-7">Radius, distal epiphysis</tspan><tspan
         sodipodi:role="line"
         x="-7.9756169"
         y="415.71759"
         id="tspan99574-0-9-0">Appears 1y</tspan><tspan
         sodipodi:role="line"
         x="-7.9756169"
         y="429.05096"
         id="tspan99576-9-9-2">Range 3 mo-1.5y</tspan></text>
    <text
       xml:space="preserve"
       style="font-style:normal;font-variant:normal;font-weight:normal;font-stretch:normal;font-size:10.6667px;line-height:1.25;font-family:sans-serif;-inkscape-font-specification:'sans-serif, Normal';font-variant-ligatures:normal;font-variant-caps:normal;font-variant-numeric:normal;font-variant-east-asian:normal"
       x="28.847986"
       y="351.4407"
       id="text2873-1-9-1-3-4-4"><tspan
         sodipodi:role="line"
         x="28.847986"
         y="351.4407"
         id="tspan5307-3-1-4-2-7-0">Radial tuberosity</tspan><tspan
         sodipodi:role="line"
         x="28.847986"
         y="364.77408"
         id="tspan99576-9-9-2-2">Appears 10-12y</tspan></text>
    <text
       xml:space="preserve"
       style="font-style:normal;font-variant:normal;font-weight:normal;font-stretch:normal;font-size:10.6667px;line-height:1.25;font-family:sans-serif;-inkscape-font-specification:'sans-serif, Normal';font-variant-ligatures:normal;font-variant-caps:normal;font-variant-numeric:normal;font-variant-east-asian:normal"
       x="-39.499344"
       y="298.21695"
       id="text2873-1-9-1-3-4-4-9"><tspan
         sodipodi:role="line"
         x="-39.499344"
         y="298.21695"
         id="tspan5307-3-1-4-2-7-0-5">Radius, head</tspan><tspan
         sodipodi:role="line"
         x="-39.499344"
         y="311.55032"
         id="tspan99576-9-9-2-2-6">Appears ♂︎ 5y ♀︎ 4y</tspan><tspan
         sodipodi:role="line"
         x="-39.499344"
         y="324.8837"
         id="tspan158357">Range 3-6y</tspan></text>
    <text
       xml:space="preserve"
       style="font-style:normal;font-variant:normal;font-weight:normal;font-stretch:normal;font-size:10.6667px;line-height:1.25;font-family:sans-serif;-inkscape-font-specification:'sans-serif, Normal';font-variant-ligatures:normal;font-variant-caps:normal;font-variant-numeric:normal;font-variant-east-asian:normal"
       x="179.52037"
       y="32.411747"
       id="text2873-1-4"><tspan
         sodipodi:role="line"
         id="tspan2871-5-9"
         x="179.52037"
         y="32.411747">Humerus, head</tspan><tspan
         sodipodi:role="line"
         x="179.52037"
         y="45.745121"
         id="tspan5307-3-4">Appears  birth-3 mo</tspan></text>
    <text
       xml:space="preserve"
       style="font-style:normal;font-variant:normal;font-weight:normal;font-stretch:normal;font-size:10.6667px;line-height:1.25;font-family:sans-serif;-inkscape-font-specification:'sans-serif, Normal';font-variant-ligatures:normal;font-variant-caps:normal;font-variant-numeric:normal;font-variant-east-asian:normal"
       x="486.2449"
       y="25.576078"
       id="text2873-1-4-0"><tspan
         sodipodi:role="line"
         id="tspan2871-5-9-3"
         x="486.2449"
         y="25.576078">Head of femur</tspan><tspan
         sodipodi:role="line"
         x="486.2449"
         y="38.909454"
         id="tspan5307-3-4-1">Appears  4 mo</tspan></text>
    <text
       xml:space="preserve"
       style="font-style:normal;font-variant:normal;font-weight:normal;font-stretch:normal;font-size:10.6667px;line-height:1.25;font-family:sans-serif;-inkscape-font-specification:'sans-serif, Normal';font-variant-ligatures:normal;font-variant-caps:normal;font-variant-numeric:normal;font-variant-east-asian:normal"
       x="294.56607"
       y="34.977482"
       id="text2873-1-4-0-0"><tspan
         sodipodi:role="line"
         id="tspan2871-5-9-3-3"
         x="294.56607"
         y="34.977482">Greater trochanter</tspan><tspan
         sodipodi:role="line"
         x="294.56607"
         y="48.310856"
         id="tspan5307-3-4-1-83">Appears  3y</tspan></text>
    <text
       xml:space="preserve"
       style="font-style:normal;font-variant:normal;font-weight:normal;font-stretch:normal;font-size:10.6667px;line-height:1.25;font-family:sans-serif;-inkscape-font-specification:'sans-serif, Normal';font-variant-ligatures:normal;font-variant-caps:normal;font-variant-numeric:normal;font-variant-east-asian:normal"
       x="473.88925"
       y="66.315514"
       id="text2873-1-4-0-7"><tspan
         sodipodi:role="line"
         id="tspan2871-5-9-3-5"
         x="473.88925"
         y="66.315514">Lesser trochanter</tspan><tspan
         sodipodi:role="line"
         x="473.88925"
         y="79.648888"
         id="tspan5307-3-4-1-8">Appears  ♂︎ 12y</tspan><tspan
         sodipodi:role="line"
         x="473.88925"
         y="92.982262"
         id="tspan171772">               ♀︎ 11y</tspan></text>
    <path
       style="fill:#000000;stroke-width:1.02128"
       d="m 439.16766,417.9536 c 0,0 -1.68359,-3.09516 -2.23652,-4.75818 -0.17754,-0.53397 -0.30623,-1.09189 -0.33965,-1.65361 -0.0469,-0.78844 0.0547,-1.5845 0.19815,-2.3612 0.10787,-0.58409 0.49507,-1.71175 0.49507,-1.71175 0.39776,-5.0012 -0.92563,-74.62513 -3.74155,-111.80928 -1.09793,-14.4982 -6.1763,-28.81575 -5.12292,-43.31726 0.14143,-1.94694 0.9265,-3.97809 1.52103,-5.65522 0.81227,-2.29137 4.55918,-5.69879 6.11153,-3.98004 0.43087,0.47708 1.07333,2.47592 1.42768,4.44188 0.45408,2.51935 0.34784,3.12228 -0.35995,2.04255 -0.55232,-0.84255 -1.01126,-2.30904 -1.01986,-3.25887 -0.0507,-5.59675 -5.11435,-0.38721 -5.81644,5.98399 -0.37349,3.38922 -0.23012,3.61436 1.93273,3.03497 1.28489,-0.3442 3.14042,-0.6321 4.1234,-0.63977 0.99578,-0.008 1.78723,-0.78277 1.78723,-1.75011 0,-1.22415 0.31961,-1.41656 1.08374,-0.65243 1.39947,1.39948 2.93796,26.67515 2.9738,48.85669 0.0268,16.52874 3.08501,82.38764 5.05847,99.77521 0.5389,4.74813 0.54773,8.80355 0.0211,9.70213 -0.59029,1.00724 -0.91561,1.10017 -0.93587,0.26734 -0.0369,-1.51415 -5.30928,-1.73462 -7.17999,-0.23968 -0.91148,0.72839 -0.91282,2.29944 -0.65765,3.43796 0.58688,2.61856 2.80712,6.86099 4.74275,6.50522 0.84256,-0.15487 2.36326,-1.8118 2.84173,-3.8436 l 1.3098,-3.56203 -0.54991,3.47713 c -1.17395,7.42298 -14.87261,1.66796 -7.66798,1.66796 z m 6.50524,-13.82594 c -0.0629,-1.96596 -0.8742,-12.30638 -1.80296,-22.97872 -0.92876,-10.67234 -2.12817,-47.65107 -2.66534,-65.06383 -0.53718,-17.41277 -1.26983,-38.26046 -1.62813,-46.32822 l -0.65144,-14.66866 -3.58906,0.58242 c -1.97398,0.32034 -4.65175,0.77461 -4.88663,1.00949 -0.23488,0.23489 0.30794,6.33686 1.41907,14.4111 2.15223,15.63963 3.83873,24.70409 4.75596,49.07897 0.31706,8.42554 0.76032,18.30639 0.98502,21.95745 0.22471,3.65107 0.69743,30.28936 1.0505,42.08511 0.35305,11.79574 0.8347,22.05206 1.07031,22.7918 0.25423,0.79822 1.57247,1.2134 3.24269,1.02127 2.50024,-0.28759 2.80157,-0.72263 2.70001,-3.89818 z m -305.55376,1.11488 c -0.67404,-0.67405 -0.96867,-2.31336 -1.22553,-3.53317 -0.23509,-1.11645 -0.30901,-2.27101 -0.27763,-3.41151 0.0438,-1.59359 0.64946,-4.73829 0.64946,-4.73829 0.35719,-2.60606 0.72401,-8.69542 0.81515,-13.53191 l 0.16571,-8.79363 0.63902,11.44302 c 0.35147,6.29367 -0.26723,11.76785 0.12977,12.16484 0.39699,0.39699 5.2123,0.10678 9.19606,-0.6449 l 7.24319,-1.36669 -0.67982,-4.67047 c -0.37391,-2.56877 -2.0516,-10.41517 -3.72822,-17.43644 -8.57464,-35.90855 -11.46456,-62.55434 -9.08266,-83.74468 l 0.74617,-6.6383 0.30695,10.21276 c 0.16881,5.61702 0.21191,12.97022 0.0958,16.34043 -0.51572,14.9651 4.24544,44.71942 12.19342,76.20142 1.66498,6.59495 2.77379,12.65128 2.46402,13.4585 -0.5641,1.47002 -4.69203,3.78689 -6.74704,3.78689 -0.60154,0 -2.664,1.37872 -4.58322,3.06383 -3.70979,3.25723 -6.32405,3.83481 -8.32057,1.8383 z m 14.23629,-6.28057 c 3.1405,-0.75311 4.6345,-3.52648 2.36819,-4.39615 -0.8469,-0.32498 -4.77878,0.24921 -8.73752,1.27598 -5.15367,1.33668 -6.17676,0.59785 -7.09714,1.30581 -0.92038,0.70795 -1.73114,4.70615 0.81316,6.14356 1.3284,0.75048 2.83601,0.40736 5.87234,-1.3365 2.24681,-1.29043 5.29824,-2.63713 6.78097,-2.9927 z m 331.36028,15.39555 c 0.70282,-2.57407 1.16144,-5.58847 0.62157,-7.98072 -0.10779,-0.47762 -0.26385,-0.9417 -0.43154,-1.40256 -0.16769,-0.46085 -0.34701,-0.91847 -0.5013,-1.38315 -0.92865,-2.79674 -2.10058,-3.55497 -3.16478,-7.72016 -4.22703,-16.54418 -6.50868,-34.07917 -7.56917,-51.87535 -1.06049,-17.79617 -0.8998,-35.85353 -0.24216,-53.44241 0.36934,-9.87817 3.13688,-19.57285 4.88823,-29.32762 0.78261,-4.35902 2.51092,-13.04673 2.51092,-13.04673 0,0 -5.37906,-0.69701 -7.70182,0.40476 -1.16128,0.55084 -2.59281,2.85397 -2.59281,2.85397 -1.71331,1.71331 -1.80936,3.68781 -3.89172,5.35491 -2.08236,1.6671 -5.10809,0.72095 -6.99533,-0.86705 -2.99733,-2.52209 -11.65683,-2.3931 -14.09928,-0.83923 -0.87947,0.55951 2.37996,6.56401 3.33665,9.91848 3.26361,11.44334 6.61456,24.66435 8.17779,34.7496 1.56323,10.08525 2.33389,20.70424 3.07417,31.16213 0.74029,10.45789 0.44911,8.1069 0.45451,20.48193 0.005,12.37504 -1.78186,33.38261 -2.64091,38.67577 -0.88785,5.47055 -2.13656,13.61075 -2.13656,14.68473 0,1.11445 1.35192,-0.10419 3.59081,1.31173 2.23888,1.41592 5.64279,3.44061 8.82552,3.80047 2.79189,0.31567 5.66331,-0.52542 8.29067,-1.52104 2.8708,-1.08787 7.88527,-4.75889 7.88527,-4.75889 l 0.5013,1.38315 c 0,0 -4.0406,2.18893 -6.11204,3.181 -1.48287,0.71018 -2.94432,1.50183 -4.51692,1.9816 -1.53608,0.46863 -3.13554,0.82068 -4.74111,0.85687 -0.68681,0.0155 -1.37171,-0.12673 -2.04255,-0.27479 -2.37821,-0.52488 -4.95621,-1.85065 -6.97845,-2.16413 -2.8066,-0.43505 -4.93504,-1.28629 -5.41974,-0.0232 -1.13803,2.96564 -1.10151,7.18142 2.53625,7.87911 l 6.82144,1.30828 c 0,0 3.31933,0.0231 4.94009,-0.28291 0.9191,-0.17354 1.73537,-0.95455 2.66707,-0.8721 0.18189,0.0161 0.40438,-0.56109 0.48268,0.25904 -0.65844,0.191 -2.99467,1.41447 -4.60784,1.67942 -2.32364,0.38164 -7.0623,-0.16905 -7.0623,-0.16905 0,0 -4.10461,-0.69336 -5.46631,-2.05506 -2.47312,-2.47312 -2.26291,-6.27851 1.29134,-23.37618 1.60172,-7.70507 2.17614,-27.72267 2.12552,-42.66027 -0.0352,-10.38151 -0.42423,-20.37148 -1.13989,-29.83781 -0.71565,-9.46633 -1.75789,-18.40904 -3.09944,-26.69602 -2.68311,-16.57397 -6.56345,-30.52507 -11.42273,-40.79661 -3.94917,-8.34773 -3.93698,-12.35864 0.0438,-14.41717 1.65722,-0.85697 4.72694,-1.55814 6.82162,-1.55814 2.09468,0 6.66132,-0.96362 10.14808,-2.14139 l 6.33956,-2.1414 4.84098,2.1414 c 2.66253,1.17777 5.87522,2.14139 7.13929,2.14139 4.05936,0 4.81807,2.10309 3.49651,9.69203 -0.66561,3.82227 -0.85867,5.27597 -1.33727,7.90531 -1.12392,6.17461 -2.85254,12.24924 -3.60263,18.48033 -2.32878,19.3454 -3.31933,44.46599 -2.75078,58.39042 0.88597,21.69846 5.60321,61.56525 10.34737,70.73946 0.82588,1.59708 1.30121,4.30484 1.50161,6.52897 0.189,2.09761 0.30279,4.29137 -0.2927,6.31154 -0.38384,1.30218 -1.06877,2.65426 -2.04821,3.5202 -0.48972,0.43296 -1.75538,0.21057 -2.94542,-0.17474 -0.59502,-0.19266 -2.20429,-0.976 -3.36289,-1.29148 -1.45738,-0.39683 -3.66203,-0.49028 -4.46975,-0.74439 -0.80771,-0.25412 1.12233,-0.54158 1.07553,-0.59626 0.23556,-0.1579 2.94611,0.31217 4.07823,0.66946 1.13212,0.35728 2.33975,0.77586 2.87736,0.86319 1.07522,0.17465 1.5985,0.27592 2.27867,-0.0628 0.96377,-0.8637 1.10125,-1.8038 1.37594,-2.80986 z m -20.2421,-157.69776 c 2.18096,-0.64341 3.19127,-3.47038 4.78312,-5.20905 1.17106,-1.27907 1.95133,-3.07715 3.50758,-3.84231 2.40483,-1.18238 5.94035,1.03366 8.01165,-0.66661 1.15559,-0.94859 1.23578,-0.5945 1.23578,-4.31158 0,-3.81444 -1.7413,-4.8382 -4.2938,-4.54081 -1.49978,0.17474 -4.49088,-1.10628 -6.85967,-2.31475 -4.46067,-2.27566 -6.09062,-1.70892 -12.96856,0.93483 -2.24681,0.86364 -6.15556,1.15517 -8.57972,1.17982 -2.42416,0.0246 -5.03535,1.56517 -6.12183,2.14663 -2.57564,1.37845 -2.55159,5.64486 0.056,9.92152 1.94169,3.1846 2.287,3.31915 8.51874,3.31915 5.19801,0 5.57418,0.72243 8.25646,1.52025 1.54258,0.45883 2.98896,2.29519 4.45425,1.86291 z m -285.2183,138.88151 c -2.80851,-0.84703 -5.70785,-1.83713 -6.44299,-2.20023 -1.03682,-0.51211 -1.40487,-6.50113 -1.64096,-26.70273 -0.1674,-14.3234 -0.84517,-32.24681 -1.50615,-39.82979 -0.66098,-7.58298 -1.92228,-22.28936 -2.80289,-32.68085 -1.34071,-15.82092 -5.56052,-40.98907 -9.18697,-54.79366 -0.39281,-1.49533 0.18911,-2.94028 1.82044,-4.5202 1.3188,-1.27726 3.55242,-4.64508 4.96361,-7.48405 3.03778,-6.11127 6.24516,-5.90629 9.99434,-5.38836 1.35988,0.18786 2.40829,1.60675 2.95943,2.86405 3.78542,8.63563 0.69212,28.27813 0.69212,28.27813 0.38067,15.55298 0.89843,33.33345 1.15056,39.51218 0.25214,6.17872 0.7307,18.58723 1.06347,27.57447 0.33277,8.98723 0.81409,19.32765 1.06961,22.97872 1.54721,22.10809 2.63658,34.06415 3.69882,40.59574 0,0 0.93205,4.9186 1.20416,7.40426 0.12442,1.13653 0.92306,2.54295 0.19491,3.42441 -1.54889,1.87498 -0.4299,3.01922 -7.23151,0.96791 z m 5.11085,-1.3357 c 0.34959,-0.56568 -0.0802,-1.30319 -0.95514,-1.63894 -0.87494,-0.33573 -1.36733,-0.97201 -1.09421,-1.41392 0.27312,-0.44192 -0.99334,-1.01309 -2.81437,-1.26928 -1.82103,-0.25617 -4.15566,-0.83029 -5.18806,-1.2758 -1.55385,-0.67051 -1.81766,-0.40351 -1.53192,1.55046 0.25401,1.73698 1.14019,2.46569 3.35498,2.75883 1.65538,0.21911 3.72347,0.81611 4.59574,1.32669 2.07939,1.21716 2.86228,1.20896 3.63298,-0.0381 z m -0.88851,-7.46918 c -0.56029,-2.23237 -1.38789,-12.16569 -3.71658,-44.60872 -1.31442,-18.31217 -3.05895,-71.2708 -3.05895,-92.86015 0,-9.49887 -0.27895,-17.99762 -0.6199,-18.88611 -1.17516,-3.0624 -4.2308,-1.76598 -6.42278,2.72498 -1.16518,2.38724 -3.64492,5.37279 -5.51054,6.63455 l -3.39201,2.29413 1.83519,8.93992 c 5.07108,24.703 8.73101,65.05309 9.8583,108.68601 0.3725,14.4178 0.99863,26.53491 1.3914,26.92691 0.71379,0.71237 6.22448,2.2166 8.8434,2.41395 0.95433,0.0719 1.20166,-0.63514 0.79247,-2.26547 z M 169.61254,256.76596 c -0.10782,-1.18585 0.8133,-1.25763 1.13931,-0.44292 0.29502,0.73723 0.43284,9.10439 0.0935,9.44376 -0.33937,0.33936 -0.96113,-6.01266 -1.05869,-7.08574 z m -2.04256,-12.342 c -0.0443,-0.65619 -0.34512,-2.03492 -0.66838,-3.06383 -0.55869,-1.77827 -0.52987,-1.7805 0.58292,-0.045 0.64387,1.00414 3.20794,13.00297 2.93168,13.68394 -0.36253,0.89361 -2.78802,-9.71396 -2.84622,-10.57511 z m -0.64541,-7.43127 c 1.48743,-1.55254 3.05754,-4.15357 3.48915,-5.78008 0.62906,-2.37065 1.42982,-3.02077 4.03657,-3.27732 3.52891,-0.34729 2.77112,-1.53979 2.76006,-2.86607 -0.009,-1.08974 -1.3427,-1.80864 -2.30677,-2.31676 -0.58523,-0.30844 -0.96682,-0.17062 -1.95165,-0.36028 -2.30312,-0.44354 -5.46258,2.03441 -5.46258,4.55665 0,2.8636 -1.91994,6.06452 -5.42238,9.04013 -3.23427,2.74778 -3.1128,5.20361 0.21434,4.33354 1.06637,-0.27886 3.15584,-1.77728 4.64326,-3.32981 z m -27.7145,127.09242 c 0.006,-3.37021 0.1964,-4.53876 0.42369,-2.70317 0.2273,1.83559 0.74491,9.99015 0.5119,11.52477 -0.23303,1.53462 -0.9413,-5.45136 -0.93557,-8.8216 z m -1.0317,-11.74468 c -0.49243,-3.95111 -0.67467,-10.60255 -0.44025,-9.05787 0.23401,1.54468 2.05769,16.67636 1.82368,18.22104 -0.23399,1.54468 -1.00095,-6.09753 -1.383,-9.16317 z m -2.16012,-21.19149 c -0.65986,-6.6 -1.65873,-18.43404 -2.21972,-26.29787 -0.56097,-7.86383 -1.29574,-17.23159 -1.6328,-20.81723 0,0 -0.60227,-4.33667 -0.61284,-6.51934 -0.004,-0.84333 0.2198,-1.67778 0.21239,-2.52109 -0.038,-4.3255 -1.31636,-12.91007 -1.31636,-12.91007 -0.60552,-7.23595 -0.72451,-9.82029 -1.30571,-14.70771 -0.21403,-1.79985 -1.43796,-3.68041 -0.80279,-5.378 1.10331,-2.94878 1.3244,-5.22107 7.18412,-6.13204 6.25973,-0.97316 8.93129,0.92977 8.14114,5.79886 -0.2874,1.77104 0.10965,4.9934 0.88233,7.16079 0.77269,2.16739 2.92937,5.54923 2.87754,7.51519 -0.0677,2.56937 -1.07822,9.29825 -1.36829,7.46298 -1.52765,-2.36025 1.17254,-4.96158 0.74432,-7.40517 -0.53882,-3.0747 -3.98502,-7.3245 -4.04918,-8.44402 -0.12831,-2.23905 -0.9601,-4.26923 -0.4277,-6.18451 0.8187,-3.13067 -2.99129,-4.9797 -5.4035,-4.83354 -1.65232,0.10012 -4.82345,0.6094 -6.35068,2.25708 -1.02114,1.10168 -1.19934,2.84629 -1.18309,4.34833 0.0161,1.48643 1.00165,2.36299 1.26359,4.27677 0.26195,1.91379 0.70461,6.16509 0.87058,8.08397 0.40253,4.65382 0.66029,9.3191 1.02127,13.97633 0.2176,2.80739 0.46555,5.61236 0.68998,8.41922 0.70759,8.84968 1.22726,13.63405 2.07013,26.5532 0.84287,12.91914 1.82917,26.82127 2.19179,30.89361 0.36261,4.07234 0.44868,7.40426 0.19125,7.40426 -0.25741,0 -1.00792,-5.4 -1.66777,-12 z m 10.30517,-64.64328 c 0.0113,-2.24681 0.22048,-3.0457 0.46476,-1.77532 0.24428,1.27037 -0.6355,15.12158 -0.8911,16.09801 -0.25562,0.97643 -0.85761,-2.33906 -0.61825,-4.57308 z m -21.49757,-46.31674 c 0.0831,-1.41834 1.02415,-2.79771 2.12661,-3.69392 0.67075,-0.54526 1.77868,-0.37204 2.46428,-0.80764 1.3119,-0.83355 4.37049,-8.60964 4.37049,-11.11144 l 0.51064,-2.87379 0.65819,-7.14894 c 0.6433,-6.98718 -1.12536,-44.0008 -3.17205,-66.38298 -3.087,-33.758906 -4.26179,-54.387276 -10.32813,-80.880826 -0.3438,-1.501473 -1.22187,-2.861154 -1.46755,-4.381765 -0.22029,-1.36343 -0.23,-2.78351 0.0117,-4.143314 0.20193,-1.136252 0.55173,-2.287897 1.18372,-3.253521 1.33775,-2.043959 3.41785,-4.10837 5.30846,-5.052361 1.88558,-0.941485 4.41324,-2.607458 5.61702,-3.702165 5.31022,-4.82909 11.83902,-3.821424 17.50782,-2.24562 2.5315,0.703702 5.08346,2.505792 6.17926,4.893867 1.59926,3.48525 1.67658,7.681462 -0.46647,11.494513 0,0 -1.56688,2.570844 -2.2085,3.929492 -0.40143,0.85005 -0.767,1.723826 -1.02079,2.628989 -1.63662,5.837007 -2.78216,11.855892 -3.19093,17.904204 -2.64207,39.093347 -0.61705,79.780207 4.86606,117.446807 2.54112,17.45638 6.55867,20.7617 11.07264,30.6383 0.46155,1.00987 1.59345,1.79637 1.62784,2.90618 0.0482,1.55562 -2.20226,4.00007 -3.31779,5.99209 -0.52492,0.93736 -0.8406,2.03299 -1.58828,2.80446 -1.26287,1.30306 -3.10938,1.87186 -4.65058,2.82972 -1.4047,0.87303 -2.5947,2.21937 -4.18914,2.65883 -2.33856,0.64456 -4.8613,-0.44781 -7.27449,-0.2012 -1.69269,0.17298 -3.27006,1.06891 -4.96853,1.17032 -2.2979,0.1372 -4.69491,0.002 -6.86267,-0.77227 -1.03246,-0.36892 -1.8311,-1.20683 -2.76151,-1.78684 -0.99377,-0.61949 -2.24204,-0.92581 -3.01222,-1.80794 -1.6821,-1.9266 -3.17476,-4.49804 -3.0251,-7.05124 z m 8.79867,-0.16355 c -3.41092,-2.99484 -3.69433,-2.75627 -5.70355,-2.33069 -1.02646,0.21741 -1.98735,1.23855 -2.18082,2.26979 -0.44996,2.39837 1.14821,4.97483 2.81367,6.75833 0.67581,0.72372 1.86299,0.93953 2.76283,1.46606 0.89404,0.52315 1.64156,1.32428 2.61458,1.67954 2.06993,0.75574 4.35495,0.96307 6.55569,0.85132 1.69606,-0.0861 3.26718,-1.02729 4.95987,-1.16447 2.05029,-0.16618 4.14867,0.87215 6.1564,0.42461 1.75174,-0.39048 3.15308,-1.71625 4.70555,-2.61674 1.56704,-0.90894 3.34583,-1.55512 4.65099,-2.81143 1.15332,-1.11016 1.24354,-2.52913 2.63922,-4.0122 3.3877,-3.59975 1.50399,-5.73565 -2.78222,-2.57339 -0.93903,0.69279 -3.9054,2.01334 -5.98272,2.70027 -2.73878,0.90567 -5.58189,1.5881 -8.45514,1.84421 -2.93558,0.26166 -6.91488,0.21711 -8.83563,-0.32665 -1.92076,-0.54376 -2.96399,-1.32029 -3.91872,-2.15856 z m 28.84684,-6.66625 c -3.67933,-1.4119 -8.20295,-12.48871 -10.26601,-32.08253 -0.65057,-6.17873 -1.60912,-14.45107 -2.13011,-18.38298 -2.90696,-21.93879 -3.49224,-33.12016 -3.50151,-66.89362 -0.008,-31.547227 0.2279,-37.183675 1.82169,-43.404255 l 1.83164,-7.148937 c 5.01559,-19.575985 9.85671,1.867595 1.17718,-9.111073 -1.76731,-2.099301 -1.76306,-2.10259 0.38084,-0.294908 2.09107,1.763119 2.18644,1.757859 2.68486,-0.148045 0.28422,-1.086859 -0.16139,-3.701361 -1.063,-5.237953 -1.4928,-2.544149 -3.49663,-4.00522 -6.71233,-5.766714 -3.54369,-1.919917 -8.80576,-1.174396 -11.31999,1.603793 -1.66803,1.843159 -1.6527,1.99704 0.30329,3.043855 1.13308,0.606406 3.26212,1.102555 4.73119,1.102555 2.55661,0 8.69728,2.560769 8.69728,3.626921 0,0.280851 -1.26383,-0.127213 -2.80851,-0.90681 -3.12214,-1.575732 -10.4059,-2.959569 -14.98727,-2.847416 -1.91436,0.04687 -4.65567,1.690759 -6.38298,3.364387 -1.8135,1.757144 -3.92203,4.067973 -3.742,6.586688 0.19594,2.741308 1.19008,6.516656 5.05091,6.516656 2.63661,0 6.52713,-3.22923 6.60121,-5.479159 0.0394,-1.199228 0.50848,-3.099565 1.04223,-4.222969 0.90348,-1.901586 0.9403,-1.883713 0.53352,0.258987 -0.32197,1.695892 1.27247,4.189838 2.86293,5.518191 2.19624,1.834301 4.78964,2.964222 8.20241,2.53253 2.66658,-0.337303 3.53122,-0.193188 2.55319,0.42556 -2.44127,1.544461 -7.40225,1.083764 -10.8288,-1.005605 l -3.22231,-1.96483 -3.08505,3.390251 c -1.69679,1.864639 -3.56061,3.554785 -4.14184,3.755882 -1.05211,0.36402 -0.38331,9.702395 3.42727,47.854992 3.56585,35.702106 4.60697,48.594016 5.7321,70.978726 0.78853,15.68799 0.96327,19.23675 0.18512,28.80805 -0.34604,4.25627 -1.78744,8.37429 -2.15058,12.62914 -0.22028,2.58104 -2.40089,5.19973 -0.0125,7.77126 0.66138,0.71209 1.9186,2.18279 4.4364,2.83758 2.51781,0.6548 6.2962,0.49368 8.5179,0.37955 2.36459,-0.12148 5.16468,-0.93281 7.64407,-1.91047 2.4794,-0.97766 4.6381,-2.12164 5.7199,-2.90842 2.16361,-1.57356 3.77526,-2.67115 2.21766,-3.26886 z m -12.32807,2.58982 c 0.0232,-0.53318 0.38712,-1.55555 0.84115,-2.27094 0.62238,-0.98067 1.30961,-0.73371 2.79287,1.00367 1.12073,1.31272 2.14618,2.99177 1.23059,2.28841 -1.23205,-0.94645 -2.75823,-2.17295 -3.67901,-1.2522 -0.66069,0.66069 -1.38288,4.76851 -1.3597,4.23533 z m 291.10558,-9.30715 -2.01517,5.8572 3.41499,1.62849 c 3.20345,1.52763 3.81408,1.49372 9.85805,-0.54736 3.54369,-1.19672 6.25011,-2.28997 9.51148,-2.29362 2.98491,-0.003 6.45132,1.95423 8.70989,2.07968 0.79833,0.0443 2.29194,-0.67996 3.31915,-1.60957 2.55039,-2.30807 2.634,-3.62931 -1.33892,-8.55754 0,0 -2.59591,-2.93449 -3.67677,-4.56087 -1.72672,-2.59823 -4.44277,-8.23732 -4.44277,-8.23732 -3.42255,-6.98109 -4.75019,-11.99156 -9.58885,-36.18811 -8.71638,-43.58774 -11.80736,-65.728125 -11.97664,-85.787238 -0.0822,-9.746663 0.27536,-12.711992 2.10204,-17.430698 2.41143,-6.229215 13.82808,-20.154026 16.6279,-20.280928 1.71048,-0.07753 2.88895,-2.896323 2.91368,-6.969225 0.0102,-1.671593 -0.61234,-2.330161 -0.35417,-3.01862 0.25818,-0.688459 -0.28371,-2.871911 -3.91582,-5.928128 -4.24033,-3.568003 -9.26047,-2.994514 -13.33309,1.523136 -2.69828,2.993142 -3.86007,8.189569 -1.83097,8.189569 2.66602,0 -9.26922,9.654195 -14.50946,11.736438 -3.22978,1.28338 -5.87234,2.192417 -5.87234,2.020083 0,-0.172335 1.72341,-1.349775 3.82979,-2.616534 2.10638,-1.26676 3.97654,-2.408436 4.15589,-2.537059 0.69607,-0.499171 -0.42252,-6.856657 -1.78312,-8.30644 -1.26421,-1.347092 -3.33559,-2.639453 -6.40145,0.952795 -4.12885,4.837735 -4.60107,4.598627 -5.28834,5.274111 -0.68727,0.675484 -2.96634,6.173089 -0.68714,9.776423 0.80398,1.27105 1.27316,1.195632 3.17669,-0.510638 1.928,-1.728196 1.8667,-1.458766 -0.44829,1.970359 -1.47492,2.184767 -2.90467,1.389323 -3.17411,3.47185 -0.8444,6.526512 1.02772,12.838709 3.49482,19.119092 2.4671,6.280383 10.94592,34.934502 12.48146,41.333762 5.59487,23.3162 5.86367,24.76883 8.89436,50.06044 1.11972,9.34417 2.47567,17.5008 2.11175,26.28224 -0.33717,8.13571 -2.85617,20.88276 -3.96452,24.10423 z m 1.45921,-36.59924 c -3.38376,-34.69225 -9.24585,-62.91196 -20.83576,-100.301443 -4.40143,-14.199145 -5.14946,-17.834792 -5.25326,-25.531915 -0.0666,-4.936332 -0.58819,-7.32687 0.56973,-10.708771 1.05471,-3.080449 3.38735,-5.607874 5.56856,-8.025295 2.50144,-2.772335 8.09699,-7.777679 9.7728,-0.207608 0.66227,2.991624 1.55781,6.777872 1.83964,7.059701 0.28183,0.281829 2.39159,-1.185297 4.68834,-3.260282 2.70932,-2.447701 4.17593,-4.645471 4.17593,-6.257768 0,-3.77822 2.7905,-8.374498 6.43256,-10.595195 5.93358,-3.6179124 12.33037,0.69585 14.91707,4.171875 0.96331,1.294501 1.44092,2.932814 1.734,4.519572 0.28701,1.553872 0.41975,3.218466 -0.005,4.740463 -0.77498,2.776952 -1.63061,5.008126 -4.47095,7.403996 -8.15961,6.882729 -13.29408,12.806483 -15.02216,17.331393 l -1.80463,4.72533 3.3025,3.084996 c 2.47322,2.310324 2.46496,2.277358 2.52507,3.795828 0.0759,1.916827 0.068,1.84294 -2.79874,5.028608 l -3.78631,4.207523 0.84064,14.604554 c 0.17702,3.075496 0.85007,3.189134 1.20076,4.801082 6.34711,29.174666 7.65305,59.501906 16.33185,88.069806 1.72632,5.68249 4.77371,10.87733 7.04489,16.36483 0.25648,0.61968 0.43059,1.27634 0.74315,1.86971 1.17814,2.23658 4.22766,6.296 4.22766,6.296 7.30745,10.88256 8.1099,18.09687 2.50679,22.53702 -2.3652,1.87429 -3.62525,2.10765 -8.61243,1.59501 -4.30421,-0.44243 -7.53,-0.0713 -12.25532,1.41006 -8.74195,2.74049 -12.15098,2.61669 -15.12528,-0.54931 h 3.3e-4 c -3.26494,-3.47536 -3.98806,-13.24598 -1.51374,-20.45321 0.95273,-2.77514 2.42277,-7.71733 3.15992,-11.684 0.60086,-3.23331 1.01782,-9.81336 1.01782,-9.81336 -0.42533,-6.8763 -0.65079,-11.45473 -1.11643,-16.2292 z m 15.84513,56.69953 c 2.52766,-0.70203 6.82255,-1.2305 9.5442,-1.17437 4.87881,0.10059 8.63218,-1.13976 10.09974,-3.33761 1.15157,-1.72464 0.92038,-9.59824 -0.30404,-10.35497 -0.59709,-0.36903 -1.86092,-0.006 -2.80851,0.80576 -2.75251,2.35925 -4.88859,2.75669 -8.88518,1.65318 -3.17478,-0.8766 -3.95862,-0.75154 -4.57654,-1.09316 -0.61792,-0.34161 -4.00502,-0.39539 -10.58816,1.84771 -2.65019,0.90302 -6.17886,1.44218 -7.8415,1.19816 -2.84294,-0.41725 -3.02299,-0.23732 -3.02299,3.02105 0,4.43105 1.40755,7.01762 4.78051,8.78488 2.72802,1.42936 4.07453,1.29567 13.60247,-1.35064 z M 449.1547,62.351159 c -0.44779,-3.843629 -4.27386,-3.60994 -4.72024,0.288303 -0.18232,1.59213 -0.0578,3.607877 0.27661,4.479441 0.99617,2.595973 4.82315,-1.510142 4.44363,-4.767744 z m 1.61061,-34.997436 c -0.92047,-0.594852 -5.92123,-2.911343 -5.1904,-2.920739 0.66898,-0.0086 14.38377,5.49284 14.73092,6.054542 0.78363,1.267941 -7.57853,-1.865862 -9.54052,-3.133803 z"
       id="path678"
       sodipodi:nodetypes="caaasaassssssscssssssaasscsscsssscssssssssssaasscssscssscscssssssssscssssssssssacascssassssssaaccaaaassscaacasssssssssscsssaassaassascsscassaassssssscassssssssaasssssaassssssssssssssssscssssssssssssssssssaasssssssssssscssscaasaassssscsacsaassassssscasscasscssaaaassaasaaasaasaaaaaaaaaassssaaaaaaassaassssscsscssacssssssaassssascssssscaasssssssssssssssssasssasssssscssssssssscssssssssssssasssssssaacsscasssssaasssssscacssssssscssssssssssssssss" />
    <ellipse
       style="fill:#62a0ea;fill-rule:evenodd;stroke:none;stroke-width:0.176074;stroke-linecap:square;stroke-linejoin:round;stroke-miterlimit:4;stroke-dasharray:none"
       id="path68965"
       cx="127.13314"
       cy="39.571953"
       rx="3.3079035"
       ry="3.0467532" />
    <ellipse
       style="fill:#62a0ea;fill-rule:evenodd;stroke:none;stroke-width:0.196131;stroke-linecap:square;stroke-linejoin:round;stroke-miterlimit:4;stroke-dasharray:none"
       id="path68965-4"
       cx="142.30414"
       cy="38.919075"
       rx="3.6368523"
       ry="3.4384785" />
    <ellipse
       style="fill:#62a0ea;fill-rule:evenodd;stroke:none;stroke-width:0.170656;stroke-linecap:square;stroke-linejoin:round;stroke-miterlimit:4;stroke-dasharray:none"
       id="path68965-4-7"
       cx="143.65587"
       cy="-35.868355"
       rx="7.7581849"
       ry="1.2203368"
       transform="matrix(0.90425319,0.42699669,-0.44218897,0.89692191,0,0)" />
    <path
       d="m 137.9301,217.76826 c 0.0232,-0.53318 0.82237,-4.4282 1.2764,-5.14359 0.62238,-0.98067 1.83191,-0.38551 3.31517,1.35187 1.12073,1.31272 2.58144,4.29751 1.66584,3.59416 -1.23205,-0.94645 -2.15612,-4.06287 -3.85311,-3.60255 -2.12282,0.57583 -1.77387,6.84715 -1.882,6.32453 z"
       style="fill:#000000;stroke-width:1.02128"
       id="path70811"
       sodipodi:nodetypes="csssasc" />
    <ellipse
       style="fill:#62a0ea;fill-rule:evenodd;stroke:none;stroke-width:0.1;stroke-linecap:square;stroke-linejoin:round;stroke-miterlimit:4;stroke-dasharray:none"
       id="path77715"
       cx="129.17709"
       cy="221.54376"
       rx="2.339041"
       ry="2.4005945" />
    <ellipse
       style="fill:#62a0ea;fill-rule:evenodd;stroke:none;stroke-width:0.1;stroke-linecap:square;stroke-linejoin:round;stroke-miterlimit:4;stroke-dasharray:none"
       id="path77819"
       cx="137.97928"
       cy="227.39137"
       rx="3.1392391"
       ry="1.6003964" />
    <ellipse
       style="fill:#62a0ea;fill-rule:evenodd;stroke:none;stroke-width:0.1;stroke-linecap:square;stroke-linejoin:round;stroke-miterlimit:4;stroke-dasharray:none"
       id="path77821"
       cx="112.71898"
       cy="248.20569"
       rx="4.1240983"
       ry="1.3541815"
       transform="rotate(-9.374793)" />
    <ellipse
       style="fill:#62a0ea;fill-rule:evenodd;stroke:none;stroke-width:0.0605095;stroke-linecap:square;stroke-linejoin:round;stroke-miterlimit:4;stroke-dasharray:none"
       id="path77821-5"
       cx="-4.7738905"
       cy="273.10883"
       rx="2.7415802"
       ry="0.74585068"
       transform="matrix(0.83081411,-0.55655001,0.60876551,0.79335021,0,0)" />
    <path
       style="color:#000000;fill:#000000;-inkscape-stroke:none"
       d="m 141.03516,243.51758 c 0,0 -4.75778,1.1795 -7.1875,1.21875 -0.88563,0.0143 -2.63282,-0.35938 -2.63282,-0.35938 l -0.13476,0.99024 c 0,0 1.84694,0.39582 2.7832,0.38086 2.48055,-0.0396 7.33789,-1.24414 7.33789,-1.24414 z"
       id="path79117"
       sodipodi:nodetypes="caccacc" />
    <ellipse
       style="fill:#62a0ea;fill-rule:evenodd;stroke:none;stroke-width:0.139792;stroke-linecap:square;stroke-linejoin:round;stroke-miterlimit:4;stroke-dasharray:none"
       id="path79360"
       cx="118.26857"
       cy="257.17471"
       rx="4.0201268"
       ry="0.99454856"
       transform="matrix(0.99112633,-0.13292326,0.07402239,0.99725658,0,0)" />
    <ellipse
       style="fill:#62a0ea;fill-rule:evenodd;stroke:none;stroke-width:0.1;stroke-linecap:square;stroke-linejoin:round;stroke-miterlimit:4;stroke-dasharray:none"
       id="path79464"
       cx="172.75711"
       cy="224.99077"
       rx="2.5852556"
       ry="0.92330563" />
    <ellipse
       style="fill:#62a0ea;fill-rule:evenodd;stroke:none;stroke-width:0.0997073;stroke-linecap:square;stroke-linejoin:round;stroke-miterlimit:4;stroke-dasharray:none"
       id="path79663"
       cx="74.582687"
       cy="420.9805"
       rx="6.525497"
       ry="0.91202313"
       transform="matrix(0.97559116,-0.21959483,0.1786039,0.98392106,0,0)" />
    <ellipse
       style="fill:#62a0ea;fill-rule:evenodd;stroke:none;stroke-width:0.0681227;stroke-linecap:square;stroke-linejoin:round;stroke-miterlimit:4;stroke-dasharray:none"
       id="path79663-5"
       cx="301.9957"
       cy="341.31421"
       rx="4.1076217"
       ry="0.6763311"
       transform="matrix(0.97323484,0.22981286,-0.33747476,0.94133458,0,0)" />
    <ellipse
       style="fill:#62a0ea;fill-rule:evenodd;stroke:none;stroke-width:0.1;stroke-linecap:square;stroke-linejoin:round;stroke-miterlimit:4;stroke-dasharray:none"
       id="path80589"
       cx="377.33365"
       cy="200.77623"
       rx="4.3525043"
       ry="1.4798515"
       transform="rotate(-23.4428)" />
    <ellipse
       style="fill:#62a0ea;fill-rule:evenodd;stroke:none;stroke-width:0.1;stroke-linecap:square;stroke-linejoin:round;stroke-miterlimit:4;stroke-dasharray:none"
       id="path80693"
       cx="455.39899"
       cy="21.291433"
       rx="4.6136546"
       ry="4.3525043" />
    <ellipse
       style="fill:#62a0ea;fill-rule:evenodd;stroke:none;stroke-width:0.1;stroke-linecap:square;stroke-linejoin:round;stroke-miterlimit:4;stroke-dasharray:none"
       id="path80968"
       cx="447.18442"
       cy="63.757915"
       rx="1.2738702"
       ry="1.7549603" />
    <ellipse
       style="fill:#62a0ea;fill-rule:evenodd;stroke:none;stroke-width:0.1;stroke-linecap:square;stroke-linejoin:round;stroke-miterlimit:4;stroke-dasharray:none"
       id="path84093"
       cx="429.23105"
       cy="273.09012"
       rx="8.0956583"
       ry="2.872653"
       transform="rotate(-6.7964306)" />
    <ellipse
       style="fill:#62a0ea;fill-rule:evenodd;stroke:none;stroke-width:0.1;stroke-linecap:square;stroke-linejoin:round;stroke-miterlimit:4;stroke-dasharray:none"
       id="path84093-7"
       cx="430.06564"
       cy="296.24579"
       rx="8.0956583"
       ry="2.872653"
       transform="rotate(-6.7964306)" />
    <ellipse
       style="fill:#62a0ea;fill-rule:evenodd;stroke:none;stroke-width:0.1;stroke-linecap:square;stroke-linejoin:round;stroke-miterlimit:4;stroke-dasharray:none"
       id="path84321"
       cx="464.17947"
       cy="252.70654"
       rx="2.251693"
       ry="2.4733717" />
    <ellipse
       style="fill:#62a0ea;fill-rule:evenodd;stroke:none;stroke-width:0.0840802;stroke-linecap:square;stroke-linejoin:round;stroke-miterlimit:4;stroke-dasharray:none"
       id="path84425"
       cx="434.32214"
       cy="251.18083"
       rx="3.3841925"
       ry="1.4699813" />
    <path
       style="color:#000000;fill:#000000;-inkscape-stroke:none"
       d="m 501.16797,217.53516 c -2.28693,0.49372 -4.23852,2.18198 -5.52735,4.0332 -0.56,0.80436 -0.77958,1.79562 -0.78515,2.7207 -0.005,0.76845 0.23119,1.51555 0.58398,2.15821 0.90524,1.64905 2.44249,2.70666 3.55078,3.92578 1.11038,1.2214 2.02608,2.83713 3.56641,3.90625 0.85339,0.59232 1.9296,1.46607 2.87025,1.68497 0.73887,0.17194 1.60261,0.38765 2.49219,0.17383 1.32428,-0.31832 2.36361,-1.72124 3.27819,-2.6088 2.48474,-2.41137 4.59742,-5.41093 5.69921,-8.73047 0.31773,-0.95728 1.04159,-2.3032 0.79295,-3.32365 -0.17859,-0.73294 -0.53753,-1.53466 -1.24219,-2.03125 -1.4153,-0.99739 -3.8067,-0.50508 -5.17966,-0.69588 -2.25144,-0.31289 -4.48577,-0.21486 -6.61328,-0.52149 -0.46836,-0.0675 -0.99691,-0.28432 -1.57227,-0.47656 -0.57535,-0.19224 -1.22075,-0.36452 -1.91406,-0.21484 z m 0.21289,0.97851 c 0.40811,-0.0881 0.86034,0.008 1.38476,0.1836 0.52443,0.17522 1.09917,0.42629 1.7461,0.51953 2.25148,0.32449 4.48649,0.22537 6.61719,0.52148 1.55799,0.21652 3.12927,0.0779 4.13281,0.78516 0.40176,0.28312 0.70581,0.86707 0.84765,1.44922 0.19185,0.78734 0.1063,1.70108 -0.1621,2.50976 -1.03798,3.12726 -3.05551,6.01085 -5.44532,8.33008 -0.84248,0.8176 -1.846,1.5332 -2.90234,1.78711 -0.58183,0.13985 -1.29813,-0.003 -2.0332,-0.17383 -0.88566,-0.2061 -1.75243,-0.4919 -2.43946,-0.96875 -1.29463,-0.89858 -2.18747,-2.4238 -3.39843,-3.75586 -1.21305,-1.33434 -2.65676,-2.35835 -3.41211,-3.73437 -0.28403,-0.51741 -0.4643,-1.11698 -0.46094,-1.67188 0.005,-0.76485 1.32369,-2.11887 2.17237,-3.0248 0.98918,-1.05591 1.41927,-2.33897 3.35302,-2.75645 z"
       id="path84540"
       sodipodi:nodetypes="sscsssssssssssssscssssssscssscas" />
    <ellipse
       style="fill:#62a0ea;fill-rule:evenodd;stroke:none;stroke-width:0.139394;stroke-linecap:square;stroke-linejoin:round;stroke-miterlimit:4;stroke-dasharray:none"
       id="path85239"
       cx="506.83771"
       cy="226.12029"
       rx="4.1863179"
       ry="4.0043039" />
    <ellipse
       style="fill:#62a0ea;fill-rule:evenodd;stroke:none;stroke-width:0.1;stroke-linecap:square;stroke-linejoin:round;stroke-miterlimit:4;stroke-dasharray:none"
       id="path87441"
       cx="442.82025"
       cy="414.30753"
       rx="2.0456769"
       ry="2.0892022" />
    <ellipse
       style="fill:#62a0ea;fill-rule:evenodd;stroke:none;stroke-width:0.1;stroke-linecap:square;stroke-linejoin:round;stroke-miterlimit:4;stroke-dasharray:none"
       id="path92808"
       cx="471.54678"
       cy="413.48053"
       rx="6.5722818"
       ry="1.3492763" />
    <path
       style="fill:none;stroke:#000000;stroke-width:1px;stroke-linecap:butt;stroke-linejoin:miter;stroke-opacity:1"
       d="M 117.03533,42.879856 H 63.412473"
       id="path17802" />
    <path
       style="fill:none;stroke:#000000;stroke-width:1px;stroke-linecap:butt;stroke-linejoin:miter;stroke-opacity:1"
       d="m 148.26808,40.896887 25.76682,20.89202"
       id="path18062" />
    <path
       style="fill:none;stroke:#000000;stroke-width:1;stroke-linecap:butt;stroke-linejoin:miter;stroke-miterlimit:4;stroke-dasharray:none;stroke-opacity:1"
       d="m 147.13643,28.361675 h 31.07688"
       id="path27636" />
    <path
       style="fill:none;stroke:#000000;stroke-width:1;stroke-linecap:butt;stroke-linejoin:miter;stroke-miterlimit:4;stroke-dasharray:none;stroke-opacity:1"
       d="M 149.13347,224.60121 91.849481,163.74122"
       id="path32005" />
    <path
       style="fill:none;stroke:#000000;stroke-width:1;stroke-linecap:butt;stroke-linejoin:miter;stroke-miterlimit:4;stroke-dasharray:none;stroke-opacity:1"
       d="M 127.18175,219.36672 83.207191,185.54209"
       id="path32007" />
    <path
       style="fill:none;stroke:#000000;stroke-width:0.847667;stroke-linecap:butt;stroke-linejoin:miter;stroke-miterlimit:4;stroke-dasharray:none;stroke-opacity:1"
       d="M 136.08107,227.00998 H 43.633873"
       id="path32009" />
    <path
       style="fill:none;stroke:#000000;stroke-width:1px;stroke-linecap:butt;stroke-linejoin:miter;stroke-opacity:1"
       d="m 162.54429,219.17547 19.15102,-22.11072"
       id="path32011" />
    <path
       style="fill:none;stroke:#000000;stroke-width:1px;stroke-linecap:butt;stroke-linejoin:miter;stroke-opacity:1"
       d="m 173.5126,225.09488 h 16.19132"
       id="path32126" />
    <path
       style="fill:none;stroke:#000000;stroke-width:1;stroke-linecap:butt;stroke-linejoin:miter;stroke-miterlimit:4;stroke-dasharray:none;stroke-opacity:1"
       d="M 135.0761,240.97842 34.889231,294.86861"
       id="path32128" />
    <ellipse
       style="fill:#62a0ea;fill-rule:evenodd;stroke-width:0.1;stroke-linecap:square;stroke-linejoin:round"
       id="path32152"
       cx="144.82832"
       cy="256.98657"
       rx="0.52230054"
       ry="2.0892022" />
    <path
       style="fill:none;stroke:#000000;stroke-width:1;stroke-linecap:butt;stroke-linejoin:miter;stroke-miterlimit:4;stroke-dasharray:none;stroke-opacity:1"
       d="M 143.76368,258.11876 86.350818,338.44893"
       id="path32404" />
    <path
       style="fill:none;stroke:#000000;stroke-width:1px;stroke-linecap:butt;stroke-linejoin:miter;stroke-opacity:1"
       d="M 146.67774,398.08234 H 121.31761"
       id="path32406" />
    <path
       style="fill:none;stroke:#000000;stroke-width:1px;stroke-linecap:butt;stroke-linejoin:miter;stroke-opacity:1"
       d="m 180.16295,390.94211 h 16.6195"
       id="path32408" />
    <path
       style="fill:none;stroke:#000000;stroke-width:1px;stroke-linecap:butt;stroke-linejoin:miter;stroke-opacity:1"
       d="m 456.10851,22.336036 h 26.81143"
       id="path161821" />
    <path
       style="fill:none;stroke:#000000;stroke-width:1px;stroke-linecap:butt;stroke-linejoin:miter;stroke-opacity:1"
       d="M 425.46688,32.085645 H 394.47705"
       id="path161823" />
    <path
       style="fill:none;stroke:#000000;stroke-width:1px;stroke-linecap:butt;stroke-linejoin:miter;stroke-opacity:1"
       d="m 449.1547,62.351159 h 21.57823"
       id="path161825" />
    <text
       xml:space="preserve"
       style="font-size:18.6667px;line-height:1.25;font-family:sans-serif;-inkscape-font-specification:'sans-serif, Normal'"
       x="-32.452003"
       y="417.54343"
       id="text179132"><tspan
         sodipodi:role="line"
         id="tspan179130"
         x="-32.452003"
         y="417.54343">A</tspan></text>
    <text
       xml:space="preserve"
       style="font-size:18.6667px;line-height:1.25;font-family:sans-serif;-inkscape-font-specification:'sans-serif, Normal'"
       x="583.1662"
       y="449.38226"
       id="text180954"><tspan
         sodipodi:role="line"
         id="tspan180952"
         x="583.1662"
         y="449.38226">B</tspan></text>
    <path
       style="fill:none;stroke:#000000;stroke-width:1px;stroke-linecap:butt;stroke-linejoin:miter;stroke-opacity:1"
       d="M 434.48467,250.92956 H 417.59695"
       id="path181462" />
    <path
       style="fill:none;stroke:#000000;stroke-width:0.765414px;stroke-linecap:butt;stroke-linejoin:miter;stroke-opacity:1"
       d="M 440.84148,413.95931 H 430.74367"
       id="path181464" />
    <path
       style="fill:none;stroke:#000000;stroke-width:1px;stroke-linecap:butt;stroke-linejoin:miter;stroke-opacity:1"
       d="m 478.25067,412.51067 h 26.5912"
       id="path191199" />
    <path
       style="fill:none;stroke:#000000;stroke-width:1px;stroke-linecap:butt;stroke-linejoin:miter;stroke-opacity:1"
       d="m 464.4299,252.84466 21.76252,61.28327"
       id="path198756" />
    <path
       style="fill:none;stroke:#000000;stroke-width:1px;stroke-linecap:butt;stroke-linejoin:miter;stroke-opacity:1"
       d="m 465.1263,243.09505 36.90924,21.58843"
       id="path204354" />
    <path
       style="fill:none;stroke:#000000;stroke-width:1px;stroke-linecap:butt;stroke-linejoin:miter;stroke-opacity:1"
       d="m 507.25854,226.38144 h 25.41863"
       id="path207022" />
    <path
       style="fill:none;stroke:#000000;stroke-width:1px;stroke-linecap:butt;stroke-linejoin:miter;stroke-opacity:1"
       d="m 459.16902,219.88181 22.40555,-48.75054"
       id="path214625" />
  </g>
</svg>
