<?xml version="1.0" encoding="UTF-8" standalone="no"?>
<!-- Created with Inkscape (http://www.inkscape.org/) -->

<svg
   version="1.1"
   id="svg9"
   width="347.27884"
   height="636.47009"
   viewBox="0 0 347.27884 636.47009"
   sodipodi:docname="Figure_2_1.svg"
   inkscape:version="1.1 (c68e22c387, 2021-05-23)"
   xmlns:inkscape="http://www.inkscape.org/namespaces/inkscape"
   xmlns:sodipodi="http://sodipodi.sourceforge.net/DTD/sodipodi-0.dtd"
   xmlns:xlink="http://www.w3.org/1999/xlink"
   xmlns="http://www.w3.org/2000/svg"
   xmlns:svg="http://www.w3.org/2000/svg">
  <defs
     id="defs13">
    <linearGradient
       inkscape:collect="always"
       id="linearGradient44960">
      <stop
         style="stop-color:#ddc8db;stop-opacity:1;"
         offset="0"
         id="stop44956" />
      <stop
         style="stop-color:#ddc8db;stop-opacity:0;"
         offset="1"
         id="stop44958" />
    </linearGradient>
    <linearGradient
       inkscape:collect="always"
       id="linearGradient18876">
      <stop
         style="stop-color:#ff9955;stop-opacity:1;"
         offset="0"
         id="stop18872" />
      <stop
         style="stop-color:#ff9955;stop-opacity:0;"
         offset="1"
         id="stop18874" />
    </linearGradient>
    <linearGradient
       inkscape:collect="always"
       xlink:href="#linearGradient18876"
       id="linearGradient18878"
       x1="92.634102"
       y1="88"
       x2="103.60211"
       y2="28.645575"
       gradientUnits="userSpaceOnUse" />
    <linearGradient
       inkscape:collect="always"
       xlink:href="#linearGradient44960"
       id="linearGradient44962"
       x1="182.98312"
       y1="641.22363"
       x2="184.89748"
       y2="577.66779"
       gradientUnits="userSpaceOnUse" />
    <linearGradient
       inkscape:collect="always"
       xlink:href="#linearGradient44960"
       id="linearGradient3032"
       gradientUnits="userSpaceOnUse"
       x1="173.64937"
       y1="76.241547"
       x2="161.35117"
       y2="88.938583" />
  </defs>
  <sodipodi:namedview
     id="namedview11"
     pagecolor="#ffffff"
     bordercolor="#666666"
     borderopacity="1.0"
     inkscape:pageshadow="2"
     inkscape:pageopacity="0.0"
     inkscape:pagecheckerboard="0"
     showgrid="false"
     inkscape:zoom="5.2237512"
     inkscape:cx="171.42853"
     inkscape:cy="88.155041"
     inkscape:window-width="1368"
     inkscape:window-height="842"
     inkscape:window-x="-6"
     inkscape:window-y="-6"
     inkscape:window-maximized="1"
     inkscape:current-layer="g15" />
  <g
     inkscape:groupmode="layer"
     inkscape:label="Image"
     id="g15"
     transform="translate(11.895975,-1.0706889)">
    <path
       d="m 227.53427,576.99095 c 4.58048,1.74149 6.48106,7.33898 6.54488,19.27568 0.0469,8.76664 -0.33224,10.99651 -2.81096,16.53333 -1.57582,3.52 -3.60081,9.06222 -4.49996,12.31605 -2.86151,10.35516 -9.23269,14.16078 -19.59444,11.70412 v 2e-5 c -1.92107,-0.45547 -7.44107,-3.35696 -12.26666,-6.44778 -12.18583,-7.80506 -16.09297,-8.13952 -26.04156,-2.22917 -5.8622,3.48267 -8.43291,4.39011 -12.43678,4.39011 -8.04926,0 -16.69546,-5.54133 -16.69546,-10.70008 0,-0.93065 -1.64009,-4.41574 -3.64466,-7.74465 -5.57135,-9.25214 -6.26857,-12.18293 -4.37966,-18.40998 0.88069,-2.90324 0.99733,-3.68009 1.95119,-5.30492 0.70575,-1.20222 1.77775,-2.14965 2.72365,-3.1737 2.04405,-2.21292 6.37046,-6.41043 6.37046,-6.41043"
       style="fill:url(#linearGradient44962);stroke-width:1.06667;fill-opacity:1"
       id="path44817" />
    <path
       d="m 88.383377,37.156835 c 0,0 0.647553,4.947433 1.271683,23.109832 0.42335,12.32 1.26683,23.6 1.87438,25.066666 l 1.10465,2.666671 0.74962,-3.466671 c 0.41229,-1.906666 1.16962,-3.466666 1.68295,-3.466666 0.51334,0 0.97123,-1.32 1.01755,-2.933334 0.0463,-1.613333 0.33015,-2.321827 0.63074,-1.574432 0.34242,0.851391 1.63968,-0.144531 3.47354,-2.666666 1.60984,-2.214062 4.19772,-5.225568 5.75082,-6.692235 1.68485,-1.591076 2.89573,-3.957376 3.00209,-5.866667 l 0.17824,-3.2 0.44436,2.933334 c 0.5233,3.454324 0.10955,3.35085 5.0854,1.271804 2.18712,-0.913841 5.23026,-1.513841 6.76252,-1.333333 2.54295,0.299571 2.85635,-0.09044 3.59332,-4.471805 0.95713,-5.690051 6.21332,-20.603667 6.98842,-19.828555 0.29703,0.297027 0,0 0,0"
       style="fill:url(#linearGradient18878);fill-opacity:1;stroke-width:1.06667"
       id="path17793"
       sodipodi:nodetypes="csscssssssscssscsc" />
    <path
       d="m 110.73352,117.6 c 2.2805,-3.37333 4.99947,-8.77333 6.04218,-12 1.04271,-3.22667 3.17907,-8.266666 4.74743,-11.199999 1.56837,-2.933333 3.51108,-7.013333 4.31713,-9.066667 0.80606,-2.053333 2.34174,-5.007431 3.41265,-6.564661 2.50094,-3.636675 2.46495,-3.835339 -0.69471,-3.835339 -2.4264,0 -10.15819,-3.02597 -10.15819,-3.975586 0,-0.224855 1.55683,0.03766 3.45963,0.583379 1.90279,0.545715 4.42279,0.97922 5.6,0.963345 1.80725,-0.02437 1.5334,-0.593368 -1.75964,-3.65604 -3.26462,-3.036267 -4.47904,-3.535921 -7.45431,-3.067009 -7.58061,1.194717 -14.32626,5.495865 -18.89456,13.876678 -5.27926,9.685086 -7.36494,22.050509 -4.81642,28.805789 1.43847,3.81292 10.28395,15.24774 11.29222,15.26011 0.41814,0.005 2.62612,-2.75067 4.90659,-6.124 z"
       style="fill:#c8b7b7;fill-opacity:1;stroke-width:1.06667"
       id="path15464" />
    <path
       style="fill:#ffffff;stroke:none;stroke-width:0.099436;stroke-linecap:butt;stroke-linejoin:miter;stroke-miterlimit:4;stroke-dasharray:none;stroke-opacity:1"
       d="m 204.24134,595.22417 c -5.89586,-1.30821 -12.04856,0.90225 -18.08485,1.09135 -3.95495,0.12389 -7.91386,0.0576 -11.87064,0.028 -5.02318,-0.0376 -10.35499,-1.99991 -15.0677,-0.26091 -2.8185,1.04004 -5.33812,3.32036 -6.75013,5.97212 -1.86858,3.50918 -4.25379,8.88891 -1.57113,11.82306 3.58972,3.92625 10.68388,0.10704 15.94524,-0.68003 3.623,-0.54198 7.01265,-2.22798 10.63633,-2.76541 3.18716,-0.47269 6.45396,-0.72482 9.65828,-0.3876 3.75581,0.39525 7.30744,1.91232 10.97795,2.80094 4.25047,1.02902 8.98755,5.09332 12.78838,2.93019 4.38941,-2.49811 6.51339,-9.7385 4.63284,-14.42582 -1.59477,-3.97499 -7.1133,-5.19813 -11.29457,-6.1259 z"
       id="path11746-5-9"
       sodipodi:nodetypes="aaaaaaaaaaaaa" />
    <path
       style="fill:#000000;stroke-width:1.06667"
       d="m 105.6,128.59851 c -1.4698,-2.55906 -2.23688,-3.84626 -4.97084,-7.32617 -6.030995,-7.67649 -9.900311,-16.67901 -9.94523,-23.139007 -0.01836,-2.64 -0.481932,-7.68 -1.03017,-11.2 C 88.50829,79.578771 88.128886,66.450722 88.574815,49.6 c 0.251764,-9.513637 0.456122,-7.495732 1.080245,10.666667 0.423357,12.32 1.266832,23.6 1.874389,25.066666 L 92.634099,88 93.383716,84.533333 c 0.41229,-1.906666 1.169618,-3.466666 1.682952,-3.466666 0.513333,0 0.971227,-1.32 1.017543,-2.933334 0.04632,-1.613333 0.330152,-2.321827 0.630746,-1.574432 0.342419,0.851391 1.639682,-0.144531 3.473533,-2.666666 1.60984,-2.214062 4.19772,-5.225568 5.75082,-6.692235 1.68485,-1.591076 2.89573,-3.957376 3.00209,-5.866667 l 0.17824,-3.2 0.44436,2.933334 c 0.5233,3.454324 0.10955,3.35085 5.0854,1.271804 2.18713,-0.913841 5.23026,-1.513841 6.76253,-1.333333 2.54294,0.299571 2.85634,-0.09044 3.59332,-4.471805 0.95712,-5.690051 6.21331,-20.603667 6.98842,-19.828555 0.29703,0.297027 -0.28563,2.599963 -1.29477,5.117636 -2.40831,6.008339 -4.75491,18.461554 -4.03828,21.430809 0.31151,1.290728 1.72474,3.906777 3.1405,5.813444 2.13297,2.872554 3.28297,3.466666 6.71031,3.466666 6.60842,0 10.03507,-4.860408 10.95864,-15.543884 0.65,-7.51889 3.41273,-13.480034 8.43646,-18.203366 4.7685,-4.483351 8.80326,-6.388902 16.40544,-7.748017 22.1382,-3.957854 38.71628,14.781454 34.73209,39.25998 -1.33008,8.171878 -5.68359,12.155641 -10.28285,16.868606 -1.02285,1.048141 -2.29918,1.933022 -3.69454,2.377778 -2.37378,0.756616 -4.99453,0.02868 -7.46667,0.338179 -1.98143,0.248064 -4.69333,0.787035 -5.86666,1.212658 -1.17334,0.425623 -0.69334,-0.04003 1.06666,-1.03478 1.76,-0.994752 3.35326,-1.938563 3.54058,-2.09736 0.70868,-0.600788 -2.59903,-5.368619 -5.67391,-8.178528 -3.25745,-2.976747 -3.61623,-3.42365 -13.8257,-7.04702 -9.07135,-3.219447 -12.10937,-7.294314 -13.54156,-10.216696 l -1.94909,-3.977116 -1.65342,5.989566 c -1.1746,4.255031 -7.14097,10.133334 -9.71253,10.133334 -2.3966,0 -5.37472,5.145142 -12.16464,21.016258 -3.71389,8.681055 -7.86265,17.455165 -9.21946,19.498015 -1.35681,2.04286 -2.46694,4.56286 -2.46694,5.6 0,1.03715 -0.4248,1.88573 -0.94398,1.88573 -0.51919,0 -1.76447,1.2522 -2.76728,2.78268 -1.67789,2.56077 -1.69086,3.13495 -0.16273,7.2 3.45189,9.18253 4.78823,20.80142 8.66639,75.35065 8.00236,112.55899 13.30096,159.65936 24.53915,218.13333 8.52573,44.36075 11.5786,75.5743 11.00642,112.53334 -0.47048,30.38958 -1.29219,33.85685 -10.18009,42.95547 l -5.09121,5.21193 5.08529,-0.74094 c 2.91126,-0.42418 8.69892,-0.1541 13.53794,0.63174 7.17928,1.16589 8.73389,1.14439 10.31947,-0.14276 1.18996,-0.96599 1.57638,-1.03202 1.06577,-0.18211 -0.44057,0.73333 -0.65271,1.33267 -0.47142,1.33187 0.18129,-8e-4 4.40962,-0.72014 9.39629,-1.59854 11.35982,-2.00102 27.80649,-1.99416 38.93333,0.0162 4.69333,0.84799 9.90536,1.55124 11.5823,1.56279 2.79542,0.0192 2.98809,-0.22295 2.3169,-2.91235 -0.82283,-3.29697 -3.49179,-6.66667 -5.28032,-6.66667 -1.99571,0 -9.51671,-4.32637 -12.66266,-7.28406 -9.53334,-8.96284 -16.67667,-28.32079 -21.51933,-58.31594 -1.96901,-12.19597 -4.54059,-26.14753 -9.73466,-52.81341 -4.67244,-23.98784 -18.91645,-109.38819 -21.25806,-127.45324 -0.98857,-7.62667 -2.21387,-16.98667 -2.72288,-20.8 -1.05218,-7.88252 -4.77871,-41.35536 -6.29385,-56.53334 -3.43987,-34.4592 -4.17902,-95.19568 -1.25267,-102.93333 1.18069,-3.12192 1.19739,-3.09589 0.68425,1.06667 l -0.52598,4.26666 1.86682,-2.62145 c 1.02674,-1.4418 3.43616,-4.19515 5.35426,-6.11857 6.22824,-6.24548 6.93674,-12.6107 1.92748,-17.31665 l -2.4744,-2.32457 -1.73291,4.05729 -1.73291,4.05729 0.61818,-4.26667 c 1.14825,-7.92533 3.60386,-16.58812 6.34417,-22.38067 2.87035,-6.0674 10.90599,-15.773699 14.75508,-17.822747 1.25099,-0.665954 0.0654,0.940568 -2.6346,3.57005 -3.86275,3.76185 -5.73912,6.925037 -8.8032,14.840447 -4.50297,11.63254 -4.92898,16.79095 -1.63193,19.76093 1.24066,1.1176 2.66092,3.09133 3.15615,4.38607 1.47253,3.84997 -1.80065,12.7141 -6.62914,17.95238 -5.43777,5.89929 -8.36712,15.03733 -8.36473,26.09354 0.002,9.28028 2.66072,50.84713 4.29829,67.2 3.47653,34.71701 7.68375,66.27439 14.36298,107.73333 1.55949,9.68 3.23606,20.24 3.72572,23.46667 3.16582,20.86172 5.43749,34.84768 5.84506,35.98619 0.4425,1.23607 8.49037,45.90199 15.42583,85.61381 1.69057,9.68 3.86049,23.36 4.82205,30.4 4.02202,29.44682 10.75746,40.59345 28.63631,47.39099 4.58048,1.74149 6.48106,7.33898 6.54488,19.27568 0.0469,8.76664 -0.33224,10.99651 -2.81096,16.53333 -1.57582,3.52 -3.60081,9.06222 -4.49996,12.31605 -2.86151,10.35516 -9.23269,14.16078 -19.59444,11.70412 v 2e-5 c -1.92107,-0.45547 -7.44107,-3.35696 -12.26666,-6.44778 -12.18583,-7.80506 -16.09297,-8.13952 -26.04156,-2.22917 -5.8622,3.48267 -8.43291,4.39011 -12.43678,4.39011 -8.04926,0 -16.69546,-5.54133 -16.69546,-10.70008 0,-0.93065 -1.64009,-4.41574 -3.64466,-7.74465 -5.57135,-9.25214 -6.26857,-12.18293 -4.37966,-18.40998 0.88069,-2.90324 0.99733,-3.68009 1.95119,-5.30492 0.70575,-1.20222 1.77775,-2.14965 2.72365,-3.1737 2.04405,-2.21292 6.37046,-6.41043 6.37046,-6.41043 9.10936,-9.16653 10.17566,-13.34657 9.48983,-37.20119 -0.8673,-30.16585 -4.2493,-59.88673 -12.51581,-109.98838 -12.59027,-76.30708 -16.77045,-111.07728 -20.7745,-172.8 -0.9134,-14.08 -2.15346,-31.36 -2.75568,-38.4 -0.60222,-7.04 -1.75049,-27.44 -2.5517,-45.33333 -1.39579,-31.17249 -2.75422,-36.74968 -5.0389,-42.18663 -1.25924,-2.99666 -1.85135,-4.26847 -3.00755,-6.28153 z m 112.10209,504.23817 c 3.39576,-2.00592 4.01755,-3.50335 1.45472,-3.50335 -2.37009,0 -7.93321,-4.35232 -9.54388,-7.46666 -0.75853,-1.46667 -2.19103,-7.44647 -3.18333,-13.28844 -2.02621,-11.92894 -3.61106,-15.73064 -7.66519,-18.38701 -3.37563,-2.21179 -12.5877,-2.11097 -20.27688,0.22191 -2.8348,0.86008 -6.89272,1.56897 -9.01759,1.57533 -3.72535,0.0111 -3.92566,0.21163 -5.60643,5.61154 -1.25681,4.03786 -1.59755,4.55857 -1.22147,1.86667 0.28687,-2.05334 0.64976,-4.6685 0.80643,-5.81149 0.23016,-1.67899 -0.58452,-2.23149 -4.24146,-2.87651 -7.04521,-1.24265 -17.92774,-0.40472 -21.01498,1.61812 -2.41555,1.58272 -2.72536,2.50477 -2.72536,8.11094 0,6.24358 1.59689,11.75894 3.40463,11.75894 0.51088,0 0.81686,-1.66304 0.67998,-3.69564 -0.13689,-2.0326 0.0421,-3.98668 0.39785,-4.34238 0.35571,-0.35571 0.99015,3.47565 1.40985,8.51413 0.7651,9.18487 3.04519,14.45722 6.25221,14.45722 3.41641,0 11.23925,-12.1651 12.91018,-20.07628 0.41157,-1.94861 0.96953,-3.3217 1.23991,-3.05133 0.82316,0.82315 -2.76796,13.34682 -5.1224,17.86392 -1.21668,2.33427 -3.22497,4.95352 -4.46286,5.82058 -1.23789,0.86704 -2.02389,1.59458 -1.7467,1.61673 0.27721,0.0222 2.27509,0.29742 4.43972,0.61169 4.75028,0.68967 11.03155,-1.85645 18.33718,-7.43296 3.68271,-2.81108 6.15475,-3.88568 8.93871,-3.88568 4.66405,0 11.32932,3.11238 15.90277,7.42587 5.34208,5.03845 11.08906,8.57413 13.93657,8.57413 1.44095,0 4.01397,-0.82349 5.71782,-1.82999 z m 7.89089,-14.17001 c 1.60733,-4.4 3.56539,-9.68 4.35124,-11.73334 0.78584,-2.05333 1.44988,-6.25333 1.47563,-9.33333 0.0452,-5.40538 -0.0551,-5.60058 -2.88651,-5.61671 -1.61334,-0.01 -7.4462,-0.96919 -12.96191,-2.13334 -5.51572,-1.16414 -11.39873,-2.11662 -13.07336,-2.11662 h -3.04478 l 3.08226,4.25495 c 2.34666,3.23946 3.38974,6.35794 4.3706,13.06666 1.5008,10.2649 3.01059,14.32328 6.99008,18.78958 2.72875,3.06257 6.63269,4.70489 8.10572,3.40993 0.36775,-0.32328 1.98372,-4.18778 3.59103,-8.58778 z M 110.73352,117.6 c 2.28049,-3.37333 4.99947,-8.77333 6.04218,-12 1.04271,-3.22667 3.17906,-8.266667 4.74743,-11.2 1.56837,-2.933333 3.51108,-7.013333 4.31713,-9.066667 0.80606,-2.053333 2.34174,-5.007431 3.41265,-6.564661 2.50093,-3.636675 2.46494,-3.835339 -0.69472,-3.835339 -2.4264,0 -10.15819,-3.02597 -10.15819,-3.975586 0,-0.224855 1.55683,0.03766 3.45963,0.583379 1.90279,0.545715 4.42279,0.97922 5.6,0.963345 1.80726,-0.02437 1.53341,-0.593368 -1.75963,-3.65604 -3.26463,-3.036267 -4.47904,-3.535921 -7.45432,-3.067009 -7.58061,1.194717 -14.32626,5.495865 -18.894557,13.876678 -5.279254,9.685086 -7.364939,22.05051 -4.816419,28.80579 1.438473,3.81292 10.283946,15.24774 11.292216,15.26011 0.41814,0.005 2.62612,-2.75067 4.9066,-6.124 z m 67.40375,-43.771403 c 2.54241,0.999105 4.2644,2.011913 5.98583,3.572698 2.64409,2.397342 6.35922,8.297606 6.35922,8.614311 0,0.316705 1.88755,-0.668489 1.88755,-0.668489 0,0 -0.59041,-1.445458 -1.38945,-3.261743 -1.60072,-3.638586 -3.22069,-5.591096 -7.0015,-7.826972 -2.64012,-1.561305 0.13537,-0.203045 -6.56864,-3.392636 -8.58246,-4.083312 -19.48585,-5.813654 -21.13108,-7.912149 0,0 2.20865,0.836032 3.32995,1.204885 4.16239,1.369222 8.46916,2.284386 12.60244,3.739127 3.90742,1.375249 8.02829,2.448836 11.50144,4.706377 3.96901,2.57985 8.7621,6.608777 10.25111,9.828158 1.12566,2.433818 2.61519,2.214986 5.70596,-1.098831 1.50475,-1.613333 3.34313,-4.109904 4.08528,-5.547936 1.89695,-3.675587 1.67841,-12.799062 -0.40299,-16.824058 -0.96381,-1.863802 -1.71323,-4.252568 -1.66538,-5.308368 0.0541,-1.192422 0.68052,-0.559353 1.6537,1.671115 0.86167,1.974915 1.80125,3.356172 2.08796,3.069462 0.84825,-0.848239 -2.138,-8.444621 -5.23575,-13.318679 C 191.4837,31.371635 169.18756,29.309404 157.38181,41.115152 153.77051,44.726459 150.4,51.473618 150.4,55.091501 c 0,6.975377 9.15869,14.488468 21.1436,16.74708 M 93.105083,75.2 c 0.008,-2.933333 0.21516,-4.006734 0.460338,-2.385333 0.245178,1.621399 0.238626,4.021399 -0.01456,5.333333 -0.253186,1.311933 -0.453786,-0.01467 -0.445778,-2.948 z m 1.912461,-2.222222 c 0.05118,-1.242606 0.303938,-1.49536 0.644445,-0.644445 0.308129,0.77 0.270234,1.69 -0.08421,2.044445 -0.354445,0.354444 -0.60655,-0.275556 -0.560235,-1.4 z M 118.58573,40.983192 c 0.0756,-0.54799 0.36877,-2.315172 0.47452,-1.590235 0.10575,0.724936 0.0364,3.653616 0.0346,5.480478 -0.002,2.012627 0.1282,4.391816 -0.0504,6.037676 -0.44909,-0.676571 -0.28806,-2.373267 -0.35718,-3.565821 -0.12273,-2.117416 -0.39123,-4.261006 -0.10154,-6.362098 z m -8.29448,-8.449859 C 110.59112,27.84 111.16106,22.2 111.55779,20 c 0.59185,-3.281949 0.67382,-3.593909 0.67382,-3.593909 0,0 -3.43161,-0.788677 -3.43161,-1.25628 0,-1.538799 14.35952,-14.0953571 16.10068,-14.0791063 0.23797,0.00222 0.43265,4.5264556 0.43265,10.0538543 v 10.049818 l -4.06429,-1.652636 c 0,0 -3.04465,1.922493 -8.52728,14.611592 l -2.99571,6.933334 z"
       id="path279"
       sodipodi:nodetypes="asssssscssssssscssssscsssssssaaasssssscsssssssssssscsssssssssssssssssscssscccsssssscssssssssssssssssssssaasssssssasssssssssssssssssssssssssssssssscsscsssssssssssssssssscscascssscaaasssscssssscssssssssacacaassccssccscs" />
    <path
       d="m 170.92742,96.646833 c -1.17334,0.425623 8.11259,-5.591596 9.87259,-6.586346 1.76,-0.994752 3.35326,-1.938563 3.54058,-2.09736 0.70868,-0.600788 -2.59903,-5.368619 -5.67391,-8.178528 -3.25745,-2.976747 -3.61623,-3.42365 -13.8257,-7.04702 -9.07135,-3.219447 -12.10938,-7.294314 -13.54156,-10.216696 l -1.9491,-3.977116 -1.65342,5.989566 c -1.1746,4.255031 -7.14097,10.133334 -9.71253,10.133334"
       style="fill:url(#linearGradient3032);fill-opacity:1;stroke-width:1.06667"
       id="path429"
       sodipodi:nodetypes="cssssscsc" />
    <path
       style="fill:none;stroke:#000000;stroke-width:1.24842px;stroke-linecap:butt;stroke-linejoin:miter;stroke-opacity:1"
       d="M 108.55028,19.927661 77.589885,30.98168"
       id="path249" />
    <text
       xml:space="preserve"
       style="font-style:normal;font-variant:normal;font-weight:normal;font-stretch:normal;font-size:13.3333px;line-height:1.25;font-family:sans-serif;-inkscape-font-specification:'sans-serif, Normal';font-variant-ligatures:normal;font-variant-caps:normal;font-variant-numeric:normal;font-variant-east-asian:normal"
       x="29.238583"
       y="27.884941"
       id="text1015"><tspan
         sodipodi:role="line"
         id="tspan1013"
         x="29.238583"
         y="27.884941">Muscle</tspan><tspan
         sodipodi:role="line"
         x="29.238583"
         y="44.551567"
         id="tspan1017">tension</tspan></text>
    <text
       xml:space="preserve"
       style="font-style:normal;font-variant:normal;font-weight:normal;font-stretch:normal;font-size:13.3333px;line-height:1.25;font-family:sans-serif;-inkscape-font-specification:'sans-serif, Normal';font-variant-ligatures:normal;font-variant-caps:normal;font-variant-numeric:normal;font-variant-east-asian:normal"
       x="-12.000141"
       y="118.46479"
       id="text1015-6"><tspan
         sodipodi:role="line"
         x="-12.000141"
         y="118.46479"
         id="tspan1017-8">Apophysis</tspan></text>
    <text
       xml:space="preserve"
       style="font-style:normal;font-variant:normal;font-weight:normal;font-stretch:normal;font-size:13.3333px;line-height:1.25;font-family:sans-serif;-inkscape-font-specification:'sans-serif, Normal';font-variant-ligatures:normal;font-variant-caps:normal;font-variant-numeric:normal;font-variant-east-asian:normal"
       x="238.39232"
       y="92.042648"
       id="text1015-6-3"><tspan
         sodipodi:role="line"
         x="238.39232"
         y="92.042648"
         id="tspan1017-8-2">Epiphysis</tspan></text>
    <text
       xml:space="preserve"
       style="font-style:normal;font-variant:normal;font-weight:normal;font-stretch:normal;font-size:13.3333px;line-height:1.25;font-family:sans-serif;-inkscape-font-specification:'sans-serif, Normal';font-variant-ligatures:normal;font-variant-caps:normal;font-variant-numeric:normal;font-variant-east-asian:normal"
       x="224.83971"
       y="112.49865"
       id="text1015-6-3-2"><tspan
         sodipodi:role="line"
         x="224.83971"
         y="112.49865"
         id="tspan1017-8-2-1">Physis</tspan></text>
    <text
       xml:space="preserve"
       style="font-style:normal;font-variant:normal;font-weight:normal;font-stretch:normal;font-size:13.3333px;line-height:1.25;font-family:sans-serif;-inkscape-font-specification:'sans-serif, Normal';font-variant-ligatures:normal;font-variant-caps:normal;font-variant-numeric:normal;font-variant-east-asian:normal"
       x="49.484909"
       y="595.12939"
       id="text1015-6-3-2-3"><tspan
         sodipodi:role="line"
         x="49.484909"
         y="595.12939"
         id="tspan1017-8-2-1-8">Physis</tspan></text>
    <text
       xml:space="preserve"
       style="font-style:normal;font-variant:normal;font-weight:normal;font-stretch:normal;font-size:13.3333px;line-height:1.25;font-family:sans-serif;-inkscape-font-specification:'sans-serif, Normal';font-variant-ligatures:normal;font-variant-caps:normal;font-variant-numeric:normal;font-variant-east-asian:normal"
       x="210.11852"
       y="138.56096"
       id="text1015-6-3-7"><tspan
         sodipodi:role="line"
         x="210.11852"
         y="138.56096"
         id="tspan1017-8-2-9">Metaphysis</tspan></text>
    <text
       xml:space="preserve"
       style="font-style:normal;font-variant:normal;font-weight:normal;font-stretch:normal;font-size:13.3333px;line-height:1.25;font-family:sans-serif;-inkscape-font-specification:'sans-serif, Normal';font-variant-ligatures:normal;font-variant-caps:normal;font-variant-numeric:normal;font-variant-east-asian:normal"
       x="260.52628"
       y="569.09448"
       id="text1015-6-3-7-9"><tspan
         sodipodi:role="line"
         x="260.52628"
         y="569.09448"
         id="tspan1017-8-2-9-7">Metaphysis</tspan></text>
    <text
       xml:space="preserve"
       style="font-style:normal;font-variant:normal;font-weight:normal;font-stretch:normal;font-size:13.3333px;line-height:1.25;font-family:sans-serif;-inkscape-font-specification:'sans-serif, Normal';font-variant-ligatures:normal;font-variant-caps:normal;font-variant-numeric:normal;font-variant-east-asian:normal"
       x="257.82742"
       y="617.77545"
       id="text1015-6-3-7-9-4"><tspan
         sodipodi:role="line"
         x="257.82742"
         y="617.77545"
         id="tspan1017-8-2-9-7-5">Epiphysis</tspan></text>
    <text
       xml:space="preserve"
       style="font-style:normal;font-variant:normal;font-weight:normal;font-stretch:normal;font-size:13.3333px;line-height:1.25;font-family:sans-serif;-inkscape-font-specification:'sans-serif, Normal';font-variant-ligatures:normal;font-variant-caps:normal;font-variant-numeric:normal;font-variant-east-asian:normal"
       x="264.06543"
       y="368.60693"
       id="text1015-6-3-7-4"><tspan
         sodipodi:role="line"
         x="264.06543"
         y="368.60693"
         id="tspan1017-8-2-9-5">Diaphysis</tspan></text>
    <text
       xml:space="preserve"
       style="font-style:normal;font-variant:normal;font-weight:normal;font-stretch:normal;font-size:13.3333px;line-height:1.25;font-family:sans-serif;-inkscape-font-specification:'sans-serif, Normal';font-variant-ligatures:normal;font-variant-caps:normal;font-variant-numeric:normal;font-variant-east-asian:normal"
       x="26.599701"
       y="179.90982"
       id="text1015-6-1"><tspan
         sodipodi:role="line"
         x="26.599701"
         y="179.90982"
         id="tspan1017-8-4">Physis</tspan></text>
    <path
       style="color:#000000;fill:#000000;-inkscape-stroke:none"
       d="m 93.558594,68.200195 c 0,0 0.41808,-7.623701 1.426414,-14.622039 1.008334,-6.998339 3.185048,-13.421121 2.881301,-13.416092 -0.303748,0.005 -2.290941,6.54843 -3.436464,13.569157 -1.145523,7.020726 -0.871251,14.468974 -0.871251,14.468974 z"
       id="path3383"
       sodipodi:nodetypes="cscsc" />
    <path
       style="color:#000000;fill:#000000;-inkscape-stroke:none"
       d="m 102.30291,55.524768 c -0.5927,3.024765 -0.91619,9.856093 -0.91619,9.856093 0,0 0.61798,-6.730329 1.29013,-9.682248 0.66548,-2.922641 2.43437,-7.861236 2.43437,-7.861236 0,0 -2.2343,4.75796 -2.80831,7.687391 z"
       id="path3593"
       sodipodi:nodetypes="scscs" />
    <path
       style="color:#000000;fill:#000000;-inkscape-stroke:none"
       d="m 113.22542,48.399877 c -0.30639,4.226402 -0.1971,10.482936 -0.1971,10.482936 0,0 0.36527,-6.699563 0.66826,-10.865467 0.303,-4.165905 1.69913,-11.087844 1.69913,-11.087844 0,0 -1.86389,7.243973 -2.17029,11.470375 z"
       id="path3628"
       sodipodi:nodetypes="scscs" />
    <path
       style="fill:none;stroke:#000000;stroke-width:1px;stroke-linecap:butt;stroke-linejoin:miter;stroke-opacity:1"
       d="M 85.27919,64.162438 H 76.34518 V 127.24197 H 99.627752"
       id="path6414" />
    <path
       style="fill:none;stroke:#000000;stroke-width:1px;stroke-linecap:butt;stroke-linejoin:miter;stroke-opacity:1"
       d="M 76.34518,114.51777 H 58.206431"
       id="path6630" />
    <path
       style="fill:none;stroke:#000000;stroke-width:1px;stroke-linecap:butt;stroke-linejoin:miter;stroke-opacity:1"
       d="M 101.53888,134.81012 80.422133,176.50217 H 69.593029"
       id="path9929" />
    <path
       style="fill:#ffffff;stroke:none;stroke-width:0.1;stroke-linecap:butt;stroke-linejoin:miter;stroke-miterlimit:4;stroke-dasharray:none;stroke-opacity:1"
       d="m 116.36435,71.518148 c -4.88051,0.362321 -8.51641,5.351273 -11.29457,9.380232 -2.90965,4.219661 -4.3811,9.458136 -4.97726,14.548933 -0.462311,3.947794 -1.328266,8.760177 1.1486,11.868867 1.00595,1.26256 3.07079,2.06496 4.5944,1.53147 2.65609,-0.93004 3.2105,-4.63261 4.59439,-7.08304 1.29114,-2.28618 2.33266,-4.705097 3.44581,-7.08303 1.18666,-2.534973 2.12264,-5.190858 3.4458,-7.657333 0.96246,-1.794105 2.39193,-3.32442 3.25436,-5.1687 0.96592,-2.065612 2.90162,-4.371821 2.10577,-6.508732 -0.85937,-2.307482 -3.86174,-4.010964 -6.3173,-3.828667 z"
       id="path11746"
       sodipodi:nodetypes="aaaaaaaaaaa" />
    <path
       style="fill:none;stroke:#000000;stroke-width:1px;stroke-linecap:butt;stroke-linejoin:miter;stroke-opacity:1"
       d="m 200.21214,87.981413 8.80592,9.380233 25.07777,-25.077764 -28.90643,-30.437897"
       id="path22391" />
    <path
       style="fill:none;stroke:#000000;stroke-width:1px;stroke-linecap:butt;stroke-linejoin:miter;stroke-opacity:1"
       d="m 222.22696,84.535614 4.02011,4.020099 h 7.4659"
       id="path22393" />
    <path
       style="fill:none;stroke:#000000;stroke-width:1px;stroke-linecap:butt;stroke-linejoin:miter;stroke-opacity:1"
       d="m 185.85463,97.935946 6.12587,6.125864 -13.2089,12.0603 -5.93443,-6.12586"
       id="path30109" />
    <path
       style="fill:none;stroke:#000000;stroke-width:1px;stroke-linecap:butt;stroke-linejoin:miter;stroke-opacity:1"
       d="m 185.6632,110.57055 20.86623,21.05766"
       id="path30111"
       sodipodi:nodetypes="cc" />
    <path
       style="fill:none;stroke:#000000;stroke-width:1px;stroke-linecap:butt;stroke-linejoin:miter;stroke-opacity:1"
       d="m 188.9839,91.493703 16.78511,16.243657 h 16.51437"
       id="path37581" />
    <path
       style="fill:none;stroke:#000000;stroke-width:1px;stroke-linecap:butt;stroke-linejoin:miter;stroke-opacity:1"
       d="m 211.18355,540.36005 h 24.90694 V 164.59015 H 163.5355"
       id="path39295" />
    <path
       style="fill:none;stroke:#000000;stroke-width:1px;stroke-linecap:butt;stroke-linejoin:miter;stroke-opacity:1"
       d="m 235.54904,364.92857 h 27.07275"
       id="path39410" />
    <path
       d="m 178.13727,73.828597 c 2.54241,0.999105 4.2644,2.011913 5.98583,3.572698 2.64409,2.397342 6.35922,8.297606 6.35922,8.614311 0,0.316705 1.88755,-0.668489 1.88755,-0.668489 0,0 -0.59041,-1.445458 -1.38945,-3.261743 -1.60072,-3.638586 -3.22069,-5.591096 -7.0015,-7.826972 -2.64012,-1.561305 0.13537,-0.203045 -6.56864,-3.392636 -8.58246,-4.083312 -19.48585,-5.813654 -21.13108,-7.912149 0,0 2.20865,0.836032 3.32995,1.204885 4.16239,1.369222 8.46916,2.284386 12.60244,3.739127 3.90742,1.375249 8.02829,2.448836 11.50144,4.706377 3.96901,2.57985 8.7621,6.608777 10.25111,9.828158 1.12566,2.433818 2.61519,2.214986 5.70596,-1.098831 1.50475,-1.613333 3.34313,-4.109904 4.08528,-5.547936 1.89695,-3.675587 1.67841,-12.799062 -0.40299,-16.824058 -0.96381,-1.863802 -1.71323,-4.252568 -1.66538,-5.308368 0.0541,-1.192422 0.68052,-0.559353 1.6537,1.671115 0.86167,1.974915 1.80125,3.356172 2.08796,3.069462 0.84825,-0.848239 -2.138,-8.444621 -5.23575,-13.318679 -8.70922,-13.703235 -31.00536,-15.765466 -42.81111,-3.959718 -3.6113,3.611308 -6.98181,10.358467 -6.98181,13.97635 0,6.975377 9.15869,14.488468 21.1436,16.74708"
       style="fill:#dfd9dd;stroke-width:1.06667"
       id="path41652" />
    <path
       style="fill:#ffffff;stroke:none;stroke-width:0.099436;stroke-linecap:butt;stroke-linejoin:miter;stroke-miterlimit:4;stroke-dasharray:none;stroke-opacity:1"
       d="m 200.43967,63.578549 c 1.21159,-4.9565 -1.38412,-10.535319 -4.37614,-14.668434 -3.38597,-4.677299 -8.61057,-8.531077 -14.22298,-9.888586 -4.06979,-0.984389 -8.9446,-0.624538 -12.4507,1.664467 -1.34757,0.879782 -2.73214,2.529699 -2.51086,4.123753 0.39743,2.862945 4.10727,4.082508 6.35641,5.89794 1.73026,1.396609 3.74415,2.416671 5.46693,3.822491 2.34652,1.914801 4.46022,4.10149 6.59409,6.250724 1.45906,1.469561 2.63615,3.231213 4.24155,4.53932 1.75322,1.428551 3.55399,3.822622 5.79069,3.53536 2.41523,-0.310186 4.52954,-2.898275 5.11101,-5.277035 z"
       id="path11746-5"
       sodipodi:nodetypes="aaaaaaaaaaa" />
    <path
       style="fill:none;stroke:#000000;stroke-width:1px;stroke-linecap:butt;stroke-linejoin:miter;stroke-opacity:1"
       d="M 96.838145,591.06816 H 127.08462"
       id="path42806" />
    <path
       style="fill:none;stroke:#000000;stroke-width:1px;stroke-linecap:butt;stroke-linejoin:miter;stroke-opacity:1"
       d="m 237.73306,586.47376 h 10.3374 v -39.81813 h -35.6066"
       id="path43058" />
    <path
       style="fill:none;stroke:#000000;stroke-width:1px;stroke-linecap:butt;stroke-linejoin:miter;stroke-opacity:1"
       d="m 248.83619,565.4161 h 6.50874"
       id="path43093" />
    <path
       style="fill:none;stroke:#000000;stroke-width:1px;stroke-linecap:butt;stroke-linejoin:miter;stroke-opacity:1"
       d="m 238.48001,595.33663 h 9.57166 v 38.66953 h -20.29193"
       id="path43372" />
    <path
       style="fill:none;stroke:#000000;stroke-width:1px;stroke-linecap:butt;stroke-linejoin:miter;stroke-opacity:1"
       d="m 248.05167,613.33136 h 6.12587"
       id="path43487" />
  </g>
</svg>
