<?xml version="1.0" encoding="UTF-8" standalone="no"?>
<!-- Created with Inkscape (http://www.inkscape.org/) -->

<svg
   version="1.1"
   id="svg9"
   width="701.70032"
   height="478.90372"
   viewBox="0 0 701.70032 478.90372"
   sodipodi:docname="Figure 2-4.svg"
   inkscape:version="1.2 (dc2aedaf03, 2022-05-15)"
   xmlns:inkscape="http://www.inkscape.org/namespaces/inkscape"
   xmlns:sodipodi="http://sodipodi.sourceforge.net/DTD/sodipodi-0.dtd"
   xmlns:xlink="http://www.w3.org/1999/xlink"
   xmlns="http://www.w3.org/2000/svg"
   xmlns:svg="http://www.w3.org/2000/svg">
  <defs
     id="defs13">
    <linearGradient
       inkscape:collect="always"
       id="linearGradient3766">
      <stop
         style="stop-color:#000000;stop-opacity:1;"
         offset="0"
         id="stop3762" />
      <stop
         style="stop-color:#000000;stop-opacity:0;"
         offset="1"
         id="stop3764" />
    </linearGradient>
    <linearGradient
       id="linearGradient3664"
       inkscape:swatch="gradient">
      <stop
         style="stop-color:#62a0ea;stop-opacity:1;"
         offset="0"
         id="stop3660" />
      <stop
         style="stop-color:#62a0ea;stop-opacity:0;"
         offset="1"
         id="stop3662" />
    </linearGradient>
    <radialGradient
       inkscape:collect="always"
       xlink:href="#linearGradient3766"
       id="radialGradient3770"
       cx="147.46579"
       cy="67.503181"
       fx="147.46579"
       fy="67.503181"
       r="5.6307673"
       gradientTransform="matrix(1,0,0,1.177248,0,-11.964801)"
       gradientUnits="userSpaceOnUse" />
  </defs>
  <sodipodi:namedview
     id="namedview11"
     pagecolor="#ffffff"
     bordercolor="#666666"
     borderopacity="1.0"
     inkscape:pageshadow="2"
     inkscape:pageopacity="0.0"
     inkscape:pagecheckerboard="0"
     showgrid="false"
     inkscape:zoom="4.936274"
     inkscape:cx="568.24236"
     inkscape:cy="447.60481"
     inkscape:window-width="1368"
     inkscape:window-height="842"
     inkscape:window-x="-6"
     inkscape:window-y="-6"
     inkscape:window-maximized="1"
     inkscape:current-layer="g15"
     inkscape:showpageshadow="2"
     inkscape:deskcolor="#d1d1d1" />
  <g
     inkscape:groupmode="layer"
     inkscape:label="Image"
     id="g15"
     transform="translate(54.346785,-7.8133344)">
    <path
       style="color:#000000;fill:#62a0ea;-inkscape-stroke:none;stroke:none"
       d="m 495.43555,444.6875 -8.30469,0.40625 0.0488,0.99805 8.30468,-0.4043 z"
       id="path1439" />
    <path
       style="color:#000000;fill:#62a0ea;-inkscape-stroke:none"
       d="m 466.4348,431.43552 -0.25,0.96875 c 0,0 4.0798,0.91037 6.05543,1.5801 1.26504,0.42884 2.46965,1.01919 3.69336,1.55469 0.75538,0.33055 1.44611,0.84891 2.25196,1.02344 0.88126,0.19086 1.80682,0.0787 2.70507,0 1.14923,-0.10064 2.28407,-0.34239 3.40821,-0.60156 0.95542,-0.22028 1.92074,-0.43711 2.82812,-0.8086 0.74575,-0.30532 1.35394,-0.91577 2.12305,-1.15625 1.25808,-0.39337 3.93164,-0.42382 3.93164,-0.42382 l -0.10742,-0.99415 c 0,0 -2.80782,0.0318 -4.12891,0.44532 -0.79686,0.24941 -1.42656,0.88269 -2.19922,1.19922 -0.85715,0.35114 -1.76922,0.55573 -2.67187,0.76367 -1.07839,0.24842 -2.1671,0.47978 -3.26953,0.57617 -0.79774,0.0697 -1.61969,0.16941 -2.40235,0 -0.7401,-0.1602 -1.37461,-0.63593 -2.06836,-0.93945 -1.24967,-0.54675 -2.47969,-1.14985 -3.77148,-1.58789 -1.99921,-0.67792 -6.1277,-1.59964 -6.1277,-1.59964 z"
       id="path20842"
       sodipodi:nodetypes="ccaaaaaaaccaaaaaaac" />
    <path
       style="color:#000000;fill:#62a0ea;stroke:#62a0ea;-inkscape-stroke:none"
       d="m 141.27078,58.137786 -0.31055,0.949219 c 0,0 8.05673,2.026638 11.74289,3.870026 3.81698,1.90881 10.50071,7.3247 10.50071,7.3247 l 0.54687,-0.835937 c 0,0 -6.75337,-5.471064 -10.61008,-7.398919 -3.72607,-1.862549 -11.86984,-3.909089 -11.86984,-3.909089 z"
       id="path2881"
       sodipodi:nodetypes="ccaccac" />
    <path
       style="color:#000000;fill:#62a0ea;stroke:#62a0ea;-inkscape-stroke:none"
       d="m 134.84766,70.306641 c -0.96925,0.01624 -1.84703,0.612981 -2.71094,1.052734 -1.30909,0.666365 -3.70703,2.382812 -3.70703,2.382812 l 0.53906,0.839844 c 0,0 2.34547,-1.674944 3.625,-2.326172 0.72967,-0.371371 1.47043,-0.877504 2.28906,-0.890625 1.74217,-0.02792 3.30881,1.098982 4.92969,1.738282 0.76615,0.302184 1.47802,0.743135 2.26367,0.990234 0.7549,0.237428 1.54266,0.561226 2.32813,0.464844 1.54936,-0.190115 2.78551,-1.419087 4.23437,-2 0.5127,-0.205563 1.02464,-0.451187 1.57227,-0.523438 0.71123,-0.09384 1.46003,-0.07492 2.14843,0.126953 0.75941,0.222701 1.43204,0.694237 2.07032,1.16211 0.79421,0.582179 1.47871,1.305032 2.15429,2.021484 0.73731,0.781925 2.06446,2.476563 2.06446,2.476563 l 0.76758,-0.640625 c 0,0 -1.35045,-1.727144 -2.10157,-2.523438 -0.71743,-0.760586 -1.44591,-1.526233 -2.28906,-2.144531 -0.73319,-0.537661 -1.50456,-1.081798 -2.37695,-1.337891 -0.82411,-0.241921 -1.72084,-0.263299 -2.57227,-0.15039 -0.6137,0.08138 -1.1861,0.360048 -1.76172,0.58789 -1.39898,0.553743 -2.60527,1.713411 -4.09961,1.888672 -0.62061,0.07279 -1.24187,-0.181466 -1.83789,-0.369141 -0.75695,-0.238349 -1.44303,-0.662901 -2.18164,-0.953125 -1.75789,-0.690732 -3.45919,-1.904682 -5.34765,-1.873046 z"
       id="path3286"
       sodipodi:nodetypes="aaccaaaaaaaaaaccaaaaaaaaa" />
    <path
       style="fill:none;stroke:#62a0ea;stroke-width:1px;stroke-linecap:butt;stroke-linejoin:miter;stroke-opacity:1"
       d="m 189.10436,436.15194 5.46946,-5.23995"
       id="path81138" />
    <path
       style="color:#000000;fill:#62a0ea;-inkscape-stroke:none"
       d="m 451.07617,433.89258 -7.66015,0.19726 0.0254,1 7.66015,-0.19726 z"
       id="path21015" />
    <path
       style="color:#000000;fill:#62a0ea;-inkscape-stroke:none"
       d="m 447.24805,285.69141 -9.625,0.19531 0.0215,1 9.625,-0.19531 z"
       id="path19525" />
    <path
       style="color:#000000;fill:#62a0ea;-inkscape-stroke:none"
       d="m 490.80469,278.02148 c -1.25034,0.15031 -2.51196,0.56333 -3.5625,1.25782 -0.93714,0.61953 -1.60021,1.58797 -2.27735,2.48437 -0.59497,0.78761 -0.90172,1.77953 -1.55273,2.52149 -0.84429,0.96225 -1.82209,1.87699 -2.98047,2.42187 -0.84885,0.39928 -1.82371,0.48946 -2.75977,0.55078 -0.93364,0.0612 -1.88838,0.0217 -2.80078,-0.18554 -1.67868,-0.38126 -3.263,-1.13276 -4.79492,-1.91797 -0.74994,-0.38439 -1.40982,-0.92447 -2.13281,-1.35743 -1.07212,-0.64204 -2.0587,-1.52124 -3.26758,-1.83789 -1.24573,-0.3263 -3.86328,0 -3.86328,0 v 1 c 0,0 2.44026,-0.30436 3.60156,0 1.1158,0.29243 2.02602,1.10465 3.01563,1.69727 0.74205,0.44437 1.41964,0.99824 2.18945,1.39258 1.60625,0.8228 3.26754,1.60961 5.02734,2.00976 1.0072,0.22902 2.0611,0.27446 3.0918,0.20703 1.0627,-0.0695 2.16925,-0.17337 3.13281,-0.62695 1.28426,-0.60454 2.36876,-1.61839 3.30469,-2.68555 0.66682,-0.76031 0.9804,-1.77695 1.58984,-2.58398 0.60786,-0.80494 1.20346,-1.67428 2.04493,-2.23047 0.91866,-0.60721 2.02197,-0.96757 3.11523,-1.09961 0.6086,-0.0735 1.22379,0.091 1.83008,0.18164 0.65209,0.0975 1.93945,0.38867 1.93945,0.38867 l 0.19727,-0.98046 c 0,0 -1.31991,-0.29651 -1.98828,-0.39649 -0.69565,-0.10406 -1.40124,-0.29489 -2.09961,-0.21094 z"
       id="path19329"
       sodipodi:nodetypes="aaaaaaaaaaccaaaaaaaaaaaccaa" />
    <path
       style="color:#000000;fill:#62a0ea;-inkscape-stroke:none"
       d="m 493.07812,228.35547 c 0,0 -1.2977,0.40586 -1.95312,0.58594 -1.01785,0.27966 -2.0246,0.63868 -3.07227,0.76757 -0.8678,0.10676 -1.75592,0.11218 -2.62304,0 -1.28121,-0.16576 -2.46202,-0.86348 -3.74805,-0.98632 -0.999,-0.0954 -2.00051,0.18388 -3.00391,0.20117 -2.02876,0.035 -4.055,-0.21509 -6.08398,-0.19727 -1.34212,0.0118 -2.70469,-0.0586 -4.02148,0.20117 -1.19089,0.23493 -2.31178,0.74929 -3.4336,1.21289 -1.3707,0.56646 -2.55333,1.67623 -4.01758,1.91211 -0.96586,0.15559 -1.97584,-0.0815 -2.91211,-0.36523 -1.65375,-0.50109 -4.63671,-2.31836 -4.63671,-2.31836 l -0.44727,0.89453 c 0,0 3.08192,1.87926 4.79102,2.39649 1.08384,0.328 2.2532,0.60052 3.37109,0.41992 1.5432,-0.24932 2.78951,-1.41896 4.23437,-2.01563 1.06046,-0.43792 2.1204,-0.92286 3.2461,-1.14453 1.25548,-0.24722 2.55445,-0.17999 3.83398,-0.1914 2.03221,-0.0181 4.06175,0.22999 6.09375,0.19531 0.96486,-0.0165 1.92806,-0.28332 2.88867,-0.19141 1.27516,0.122 2.44637,0.81245 3.7168,0.97656 0.95108,0.12286 1.92514,0.1171 2.87695,0 1.09562,-0.1348 2.14842,-0.51041 3.21289,-0.80273 0.6626,-0.18196 1.97461,-0.5918 1.97461,-0.5918 z"
       id="path19110"
       sodipodi:nodetypes="caaaaaaaaaaccaaaaaaaaaacc" />
    <path
       style="color:#000000;fill:#62a0ea;-inkscape-stroke:none"
       d="m 467.98828,16.453125 -0.99609,0.09375 c 0,0 -0.0804,2.915179 0.40625,4.253906 0.452,1.24354 1.44174,2.222401 2.24804,3.271485 0.74506,0.969396 1.55605,1.888034 2.38672,2.785156 0.76941,0.830968 1.53479,1.674435 2.40235,2.402344 0.63743,0.53483 1.31489,1.032355 2.04492,1.43164 1.07217,0.586422 3.39062,1.394531 3.39062,1.394531 l 0.38086,-0.923828 c 0,0 -2.24749,-0.784904 -3.28711,-1.353515 -0.67266,-0.367905 -1.29732,-0.82568 -1.88476,-1.31836 -0.83525,-0.700515 -1.57189,-1.512587 -2.3125,-2.3125 -0.80963,-0.874452 -1.59999,-1.769952 -2.32617,-2.714843 -0.74322,-0.967063 -1.65569,-1.869305 -2.07227,-3.015625 -0.4568,-1.256991 -0.38086,-3.994141 -0.38086,-3.994141 z"
       id="path16291"
       sodipodi:nodetypes="ccaaaaaccaaaaac" />
    <path
       style="color:#000000;fill:#62a0ea;-inkscape-stroke:none"
       d="m 462.27148,54.998047 c 0,0 -3.44839,2.053807 -4.62304,3.61914 -0.68108,0.907599 -1.05081,2.045952 -1.26563,3.160157 -0.25082,1.300911 -0.3735,2.703476 0,3.974609 0.32843,1.11774 1.11662,2.068758 1.89063,2.939453 0.97563,1.097492 3.40039,2.800781 3.40039,2.800781 l 0.63476,-0.771484 c 0,0 -2.33847,-1.642677 -3.27929,-2.701172 -0.67413,-0.75845 -1.36048,-1.586945 -1.64649,-2.560547 -0.32773,-1.115618 -0.22003,-2.346528 0,-3.488281 0.18565,-0.963341 0.50492,-1.947709 1.09375,-2.732422 1.12091,-1.493799 4.41211,-3.453125 4.41211,-3.453125 z"
       id="path16113"
       sodipodi:nodetypes="caaaaccaaaacc" />
    <path
       style="color:#000000;fill:#62a0ea;stroke:#62a0ea;-inkscape-stroke:none"
       d="m 454.86328,30.015625 c 0,0 -4.515,2.541183 -6.69531,3.9375 -1.56725,1.003699 -3.19449,1.949374 -4.58399,3.1875 -1.13542,1.011725 -2.12722,2.188974 -3.01757,3.421875 -1.61471,2.235943 -2.97158,4.662397 -4.16993,7.146484 -0.55509,1.150668 -1.38867,3.572266 -1.38867,3.572266 l 0.93164,0.363281 c 0,0 0.8176,-2.371163 1.36133,-3.498047 1.17316,-2.431406 2.49977,-4.807334 4.08008,-6.996093 0.84757,-1.173901 1.79211,-2.294492 2.87305,-3.257813 1.34991,-1.203025 2.93052,-2.12236 4.45312,-3.097656 2.16938,-1.389582 6.66211,-3.917969 6.66211,-3.917969 z"
       id="path15836"
       sodipodi:nodetypes="caaaaccaaaacc" />
    <path
       style="color:#000000;fill:#62a0ea;-inkscape-stroke:none"
       d="m 192.28906,424.66211 -14.14258,0.29297 0.0215,1 14.14258,-0.29492 z"
       id="path14273" />
    <path
       style="color:#000000;fill:#62a0ea;-inkscape-stroke:none"
       d="m 163.43555,431.0957 -18.75977,1.47266 0.0801,0.99805 18.75781,-1.47461 z"
       id="path12428" />
    <path
       style="color:#000000;fill:#62a0ea;-inkscape-stroke:none"
       d="m 144.37695,435.21875 -0.59765,0.80273 c 0,0 1.53439,1.15654 2.31054,1.72266 0.67199,0.49014 1.40027,0.90731 2.03125,1.44922 0.59446,0.51054 1.63868,1.68555 1.63868,1.68555 l 0.71679,-0.69532 c 0,0 -1.08389,-1.22133 -1.70117,-1.75195 -0.65088,-0.5595 -1.40232,-0.9902 -2.0957,-1.49609 -0.77345,-0.56431 -2.30274,-1.7168 -2.30274,-1.7168 z"
       id="path12155"
       sodipodi:nodetypes="ccaaccaac" />
    <path
       style="color:#000000;fill:#62a0ea;-inkscape-stroke:none"
       d="m 174.90039,270.93359 -0.75391,0.65625 c 0,0 1.73241,2.08259 2.66602,3.0625 0.79722,0.83676 1.60444,1.67224 2.50195,2.40039 0.69456,0.5635 1.45267,1.04691 2.2168,1.51172 0.85561,0.52045 1.69991,1.09318 2.64453,1.42578 0.87239,0.30717 2.72852,0.50391 2.72852,0.50391 l 0.18359,-0.98242 c 0,0 -1.75246,-0.18648 -2.57617,-0.47656 -0.87893,-0.30953 -1.6647,-0.8421 -2.46094,-1.32618 -0.72505,-0.44079 -1.44462,-0.89894 -2.10351,-1.43359 -0.86491,-0.70182 -1.64193,-1.50795 -2.41016,-2.31445 -0.92298,-0.96897 -2.63672,-3.02735 -2.63672,-3.02735 z"
       id="path10047"
       sodipodi:nodetypes="ccaaaaccaaaac" />
    <path
       style="color:#000000;fill:#62a0ea;-inkscape-stroke:none"
       d="m 140.1543,287.07617 -0.20703,0.97852 c 0,0 3.7497,1.13805 5.68554,1.19726 2.04765,0.0626 6.08008,-0.89648 6.08008,-0.89648 l -0.14648,-0.99024 c 0,0 -3.91451,0.93175 -5.90235,0.8711 -1.87599,-0.0572 -5.50976,-1.16016 -5.50976,-1.16016 z"
       id="path9008"
       sodipodi:nodetypes="ccaccac" />
    <path
       style="fill:#62a0ea;stroke:#62a0ea;stroke-width:1px;stroke-linecap:butt;stroke-linejoin:miter;stroke-opacity:1"
       d="m 159.37993,258.34133 1.31949,7.43079"
       id="path6186"
       sodipodi:nodetypes="cc" />
    <path
       style="fill:#3d3846;stroke:url(#radialGradient3770);stroke-opacity:1"
       d="m 148.59523,61.48091 3.53565,1.374972 c 0,0 -3.83603,3.238744 -5.49989,5.107041 -1.61997,1.81902 -4.32134,5.892739 -4.32134,5.892739 0,0 1.4855,-4.483829 2.55352,-6.580225 1.0429,-2.04711 3.73206,-5.794527 3.73206,-5.794527 z"
       id="path3826"
       sodipodi:nodetypes="ccacac" />
    <path
       style="fill:#000000;stroke-width:1.03785"
       d="m 485.54096,444.84841 -13.54124,-0.11517 c -2.39772,-0.0204 -5.79011,-0.0915 -6.91781,-0.38958 -3.8746,-1.02425 -3.46015,-3.54187 0.39294,-12.55982 2.3022,-5.38819 4.263,-23.06404 5.33917,-44.91038 1.07617,-21.84634 1.26771,-47.86318 0.0314,-69.93334 -1.2563,-22.42756 -5.84325,-27.3201 -15.24203,-38.67238 -1.34313,-1.62229 -2.3788,-3.97011 -2.30148,-5.21739 l 0.14057,-2.26776 0.43827,2.27775 c 0.24105,1.25276 2.15198,4.98301 4.24652,6.8888 4.51647,4.10945 9.75404,13.68237 12.2024,22.30283 1.47711,5.20077 2.40263,11.338 2.76345,44.10784 0.20304,18.44036 0.0511,30.56895 -0.50223,41.39746 -0.55336,10.82851 -2.36768,20.35693 -3.77052,33.59694 -0.56539,5.33613 -2.4699,11.53201 -3.53191,13.94371 -2.64068,5.9967 -1.88613,5.48893 -0.81425,7.24213 0.77139,1.26169 2.28131,1.18355 8.52279,1.25407 l 13.71587,0.15496 c 0.83588,0.009 1.06211,3.83195 1.87783,5.63651 0.20166,0.44611 0.13721,0.68922 0.73932,1.26908 0.51808,0.49895 0.86072,0.83 1.48793,0.47791 2.26487,-1.27145 3.00996,-2.88063 3.56908,-4.79232 0.97631,-3.33816 -0.0847,-8.78647 -0.74084,-10.40767 -1.2666,-3.12947 -1.86956,-3.07034 -0.51786,-3.05789 0.72318,2.53687 1.44637,1.95313 2.16955,7.61061 0,0 0.2209,2.0208 0.18607,3.03315 -0.0478,1.38863 0.0638,2.88201 -0.54057,4.13315 -0.8573,1.77482 -2.19881,3.78771 -4.11596,4.24542 -0.75967,0.18137 -1.59381,-0.29062 -2.21499,-0.76404 -0.72053,-0.54914 -0.67978,-1.4929 -0.86321,-2.38807 -0.39231,-0.67372 -0.66068,-2.77653 -0.97282,-3.59858 -0.31213,-0.82205 -0.66804,-0.36334 -1.23544,-0.49793 z m -41.20652,2.31554 c -0.82264,-1.99026 -1.67531,-6.3379 -1.50913,-9.65217 l 0.37838,-7.54645 c 0.39177,-1.51293 0.56229,-7.14481 0.65408,-15.63212 0.0918,-8.48732 0.10485,-19.83005 0.0508,-31.51544 -0.10808,-23.37079 -0.48459,-48.1122 -1.03655,-54.12212 -1.73407,-18.88115 -2.14073,-22.58671 -3.85383,-33.79433 -0.72329,-4.73199 -3.20488,-9.34168 -2.70947,-14.10292 0.31925,-3.06809 0.77152,-7.25679 3.5795,-8.53363 2.16621,-0.98501 4.2304,-3.12339 6.77634,2.24629 1.80421,3.80526 3.22502,31.99578 3.88794,77.14111 0.31603,21.52174 0.89827,48.75653 1.29389,60.52175 1.23446,36.71123 1.06724,38.60869 -3.40261,38.60869 -2.00671,0 -2.96098,-0.84032 -4.10937,-3.61866 z m 6.00192,0.22736 c 0.68882,-1.82354 -0.96203,-89.70341 -2.40616,-128.08696 -0.65858,-17.50435 -1.28018,-34.79019 -1.38135,-38.41298 -0.16984,-6.08164 -0.75427,-8.20834 -3.85775,-8.52757 -2.35537,-0.24228 -3.45503,3.48762 -4.18402,5.7404 -0.94425,2.91803 -0.32993,6.15586 0.0361,9.20095 0.39357,3.27414 1.74785,6.37044 2.30678,9.62044 2.24112,13.03141 3.50106,26.24264 4.1689,39.44849 0.8491,16.78994 -0.24742,33.62238 -0.21339,50.43374 0.031,15.31788 0.79942,45.1803 0.38048,45.95217 -0.41893,0.77187 -1.57266,9.89723 -0.28696,13.31563 1.56074,2.07251 4.4349,3.58418 5.43737,1.31569 z m -308.97198,-4.93789 c -0.77773,-0.93094 -0.35023,-2.46027 -0.0622,-3.63863 0.34568,-1.41413 1.62837,-2.45609 2.08069,-3.83981 0.94593,-2.89372 1.08391,-6.00895 1.23194,-9.04976 0.23997,-4.92923 -0.2732,-9.86795 -0.5626,-14.79453 -0.39899,-6.7923 -1.09696,-15.18261 -1.61778,-20.34783 -0.52082,-5.16522 -1.00389,-21.87513 -1.0735,-37.13316 -0.0696,-15.25801 -0.72089,-19.36418 -0.92657,-29.05038 -0.0316,-1.49021 -0.0394,-2.98087 -0.0473,-4.4714 -0.0274,-5.18063 0,-15.5421 0,-15.5421 0,-8.54815 -0.71706,-10.68574 -0.94008,-16.0354 -0.0517,-1.23957 -0.0922,-1.02935 -0.0922,-3.72079 0,-1.69962 -0.4828,-2.39412 0.25807,-3.13708 1.68752,-1.69229 3.35666,-0.29936 7.14384,-0.60796 6.20394,-0.50553 6.99846,-0.34826 8.02366,1.58817 0.92382,1.74493 0.74506,2.54635 -0.95029,4.26012 -2.42543,2.45179 -2.70237,5.51397 -0.6541,7.23236 2.39994,2.01344 2.63887,6.41483 0.91151,16.79156 -1.20571,7.24307 -1.63813,16.65827 -1.60549,34.95652 0.0398,22.36884 0.33781,26.71514 2.78941,40.69566 4.55567,25.97923 6.90059,37.25697 9.08026,43.67101 2.59875,7.64729 1.68161,8.9021 -7.28784,9.9712 -1.75937,0.2097 -4.59657,0.0993 -6.09755,0.79647 -1.50098,0.69715 -3.67909,1.98086 -4.21849,2.47432 -2.40978,1.62742 -4.21048,0.33544 -5.38341,-1.06856 z m 1.09024,-96.35807 c 0.002,15.39552 0.46725,33.15708 1.03402,39.47012 0.56676,6.31304 1.46081,17.42442 1.98675,24.69195 0,0 0.44395,9.66706 0.48436,14.50438 0.0112,1.34159 0.0413,2.68709 -0.0671,4.02434 -0.0934,1.1523 -0.33354,2.28797 -0.50147,3.43178 -0.12887,0.87772 -0.0779,1.80188 -0.38839,2.6329 -0.45596,1.22029 -1.66754,2.06578 -2.10469,3.29294 -0.38441,1.07909 -0.88868,2.37901 -0.39681,3.41355 0.40129,0.84403 1.43016,1.47893 2.36432,1.50695 1.41823,0.0425 2.82236,-1.43963 3.72018,-2.06857 0.89782,-0.62894 2.94357,-1.66264 3.58559,-1.69809 11.84544,-0.38013 12.57061,-1.53716 11.04599,-5.30497 -1.66699,-4.11962 -9.16548,-37.18512 -10.98217,-48.42716 -2.57314,-15.92308 -3.20303,-54.52291 -0.39171,-73.94979 0.72238,-8.76267 0.51053,-11.50645 0.0884,-14.38551 -0.41427,-2.8254 0.25621,-0.75595 -1.85686,-8.36317 -0.30992,-1.1157 0.29494,-1.99179 1.6825,-2.43698 1.28996,-0.41386 2.03108,-1.39772 1.83196,-2.43198 -0.27418,-1.4241 -1.35376,-1.67039 -5.99419,-1.36743 -3.45543,0.22559 -5.74797,-0.69175 -6.58919,-0.23177 -0.84122,0.45997 -0.37955,2.9882 -0.38138,4.49039 -0.002,1.93042 0.31904,3.84765 0.47605,5.77169 0.19924,2.4415 0.49577,4.87727 0.59138,7.32502 0.20675,5.29327 -0.10314,10.59494 -0.0394,15.89186 0.12116,10.07534 0.80192,30.21755 0.80192,30.21755 z m 12.3841,-44.99005 c 0,-0.82699 -0.46451,-1.79384 -1.03225,-2.14854 -0.56775,-0.3547 -1.03226,0.32193 -1.03226,1.50363 0,1.1817 0.46451,2.14854 1.03226,2.14854 0.56774,0 1.03225,-0.67663 1.03225,-1.50363 z m 34.26564,135.04664 c -1.72612,-1.87292 -2.83739,-0.74449 -4.27071,-1.05346 -2.18788,-0.47162 -5.10247,0.44057 -6.60256,-1.22045 -2.37916,-2.6344 -1.82519,-5.90107 -0.86217,-10.6142 1.01188,-4.95228 1.41848,-10.70607 1.00884,-24.22268 -0.40965,-13.5166 -1.63554,-34.79601 -3.88866,-70.79951 -0.55669,-8.89565 -1.45942,-19.11101 -2.00606,-21.98057 -1.37044,-7.19406 -5.78136,-16.86907 -8.3159,-18.24026 -1.15643,-0.62563 -2.10261,-2.02848 -2.10261,-3.11745 0,-1.99686 0.84755,-2.44547 6.97633,-3.69269 4.72182,-0.96089 5.86818,-3.62898 4.33501,-10.08943 -1.04037,-4.38388 -0.99737,-5.47259 0.26663,-6.75033 2.28071,-2.30549 5.30901,0.0826 7.51709,1.34961 1.06337,0.61016 1.70645,1.77823 2.38786,2.79741 1.61075,2.40918 3.90319,7.63337 3.95362,7.74318 0.48577,1.00435 0.79118,6.28695 0.67867,11.73913 -0.89288,43.27254 0.79637,80.50044 3.10773,120.67101 0.31099,5.40487 0.46739,10.85238 1.44685,16.17684 0.49843,2.70953 2.51176,5.21354 2.24146,7.95524 -0.14536,1.47441 -0.69743,3.28792 -2.0176,3.96035 -2.55544,0.41257 -2.42832,0.88596 -3.85382,-0.61174 z m 4.02726,-0.95154 c 1.21166,-2.17177 0.45667,-5.77999 -0.6589,-7.43156 -1.11556,-1.65157 -1.04716,-2.01773 -1.32969,-3.10883 -0.28417,-1.09745 -0.25514,-2.25324 -0.34825,-3.38305 -0.13436,-1.63035 -0.17767,-3.26721 -0.30345,-4.89825 -0.60508,-7.84634 -1.72179,-15.6521 -2.17028,-23.50894 -1.76691,-30.95349 -1.51623,-61.98978 -2.04473,-92.98915 -0.1349,-7.91247 1.8589,-16.12214 -0.28747,-23.73913 -0.23448,-0.83213 -0.8935,-1.48042 -1.32728,-2.22825 -0.84197,-1.45155 -1.47156,-3.03883 -2.47525,-4.38364 -0.86077,-1.15331 -1.71065,-2.46566 -3.00014,-3.10461 -1.52439,-0.75534 -4.13439,-2.2025 -5.06856,-0.59871 -0.25071,0.43044 0.0189,1.95653 0.59925,3.39131 3.45486,8.54206 0.65893,15.03579 -6.20755,14.41739 -2.26602,-0.20407 -3.838,0.16836 -4.11072,0.97391 -0.24288,0.7174 0.29389,1.30435 1.19282,1.30435 0.89892,0 1.6344,0.11943 1.6344,0.26539 0,0.14597 1.20503,3.55032 2.67783,7.56522 5.46152,14.88816 6.05894,19.18042 8.6022,61.80357 0.93136,15.60882 2.19137,41.73936 1.2725,62.58515 -0.0854,1.93639 -0.48923,3.84747 -0.62928,5.78068 -0.20013,2.76265 -1.99156,6.11026 -0.30075,8.30422 1.24337,1.61336 3.96975,0.91548 5.96151,1.34187 1.56913,0.33591 3.30353,0.19989 4.71772,0.95822 0.68915,0.36954 0.88907,1.53218 1.6611,1.65656 0.71521,0.11522 1.59001,-0.34108 1.94297,-0.97372 z M 179.2074,315.01912 c -0.24977,-0.79954 -0.73893,-4.97544 -1.08703,-9.27979 -0.83548,-10.33096 -2.31133,-15.56064 -5.04183,-17.86578 -1.2319,-1.03998 -1.68659,-1.9065 -1.01042,-1.92559 0.67617,-0.0191 1.51649,0.43485 1.86738,1.00876 1.14929,1.87978 2.26389,1.10054 3.35819,-2.34783 l 1.0762,-3.3913 0.10539,3.97463 c 0.0638,2.40714 -0.30171,3.72029 -0.92688,3.32972 -0.56774,-0.3547 -1.03225,0.0871 -1.03225,0.98189 0,0.89474 0.46451,1.6268 1.03225,1.6268 0.56775,0 1.03226,2.14049 1.03226,4.75665 0,2.61614 0.50589,8.05259 1.12419,12.08097 0.6183,4.02839 0.8615,7.5899 0.54043,7.91445 -0.32107,0.32456 -0.78812,-0.0641 -1.03788,-0.86358 z m 6.59907,-42.6711 c -123.87098,-181.565347 -61.93549,-90.78267 0,0 z m 307.32186,160.72671 c -0.48118,-1.86003 -0.34734,-3.28677 -1.3847,-6.39545 -1.03736,-3.10868 -1.38845,-5.70202 -1.96369,-8.57854 -1.16432,-5.8222 -2.32946,-11.65801 -3.0086,-17.55652 -2.07437,-18.0164 -2.98422,-36.09368 -3.23791,-54.30985 -0.25368,-18.21616 1.14981,-35.10348 3.26721,-45.19074 0.84329,-4.01739 1.54336,-6.76691 2.68619,-10.03599 0.44701,-1.27868 1.06472,-2.49136 1.62387,-3.72513 1.01749,-2.2451 2.35055,-4.35867 3.14935,-6.69056 1.10691,-3.23132 2.2225,-5.74007 2.23729,-9.99974 0.0156,-4.49279 -0.32902,-5.51953 -3.70174,-5.61752 -15.74132,3.13713 -9.37448,0.45974 -9.37448,0.45974 -3.30098,0.30674 -4.63455,0.2269 -2.96352,-0.17741 3.48896,-0.84419 3.93921,-2.09479 1.34885,-3.74651 -2.03047,-1.2947 -5.61916,0.36885 -5.16129,2.39253 0.42345,1.87157 -0.73132,1.30734 -3.15581,-1.54193 l -2.28259,-2.68252 -2.493,2.68252 -2.49299,2.68252 h 2.69966 c 1.48481,0 2.93681,0.38788 3.22665,0.86195 0.28984,0.47407 -2.09008,0.50296 -5.28873,0.0642 -7.30273,-1.00178 -11.75567,-0.15381 -12.40665,2.36256 -0.27441,1.06079 -0.89471,1.92871 -1.37841,1.92871 -0.97569,0 -0.14385,-2.93059 1.40689,-4.95652 0.54912,-0.7174 3.12257,-1.30435 5.71876,-1.30435 3.71113,0 5.33668,-0.59689 7.60302,-2.7918 2.5737,-2.49255 3.1468,-2.64891 5.34681,-1.4587 1.89848,1.02709 2.97719,1.05553 4.69919,0.12394 1.83406,-0.99224 3.77844,0.63518 5.67023,0.93695 3.2975,0.526 6.68456,0.62632 9.90116,1.5228 0.52516,0.14636 0.68044,0.62333 1.51208,0.62333 4.09264,0 3.94249,10.00469 -0.29942,19.95043 l -3.17596,6.37988 c -0.42239,0.84849 -3.27978,8.17826 -4.71345,18.66806 -1.43368,10.4898 -1.58135,24.07107 -1.58135,30.34106 0,18.07572 0.92289,47.69566 3.99751,71.30038 0.59013,4.53056 2.03065,8.91533 2.76394,13.42494 0.5417,3.33136 2.58779,15.39641 1.20556,10.05331 z M 128.34202,71.145768 c 0.004,1.012532 0.35734,3.016528 0.35734,3.016528 l 1.67548,4.386628 c 0.17159,0.906838 1.8435,4.562534 3.29088,8.449672 2.96415,7.960639 4.63062,21.646634 7.13131,58.566644 1.95321,28.8369 3.15719,58.81434 1.68134,88.17392 -0.0879,1.74941 -0.0239,3.56772 -0.12659,5.34387 -0.10265,1.77615 -0.77461,2.74312 -1.33486,4.04921 -0.41742,0.97313 -0.96523,1.83288 -1.50057,2.79987 -0.70361,1.27094 -0.38058,2.56862 1.1657,4.68281 1.17647,1.60856 2.62674,5.583 2.26253,5.95118 -0.36422,0.36818 -2.00439,-2.92228 -2.68452,-4.43122 -0.68013,-1.50896 -1.82751,-2.74355 -2.54974,-2.74355 -2.29879,0 -2.71063,3.98671 -0.75715,7.32962 1.69051,2.89291 1.97562,3.01892 3.15175,1.39299 0.71121,-0.9832 1.60474,-1.47264 1.98561,-1.08761 0.38089,0.38502 -0.0789,1.56162 -1.02158,2.61468 -2.34083,2.6147 -2.16086,3.85232 0.91597,6.29885 2.34524,1.86483 2.97916,1.94294 5.85332,0.72131 2.00273,-0.85123 4.27689,-1.06453 6.00586,-0.56327 1.53046,0.4437 3.4255,0.39517 4.21121,-0.10785 0.39285,-0.25151 1.84522,-0.58612 2.80576,-0.75479 0.96054,-0.16867 1.42925,-0.17138 2.49377,-0.17578 3.63328,-0.015 3.06148,0.0906 4.1165,-0.82925 1.3866,-1.20899 1.07441,-3.52813 1.81667,-5.2114 0.55006,-1.2474 0.61494,-2.40951 1.94356,-3.59856 5.18544,-4.64073 4.37984,-8.8902 3.48502,-8.57398 -0.89481,0.31622 -0.91892,-2.35393 -3.83044,-1.81995 -1.07851,0.1978 -1.52699,-0.12071 -1.11615,-0.79268 0.37774,-0.61784 -0.27078,-2.35395 -1.44117,-3.85803 -3.82751,-4.91877 -6.26984,-15.78037 -10.99504,-48.89734 -4.33706,-30.39663 -5.89845,-82.22614 -2.98576,-99.110316 0.86558,-5.017546 2.06359,-10.047974 2.66224,-11.178728 0.85271,-1.610626 0.70216,-2.341462 1.27006,-3.428959 0.5679,-1.087498 1.68599,-2.131097 3.554,-5.704255 2.3615,-4.517172 2.37917,-4.743596 0.66879,-8.577769 -2.44593,-5.483043 -4.77617,-7.292923 -10.18289,-7.908963 -3.35993,-0.382828 -5.42026,-0.0327 -7.35726,1.25026 -3.48433,2.30784 -4.80428,1.002328 -1.62275,-1.605013 3.98458,-3.265466 12.18111,-2.324624 16.55523,1.900301 2.71066,2.618197 5.2659,8.058235 5.2659,11.210938 0,1.479649 -2.21131,6.4219 -3.89547,9.794472 -5.5131,11.040083 -6.64271,18.708948 -6.69628,45.460712 -0.0488,24.37335 2.08236,44.87333 5.02746,68.41906 2.92756,23.40542 7.91902,44.16896 11.29986,47.00531 0.81964,0.68762 1.49023,1.81773 1.49023,2.51135 0,0.69361 1.81156,1.54883 2.40011,2.55958 0.97707,1.67797 1.91776,3.63015 1.72889,5.56266 -0.22117,2.26304 -1.04628,3.9665 -3.2475,5.99885 -2.1181,1.95561 -3.46997,4.3847 -3.88721,6.98466 0,0 -0.44239,2.20856 -1.27811,2.80773 -1.82927,1.3115 -4.496,0.32079 -6.7185,0.67685 -1.83556,0.29408 -3.6712,1.28779 -5.44573,1.20243 -2.78777,-0.13409 -3.58766,-0.73802 -4.87871,-0.63442 -2.58212,0.20721 -4.43887,1.86954 -5.72672,1.83465 -2.57571,-0.0698 -3.50931,-0.7525 -4.90209,-1.79585 -1.4191,-1.06307 -3.0475,-2.6595 -3.15999,-4.27902 -0.0299,-1.14783 -0.71827,-3.26087 -1.52965,-4.69565 -2.12751,-3.76215 -1.88865,-6.42609 1.05332,-11.74703 0,0 1.98974,-2.09531 2.66732,-3.35231 0.7198,-1.33532 1.41729,-4.32457 1.41729,-4.32457 1.48292,-2.97133 -0.41472,-59.89278 -2.00395,-89.61957 -1.01688,-19.02086 -1.18762,-38.33832 -5.59446,-56.86957 -0.84118,-3.537242 -3.05425,-6.645817 -3.93299,-10.173914 -1.26815,-5.091534 -3.43883,-10.621041 -1.8739,-15.629325 0.72713,-2.327054 2.97109,-4.316113 4.85041,-5.47436 3.61697,-2.229173 8.06212,-2.819257 8.06212,-1.070228 0,0.573913 -4.24858,0.402604 -6.0727,1.395894 -2.21259,1.20483 -4.31227,3.005427 -5.41901,5.268679 -0.73705,1.507247 -0.55987,3.325117 -0.55337,5.002912 z M 483.39365,251.82157 c -5.23653,-3.12611 -11.11334,-3.46316 -16.61965,-0.95317 -3.14204,1.43226 -5.37442,1.73082 -8.92126,1.19316 -5.52417,-0.8374 -7.29614,-2.9761 -8.31074,-10.03078 -0.60747,-4.22382 2.19601,-8.84168 3.57725,-13.17903 1.94327,-6.10221 5.72296,-11.69584 6.61588,-18.03744 2.91881,-20.72956 -0.069,-41.3311 -4.50411,-62.64039 -4.87738,-23.4339 -9.455,-47.13561 -15.32681,-70.434787 -0.83047,-3.29527 -1.90816,-6.523529 -2.81244,-9.799312 -0.92256,-3.34198 -0.96794,-4.902995 -2.66578,-10.05351 -1.69785,-5.150514 -3.44899,-11.8015 -3.67072,-14.799975 0,0 -0.40731,-3.994868 -0.44368,-5.999999 -0.0226,-1.243521 0.14004,-3.728547 0.14004,-3.728547 0,-7.081026 4.48876,-13.031992 13.71898,-18.187907 7.45538,-4.164509 11.29564,-1.882001 8.94536,5.316801 -1.36161,4.170567 -0.67642,5.600273 2.68393,5.600273 2.80567,0 10.78076,-6.678257 10.78076,-9.0277 0,-5.046188 7.6603,-10.2409789 13.39253,-9.0820713 3.8975,0.7879711 6.55371,3.7636003 8.47154,6.8465103 1.55199,2.494828 1.78385,5.664351 1.94002,8.598369 0.0742,1.394106 0.24582,2.969509 -0.4829,4.160308 -1.6906,2.762592 -2.69243,4.864831 -8.08455,5.389847 -2.32861,0.226731 -5.32514,1.135057 -6.65896,2.018504 -3.72824,2.469394 -8.3771,9.573937 -10.30026,15.741201 -1.62444,5.209334 -1.62489,5.693289 -0.007,7.500522 2.49292,2.784589 2.13329,3.740921 -0.43172,1.14803 -1.73733,-1.756215 -2.02713,-2.933084 -1.47751,-6 1.58314,-8.832314 3.3439,-10.542615 6.5767,-14.906629 1.9215,-2.593862 4.4986,-4.783119 7.33684,-6.320857 1.68279,-0.911719 3.73903,-0.883985 5.51507,-1.597191 1.39024,-0.558276 2.9224,-1.024359 3.98275,-2.082702 0.96643,-0.964603 1.55755,-2.305902 1.9051,-3.626378 0.42618,-1.619203 0.60703,-3.408245 0.15575,-5.020632 -0.99706,-3.562428 -3.24764,-8.010588 -6.05234,-9.302388 -6.39599,-2.9458853 -12.49254,0.01509 -14.58799,7.085117 -0.71889,2.425504 -2.54858,5.197594 -4.35139,6.592633 -1.711,1.323986 -4.80384,3.815942 -6.87298,5.537681 -2.69482,2.242354 -3.44297,2.549599 -2.63721,1.083022 0.90903,-1.654509 0.71653,-2.405433 -1.00306,-3.913043 -1.17038,-1.026097 -2.95851,-1.865631 -3.97361,-1.865631 -1.01511,0 -2.18152,-0.549362 -2.59204,-1.220806 -0.50115,-0.819691 -0.18467,-1.002914 0.9632,-0.557646 1.21649,0.471886 2.18008,-0.256555 3.3408,-2.52555 3.80849,-7.444855 -1.63253,-8.163442 -10.21883,-1.349586 -6.06141,4.810174 -8.94449,9.480626 -8.94449,14.489638 0,2.581509 -0.0648,2.068497 -0.0611,3.103037 0.003,0.954608 0.0618,0.555228 0.0764,2.862824 0.0206,3.275912 1.34823,10.929884 2.92601,10.57719 0.70546,-0.157697 0.96753,0.228705 0.58238,0.85867 -0.65069,1.064284 3.18557,14.098685 3.72427,16.011053 0.53869,1.912368 1.72309,1.69402 6.24053,21.403352 13.45459,58.701445 15.06998,65.310465 17.11939,98.608695 0.44261,7.19136 -0.11466,14.44603 -1.05778,21.589 -0.31409,2.37887 -0.79938,4.74808 -1.52589,7.03497 -0.56462,1.77732 -1.40739,3.4553 -2.1869,5.14941 -1.41279,3.07043 -2.62432,7.72924 -3.90174,9.89196 -1.58169,2.67785 -2.32258,5.5994 -2.32258,9.15856 0,10.4711 4.06318,12.1596 10.78285,4.48095 3.93398,-4.4954 4.56618,-4.8164 10.54442,-5.35388 8.43067,-0.75797 11.17146,0.0538 12.68958,3.75877 0.68525,1.67236 2.40933,4.14355 3.83125,5.49154 l 2.58535,2.4509 2.05978,-2.567 c 1.63959,-2.04332 2.97461,-8.50185 2.59184,-12.68806 -0.82261,-8.99657 -1.0556,-5.44429 -7.47362,-18.21919 -7.70502,-15.33665 -10.96208,-21.54261 -14.88626,-41.55646 -6.10916,-31.15752 -8.35546,-61.94306 -10.43858,-100.970366 -0.23282,-4.361926 -0.15778,-6.808965 1.35994,-7.210184 1.0151,-0.268341 1.81995,-3.303611 2.07377,-4.374403 0.0635,-0.267699 -0.64741,-2.954274 -0.3549,-2.956304 0.29251,-0.002 1.58841,2.680486 1.34404,3.329735 -0.48874,1.298502 -2.42435,3.794106 -2.585,4.511498 -0.88374,3.946373 0.1694,25.93231 1.41612,37.135514 0.60673,5.45217 2.25412,18.13043 3.66087,28.17391 1.40674,10.04348 3.44203,24.83478 4.52288,32.86957 1.08084,8.03478 3.11491,19.14266 4.52013,24.68418 2.35052,9.26926 4.48965,14.261 14.22319,33.19037 2.91376,5.66657 3.46784,7.84699 3.46784,13.6468 0,8.07984 -2.57378,13.99527 -6.72589,15.45844 -2.09287,0.73751 -3.58485,0.39368 -6.91274,-1.59301 z m 4.68488,-2.52878 c -6.46626,-8.69575 -6.90155,-8.9426 -14.59598,-8.27722 -6.63015,0.57334 -7.23187,0.84598 -10.48989,4.75286 -3.40761,4.08624 -3.4227,4.14913 -1.07164,4.46453 1.31155,0.17596 4.16706,-0.64578 6.34557,-1.82609 2.1785,-1.1803 4.75884,-2.14599 5.73409,-2.14599 2.28342,0 6.87509,2.01531 10.00951,4.39323 1.35399,1.0272 3.36351,1.86764 4.46562,1.86764 1.89799,0 1.87701,-0.17053 -0.39728,-3.22896 z M 468.19904,28.695653 c -1.51564,-2.008696 -3.85685,-5.315971 -3.40215,-5.308866 0.45469,0.0071 6.00107,7.445109 7.2837,9.4467 0.92074,2.57261 0.68867,1.874813 -3.88155,-4.137834 z"
       id="path119"
       sodipodi:nodetypes="cssssssscssssssssssassasccaaascscssssaaasssssscssaaaaaacccsscassaasasassssscsssscassscaaaaaascsscasssssaaaasssscacscaccsssssssaaccsaaaccaccsaaaaaasssssssssaaaaaaaccscssssssssssccscsssassaaacsscccsssssssssssccaacccsssaascsscsassssssscsssssssaascsssssscssssssssssssaascaasssacscacaaasssaaasssscsaasaacsassssccaaasscsssaaaaaassssssssssssassscssaaassscsssssssssssssssssccsssscscssssscsccscc" />
    <path
       style="color:#000000;fill:#62a0ea;stroke:#62a0ea;-inkscape-stroke:none"
       d="m 166,254.65234 c -0.49429,-0.0212 -0.99264,0.0231 -1.48047,0.10547 -0.9169,0.15485 -1.85889,0.31627 -2.69336,0.72656 -0.77379,0.38045 -1.27991,1.19606 -2.05859,1.56641 -0.83235,0.39587 -1.77229,0.54122 -2.6875,0.65039 -0.31741,0.0379 -0.64173,0.0391 -0.95899,0 -0.50023,-0.0617 -0.99148,-0.19951 -1.46679,-0.36719 -0.43897,-0.15486 -0.83185,-0.42219 -1.26758,-0.58593 -0.58123,-0.21842 -1.17032,-0.45392 -1.78711,-0.52539 -0.64446,-0.0747 -1.3124,-0.0436 -1.94336,0.10742 -0.88962,0.21292 -1.65346,0.78901 -2.51172,1.10547 -0.26533,0.0978 -0.52971,0.24222 -0.8125,0.24414 -0.40286,0.003 -0.79514,-0.16579 -1.16211,-0.33203 -0.47408,-0.21476 -1.3125,-0.84571 -1.3125,-0.84571 l -0.54101,0.8418 1.4375,0.92383 c 0,0 1.03614,0.45674 1.58593,0.45312 0.40102,-0.003 0.77601,-0.20716 1.15235,-0.3457 0.82015,-0.30191 1.55049,-0.85102 2.40039,-1.05469 0.51618,-0.1237 1.06255,-0.15066 1.58984,-0.0898 0.53598,0.0619 1.0477,0.26721 1.55274,0.45703 0.44172,0.16603 0.84012,0.43681 1.28515,0.59375 0.54368,0.19172 1.10557,0.3494 1.67774,0.41992 0.39738,0.049 0.80359,0.0473 1.20117,0 1.02421,-0.12195 2.07642,-0.28342 3.00781,-0.72656 0.78274,-0.37242 1.29045,-1.19376 2.06836,-1.57617 0.74718,-0.3673 1.59117,-0.50971 2.41211,-0.64844 0.41835,-0.0707 0.84563,-0.10974 1.26953,-0.0918 0.5749,0.0243 1.16789,0.0633 1.70508,0.26953 0.6959,0.26718 1.875,1.21875 1.875,1.21875 l 0.54492,-0.83789 c 0,0 -1.29204,-1.04309 -2.05469,-1.33593 -0.6387,-0.24524 -1.3438,-0.29109 -2.02734,-0.32036 z"
       id="path4903"
       sodipodi:nodetypes="aaaaaaaaaaaaacccaaaaaaaaaaaaaccaa" />
    <path
       style="color:#000000;fill:#62a0ea;stroke:#62a0ea;-inkscape-stroke:none"
       d="m 169.01172,244.54883 c 0,0 -1.317,1.39696 -1.65039,2.27148 -0.37596,0.98618 -0.35705,2.09576 -0.31641,3.15039 0.0378,0.9821 0.18631,1.97774 0.51953,2.90235 0.47801,1.32635 2.08203,3.68164 2.08203,3.68164 l 0.8711,-0.49219 c 0,0 -1.5414,-2.25994 -2,-3.5332 -0.29805,-0.82749 -0.42905,-1.71878 -0.46289,-2.59766 -0.0353,-0.91792 -0.0536,-1.88377 0.27343,-2.74219 0.30115,-0.79051 1.49219,-2.05273 1.49219,-2.05273 z"
       id="path5039"
       sodipodi:nodetypes="caaaccaaacc" />
    <path
       d="m 139.51189,245.85708 c -0.70361,1.27094 -0.38058,2.56862 1.1657,4.68281 1.17647,1.60856 2.62674,5.583 2.26253,5.95118 -0.36422,0.36818 -2.00439,-2.92228 -2.68452,-4.43122 -0.68013,-1.50896 -1.82751,-2.74355 -2.54974,-2.74355"
       style="fill:#62a0ea;stroke:none;stroke-width:1.03785"
       id="path6504" />
    <path
       style="color:#000000;fill:#62a0ea;-inkscape-stroke:none"
       d="m 153.54769,296.18555 c 0,0 -1.47584,2.26294 -1.72852,3.55664 -0.20813,1.06561 -0.20027,2.24756 0.2168,3.25 0.44051,1.05877 2.27344,2.58203 2.27344,2.58203 l 0.75,-0.66016 c 0,0 -1.65196,-1.37358 -2.04883,-2.32812 -0.33916,-0.81576 -0.34509,-1.77745 -0.17578,-2.64453 0.23565,-1.20684 1.61133,-3.31836 1.61133,-3.31836 z"
       id="path9167"
       sodipodi:nodetypes="caaccaacc" />
    <path
       style="color:#000000;fill:#000000;-inkscape-stroke:none"
       d="m 480.2832,274.125 c -5.93733,-0.0847 -9.85156,5.08594 -9.85156,5.08594 l 0.79688,0.60351 c 0,0 4.70877,-6.21023 11.44921,-4.33789 l 0.26758,-0.96289 c -0.92526,-0.25702 -1.81392,-0.37656 -2.66211,-0.38867 z"
       id="path19269" />
    <path
       style="fill:none;stroke:#000000;stroke-width:1px;stroke-linecap:butt;stroke-linejoin:miter;stroke-opacity:1"
       d="M 148.59523,61.48091 60.498787,103.31936 142.30965,73.855662"
       id="path21200" />
    <text
       xml:space="preserve"
       style="font-style:normal;font-variant:normal;font-weight:normal;font-stretch:normal;font-size:10.6667px;line-height:1.25;font-family:sans-serif;-inkscape-font-specification:'sans-serif, Normal';font-variant-ligatures:normal;font-variant-caps:normal;font-variant-numeric:normal;font-variant-east-asian:normal"
       x="-30.249393"
       y="113.53344"
       id="text23639"><tspan
         sodipodi:role="line"
         id="tspan23637"
         x="-30.249393"
         y="113.53344">Humerus, head, and</tspan><tspan
         sodipodi:role="line"
         x="-30.249393"
         y="126.86681"
         id="tspan23641">greater and lesser tuberosities</tspan><tspan
         sodipodi:role="line"
         x="-30.249393"
         y="140.2002"
         id="tspan23643">Fuse together 4-6y</tspan><tspan
         sodipodi:role="line"
         x="-30.249393"
         y="153.53357"
         id="tspan23645">Fuse to shaft ♂︎19-21y</tspan><tspan
         sodipodi:role="line"
         x="-30.249393"
         y="166.86694"
         id="tspan24547">                     ♀︎ 18-20y</tspan></text>
    <text
       xml:space="preserve"
       style="font-style:normal;font-variant:normal;font-weight:normal;font-stretch:normal;font-size:10.6667px;line-height:1.25;font-family:sans-serif;-inkscape-font-specification:'sans-serif, Normal';font-variant-ligatures:normal;font-variant-caps:normal;font-variant-numeric:normal;font-variant-east-asian:normal"
       x="-37.207249"
       y="200.15639"
       id="text23639-6"><tspan
         sodipodi:role="line"
         id="tspan23637-4"
         x="-37.207249"
         y="200.15639">Humerus, capitulum,</tspan><tspan
         sodipodi:role="line"
         x="-37.207249"
         y="213.48976"
         id="tspan23641-8">lateral epicondyle, and</tspan><tspan
         sodipodi:role="line"
         x="-37.207249"
         y="226.82314"
         id="tspan34907">trochlea</tspan><tspan
         sodipodi:role="line"
         x="-37.207249"
         y="240.15651"
         id="tspan23643-9">Fuse together at puberty</tspan><tspan
         sodipodi:role="line"
         x="-37.207249"
         y="253.48988"
         id="tspan23645-7">Fuse to shaft ♂︎17y</tspan><tspan
         sodipodi:role="line"
         x="-37.207249"
         y="266.82327"
         id="tspan24547-1">                     ♀︎ 14y</tspan></text>
    <text
       xml:space="preserve"
       style="font-style:normal;font-variant:normal;font-weight:normal;font-stretch:normal;font-size:10.6667px;line-height:1.25;font-family:sans-serif;-inkscape-font-specification:'sans-serif, Normal';font-variant-ligatures:normal;font-variant-caps:normal;font-variant-numeric:normal;font-variant-east-asian:normal"
       x="196.46068"
       y="242.9864"
       id="text23639-6-5"><tspan
         sodipodi:role="line"
         id="tspan23637-4-0"
         x="196.46068"
         y="242.9864">Medial epicondyle</tspan><tspan
         sodipodi:role="line"
         x="196.46068"
         y="256.31979"
         id="tspan23645-7-3">Closure ♂︎18y</tspan><tspan
         sodipodi:role="line"
         x="196.46068"
         y="269.65317"
         id="tspan24547-1-8">             ♀︎ 15y</tspan></text>
    <text
       xml:space="preserve"
       style="font-style:normal;font-variant:normal;font-weight:normal;font-stretch:normal;font-size:10.6667px;line-height:1.25;font-family:sans-serif;-inkscape-font-specification:'sans-serif, Normal';font-variant-ligatures:normal;font-variant-caps:normal;font-variant-numeric:normal;font-variant-east-asian:normal"
       x="288.45215"
       y="39.457539"
       id="text23639-6-5-80"><tspan
         sodipodi:role="line"
         id="tspan23637-4-0-1"
         x="288.45215"
         y="39.457539">Greater trochanter</tspan><tspan
         sodipodi:role="line"
         x="288.45215"
         y="52.790913"
         id="tspan24547-1-8-5">Closure 16-17y</tspan></text>
    <text
       xml:space="preserve"
       style="font-style:normal;font-variant:normal;font-weight:normal;font-stretch:normal;font-size:10.6667px;line-height:1.25;font-family:sans-serif;-inkscape-font-specification:'sans-serif, Normal';font-variant-ligatures:normal;font-variant-caps:normal;font-variant-numeric:normal;font-variant-east-asian:normal"
       x="313.2254"
       y="85.409157"
       id="text23639-6-5-80-8"><tspan
         sodipodi:role="line"
         id="tspan23637-4-0-1-8"
         x="313.2254"
         y="85.409157">Lesser trochanter</tspan><tspan
         sodipodi:role="line"
         x="313.2254"
         y="98.742531"
         id="tspan24547-1-8-5-8">Closure 16-17y</tspan></text>
    <text
       xml:space="preserve"
       style="font-style:normal;font-variant:normal;font-weight:normal;font-stretch:normal;font-size:10.6667px;line-height:1.25;font-family:sans-serif;-inkscape-font-specification:'sans-serif, Normal';font-variant-ligatures:normal;font-variant-caps:normal;font-variant-numeric:normal;font-variant-east-asian:normal"
       x="278.64471"
       y="162.80048"
       id="text23639-6-5-80-8-2"><tspan
         sodipodi:role="line"
         id="tspan23637-4-0-1-8-5"
         x="278.64471"
         y="162.80048">Distal epiphysis</tspan><tspan
         sodipodi:role="line"
         x="278.64471"
         y="176.13385"
         id="tspan24547-1-8-5-8-1">Closure ♂︎ 18-19y</tspan><tspan
         sodipodi:role="line"
         x="278.64471"
         y="189.46722"
         id="tspan121080">             ♀︎ 17y</tspan></text>
    <text
       xml:space="preserve"
       style="font-style:normal;font-variant:normal;font-weight:normal;font-stretch:normal;font-size:10.6667px;line-height:1.25;font-family:sans-serif;-inkscape-font-specification:'sans-serif, Normal';font-variant-ligatures:normal;font-variant-caps:normal;font-variant-numeric:normal;font-variant-east-asian:normal"
       x="289.48645"
       y="275.48685"
       id="text23639-6-5-80-8-2-6"><tspan
         sodipodi:role="line"
         id="tspan23637-4-0-1-8-5-9"
         x="289.48645"
         y="275.48685">Fibula, proximal epiphysis</tspan><tspan
         sodipodi:role="line"
         x="289.48645"
         y="288.82022"
         id="tspan24547-1-8-5-8-1-6">Closure ♂︎ 18-20y</tspan><tspan
         sodipodi:role="line"
         x="289.48645"
         y="302.15359"
         id="tspan121080-5">             ♀︎ 16-18y</tspan></text>
    <text
       xml:space="preserve"
       style="font-style:normal;font-variant:normal;font-weight:normal;font-stretch:normal;font-size:10.6667px;line-height:1.25;font-family:sans-serif;-inkscape-font-specification:'sans-serif, Normal';font-variant-ligatures:normal;font-variant-caps:normal;font-variant-numeric:normal;font-variant-east-asian:normal"
       x="507.66745"
       y="241.87468"
       id="text23639-6-5-80-8-2-6-5"><tspan
         sodipodi:role="line"
         id="tspan23637-4-0-1-8-5-9-7"
         x="507.66745"
         y="241.87468">Proximal epiphysis</tspan><tspan
         sodipodi:role="line"
         x="507.66745"
         y="255.20805"
         id="tspan24547-1-8-5-8-1-6-2">Closure ♂︎ 18-19y</tspan><tspan
         sodipodi:role="line"
         x="507.66745"
         y="268.54144"
         id="tspan121080-5-01">             ♀︎ 16-17y</tspan></text>
    <text
       xml:space="preserve"
       style="font-style:normal;font-variant:normal;font-weight:normal;font-stretch:normal;font-size:10.6667px;line-height:1.25;font-family:sans-serif;-inkscape-font-specification:'sans-serif, Normal';font-variant-ligatures:normal;font-variant-caps:normal;font-variant-numeric:normal;font-variant-east-asian:normal"
       x="535.60962"
       y="293.54297"
       id="text23639-6-5-80-8-2-6-5-6"><tspan
         sodipodi:role="line"
         id="tspan23637-4-0-1-8-5-9-7-6"
         x="535.60962"
         y="293.54297">Tibial tuberosity</tspan><tspan
         sodipodi:role="line"
         x="535.60962"
         y="306.87634"
         id="tspan121080-5-01-8">Closure 19y</tspan></text>
    <text
       xml:space="preserve"
       style="font-style:normal;font-variant:normal;font-weight:normal;font-stretch:normal;font-size:10.6667px;line-height:1.25;font-family:sans-serif;-inkscape-font-specification:'sans-serif, Normal';font-variant-ligatures:normal;font-variant-caps:normal;font-variant-numeric:normal;font-variant-east-asian:normal"
       x="509.86523"
       y="390.79892"
       id="text23639-6-5-80-8-2-6-5-6-2"><tspan
         sodipodi:role="line"
         id="tspan23637-4-0-1-8-5-9-7-6-0"
         x="509.86523"
         y="390.79892">Distal epiphysis</tspan><tspan
         sodipodi:role="line"
         x="509.86523"
         y="404.13229"
         id="tspan121080-5-01-8-2">Closure 17-18y</tspan></text>
    <text
       xml:space="preserve"
       style="font-style:normal;font-variant:normal;font-weight:normal;font-stretch:normal;font-size:10.6667px;line-height:1.25;font-family:sans-serif;-inkscape-font-specification:'sans-serif, Normal';font-variant-ligatures:normal;font-variant-caps:normal;font-variant-numeric:normal;font-variant-east-asian:normal"
       x="512.09222"
       y="433.93619"
       id="text23639-6-5-80-8-2-6-5-6-2-4"><tspan
         sodipodi:role="line"
         id="tspan23637-4-0-1-8-5-9-7-6-0-3"
         x="512.09222"
         y="433.93619">Malleolus, medial tip</tspan><tspan
         sodipodi:role="line"
         x="512.09222"
         y="447.26956"
         id="tspan121080-5-01-8-2-5">Closure ♂︎ 18y</tspan><tspan
         sodipodi:role="line"
         x="512.09222"
         y="460.87079"
         id="tspan159263">             ♀︎ 16y</tspan></text>
    <text
       xml:space="preserve"
       style="font-style:normal;font-variant:normal;font-weight:normal;font-stretch:normal;font-size:10.6667px;line-height:1.25;font-family:sans-serif;-inkscape-font-specification:'sans-serif, Normal';font-variant-ligatures:normal;font-variant-caps:normal;font-variant-numeric:normal;font-variant-east-asian:normal"
       x="330.7175"
       y="416.04672"
       id="text23639-6-5-80-8-2-6-4"><tspan
         sodipodi:role="line"
         id="tspan23637-4-0-1-8-5-9-8"
         x="330.7175"
         y="416.04672">Fibular malleolus</tspan><tspan
         sodipodi:role="line"
         x="330.7175"
         y="429.3801"
         id="tspan121080-5-0">Closure 17-18y</tspan></text>
    <text
       xml:space="preserve"
       style="font-style:normal;font-variant:normal;font-weight:normal;font-stretch:normal;font-size:10.6667px;line-height:1.25;font-family:sans-serif;-inkscape-font-specification:'sans-serif, Normal';font-variant-ligatures:normal;font-variant-caps:normal;font-variant-numeric:normal;font-variant-east-asian:normal"
       x="507.8822"
       y="25.696072"
       id="text23639-6-5-80-5"><tspan
         sodipodi:role="line"
         id="tspan23637-4-0-1-3"
         x="507.8822"
         y="25.696072">Femur, head</tspan><tspan
         sodipodi:role="line"
         x="507.8822"
         y="39.029446"
         id="tspan24547-1-8-5-7">Closure ♂︎ 17-18y</tspan><tspan
         sodipodi:role="line"
         x="507.8822"
         y="52.362823"
         id="tspan110437">             ♀︎ 16-17y</tspan></text>
    <text
       xml:space="preserve"
       style="font-style:normal;font-variant:normal;font-weight:normal;font-stretch:normal;font-size:10.6667px;line-height:1.25;font-family:sans-serif;-inkscape-font-specification:'sans-serif, Normal';font-variant-ligatures:normal;font-variant-caps:normal;font-variant-numeric:normal;font-variant-east-asian:normal"
       x="222.6398"
       y="299.09869"
       id="text23639-6-5-8"><tspan
         sodipodi:role="line"
         id="tspan23637-4-0-4"
         x="222.6398"
         y="299.09869">Olecranon</tspan><tspan
         sodipodi:role="line"
         x="222.6398"
         y="312.43207"
         id="tspan23645-7-3-8">Closure ♂︎15-17y</tspan><tspan
         sodipodi:role="line"
         x="222.6398"
         y="325.76544"
         id="tspan24547-1-8-6">             ♀︎ 14-15y</tspan></text>
    <text
       xml:space="preserve"
       style="font-style:normal;font-variant:normal;font-weight:normal;font-stretch:normal;font-size:10.6667px;line-height:1.25;font-family:sans-serif;-inkscape-font-specification:'sans-serif, Normal';font-variant-ligatures:normal;font-variant-caps:normal;font-variant-numeric:normal;font-variant-east-asian:normal"
       x="-20.563097"
       y="312.98801"
       id="text23639-6-5-8-8"><tspan
         sodipodi:role="line"
         id="tspan23637-4-0-4-4"
         x="-20.563097"
         y="312.98801">Radial, head</tspan><tspan
         sodipodi:role="line"
         x="-20.563097"
         y="326.32138"
         id="tspan23645-7-3-8-9">Closure ♂︎15-17y</tspan><tspan
         sodipodi:role="line"
         x="-20.563097"
         y="339.65475"
         id="tspan24547-1-8-6-6">             ♀︎ 14-15y</tspan></text>
    <text
       xml:space="preserve"
       style="font-style:normal;font-variant:normal;font-weight:normal;font-stretch:normal;font-size:10.6667px;line-height:1.25;font-family:sans-serif;-inkscape-font-specification:'sans-serif, Normal';font-variant-ligatures:normal;font-variant-caps:normal;font-variant-numeric:normal;font-variant-east-asian:normal"
       x="24.993874"
       y="360.21167"
       id="text23639-6-5-8-8-2"><tspan
         sodipodi:role="line"
         id="tspan23637-4-0-4-4-8"
         x="24.993874"
         y="360.21167">Radial tuberosity</tspan><tspan
         sodipodi:role="line"
         x="24.993874"
         y="373.54504"
         id="tspan24547-1-8-6-6-3">Closure 14-18y</tspan></text>
    <text
       xml:space="preserve"
       style="font-style:normal;font-variant:normal;font-weight:normal;font-stretch:normal;font-size:10.6667px;line-height:1.25;font-family:sans-serif;-inkscape-font-specification:'sans-serif, Normal';font-variant-ligatures:normal;font-variant-caps:normal;font-variant-numeric:normal;font-variant-east-asian:normal"
       x="201.9212"
       y="380.43893"
       id="text23639-6-5-8-8-2-0"><tspan
         sodipodi:role="line"
         id="tspan23637-4-0-4-4-8-1"
         x="201.9212"
         y="380.43893">Ulna, distal epiphysis</tspan><tspan
         sodipodi:role="line"
         x="201.9212"
         y="393.77231"
         id="tspan24547-1-8-6-6-3-0">Closure ♂︎ 19y</tspan><tspan
         sodipodi:role="line"
         x="201.9212"
         y="407.10568"
         id="tspan89006">             ♀︎ 17y</tspan></text>
    <text
       xml:space="preserve"
       style="font-style:normal;font-variant:normal;font-weight:normal;font-stretch:normal;font-size:10.6667px;line-height:1.25;font-family:sans-serif;-inkscape-font-specification:'sans-serif, Normal';font-variant-ligatures:normal;font-variant-caps:normal;font-variant-numeric:normal;font-variant-east-asian:normal"
       x="219.43771"
       y="438.98523"
       id="text23639-6-5-8-8-2-0-3"><tspan
         sodipodi:role="line"
         id="tspan23637-4-0-4-4-8-1-7"
         x="219.43771"
         y="438.98523">Styloid of ulna</tspan><tspan
         sodipodi:role="line"
         x="219.43771"
         y="452.3186"
         id="tspan89006-9">Closure 18-20y</tspan></text>
    <text
       xml:space="preserve"
       style="font-style:normal;font-variant:normal;font-weight:normal;font-stretch:normal;font-size:10.6667px;line-height:1.25;font-family:sans-serif;-inkscape-font-specification:'sans-serif, Normal';font-variant-ligatures:normal;font-variant-caps:normal;font-variant-numeric:normal;font-variant-east-asian:normal"
       x="11.389313"
       y="405.58133"
       id="text23639-6-5-8-8-2-7"><tspan
         sodipodi:role="line"
         id="tspan23637-4-0-4-4-8-3"
         x="11.389313"
         y="405.58133">Distal epipyhsis</tspan><tspan
         sodipodi:role="line"
         x="11.389313"
         y="418.9147"
         id="tspan24547-1-8-6-6-3-5">Closure ♂︎ 19y</tspan><tspan
         sodipodi:role="line"
         x="11.389313"
         y="432.24808"
         id="tspan76581">             ♀︎ 17y</tspan></text>
    <text
       xml:space="preserve"
       style="font-style:normal;font-variant:normal;font-weight:normal;font-stretch:normal;font-size:10.6667px;line-height:1.25;font-family:sans-serif;-inkscape-font-specification:'sans-serif, Normal';font-variant-ligatures:normal;font-variant-caps:normal;font-variant-numeric:normal;font-variant-east-asian:normal"
       x="-10.604216"
       y="447.62796"
       id="text23639-6-5-8-8-2-7-3"><tspan
         sodipodi:role="line"
         id="tspan23637-4-0-4-4-8-3-1"
         x="-10.604216"
         y="447.62796">Styloid process radius</tspan><tspan
         sodipodi:role="line"
         x="-10.604216"
         y="460.96133"
         id="tspan76581-5">Closure variable</tspan></text>
    <path
       style="fill:none;stroke:#000000;stroke-width:1px;stroke-linecap:butt;stroke-linejoin:miter;stroke-opacity:1"
       d="M 151.44339,256.48691 79.944827,200.50589"
       id="path31162" />
    <path
       style="fill:none;stroke:#000000;stroke-width:1px;stroke-linecap:butt;stroke-linejoin:miter;stroke-opacity:1"
       d="m 167.86007,250.39775 24.16023,-9.82123"
       id="path41970" />
    <path
       style="fill:none;stroke:#000000;stroke-width:1px;stroke-linecap:butt;stroke-linejoin:miter;stroke-opacity:1"
       d="m 186.9043,280.49414 30.89635,14.55031"
       id="path54430" />
    <path
       style="fill:none;stroke:#000000;stroke-width:1px;stroke-linecap:butt;stroke-linejoin:miter;stroke-opacity:1"
       d="M 139.94727,288.05469 70.573861,308.93376"
       id="path60208" />
    <path
       style="fill:none;stroke:#000000;stroke-width:1px;stroke-linecap:butt;stroke-linejoin:miter;stroke-opacity:1"
       d="m 154.83872,301.1053 -37.04117,53.941"
       id="path62400" />
    <path
       style="fill:none;stroke:#000000;stroke-width:1px;stroke-linecap:butt;stroke-linejoin:miter;stroke-opacity:1"
       d="M 154.50319,432.09053 98.718601,402.23399"
       id="path69191" />
    <path
       style="fill:none;stroke:#000000;stroke-width:1px;stroke-linecap:butt;stroke-linejoin:miter;stroke-opacity:1"
       d="m 149.75977,440.87891 -40.43424,2.9971"
       id="path77536" />
    <path
       style="fill:none;stroke:#000000;stroke-width:1px;stroke-linecap:butt;stroke-linejoin:miter;stroke-opacity:1"
       d="m 185.53828,425.01925 14.92827,-33.39219"
       id="path81286" />
    <path
       style="fill:none;stroke:#000000;stroke-width:1px;stroke-linecap:butt;stroke-linejoin:miter;stroke-opacity:1"
       d="m 193.13162,435.2004 21.87036,0.81863"
       id="path92535" />
    <path
       style="fill:none;stroke:#000000;stroke-width:1px;stroke-linecap:butt;stroke-linejoin:miter;stroke-opacity:1"
       d="M 444.42595,36.49133 H 389.0342"
       id="path97599" />
    <path
       style="fill:none;stroke:#000000;stroke-width:1px;stroke-linecap:butt;stroke-linejoin:miter;stroke-opacity:1"
       d="m 472.51467,26.670099 h 31.82079"
       id="path100933" />
    <path
       style="fill:none;stroke:#000000;stroke-width:1px;stroke-linecap:butt;stroke-linejoin:miter;stroke-opacity:1"
       d="M 460.13992,64.580053 409.46236,81.276146"
       id="path113186" />
    <path
       style="fill:none;stroke:#000000;stroke-width:1px;stroke-linecap:butt;stroke-linejoin:miter;stroke-opacity:1"
       d="m 473.49679,228.59462 -54.2132,-69.92717 h -39.28492"
       id="path115982" />
    <path
       style="fill:none;stroke:#000000;stroke-width:1px;stroke-linecap:butt;stroke-linejoin:miter;stroke-opacity:1"
       d="m 437.62305,285.88672 -18.70507,-9.45396"
       id="path122515" />
    <path
       style="fill:none;stroke:#000000;stroke-width:1px;stroke-linecap:butt;stroke-linejoin:miter;stroke-opacity:1"
       d="M 443.41602,434.08984 422.52921,414.49259"
       id="path129141" />
    <path
       style="fill:none;stroke:#000000;stroke-width:1px;stroke-linecap:butt;stroke-linejoin:miter;stroke-opacity:1"
       d="m 490.80469,278.02148 42.83907,10.35609"
       id="path142310" />
    <path
       style="fill:none;stroke:#000000;stroke-width:1px;stroke-linecap:butt;stroke-linejoin:miter;stroke-opacity:1"
       d="m 495.07422,430.57812 16.12434,-46.14196"
       id="path148284" />
    <path
       style="fill:none;stroke:#000000;stroke-width:1px;stroke-linecap:butt;stroke-linejoin:miter;stroke-opacity:1"
       d="m 492.86466,444.41043 19.02836,-14.86157"
       id="path155221" />
    <text
       xml:space="preserve"
       style="font-size:18.6667px;line-height:1.25;font-family:sans-serif;-inkscape-font-specification:'sans-serif, Normal'"
       x="635.86914"
       y="486.71704"
       id="text161589"><tspan
         sodipodi:role="line"
         id="tspan161587"
         x="635.86914"
         y="486.71704">B</tspan></text>
    <text
       xml:space="preserve"
       style="font-size:18.6667px;line-height:1.25;font-family:sans-serif;-inkscape-font-specification:'sans-serif, Normal'"
       x="-54.492619"
       y="457.23288"
       id="text163477"><tspan
         sodipodi:role="line"
         id="tspan163475"
         x="-54.492619"
         y="457.23288">A</tspan></text>
    <path
       style="opacity:0.379421;fill:#ffffff;fill-rule:evenodd;stroke:#62a0ea;stroke-width:0.377953"
       id="path716"
       sodipodi:type="arc"
       sodipodi:cx="511.33591"
       sodipodi:cy="269.7406"
       sodipodi:rx="6.8758593"
       sodipodi:ry="2.9365649"
       sodipodi:start="0"
       sodipodi:end="0.15484793"
       sodipodi:open="true"
       sodipodi:arc-type="arc"
       d="m 518.21177,269.7406 a 6.8758593,2.9365649 0 0 1 -0.0823,0.45291" />
    <ellipse
       style="opacity:1;fill:#ffffff;fill-rule:evenodd;stroke:none;stroke-width:0.235201"
       id="path822"
       cx="487.48523"
       cy="263.65259"
       rx="5.3717651"
       ry="1.2892237" />
    <path
       style="fill:none;stroke:#000000;stroke-width:1px;stroke-linecap:butt;stroke-linejoin:miter;stroke-opacity:1"
       d="m 480.2832,274.125 26.13749,-35.47119"
       id="path136404" />
  </g>
</svg>
