<?xml version="1.0" encoding="UTF-8" standalone="no"?>
<!-- Created with Inkscape (http://www.inkscape.org/) -->

<svg
   version="1.1"
   id="svg1050"
   width="520"
   height="593.81445"
   viewBox="0 0 520 593.81445"
   sodipodi:docname="Figure 13-12.svg"
   inkscape:version="1.2 (dc2aedaf03, 2022-05-15)"
   xmlns:inkscape="http://www.inkscape.org/namespaces/inkscape"
   xmlns:sodipodi="http://sodipodi.sourceforge.net/DTD/sodipodi-0.dtd"
   xmlns="http://www.w3.org/2000/svg"
   xmlns:svg="http://www.w3.org/2000/svg">
  <defs
     id="defs1054" />
  <sodipodi:namedview
     id="namedview1052"
     pagecolor="#ffffff"
     bordercolor="#666666"
     borderopacity="1.0"
     inkscape:showpageshadow="2"
     inkscape:pageopacity="0.0"
     inkscape:pagecheckerboard="0"
     inkscape:deskcolor="#d1d1d1"
     showgrid="false"
     inkscape:zoom="0.90730343"
     inkscape:cx="141.62847"
     inkscape:cy="303.64704"
     inkscape:window-width="1368"
     inkscape:window-height="842"
     inkscape:window-x="-6"
     inkscape:window-y="-6"
     inkscape:window-maximized="1"
     inkscape:current-layer="g1056" />
  <g
     inkscape:groupmode="layer"
     inkscape:label="Image"
     id="g1056">
    <ellipse
       style="fill:#9a9996;fill-rule:evenodd;stroke-width:0.467973"
       id="path1645"
       cx="-133.59566"
       cy="386.31702"
       rx="38.431103"
       ry="30.044779"
       transform="matrix(0.83923255,-0.54377268,0.52812722,0.84916526,0,0)"
       inkscape:transform-center-x="-11.460716"
       inkscape:transform-center-y="-138.42462" />
    <path
       style="fill:#000000;stroke-width:0.994832"
       d="m 86.881579,565.85569 c -0.06513,-11.02268 -0.06513,-20.37526 0,-20.78351 0.06513,-0.40825 -0.221836,-0.74227 -0.637707,-0.74227 -4.458399,0 -27.474524,-3.34761 -33.44042,-4.86378 C 40.25818,536.27786 34.879257,533.2305 27.66931,525.22671 19.644728,516.3186 16.614895,510.4035 13.49677,497.55792 8.4099737,476.6021 6.8047743,464.55481 6.4760179,444.86599 c -0.1726912,-10.34227 -0.1002524,-17.6276 0.160975,-16.18962 0.3187463,1.75461 1.032119,2.53372 2.1689831,2.36886 0.9317132,-0.13511 1.0784239,-0.0441 0.3260238,0.20219 -1.0000889,0.32742 -1.2412731,1.75314 -0.8967925,5.30126 0.2684939,2.76546 0.058131,4.85339 -0.4889887,4.85339 -0.5281079,0 -0.6720774,0.74309 -0.3199323,1.6513 0.3521452,0.90822 0.8550812,5.45776 1.1176355,10.11009 1.0324236,18.29404 6.8531512,47.43071 11.2603672,56.36576 1.467684,2.97553 4.917367,7.37315 7.900477,10.07144 5.800122,5.24633 6.461369,6.41326 3.045234,5.37405 -2.229403,-0.67821 -2.227306,-0.66017 0.228998,1.97029 3.502135,3.75045 13.242713,8.09599 23.636158,10.54474 9.011809,2.12324 30.299402,4.96575 31.589496,4.21812 0.387558,-0.2246 0.731728,-13.72145 0.764821,-29.99302 0.05586,-27.46746 -0.06613,-29.61726 -1.704652,-30.04009 -1.610325,-0.41556 -1.614787,-0.46548 -0.05097,-0.57024 1.370755,-0.0918 1.661938,-0.93939 1.454523,-4.23376 L 86.409042,472.7518 75.454519,470.06569 C 56.51366,465.42129 42.201493,459.08048 33.5,451.47828 24.184734,443.33987 11.971744,431.50517 12.88845,431.50517 c 0.54527,0 6.305933,4.93561 12.801474,10.96804 C 32.185466,448.50563 39.3,454.49375 41.5,455.78014 c 8.311097,4.85971 38.517321,15.29906 44.299904,15.31016 0.95081,0.002 1.219363,-1.52576 1,-5.68822 L 86.5,459.71135 l -7,-0.75293 c -10.988997,-1.182 -22.181488,-4.42128 -32.5,-9.40598 -5.225,-2.52411 -9.900138,-4.78027 -10.389196,-5.01369 -0.489057,-0.23342 -0.532029,0.14755 -0.09549,0.84661 2.220583,3.55594 -2.135224,-0.98525 -8.150291,-8.49715 -8.140341,-10.16604 -11.906002,-12.76518 -17.431643,-12.03168 -4.3942045,0.58332 -5.2197955,-0.73124 -1.5099053,-2.40415 5.9694633,-2.69183 11.9349703,1.22393 20.5009053,13.45679 2.596997,3.70873 5.872897,6.9069 8.849505,8.63951 10.787224,6.27901 31.874542,11.87157 43.607106,11.565 3.851184,-0.10062 2.889979,-0.3431 -3.88099,-0.979 C 39.314217,451.45446 12.618641,423.77439 7.0319218,381.03094 5.094082,366.20471 5.9145343,343.84505 12.007094,245.44331 14.153502,210.77639 15.644967,169.84609 16.623221,118.76289 17.124758,92.573264 16.938313,83.954308 15.619593,72.367362 13.713407,55.618633 13.718371,55.72729 14.915572,56.956703 c 0.503565,0.517113 1.688078,8.065979 2.632252,16.775258 2.757998,25.440406 1.284088,100.569929 -3.543419,180.618559 -1.838698,30.48888 -3.211681,56.07022 -4.9038792,91.36881 -1.3076538,27.27713 1.3519962,46.30258 8.4643702,60.54872 3.015547,6.04016 3.607164,6.563 1.679841,1.48454 -0.92481,-2.43686 0.252305,-0.79322 3.029104,4.22963 1.436519,2.59847 2.187571,4.46497 1.669005,4.14778 -3.685733,-2.25442 2.51022,6.95872 9.630061,14.31953 8.528607,8.81726 15.256898,13.07597 26.972975,17.07269 C 69.742819,450.65959 87,452.62062 87,450.52836 c 0,-0.585 -0.7875,-1.2673 -1.75,-1.51623 -1.25315,-0.32411 -1.324129,-0.48531 -0.25,-0.56779 1.317132,-0.10115 1.52947,-9.43575 1.741728,-76.56842 l 0.241728,-76.45323 -2.456481,-5.93815 c -9.90959,-23.95483 -22.47995,-91.49814 -23.944633,-128.65979 -0.482724,-12.24757 -0.09491,-9.91043 1.478024,8.90721 2.160479,25.84671 9.10169,68.28749 15.05339,92.04124 3.232181,12.89992 8.140467,28.20619 9.044922,28.20619 0.462727,0 0.841322,-13.00445 0.841322,-28.89877 0,-24.00101 -0.368819,-31.67479 -2.17618,-45.27835 -1.196899,-9.00877 -2.170766,-18.82907 -2.164148,-21.82288 0.0066,-2.99382 -0.431922,-23.03506 -0.974533,-44.53609 -1.096313,-43.44157 -0.228294,-88.226631 1.695834,-87.495885 0.856836,0.325409 1.203778,13.709696 1.325722,51.143575 0.09084,27.88656 0.591068,53.15231 1.111611,56.14613 0.647365,3.7232 0.974507,-14.32448 1.035256,-57.11264 0.0774,-54.515298 -0.0992,-62.48453 -1.373945,-62.000409 -1.812297,0.688274 -2.721585,-1.472982 -2.300076,-5.466969 0.241669,-2.289912 0.658527,-2.827416 1.695459,-2.186152 0.75625,0.467681 1.375,2.032939 1.375,3.478351 0,3.845997 0.919982,2.301792 1.118602,-1.877592 0.129593,-2.726908 -0.364566,-3.912593 -2.09956,-5.037684 C 83.630448,37.971445 83,36.606515 83,34.121516 c 0,-3.605033 0.791068,-4.241695 2.8,-2.253474 0.933333,0.923711 1.2,0.921559 1.2,-0.0097 0,-0.658524 -0.9,-1.959975 -2,-2.892115 -2.756299,-2.335687 -2.712252,-5.570778 0.06397,-4.698722 1.627094,0.511095 1.997516,0.263352 1.75,-1.170421 C 86.641289,22.096788 85.825,20.975632 85,20.605643 c -1.212035,-0.543562 -1.155625,-0.686061 0.293837,-0.742268 0.98661,-0.03826 1.720793,-0.626261 1.631517,-1.306673 -0.37751,-2.877188 0.143637,-5.690722 1.054086,-5.690722 0.631731,0 1.089356,40.141475 1.289057,113.07217 0.334536,122.17209 0.05444,115.08948 5.821977,147.2165 3.837041,21.37354 8.739156,37.41423 15.922846,52.1027 5.46704,11.17846 11.22112,16.77089 23.59231,22.9295 16.33234,8.13057 20.94691,12.81869 24.96785,25.36582 2.28931,7.14364 4.94174,28.06513 3.95013,31.15723 -0.41455,1.29267 7.8e-4,1.69841 1.67691,1.63819 1.93176,-0.0694 2.88895,1.53164 7.20042,12.04367 2.73487,6.66805 5.28204,12.12372 5.66037,12.12372 1.16263,0 4.62465,-12.83525 6.23137,-23.1025 2.55279,-16.31272 9.34694,-26.8954 15.93788,-24.82508 2.73439,0.85891 19.72407,12.48418 22.19659,15.18812 1.03556,1.13247 2.60058,2.09421 3.47784,2.13718 0.87725,0.0429 1.09791,0.28119 0.49035,0.52936 -0.60756,0.24819 -0.88804,1.5727 -0.6233,2.94337 0.43152,2.23404 -0.0237,2.01136 -4.39534,-2.15017 -2.68218,-2.55326 -6.6767,-5.7942 -8.8767,-7.20209 -2.2,-1.40789 -5.84635,-4.01873 -8.10299,-5.80188 -5.25489,-4.1523 -8.56805,-4.20497 -11.46233,-0.18223 -2.68726,3.735 -5.55979,12.61042 -6.95548,21.49078 -0.57264,3.64354 -2.92533,12.19163 -5.2282,18.99575 -5.34391,15.78931 -5.67789,22.83463 -1.42212,30.00017 5.9618,10.03803 13.69229,11.02515 28.67112,3.66107 8.25317,-4.05753 8.56797,-4.3411 10.8407,-9.76542 4.94652,-11.80582 6.29971,-18.0999 6.94606,-32.30819 0.49841,-10.95621 0.77255,-12.82014 1.31003,-8.90721 1.68224,12.24707 -2.20789,32.31673 -8.75495,45.16784 -0.17702,0.34747 3.16115,-0.43357 7.41815,-1.73566 4.25701,-1.30209 11.56501,-2.90263 16.24001,-3.55675 4.675,-0.65412 8.7962,-1.61466 9.15823,-2.13454 0.40094,-0.57576 8.02298,-0.74072 19.5,-0.42204 10.36297,0.28775 17.26677,0.18966 15.34177,-0.21797 -2.70036,-0.57182 -2.24343,-0.6574 2,-0.37459 13.76654,0.9175 54.65328,4.44875 56,4.83653 1.46165,0.42087 -9.88033,-0.0365 -25,-1.0081 -4.125,-0.26508 -7.05,-0.26794 -6.5,-0.006 0.55,0.26157 13.825,2.27314 29.5,4.47014 34.59825,4.84927 44.26664,6.49318 76.80648,13.05935 20.68396,4.17377 25.49363,5.45262 26.33102,7.00118 0.5635,1.04204 0.83334,2.08385 0.59965,2.31514 -0.23369,0.23128 -15.23265,-2.44101 -33.33102,-5.93841 -29.96872,-5.79129 -54.22891,-9.59559 -98.90613,-15.5097 -20.33555,-2.69191 -56.65975,-3.6914 -69.83349,-1.92153 -9.52928,1.28025 -23.97917,5.01667 -28.53277,7.37794 l -2.63088,1.36425 2.71721,1.22528 c 1.49447,0.67391 2.4368,1.67433 2.09406,2.22317 -0.34273,0.54883 -0.14828,0.70742 0.43211,0.35242 0.58039,-0.355 4.13742,0.64434 7.90451,2.22075 3.76709,1.57641 14.27425,4.50853 23.34925,6.51582 9.075,2.00728 25.275,5.81361 36,8.4585 34.43446,8.49189 56.6083,12.33384 88,15.24731 21.29065,1.976 58.1444,3.59475 78.5,3.44801 13.9152,-0.10031 16.04213,0.0907 16.32332,1.46592 0.28775,1.40725 -1.85809,1.57661 -19.5,1.53895 -65.09279,-0.13893 -107.32469,-4.93558 -161.82332,-18.3797 -12.1,-2.98492 -24.18482,-5.64479 -26.85516,-5.91082 -2.67034,-0.26603 -8.97034,-1.75695 -14,-3.31314 -5.02966,-1.5562 -12.51984,-3.81266 -16.64484,-5.01435 -4.125,-1.20169 -10.32793,-3.4536 -13.78428,-5.00426 l -6.28428,-2.81937 -5.55976,2.10566 -5.55975,2.10567 2.34403,1.86598 2.34404,1.86599 -3.20034,-1.54411 c -1.76019,-0.84926 -4.01019,-1.5342 -5,-1.5221 -1.50575,0.0184 -1.39137,0.34516 0.70034,2.00068 2.01456,1.59447 1.43204,1.48182 -3,-0.58018 -11.46248,-5.33334 -15.35969,-7.38108 -14.04664,-7.38108 1.10215,0 1.08245,-0.32487 -0.10501,-1.73196 C 175.62557,460.7888 174,456.4841 174,453.2318 c 0,-1.60738 -0.45,-2.92251 -1,-2.92251 -0.55,0 -1,0.85675 -1,1.90388 0,3.06556 2.27761,11.95179 3.06334,11.95179 0.39591,0 1.00604,1.12855 1.35584,2.50789 0.3498,1.37933 1.73447,3.00322 3.07705,3.60864 1.34258,0.60541 2.22264,1.45051 1.95568,1.87801 -0.26695,0.42748 0.52229,1.47576 1.75387,2.3295 1.23158,0.85374 1.84408,1.55225 1.36112,1.55225 -1.8138,0 -7.73189,-5.24645 -10.09215,-8.9468 -1.34734,-2.11233 -3.00797,-6.75313 -3.69029,-10.31288 l -1.24057,-6.47228 -4.52194,-0.14864 -4.52195,-0.14865 4.39339,-0.59362 4.39339,-0.59362 -0.20125,-9.89691 c -0.11069,-5.4433 -0.64172,-11.90103 -1.18007,-14.35052 -2.14802,-9.7735 -2.9957,-10.26202 -4.60781,-2.65549 -1.80971,8.53891 -5.24536,14.60915 -11.91496,21.05183 -11.95377,11.54705 -23.28958,15.42406 -49.13269,16.80407 l -13.25,0.70755 -0.118421,6.04602 c -0.06513,3.32531 -0.01505,6.49138 0.111297,7.03571 0.126345,0.54433 0.154121,13.08826 0.06173,27.8754 -0.157301,25.17449 -0.053,26.91519 1.638703,27.34911 1.658698,0.42545 1.663342,0.47282 0.0567,0.57822 -1.470487,0.0965 -1.75,1.11718 -1.75,6.39057 v 6.27577 l 15.505031,1.17913 c 12.54711,0.95419 19.27183,2.1061 35.25,6.03812 27.93158,6.87359 32.6707,7.34505 66.24497,6.59025 35.2867,-0.7933 55.67016,0.48775 124,7.79307 17.325,1.85226 40.725,4.29567 52,5.42981 11.275,1.13414 29.85611,3.15815 41.29135,4.49781 11.43524,1.33965 22.48274,2.43574 24.55,2.43574 3.48701,0 6.15865,1.35363 6.15865,3.12038 0,0.85292 -2.95543,0.59484 -30.5,-2.66345 -19.11366,-2.26099 -40.95353,-4.55905 -56,-5.89251 -3.85,-0.3412 -23.2,-2.35153 -43,-4.46739 -69.63918,-7.44179 -81.8598,-8.18869 -120,-7.33422 -32.88873,0.73681 -37.47284,0.26752 -64,-6.55194 -16.31652,-4.19456 -29.12809,-6.38289 -42.750001,-7.30209 L 89,544.31836 v 20.78929 c 0,13.19972 -0.365071,20.78927 -1,20.78927 -0.629846,0 -1.043834,-7.41833 -1.118421,-20.04123 z M 215.91667,466.77324 C 215.6875,466.57481 214.375,465.8822 213,465.23411 c -2.35727,-1.11107 -2.38918,-1.09047 -0.55887,0.36079 1.593,1.2631 4.84786,2.36662 3.47554,1.17834 z M 119.5,454.66288 c 13.20304,-1.76383 20.56794,-5.00191 29.43084,-12.93968 5.85106,-5.24032 9.99754,-11.98479 11.45392,-18.6304 0.48883,-2.23058 0.007,-1.73825 -1.93677,1.97938 -3.27723,6.26763 -10.49892,13.64077 -16.94799,17.30339 -10.0623,5.71469 -33.63908,11.89642 -46.612432,12.2216 -5.045516,0.12646 -6.493656,0.47832 -6.111193,1.48491 0.588421,1.54862 12.693825,0.98944 30.723625,-1.4192 z m -9.78546,-5.24979 c 39.53553,-7.61947 54.32604,-23.7195 50.45116,-54.91797 -2.03444,-16.38029 -7.10213,-31.223 -10.67515,-31.26636 -0.5552,-0.007 -1.56869,-0.89849 -2.2522,-1.98168 -0.6835,-1.08319 -4.88478,-3.78174 -9.33617,-5.99677 -4.45139,-2.21505 -7.73903,-3.44428 -7.30585,-2.73161 2.72066,4.47604 -14.38347,-11.13794 -20.66188,-18.86178 -3.37712,-4.15461 -4.74392,-6.09937 -3.03733,-4.32171 1.70658,1.77766 3.10288,2.99129 3.10288,2.69694 0,-0.29433 -1.5069,-3.53023 -3.34868,-7.19086 -6.30454,-12.53069 -11.797763,-31.07039 -15.167859,-51.1918 -0.911688,-5.4433 -1.84343,-10.08247 -2.070538,-10.30928 -1.007404,-1.00605 -0.336284,36.80794 0.686845,38.69997 0.758071,1.40186 0.767124,1.83028 0.02914,1.37888 -0.75714,-0.46311 -1.076545,21.09133 -1.090828,73.61253 l -0.0202,74.26739 h 5.455601 c 3.00058,0 9.859059,-0.84865 15.241059,-1.88589 z M 98.75,447.67446 c 0.6875,-0.27455 1.8125,-0.27455 2.5,0 0.6875,0.27455 0.125,0.49919 -1.25,0.49919 -1.375,0 -1.9375,-0.22464 -1.25,-0.49919 z m 7,-0.98969 c 0.6875,-0.27455 1.8125,-0.27455 2.5,0 0.6875,0.27455 0.125,0.49919 -1.25,0.49919 -1.375,0 -1.9375,-0.22464 -1.25,-0.49919 z m 7.0625,-1.01031 c 0.72187,-0.28589 1.58437,-0.25074 1.91667,0.0781 0.33229,0.32886 -0.25834,0.56277 -1.3125,0.5198 -1.16495,-0.0475 -1.4019,-0.282 -0.60417,-0.59793 z m 39.49737,-56.23115 c 0.006,-3.26598 0.1923,-4.48274 0.41486,-2.70392 0.22256,1.77882 0.21797,4.45098 -0.0102,5.93814 -0.22818,1.48716 -0.41027,0.0318 -0.40466,-3.23422 z m 1.63248,-4.70103 c -0.0317,-2.3134 -0.88374,-7.32371 -1.89341,-11.13402 -2.15884,-8.14702 -1.96674,-9.50771 0.39181,-2.77529 1.7302,4.93882 3.33353,18.11549 2.20429,18.11549 -0.35477,0 -0.67098,-1.89278 -0.70269,-4.20618 z M 150.6,378.95259 c -0.36648,-2.26822 -0.47108,-4.31728 -0.23245,-4.55346 0.23864,-0.23617 0.74824,1.41206 1.13245,3.66274 0.38421,2.25067 0.48881,4.29973 0.23245,4.55345 -0.25637,0.25372 -0.76597,-1.39451 -1.13245,-3.66273 z m -1.52105,-6.5005 c -0.0434,-0.63589 -0.33793,-1.97198 -0.65446,-2.96907 -0.54705,-1.72327 -0.51883,-1.72543 0.57078,-0.0437 0.63045,0.97309 0.92496,2.30917 0.65445,2.96908 -0.35498,0.86597 -0.51379,0.87812 -0.57077,0.0436 z m -2.51466,-6.9661 c -0.54268,-1.4105 -0.42782,-1.52418 0.5598,-0.55402 0.68342,0.67134 0.99067,1.46992 0.68278,1.77464 -0.30789,0.30472 -0.86705,-0.24456 -1.24258,-1.22062 z m -46.1593,-17.36227 -1.90499,-2.2268 2.25,1.88535 c 1.2375,1.03694 2.25,2.039 2.25,2.2268 0,0.792 -0.80479,0.20729 -2.59501,-1.88535 z m 8.46745,-5.4433 c -1.24387,-1.56971 -1.2085,-1.60471 0.37756,-0.37367 0.9625,0.74707 1.75,1.52645 1.75,1.73196 0,0.81456 -0.82119,0.29029 -2.12756,-1.35829 z m -13.999995,-0.98969 c -1.243871,-1.56971 -1.208501,-1.60471 0.377555,-0.37367 0.9625,0.74707 1.75,1.52645 1.75,1.73196 0,0.81456 -0.821186,0.29029 -2.127555,-1.35829 z m 3.127555,-24 c -0.588702,-1.08866 -0.845368,-1.97938 -0.570368,-1.97938 0.275,0 0.981666,0.89072 1.570368,1.97938 0.588702,1.08866 0.845368,1.97938 0.570368,1.97938 -0.275,0 -0.981666,-0.89072 -1.570368,-1.97938 z m -4.5,-7.91753 c -0.853248,-1.63298 -1.32636,-2.96907 -1.05136,-2.96907 0.275,0 1.198112,1.33609 2.05136,2.96907 0.853248,1.63299 1.32636,2.96908 1.05136,2.96908 -0.275,0 -1.198112,-1.33609 -2.05136,-2.96908 z m 80.97894,134.84537 c 1.17266,-7.45922 0.92383,-10.3354 -1.30572,-15.09278 l -2.08719,-4.45361 0.0666,11.38144 c 0.0366,6.25979 0.26881,11.71547 0.516,12.12371 1.10476,1.8245 2.12771,0.38353 2.81036,-3.95876 z M 457,578.47424 c -1.06642,-1.2717 -0.7409,-1.48453 2.27057,-1.48453 2.20236,0 3.73045,0.5545 4.09106,1.48453 0.42856,1.1053 -0.15148,1.48454 -2.27057,1.48454 -1.56539,0 -3.40637,-0.66804 -4.09106,-1.48454 z m 9.61311,-0.0651 c -0.46791,-1.2068 -0.0108,-1.48053 2.06589,-1.23711 1.46672,0.17192 2.85147,0.86927 3.07721,1.54969 0.61308,1.84782 -4.42414,1.54168 -5.1431,-0.31258 z m 8.05356,0.88989 c -1.26779,-1.25475 -0.65891,-2.3093 1.33333,-2.3093 1.11111,0 2,0.65979 2,1.48453 0,1.50672 -2.1154,2.03012 -3.33333,0.82474 z M 481,577.9794 c 0,-0.54433 1.15156,-0.98969 2.55902,-0.98969 1.45136,0 2.2915,0.42837 1.94098,0.98969 -0.33992,0.54433 -1.49148,0.98969 -2.55902,0.98969 -1.06754,0 -1.94098,-0.44536 -1.94098,-0.98969 z m -80,-15.94939 c -4.125,-0.46598 -18.975,-2.41302 -33,-4.32675 -14.025,-1.91374 -28.65,-3.86785 -32.5,-4.34248 -3.85,-0.47462 -5.65,-0.91525 -4,-0.97917 4.48666,-0.1738 75.76544,8.61796 82.5,10.17583 2.84091,0.65717 -5.51431,0.31819 -13,-0.52743 z m -4.27164,-4.39148 c -4.27441,-0.7125 -8.54941,-1.5298 -9.5,-1.81625 -3.05825,-0.92155 9.05387,0.47412 15.77164,1.81736 8.41287,1.68218 3.82185,1.68137 -6.27164,-9.9e-4 z M 380.25,554.53429 c 0.9625,-0.24893 2.5375,-0.24893 3.5,0 0.9625,0.24893 0.175,0.45261 -1.75,0.45261 -1.925,0 -2.7125,-0.20368 -1.75,-0.45261 z m -5.98097,-0.99332 c 0.97297,-0.25092 2.32297,-0.23442 3,0.0367 0.67703,0.27111 -0.11903,0.47641 -1.76903,0.45624 -1.65,-0.0202 -2.20394,-0.24198 -1.23097,-0.49291 z m -7,-0.98969 c 0.97297,-0.25092 2.32297,-0.23442 3,0.0367 0.67703,0.27111 -0.11903,0.47641 -1.76903,0.45624 -1.65,-0.0202 -2.20394,-0.24198 -1.23097,-0.49291 z M 319.75,551.54898 c 1.2375,-0.2359 3.2625,-0.2359 4.5,0 1.2375,0.2359 0.225,0.42891 -2.25,0.42891 -2.475,0 -3.4875,-0.19301 -2.25,-0.42891 z m -22.48097,-5.92553 c 0.97297,-0.25093 2.32297,-0.23443 3,0.0367 0.67703,0.2711 -0.11903,0.4764 -1.76903,0.45623 -1.65,-0.0202 -2.20394,-0.24198 -1.23097,-0.4929 z m -145,-0.98969 c 0.97297,-0.25093 2.32297,-0.23443 3,0.0367 0.67703,0.27111 -0.11903,0.47641 -1.76903,0.45624 -1.65,-0.0202 -2.20394,-0.24198 -1.23097,-0.4929 z m 45.98097,-0.0417 c 2.6125,-0.20387 6.8875,-0.20387 9.5,0 2.6125,0.20388 0.475,0.37068 -4.75,0.37068 -5.225,0 -7.3625,-0.1668 -4.75,-0.37068 z m 85.5625,0.0514 c 0.72187,-0.2859 1.58438,-0.25074 1.91667,0.0781 0.33229,0.32887 -0.25834,0.56278 -1.3125,0.51981 -1.16495,-0.0475 -1.4019,-0.282 -0.60417,-0.59793 z M 129,540.86599 c -8.525,-1.79174 -14.375,-3.343 -13,-3.44724 1.69301,-0.12835 0.24044,-0.92717 -4.5,-2.4747 -3.85,-1.25685 -6.53762,-2.33135 -5.9725,-2.38781 0.56513,-0.0564 6.86513,1.70594 14,3.91641 7.13488,2.21045 17.0225,4.84226 21.9725,5.84844 4.95,1.00618 7.65,1.82338 6,1.81602 -1.65,-0.007 -9.975,-1.47937 -18.5,-3.27112 z m -19.1875,-4.13998 c 0.72187,-0.28589 1.58437,-0.25074 1.91667,0.0781 0.33229,0.32886 -0.25834,0.56277 -1.3125,0.5198 -1.16495,-0.0475 -1.4019,-0.282 -0.60417,-0.59793 z m -43.444372,-7.58867 c -8.02959,-4.28376 -14.922148,-9.37372 -19.864709,-14.66953 l -3.996581,-4.28223 4.996581,4.55351 c 6.985949,6.36646 11.434818,9.48654 19.773675,13.86766 3.972598,2.08713 6.772906,3.7964 6.222906,3.79836 -0.55,0.002 -3.759342,-1.46854 -7.131872,-3.26777 z m 35.444372,2.64022 c 0.72187,-0.2859 1.58437,-0.25074 1.91667,0.0781 0.33229,0.32887 -0.25834,0.56278 -1.3125,0.51981 -1.16495,-0.0475 -1.4019,-0.282 -0.60417,-0.59793 z M 57,528.62022 c -2.475,-1.54335 -5.861848,-4.09571 -7.526329,-5.67191 -4.078378,-3.86207 -10.8584,-12.21701 -10.334691,-12.73532 0.231837,-0.22945 2.250271,1.92197 4.485409,4.78092 4.566313,5.84075 10.923575,11.262 16.860802,14.3783 2.191855,1.15045 3.316855,2.08326 2.5,2.07292 C 62.168336,531.43479 59.475,530.16358 57,528.62022 Z m 40.8125,2.16765 c 0.721875,-0.2859 1.584375,-0.25074 1.916667,0.0781 0.332293,0.32887 -0.258334,0.56278 -1.3125,0.51981 -1.164943,-0.0475 -1.4019,-0.28201 -0.604167,-0.59793 z m -48.940055,-2.04559 c -1.243871,-1.56971 -1.208501,-1.60471 0.377555,-0.37366 1.665748,1.2929 2.195479,2.10562 1.372445,2.10562 -0.207656,0 -0.995156,-0.77938 -1.75,-1.73196 z m 44.940055,1.05589 c 0.721875,-0.28589 1.584375,-0.25073 1.916667,0.0781 0.332291,0.32887 -0.258334,0.56278 -1.3125,0.51981 -1.164943,-0.0475 -1.4019,-0.28201 -0.604167,-0.59794 z M 43.924314,524.78352 41.5,522.06187 l 2.75,2.39932 c 1.5125,1.31963 2.75,2.54437 2.75,2.72165 0,0.77619 -0.809799,0.14447 -3.075686,-2.39932 z m -7.389926,-4.43467 c -5.73924,-6.63588 -12.379335,-19.93276 -13.971295,-27.9777 -0.323141,-1.63299 0.300192,-0.6029 1.385185,2.28909 3.347898,8.92364 8.780362,19.24104 12.994862,24.67998 4.842669,6.24962 4.613388,6.81539 -0.408752,1.00863 z m 3.338057,-0.51378 c -1.243871,-1.56971 -1.208501,-1.60472 0.377555,-0.37367 1.665748,1.2929 2.195479,2.10563 1.372445,2.10563 -0.207656,0 -0.995156,-0.77939 -1.75,-1.73196 z M 471,505.23713 c 0,-0.98969 1,-1.48454 3,-1.48454 2,0 3,0.49485 3,1.48454 0,0.98969 -1,1.48453 -3,1.48453 -2,0 -3,-0.49484 -3,-1.48453 z m 9.66667,0.82474 c -1.4835,-1.46821 -0.58414,-3.16959 1.46864,-2.77833 2.69151,0.51298 3.23636,1.05258 2.40581,2.38259 -0.73911,1.18357 -2.85957,1.40015 -3.87445,0.39574 z M 487,504.74228 c 0,-0.54433 0.87344,-0.98969 1.94098,-0.98969 1.06754,0 2.2191,0.44536 2.55902,0.98969 0.35052,0.56132 -0.48962,0.98969 -1.94098,0.98969 -1.40746,0 -2.55902,-0.44536 -2.55902,-0.98969 z m 8,0 c 0,-0.54433 0.45,-0.98969 1,-0.98969 0.55,0 1,0.44536 1,0.98969 0,0.54433 -0.45,0.98969 -1,0.98969 -0.55,0 -1,-0.44536 -1,-0.98969 z m -158.21081,-0.73376 c 3.45905,-0.19382 8.85905,-0.19222 12,0.004 3.14094,0.19578 0.31081,0.35434 -6.28919,0.35239 -6.6,-0.002 -9.16987,-0.16213 -5.71081,-0.35594 z m -17.02128,-0.97319 c 1.79735,-0.22026 4.49735,-0.21572 6,0.0101 1.50265,0.22583 0.0321,0.40604 -3.26791,0.40049 -3.3,-0.006 -4.52944,-0.19032 -2.73209,-0.41059 z M 307.75,502.06445 c 1.2375,-0.23591 3.2625,-0.23591 4.5,0 1.2375,0.23589 0.225,0.4289 -2.25,0.4289 -2.475,0 -3.4875,-0.19301 -2.25,-0.4289 z m -8.48097,-0.97709 c 0.97297,-0.25092 2.32297,-0.23442 3,0.0367 0.67703,0.27111 -0.11903,0.47641 -1.76903,0.45624 -1.65,-0.0202 -2.20394,-0.24198 -1.23097,-0.49291 z m -7,-0.98969 c 0.97297,-0.25092 2.32297,-0.23442 3,0.0367 0.67703,0.27111 -0.11903,0.47641 -1.76903,0.45624 -1.65,-0.0202 -2.20394,-0.24198 -1.23097,-0.49291 z m -6.45653,-0.97991 c 0.72187,-0.28589 1.58438,-0.25074 1.91667,0.0781 0.33229,0.32886 -0.25834,0.56278 -1.3125,0.5198 -1.16495,-0.0475 -1.4019,-0.282 -0.60417,-0.59793 z m -6.0625,-0.96907 c 0.6875,-0.27455 1.8125,-0.27455 2.5,0 0.6875,0.27455 0.125,0.49919 -1.25,0.49919 -1.375,0 -1.9375,-0.22464 -1.25,-0.49919 z m -9.9375,-2 c 0.72187,-0.28589 1.58438,-0.25074 1.91667,0.0781 0.33229,0.32886 -0.25834,0.56277 -1.3125,0.5198 -1.16495,-0.0475 -1.4019,-0.282 -0.60417,-0.59793 z m -4,-0.98969 c 0.72187,-0.28589 1.58438,-0.25074 1.91667,0.0781 0.33229,0.32887 -0.25834,0.56278 -1.3125,0.51981 -1.16495,-0.0475 -1.4019,-0.282 -0.60417,-0.59793 z m -4,-0.98969 c 0.72187,-0.28589 1.58438,-0.25074 1.91667,0.0781 0.33229,0.32887 -0.25834,0.56278 -1.3125,0.51981 -1.16495,-0.0475 -1.4019,-0.282 -0.60417,-0.59793 z m -4,-0.98969 c 0.72187,-0.2859 1.58438,-0.25074 1.91667,0.0781 0.33229,0.32887 -0.25834,0.56278 -1.3125,0.51981 -1.16495,-0.0475 -1.4019,-0.282 -0.60417,-0.59793 z M 251.5,491.8763 c -1.26064,-0.53613 -1.44548,-0.85057 -0.5,-0.85057 0.825,0 2.4,0.38276 3.5,0.85057 1.26064,0.53614 1.44548,0.85057 0.5,0.85057 -0.825,0 -2.4,-0.38275 -3.5,-0.85057 z m 31.3125,0.31363 c 0.72187,-0.2859 1.58438,-0.25074 1.91667,0.0781 0.33229,0.32887 -0.25834,0.56278 -1.3125,0.51981 -1.16495,-0.0475 -1.4019,-0.282 -0.60417,-0.59793 z m -5,-0.98969 c 0.72187,-0.2859 1.58438,-0.25074 1.91667,0.0781 0.33229,0.32887 -0.25834,0.56278 -1.3125,0.51981 -1.16495,-0.0475 -1.4019,-0.28201 -0.60417,-0.59793 z m -34.625,-1.97939 c -2.37188,-0.83022 -4.13569,-1.68449 -3.91958,-1.89836 0.45625,-0.45155 9.73208,2.56251 9.73208,3.16231 0,0.61973 -1.13786,0.3723 -5.8125,-1.26395 z M 235,485.93816 c -0.825,-0.52767 -1.05,-0.95938 -0.5,-0.95938 0.55,0 1.675,0.43171 2.5,0.95938 0.825,0.52766 1.05,0.95937 0.5,0.95937 -0.55,0 -1.675,-0.43171 -2.5,-0.95937 z M 20.078947,484.37115 c 0.04798,-1.15294 0.284941,-1.38745 0.604167,-0.59794 0.288871,0.71443 0.253344,1.56805 -0.07895,1.89691 -0.332292,0.32886 -0.568641,-0.25568 -0.52522,-1.29897 z m 80.710243,-0.15645 c 3.45905,-0.19381 8.85905,-0.19222 12,0.004 3.14094,0.19577 0.31081,0.35434 -6.28919,0.35239 -6.6,-0.002 -9.169866,-0.16213 -5.71081,-0.35594 z m 21.47984,-0.94177 c 0.97297,-0.25093 2.32297,-0.23443 3,0.0367 0.67703,0.2711 -0.11903,0.47641 -1.76903,0.45624 -1.65,-0.0202 -2.20394,-0.24198 -1.23097,-0.49291 z M 224.75,481.4195 c -2.6125,-1.34591 -4.75,-2.66876 -4.75,-2.93966 0,-0.44178 9.89973,4.18599 10.91667,5.10315 1.2381,1.11663 -2.01533,-0.0247 -6.16667,-2.16349 z m -125.5,0.81568 c 3.7125,-0.19043 9.7875,-0.19043 13.5,0 3.7125,0.19043 0.675,0.34622 -6.75,0.34622 -7.425,0 -10.4625,-0.15579 -6.75,-0.34622 z m 369.20888,-0.32163 c -0.36253,-0.58054 -0.4085,-1.30361 -0.10214,-1.6068 0.82264,-0.81416 3.64326,0.45676 3.64326,1.64159 0,1.34326 -2.69711,1.31676 -3.54112,-0.0347 z M 474,482.01045 c 0,-0.52724 0.675,-0.70227 1.5,-0.38896 0.825,0.31333 1.5,0.74471 1.5,0.95864 0,0.21392 -0.675,0.38896 -1.5,0.38896 -0.825,0 -1.5,-0.43139 -1.5,-0.95864 z m -13.16486,-0.69705 c -1.77882,-0.46625 -3.38305,-3.29277 -1.86885,-3.29277 1.96135,0 6.03371,1.9874 6.03371,2.94458 0,1.03211 -1.17944,1.13071 -4.16486,0.34819 z M 79.75,480.33425 c 0.6875,-0.27455 1.8125,-0.27455 2.5,0 0.6875,0.27455 0.125,0.49919 -1.25,0.49919 -1.375,0 -1.9375,-0.22464 -1.25,-0.49919 z m 79.31528,-0.4327 c -1.33909,-0.52949 -3.01218,-0.74339 -3.71797,-0.47534 -0.70579,0.26805 -1.54923,0.0615 -1.8743,-0.45911 -0.90905,-1.4557 4.71332,-1.05379 7.52699,0.53807 2.84067,1.60713 1.71212,1.83835 -1.93472,0.39638 z M 102.25,479.29115 c 1.5125,-0.22677 3.9875,-0.22677 5.5,0 1.5125,0.22676 0.275,0.41229 -2.75,0.41229 -3.025,0 -4.2625,-0.18553 -2.75,-0.41229 z M 234,479.01032 c -0.825,-0.52766 -1.05,-0.95937 -0.5,-0.95937 0.55,0 1.675,0.43171 2.5,0.95937 0.825,0.52767 1.05,0.95938 0.5,0.95938 -0.55,0 -1.675,-0.43171 -2.5,-0.95938 z m 215.34508,-0.53753 c -0.32569,-0.83997 -0.33252,-1.78417 -0.0152,-2.09823 1.07589,-1.0648 5.67011,0.68517 5.67011,2.15977 0,1.97978 -4.88404,1.92663 -5.65492,-0.0616 z m -259.88721,-1.50932 c -0.3631,-0.58144 -1.38844,-0.78058 -2.27854,-0.44254 -0.8901,0.33804 -1.29849,0.29805 -0.90753,-0.0889 0.39097,-0.38693 0.15225,-1.37411 -0.53048,-2.19372 -1.07272,-1.2878 -0.9585,-1.34112 0.84092,-0.39252 2.12161,1.11844 5.12264,4.17483 4.09922,4.17483 -0.30988,0 -0.8605,-0.47572 -1.22359,-1.05716 z M 164,476.04125 c -1.82797,-1.16914 -0.24909,-1.16914 2.5,0 1.31874,0.56084 1.48906,0.8691 0.5,0.90497 -0.825,0.0299 -2.175,-0.37731 -3,-0.90497 z m 40.44113,-0.54945 c -1.86402,-1.47799 -1.85176,-1.49626 0.30887,-0.46001 1.2375,0.5935 2.25,1.28611 2.25,1.53912 0,0.75733 -0.51861,0.53863 -2.55887,-1.07911 z m -44.62863,-1.11631 c 0.72187,-0.28589 1.58437,-0.25074 1.91667,0.0781 0.33229,0.32886 -0.25834,0.56278 -1.3125,0.5198 -1.16495,-0.0475 -1.4019,-0.282 -0.60417,-0.59793 z M 222,474.06187 c -0.825,-0.52766 -1.05,-0.95938 -0.5,-0.95938 0.55,0 1.675,0.43172 2.5,0.95938 0.825,0.52766 1.05,0.95938 0.5,0.95938 -0.55,0 -1.675,-0.43172 -2.5,-0.95938 z M 92,473.07218 c -3.417609,-0.71196 -3.429379,-0.73055 -0.5,-0.78984 1.65,-0.0334 3.9,0.32202 5,0.78984 2.404677,1.02268 0.409125,1.02268 -4.5,0 z m 125.50708,-0.97836 c -0.35034,-0.56102 0.0511,-0.72693 0.94098,-0.38896 1.73242,0.65794 2.04939,1.36732 0.61096,1.36732 -0.51754,0 -1.21592,-0.44027 -1.55194,-0.97836 z M 211,469.11342 c -1.925,-1.04303 -3.05,-1.89642 -2.5,-1.89642 0.55,0 2.575,0.85339 4.5,1.89642 1.925,1.04302 3.05,1.89641 2.5,1.89641 -0.55,0 -2.575,-0.85339 -4.5,-1.89641 z m -55,-9.56223 c 1.375,-1.54491 2.6125,-2.99448 2.75,-3.22128 0.1375,-0.2268 0.25,0.48109 0.25,1.5731 0,1.20658 -1.07881,2.47027 -2.75,3.22128 l -2.75,1.2358 z m 42.8125,-1.01075 c 0.72187,-0.28589 1.58437,-0.25074 1.91667,0.0781 0.33229,0.32886 -0.25834,0.56277 -1.3125,0.5198 -1.16495,-0.0475 -1.4019,-0.282 -0.60417,-0.59793 z M 77.5,449.3196 c -1.785834,-0.75949 -1.711841,-0.85802 0.690983,-0.92012 1.480041,-0.0383 2.969098,0.37579 3.309017,0.92012 0.737836,1.18153 -1.221775,1.18153 -4,0 z m -6.502376,-1.73196 c -0.0013,-0.40825 -2.506998,-2.03751 -5.568203,-3.62058 -12.855199,-6.64796 -27.342035,-23.81867 -34.728939,-41.16292 -3.572841,-8.38894 -7.608673,-25.1059 -7.802843,-32.32041 l -0.102362,-3.80331 -0.881153,3.46392 c -0.940181,3.69596 -0.250591,12.741 1.282712,16.82474 0.662764,1.76519 0.620451,2.17254 -0.147652,1.42147 -2.580375,-2.52315 -3.477026,-11.95854 -2.224273,-23.40586 0.672336,-6.14364 1.685591,-17.4053 2.251678,-25.02592 0.566086,-7.62062 2.371399,-25.43505 4.011807,-39.58763 3.974386,-34.28892 4.585541,-58.37997 2.523256,-99.46392 -1.564228,-31.16185 -2.01032,-48.27305 -1.236317,-47.42268 0.206434,0.2268 0.889216,8.42887 1.517294,18.22681 0.628077,9.79793 1.430794,22.26804 1.783814,27.71134 0.353021,5.4433 0.632892,22.58969 0.621937,38.10309 -0.01668,23.61705 -0.45386,32.23174 -2.687049,52.94846 -6.135175,56.91443 -6.669045,66.66508 -4.580287,83.65482 3.825617,31.11719 20.681952,58.42781 43.488973,70.46082 4.704693,2.48219 6.246542,3.69199 4.729983,3.71134 -1.2375,0.0157 -2.251069,-0.30533 -2.252376,-0.71358 z M 246.75,446.68477 c 0.6875,-0.27455 1.8125,-0.27455 2.5,0 0.6875,0.27455 0.125,0.49919 -1.25,0.49919 -1.375,0 -1.9375,-0.22464 -1.25,-0.49919 z m 27.01166,-0.0445 c 1.24391,-0.23672 3.04391,-0.22774 4,0.02 0.95609,0.24771 -0.0617,0.4414 -2.26166,0.43042 -2.2,-0.011 -2.98225,-0.21367 -1.73834,-0.45039 z m -12,-0.98969 c 1.24391,-0.23672 3.04391,-0.22774 4,0.02 0.95609,0.24771 -0.0617,0.4414 -2.26166,0.43042 -2.2,-0.011 -2.98225,-0.21367 -1.73834,-0.45039 z M 38.452948,430.26805 34.5,426.06187 l 4.25,3.9122 c 2.3375,2.1517 4.25,4.04449 4.25,4.20618 0,0.74878 -0.87085,-4.8e-4 -4.547052,-3.9122 z M 417.75,427.83764 c 1.2375,-0.2359 3.2625,-0.2359 4.5,0 1.2375,0.23589 0.225,0.4289 -2.25,0.4289 -2.475,0 -3.4875,-0.19301 -2.25,-0.4289 z m -24.25,-1.81236 c -16.83762,-1.99978 -34.56432,-4.68326 -34.0831,-5.15952 0.23729,-0.23484 7.10306,0.51298 15.25726,1.66182 8.15421,1.14885 20.22584,2.69015 26.82584,3.42512 6.6,0.73498 9.975,1.34593 7.5,1.35768 -2.475,0.0118 -9.45,-0.56655 -15.5,-1.2851 z m 56.5,0.87774 c -17.35773,-1.61978 -81.55735,-9.87614 -80.26996,-10.32308 0.91267,-0.31684 -1.80556,-1.12928 -6.04051,-1.80541 -12.14853,-1.93956 -25.25948,-5.73759 -34.33277,-9.94564 C 324.76054,402.69724 321,400.72952 321,400.45617 c 0,-0.27333 3.01343,0.8553 6.69651,2.50808 9.13533,4.09944 23.1698,7.04046 53.30349,11.1701 38.85761,5.3252 42.60035,5.66453 69.98808,6.34541 23.85348,0.59302 25.51113,0.75269 25.8475,2.48985 0.34486,1.78104 -0.48479,1.83419 -20.48808,1.31267 -23.4955,-0.61258 -23.79287,-0.24001 -1.3475,1.6882 12.7674,1.09681 14.00148,1.32519 7,1.29536 -4.675,-0.0199 -10.075,-0.18319 -12,-0.36282 z m -94.1875,-3.00176 c 0.72187,-0.28589 1.58438,-0.25073 1.91667,0.0781 0.33229,0.32887 -0.25834,0.56278 -1.3125,0.51981 -1.16495,-0.0475 -1.4019,-0.28201 -0.60417,-0.59794 z m -5.54347,-0.99946 c 0.97297,-0.25093 2.32297,-0.23443 3,0.0367 0.67703,0.27111 -0.11903,0.47641 -1.76903,0.45624 -1.65,-0.0202 -2.20394,-0.24198 -1.23097,-0.49291 z m 130.18985,-0.36969 c -0.78409,-1.25561 -0.46729,-1.65373 1.54112,-1.93671 2.85459,-0.40222 4,0.0295 4,1.5077 0,1.72046 -4.51629,2.07012 -5.54112,0.42901 z m 9.10034,-0.63315 c -0.88271,-2.27659 0.2442,-2.88879 2.04213,-1.10939 1.36698,1.35288 1.37406,1.60595 0.0589,2.1054 -0.85016,0.32287 -1.75625,-0.10665 -2.10108,-0.99601 z M 27.278145,421.36084 c -1.499183,-1.91846 -2.442242,-3.71134 -1.952172,-3.71134 0.244204,0 1.181135,1.1134 2.08207,2.47422 1.685833,2.54639 1.591948,3.44051 -0.129898,1.23712 z m 316.990885,0.55126 c 0.97297,-0.25092 2.32297,-0.23442 3,0.0367 0.67703,0.27111 -0.11903,0.47641 -1.76903,0.45624 -1.65,-0.0202 -2.20394,-0.24198 -1.23097,-0.49291 z m 151.18985,-0.36968 c -0.36253,-0.58055 -0.4085,-1.30362 -0.10214,-1.60681 0.82264,-0.81416 3.64326,0.45676 3.64326,1.64159 0,1.34326 -2.69711,1.31677 -3.54112,-0.0347 z m -157.18985,-0.62001 c 0.97297,-0.25092 2.32297,-0.23442 3,0.0367 0.67703,0.27111 -0.11903,0.47641 -1.76903,0.45624 -1.65,-0.0202 -2.20394,-0.24198 -1.23097,-0.49291 z M 332.75,419.96312 c 0.6875,-0.27455 1.8125,-0.27455 2.5,0 0.6875,0.27455 0.125,0.49919 -1.25,0.49919 -1.375,0 -1.9375,-0.22464 -1.25,-0.49919 z m 22,0 c 0.6875,-0.27455 1.8125,-0.27455 2.5,0 0.6875,0.27455 0.125,0.49919 -1.25,0.49919 -1.375,0 -1.9375,-0.22464 -1.25,-0.49919 z m -5.48097,-1.02009 c 0.97297,-0.25092 2.32297,-0.23443 3,0.0367 0.67703,0.27111 -0.11903,0.47641 -1.76903,0.45624 -1.65,-0.0202 -2.20394,-0.24198 -1.23097,-0.49291 z m -4.45653,-0.97991 c 0.72187,-0.28589 1.58438,-0.25074 1.91667,0.0781 0.33229,0.32886 -0.25834,0.56277 -1.3125,0.5198 -1.16495,-0.0475 -1.4019,-0.282 -0.60417,-0.59793 z m -5,-0.98969 c 0.72187,-0.28589 1.58438,-0.25074 1.91667,0.0781 0.33229,0.32886 -0.25834,0.56277 -1.3125,0.5198 -1.16495,-0.0475 -1.4019,-0.282 -0.60417,-0.59793 z m 22.9375,-0.96908 c 0.6875,-0.27455 1.8125,-0.27455 2.5,0 0.6875,0.27455 0.125,0.49919 -1.25,0.49919 -1.375,0 -1.9375,-0.22464 -1.25,-0.49919 z m -31.9375,-1.0103 c 0.72187,-0.28589 1.58438,-0.25074 1.91667,0.0781 0.33229,0.32887 -0.25834,0.56278 -1.3125,0.51981 -1.16495,-0.0475 -1.4019,-0.282 -0.60417,-0.59793 z m 26,0 c 0.72187,-0.28589 1.58438,-0.25074 1.91667,0.0781 0.33229,0.32887 -0.25834,0.56278 -1.3125,0.51981 -1.16495,-0.0475 -1.4019,-0.282 -0.60417,-0.59793 z m -44.52538,-1.87609 c 0.94208,-1.13152 1.70287,-2.69029 1.69064,-3.46392 -0.0326,-2.065 -2.94723,-5.3257 -7.36731,-8.24222 -2.13925,-1.41155 -3.41173,-2.56645 -2.82774,-2.56645 2.11091,0 9.72276,6.58392 10.65947,9.21997 0.80873,2.27593 0.58073,3.04479 -1.45443,4.90449 -2.07796,1.89881 -2.17537,1.91941 -0.70063,0.14813 z m 38.46288,0.90701 c 0.6875,-0.27455 1.8125,-0.27455 2.5,0 0.6875,0.27455 0.125,0.49919 -1.25,0.49919 -1.375,0 -1.9375,-0.22464 -1.25,-0.49919 z m -99.97357,-3.03956 c 2.35204,-0.20906 5.95204,-0.20612 8,0.007 2.04796,0.21266 0.12357,0.38371 -4.27643,0.38012 -4.4,-0.004 -6.07561,-0.17759 -3.72357,-0.38666 z m 67.4679,-3.66234 c -4.29743,-8.75422 -15.45851,-13.63873 -31.04253,-13.58537 -9.9556,0.034 -18.59562,2.11676 -19.60745,4.72636 -0.72153,1.86091 1.80952,6.86716 4.15563,8.21955 0.96251,0.55483 1.30002,1.01243 0.75002,1.01688 -1.53127,0.0124 -5.13012,-3.14936 -6.41814,-5.63862 -2.28864,-4.42306 2.53242,-8.19503 12.9808,-10.15609 16.05458,-3.0133 37.31205,2.04119 40.92751,9.73153 2.38336,5.06957 2.89737,7.94466 1.60948,9.0025 -0.91246,0.74947 -1.78039,-0.10848 -3.35532,-3.31674 z m -79.48267,2.69862 c 1.24391,-0.23672 3.04391,-0.22774 4,0.02 0.95609,0.24771 -0.0617,0.44141 -2.26166,0.43042 -2.2,-0.011 -2.98225,-0.21366 -1.73834,-0.45039 z M 229.5,408.69606 c -1.3939,-0.62501 -0.7878,-0.7141 2,-0.29399 2.2,0.33154 4.1875,0.76639 4.41667,0.96635 0.85918,0.74966 -4.49696,0.18842 -6.41667,-0.67236 z m 6.55355,-4.44399 c -2.99554,-0.82878 -5.69554,-1.78205 -6,-2.11838 -0.30445,-0.33633 0.57145,-0.28228 1.94645,0.1201 5.62608,1.64643 19.46492,1.75428 25.45743,0.19841 7.01971,-1.82256 8.45795,-1.34243 2.94611,0.98353 -5.39748,2.27769 -17.59059,2.68647 -24.34999,0.81634 z M 13.0258,380.45362 c 0.08075,-9.03522 5.986175,-55.30466 6.763885,-52.99557 0.212098,0.62973 -0.322307,6.37217 -1.187567,12.76099 -0.86526,6.38881 -2.256038,18.48332 -3.09062,26.87669 -1.402531,14.10522 -2.547365,20.25744 -2.485698,13.35789 z m -0.946853,-33.1362 c -0.04342,-0.85171 0.799022,-10.87233 1.872095,-22.26804 3.087764,-32.79112 9.559495,-134.47629 10.217061,-160.53256 0.117684,-4.66326 0.293781,-5.47378 0.587124,-2.70238 0.669431,6.32454 -4.240764,103.22554 -6.820384,134.59794 -1.296244,15.76444 -4.90622,50.10783 -5.409585,51.46392 -0.20205,0.54433 -0.40289,0.29284 -0.446311,-0.55888 z m 8.153056,-24.67824 c 0,-1.90515 0.205795,-2.68453 0.457323,-1.73195 0.251527,0.95257 0.251527,2.51134 0,3.46391 -0.251528,0.95258 -0.457323,0.1732 -0.457323,-1.73196 z m 1.02018,-7.42268 c 0.0111,-2.17732 0.215885,-2.9515 0.455078,-1.72042 0.239193,1.23109 0.230112,3.01253 -0.02018,3.95877 -0.250293,0.94623 -0.445997,-0.061 -0.434898,-2.23835 z m 1.020181,-8.41237 c 0,-2.44948 0.195016,-3.45154 0.433369,-2.2268 0.238353,1.22474 0.238353,3.22886 0,4.45361 -0.238353,1.22474 -0.433369,0.22268 -0.433369,-2.22681 z m 1.037505,-10.39175 c 0.0056,-3.26598 0.192301,-4.48275 0.414862,-2.70392 0.222562,1.77882 0.217969,4.45098 -0.0102,5.93814 -0.228174,1.48716 -0.41027,0.0318 -0.404657,-3.23422 z m 1.032941,-14.84536 c 0.0036,-4.35464 0.179441,-6.01298 0.390687,-3.68518 0.211245,2.32779 0.208273,5.89067 -0.0066,7.91752 -0.214882,2.02685 -0.387719,0.1223 -0.384087,-4.23234 z m 1.038954,-21.7732 c 0.002,-6.53196 0.16382,-9.07533 0.35965,-5.65193 0.19583,3.42339 0.194213,8.76772 -0.0036,11.87629 -0.197803,3.10855 -0.358027,0.3076 -0.35605,-6.22436 z m 1.044374,-41.56701 c 7.56e-4,-11.97526 0.145155,-16.7382 0.320888,-10.58433 0.175732,6.15389 0.175113,15.95183 -0.0014,21.7732 -0.176463,5.82138 -0.320244,0.78639 -0.319488,-11.18887 z m 53.807454,-41.07217 c -0.691066,-6.80412 -1.199595,-13.92989 -1.130066,-15.83505 0.06953,-1.90515 0.748126,2.54846 1.507992,9.89691 0.759866,7.34845 1.268395,14.47423 1.130066,15.83505 -0.13833,1.36083 -0.816926,-3.09278 -1.507992,-9.89691 z m -55.235186,-42.85193 0.498405,-22.9625 0.271208,22.19915 c 0.149164,12.20953 -0.07512,22.54265 -0.498406,22.9625 -0.423287,0.41984 -0.545331,-9.56978 -0.271207,-22.19915 z m 52.654408,12.52612 C 77.293766,141.02114 77.079807,123.31188 77.17735,107.47491 L 77.3547,78.680415 78.021316,117.7732 c 0.366639,21.50103 0.580598,39.21029 0.475464,39.35391 -0.105133,0.14363 -0.484918,-4.4906 -0.843966,-10.29828 z m -18.287583,-7.77728 c 0.0026,-5.4433 0.170532,-7.54384 0.373173,-4.66786 0.202642,2.87599 0.200512,7.32959 -0.0047,9.89691 -0.205279,2.56732 -0.371077,0.21425 -0.368473,-5.22905 z m -1.170282,-18.80412 c 0.02038,-1.63299 0.244498,-2.18122 0.498042,-1.21828 0.253543,0.96294 0.236869,2.29902 -0.03705,2.96907 -0.273927,0.67005 -0.481372,-0.1178 -0.460992,-1.75079 z m -0.03705,-5.4433 c 0,-1.36083 0.226973,-1.91753 0.504386,-1.23712 0.277412,0.68042 0.277412,1.79382 0,2.47423 -0.277413,0.68041 -0.504386,0.12371 -0.504386,-1.23711 z M 25.365231,99.46392 c 0.0026,-5.443299 0.170532,-7.543833 0.373173,-4.667854 0.202642,2.875979 0.200512,7.329584 -0.0047,9.896904 -0.205279,2.56732 -0.371077,0.21425 -0.368473,-5.22905 z M 24.157895,77.195878 c 0,-1.360824 0.226973,-1.917525 0.504386,-1.237113 0.277412,0.680412 0.277412,1.793815 0,2.474227 -0.277413,0.680412 -0.504386,0.123711 -0.504386,-1.237114 z m 54.207336,-9.402062 c 0.0026,-5.443299 0.170532,-7.543833 0.373173,-4.667854 0.202642,2.875979 0.200512,7.329587 -0.0047,9.896907 -0.205279,2.56732 -0.371077,0.214247 -0.368473,-5.229053 z M 83.25,57.68088 C 82.5625,57.43681 82,56.145157 82,54.810541 c 0,-2.11989 0.25277,-2.292689 2,-1.367241 3.080093,1.631423 2.419675,5.362854 -0.75,4.23758 z M 13.604642,51.358149 c -0.964721,-3.006367 -1.286538,-6.822065 -0.575376,-6.822065 0.413557,0 0.96229,1.670103 1.219407,3.71134 0.483151,3.835716 0.132343,5.530148 -0.644031,3.110725 z M 11.696917,38.208864 c -0.409197,-1.030487 -0.508402,-2.106775 -0.220456,-2.391753 0.91206,-0.902657 1.714561,0.576558 1.332392,2.455943 -0.350243,1.722384 -0.403729,1.719296 -1.111936,-0.06419 z"
       id="path1591" />
    <path
       style="fill:#000000;stroke-width:0.994832"
       d="m 86.881579,565.85569 c -0.06513,-11.02268 -0.06513,-20.37526 0,-20.78351 0.06513,-0.40825 -0.221836,-0.74227 -0.637707,-0.74227 -4.458399,0 -27.474524,-3.34761 -33.44042,-4.86378 C 40.25818,536.27786 34.879257,533.2305 27.66931,525.22671 19.644728,516.3186 16.614895,510.4035 13.49677,497.55792 8.4099737,476.6021 6.8047743,464.55481 6.4760179,444.86599 c -0.1726912,-10.34227 -0.1002524,-17.6276 0.160975,-16.18962 0.3187463,1.75461 1.032119,2.53372 2.1689831,2.36886 0.9317132,-0.13511 1.0784239,-0.0441 0.3260238,0.20219 -1.0000889,0.32742 -1.2412731,1.75314 -0.8967925,5.30126 0.2684939,2.76546 0.058131,4.85339 -0.4889887,4.85339 -0.5281079,0 -0.6720774,0.74309 -0.3199323,1.6513 0.3521452,0.90822 0.8550812,5.45776 1.1176355,10.11009 1.0324236,18.29404 6.8531512,47.43071 11.2603672,56.36576 1.467684,2.97553 4.917367,7.37315 7.900477,10.07144 5.800122,5.24633 6.461369,6.41326 3.045234,5.37405 -2.229403,-0.67821 -2.227306,-0.66017 0.228998,1.97029 3.502135,3.75045 13.242713,8.09599 23.636158,10.54474 9.011809,2.12324 30.299402,4.96575 31.589496,4.21812 0.387558,-0.2246 0.731728,-13.72145 0.764821,-29.99302 0.05586,-27.46746 -0.06613,-29.61726 -1.704652,-30.04009 -1.610325,-0.41556 -1.614787,-0.46548 -0.05097,-0.57024 1.370755,-0.0918 1.661938,-0.93939 1.454523,-4.23376 L 86.409042,472.7518 75.454519,470.06569 C 56.51366,465.42129 42.201493,459.08048 33.5,451.47828 24.184734,443.33987 11.971744,431.50517 12.88845,431.50517 c 0.54527,0 6.305933,4.93561 12.801474,10.96804 C 32.185466,448.50563 39.3,454.49375 41.5,455.78014 c 8.311097,4.85971 38.517321,15.29906 44.299904,15.31016 0.95081,0.002 1.219363,-1.52576 1,-5.68822 L 86.5,459.71135 l -7,-0.75293 c -10.988997,-1.182 -22.181488,-4.42128 -32.5,-9.40598 -5.225,-2.52411 -9.900138,-4.78027 -10.389196,-5.01369 -0.489057,-0.23342 -0.532029,0.14755 -0.09549,0.84661 2.220583,3.55594 -2.135224,-0.98525 -8.150291,-8.49715 -8.140341,-10.16604 -11.906002,-12.76518 -17.431643,-12.03168 -4.3942045,0.58332 -5.2197955,-0.73124 -1.5099053,-2.40415 5.9694633,-2.69183 11.9349703,1.22393 20.5009053,13.45679 2.596997,3.70873 5.872897,6.9069 8.849505,8.63951 10.787224,6.27901 31.874542,11.87157 43.607106,11.565 3.851184,-0.10062 2.889979,-0.3431 -3.88099,-0.979 C 39.314217,451.45446 12.618641,423.77439 7.0319218,381.03094 5.094082,366.20471 5.9145343,343.84505 12.007094,245.44331 14.153502,210.77639 15.644967,169.84609 16.623221,118.76289 17.124758,92.573264 16.938313,83.954308 15.619593,72.367362 13.713407,55.618633 13.718371,55.72729 14.915572,56.956703 c 0.503565,0.517113 1.688078,8.065979 2.632252,16.775258 2.757998,25.440406 1.284088,100.569929 -3.543419,180.618559 -1.838698,30.48888 -3.211681,56.07022 -4.9038792,91.36881 -1.3076538,27.27713 1.3519962,46.30258 8.4643702,60.54872 3.015547,6.04016 3.607164,6.563 1.679841,1.48454 -0.92481,-2.43686 0.252305,-0.79322 3.029104,4.22963 1.436519,2.59847 2.187571,4.46497 1.669005,4.14778 -3.685733,-2.25442 2.51022,6.95872 9.630061,14.31953 8.528607,8.81726 15.256898,13.07597 26.972975,17.07269 C 69.742819,450.65959 87,452.62062 87,450.52836 c 0,-0.585 -0.7875,-1.2673 -1.75,-1.51623 -1.25315,-0.32411 -1.324129,-0.48531 -0.25,-0.56779 1.317132,-0.10115 1.52947,-9.43575 1.741728,-76.56842 l 0.241728,-76.45323 -2.456481,-5.93815 c -9.90959,-23.95483 -22.47995,-91.49814 -23.944633,-128.65979 -0.482724,-12.24757 -0.09491,-9.91043 1.478024,8.90721 2.160479,25.84671 9.10169,68.28749 15.05339,92.04124 3.232181,12.89992 8.140467,28.20619 9.044922,28.20619 0.462727,0 0.841322,-13.00445 0.841322,-28.89877 0,-24.00101 -0.368819,-31.67479 -2.17618,-45.27835 -1.196899,-9.00877 -2.170766,-18.82907 -2.164148,-21.82288 0.0066,-2.99382 -0.431922,-23.03506 -0.974533,-44.53609 -1.096313,-43.44157 -0.228294,-88.226631 1.695834,-87.495885 0.856836,0.325409 1.203778,13.709696 1.325722,51.143575 0.09084,27.88656 0.591068,53.15231 1.111611,56.14613 0.647365,3.7232 0.974507,-14.32448 1.035256,-57.11264 0.0774,-54.515298 -0.0992,-62.48453 -1.373945,-62.000409 -1.812297,0.688274 -2.721585,-1.472982 -2.300076,-5.466969 0.241669,-2.289912 0.658527,-2.827416 1.695459,-2.186152 0.75625,0.467681 1.375,2.032939 1.375,3.478351 0,3.845997 0.919982,2.301792 1.118602,-1.877592 0.129593,-2.726908 -0.364566,-3.912593 -2.09956,-5.037684 C 83.630448,37.971445 83,36.606515 83,34.121516 c 0,-3.605033 0.791068,-4.241695 2.8,-2.253474 0.933333,0.923711 1.2,0.921559 1.2,-0.0097 0,-0.658524 -0.9,-1.959975 -2,-2.892115 -2.756299,-2.335687 -2.712252,-5.570778 0.06397,-4.698722 1.627094,0.511095 1.997516,0.263352 1.75,-1.170421 C 86.641289,22.096788 85.825,20.975632 85,20.605643 c -1.212035,-0.543562 -1.155625,-0.686061 0.293837,-0.742268 0.98661,-0.03826 1.720793,-0.626261 1.631517,-1.306673 -0.37751,-2.877188 0.143637,-5.690722 1.054086,-5.690722 0.631731,0 1.089356,40.141475 1.289057,113.07217 0.334536,122.17209 0.05444,115.08948 5.821977,147.2165 3.837041,21.37354 8.739156,37.41423 15.922846,52.1027 5.46704,11.17846 11.22112,16.77089 23.59231,22.9295 16.33234,8.13057 20.94691,12.81869 24.96785,25.36582 2.28931,7.14364 4.94174,28.06513 3.95013,31.15723 -0.41455,1.29267 7.8e-4,1.69841 1.67691,1.63819 1.93176,-0.0694 2.88895,1.53164 7.20042,12.04367 2.73487,6.66805 5.28204,12.12372 5.66037,12.12372 1.16263,0 4.62465,-12.83525 6.23137,-23.1025 2.55279,-16.31272 9.34694,-26.8954 15.93788,-24.82508 2.73439,0.85891 19.72407,12.48418 22.19659,15.18812 1.03556,1.13247 2.60058,2.09421 3.47784,2.13718 0.87725,0.0429 1.09791,0.28119 0.49035,0.52936 -0.60756,0.24819 -0.88804,1.5727 -0.6233,2.94337 0.43152,2.23404 -0.0237,2.01136 -4.39534,-2.15017 -2.68218,-2.55326 -6.6767,-5.7942 -8.8767,-7.20209 -2.2,-1.40789 -5.84635,-4.01873 -8.10299,-5.80188 -5.25489,-4.1523 -8.56805,-4.20497 -11.46233,-0.18223 -2.68726,3.735 -5.55979,12.61042 -6.95548,21.49078 -0.57264,3.64354 -2.92533,12.19163 -5.2282,18.99575 -5.34391,15.78931 -5.67789,22.83463 -1.42212,30.00017 5.9618,10.03803 13.69229,11.02515 28.67112,3.66107 8.25317,-4.05753 8.56797,-4.3411 10.8407,-9.76542 4.94652,-11.80582 6.29971,-18.0999 6.94606,-32.30819 0.49841,-10.95621 0.77255,-12.82014 1.31003,-8.90721 1.68224,12.24707 -2.20789,32.31673 -8.75495,45.16784 -0.17702,0.34747 3.16115,-0.43357 7.41815,-1.73566 4.25701,-1.30209 11.56501,-2.90263 16.24001,-3.55675 4.675,-0.65412 8.7962,-1.61466 9.15823,-2.13454 0.40094,-0.57576 8.02298,-0.74072 19.5,-0.42204 10.36297,0.28775 17.26677,0.18966 15.34177,-0.21797 -2.70036,-0.57182 -2.24343,-0.6574 2,-0.37459 13.76654,0.9175 54.65328,4.44875 56,4.83653 1.46165,0.42087 -9.88033,-0.0365 -25,-1.0081 -4.125,-0.26508 -7.05,-0.26794 -6.5,-0.006 0.55,0.26157 13.825,2.27314 29.5,4.47014 34.59825,4.84927 44.26664,6.49318 76.80648,13.05935 20.68396,4.17377 25.49363,5.45262 26.33102,7.00118 0.5635,1.04204 0.83334,2.08385 0.59965,2.31514 -0.23369,0.23128 -15.23265,-2.44101 -33.33102,-5.93841 -29.96872,-5.79129 -54.22891,-9.59559 -98.90613,-15.5097 -20.33555,-2.69191 -56.65975,-3.6914 -69.83349,-1.92153 -9.52928,1.28025 -23.97917,5.01667 -28.53277,7.37794 l -2.63088,1.36425 2.71721,1.22528 c 1.49447,0.67391 2.4368,1.67433 2.09406,2.22317 -0.34273,0.54883 -0.14828,0.70742 0.43211,0.35242 0.58039,-0.355 4.13742,0.64434 7.90451,2.22075 3.76709,1.57641 14.27425,4.50853 23.34925,6.51582 9.075,2.00728 25.275,5.81361 36,8.4585 34.43446,8.49189 56.6083,12.33384 88,15.24731 21.29065,1.976 58.1444,3.59475 78.5,3.44801 13.9152,-0.10031 16.04213,0.0907 16.32332,1.46592 0.28775,1.40725 -1.85809,1.57661 -19.5,1.53895 -65.09279,-0.13893 -107.32469,-4.93558 -161.82332,-18.3797 -12.1,-2.98492 -24.18482,-5.64479 -26.85516,-5.91082 -2.67034,-0.26603 -8.97034,-1.75695 -14,-3.31314 -5.02966,-1.5562 -12.51984,-3.81266 -16.64484,-5.01435 -4.125,-1.20169 -10.32793,-3.4536 -13.78428,-5.00426 l -6.28428,-2.81937 -5.55976,2.10566 -5.55975,2.10567 2.34403,1.86598 2.34404,1.86599 -3.20034,-1.54411 c -1.76019,-0.84926 -4.01019,-1.5342 -5,-1.5221 -1.50575,0.0184 -1.39137,0.34516 0.70034,2.00068 2.01456,1.59447 1.43204,1.48182 -3,-0.58018 -11.46248,-5.33334 -15.35969,-7.38108 -14.04664,-7.38108 1.10215,0 1.08245,-0.32487 -0.10501,-1.73196 C 175.62557,460.7888 174,456.4841 174,453.2318 c 0,-1.60738 -0.45,-2.92251 -1,-2.92251 -0.55,0 -1,0.85675 -1,1.90388 0,3.06556 2.27761,11.95179 3.06334,11.95179 0.39591,0 1.00604,1.12855 1.35584,2.50789 0.3498,1.37933 1.73447,3.00322 3.07705,3.60864 1.34258,0.60541 2.22264,1.45051 1.95568,1.87801 -0.26695,0.42748 0.52229,1.47576 1.75387,2.3295 1.23158,0.85374 1.84408,1.55225 1.36112,1.55225 -1.8138,0 -7.73189,-5.24645 -10.09215,-8.9468 -1.34734,-2.11233 -3.00797,-6.75313 -3.69029,-10.31288 l -1.24057,-6.47228 -4.52194,-0.14864 -4.52195,-0.14865 4.39339,-0.59362 4.39339,-0.59362 -0.20125,-9.89691 c -0.11069,-5.4433 -0.64172,-11.90103 -1.18007,-14.35052 -2.14802,-9.7735 -2.9957,-10.26202 -4.60781,-2.65549 -1.80971,8.53891 -5.24536,14.60915 -11.91496,21.05183 -11.95377,11.54705 -23.28958,15.42406 -49.13269,16.80407 l -13.25,0.70755 -0.118421,6.04602 c -0.06513,3.32531 -0.01505,6.49138 0.111297,7.03571 0.126345,0.54433 0.154121,13.08826 0.06173,27.8754 -0.157301,25.17449 -0.053,26.91519 1.638703,27.34911 1.658698,0.42545 1.663342,0.47282 0.0567,0.57822 -1.470487,0.0965 -1.75,1.11718 -1.75,6.39057 v 6.27577 l 15.505031,1.17913 c 12.54711,0.95419 19.27183,2.1061 35.25,6.03812 27.93158,6.87359 32.6707,7.34505 66.24497,6.59025 35.2867,-0.7933 55.67016,0.48775 124,7.79307 17.325,1.85226 40.725,4.29567 52,5.42981 11.275,1.13414 29.85611,3.15815 41.29135,4.49781 11.43524,1.33965 22.48274,2.43574 24.55,2.43574 3.48701,0 6.15865,1.35363 6.15865,3.12038 0,0.85292 -2.95543,0.59484 -30.5,-2.66345 -19.11366,-2.26099 -40.95353,-4.55905 -56,-5.89251 -3.85,-0.3412 -23.2,-2.35153 -43,-4.46739 -69.63918,-7.44179 -81.8598,-8.18869 -120,-7.33422 -32.88873,0.73681 -37.47284,0.26752 -64,-6.55194 -16.31652,-4.19456 -29.12809,-6.38289 -42.750001,-7.30209 L 89,544.31836 v 20.78929 c 0,13.19972 -0.365071,20.78927 -1,20.78927 -0.629846,0 -1.043834,-7.41833 -1.118421,-20.04123 z M 215.91667,466.77324 C 215.6875,466.57481 214.375,465.8822 213,465.23411 c -2.35727,-1.11107 -2.38918,-1.09047 -0.55887,0.36079 1.593,1.2631 4.84786,2.36662 3.47554,1.17834 z M 119.5,454.66288 c 13.20304,-1.76383 20.56794,-5.00191 29.43084,-12.93968 5.85106,-5.24032 9.99754,-11.98479 11.45392,-18.6304 0.48883,-2.23058 0.007,-1.73825 -1.93677,1.97938 -3.27723,6.26763 -10.49892,13.64077 -16.94799,17.30339 -10.0623,5.71469 -33.63908,11.89642 -46.612432,12.2216 -5.045516,0.12646 -6.493656,0.47832 -6.111193,1.48491 0.588421,1.54862 12.693825,0.98944 30.723625,-1.4192 z m -9.78546,-5.24979 c 39.53553,-7.61947 54.32604,-23.7195 50.45116,-54.91797 -2.03444,-16.38029 -7.10213,-31.223 -10.67515,-31.26636 -0.5552,-0.007 -1.56869,-0.89849 -2.2522,-1.98168 -0.6835,-1.08319 -4.88478,-3.78174 -9.33617,-5.99677 -4.45139,-2.21505 -7.73903,-3.44428 -7.30585,-2.73161 2.72066,4.47604 -14.38347,-11.13794 -20.66188,-18.86178 -3.37712,-4.15461 -4.74392,-6.09937 -3.03733,-4.32171 1.70658,1.77766 3.10288,2.99129 3.10288,2.69694 0,-0.29433 -1.5069,-3.53023 -3.34868,-7.19086 -6.30454,-12.53069 -11.797763,-31.07039 -15.167859,-51.1918 -0.911688,-5.4433 -1.84343,-10.08247 -2.070538,-10.30928 -1.007404,-1.00605 -0.336284,36.80794 0.686845,38.69997 0.758071,1.40186 0.767124,1.83028 0.02914,1.37888 -0.75714,-0.46311 -1.076545,21.09133 -1.090828,73.61253 l -0.0202,74.26739 h 5.455601 c 3.00058,0 9.859059,-0.84865 15.241059,-1.88589 z M 98.75,447.67446 c 0.6875,-0.27455 1.8125,-0.27455 2.5,0 0.6875,0.27455 0.125,0.49919 -1.25,0.49919 -1.375,0 -1.9375,-0.22464 -1.25,-0.49919 z m 7,-0.98969 c 0.6875,-0.27455 1.8125,-0.27455 2.5,0 0.6875,0.27455 0.125,0.49919 -1.25,0.49919 -1.375,0 -1.9375,-0.22464 -1.25,-0.49919 z m 7.0625,-1.01031 c 0.72187,-0.28589 1.58437,-0.25074 1.91667,0.0781 0.33229,0.32886 -0.25834,0.56277 -1.3125,0.5198 -1.16495,-0.0475 -1.4019,-0.282 -0.60417,-0.59793 z m 39.49737,-56.23115 c 0.006,-3.26598 0.1923,-4.48274 0.41486,-2.70392 0.22256,1.77882 0.21797,4.45098 -0.0102,5.93814 -0.22818,1.48716 -0.41027,0.0318 -0.40466,-3.23422 z m 1.63248,-4.70103 c -0.0317,-2.3134 -0.88374,-7.32371 -1.89341,-11.13402 -2.15884,-8.14702 -1.96674,-9.50771 0.39181,-2.77529 1.7302,4.93882 3.33353,18.11549 2.20429,18.11549 -0.35477,0 -0.67098,-1.89278 -0.70269,-4.20618 z M 150.6,378.95259 c -0.36648,-2.26822 -0.47108,-4.31728 -0.23245,-4.55346 0.23864,-0.23617 0.74824,1.41206 1.13245,3.66274 0.38421,2.25067 0.48881,4.29973 0.23245,4.55345 -0.25637,0.25372 -0.76597,-1.39451 -1.13245,-3.66273 z m -1.52105,-6.5005 c -0.0434,-0.63589 -0.33793,-1.97198 -0.65446,-2.96907 -0.54705,-1.72327 -0.51883,-1.72543 0.57078,-0.0437 0.63045,0.97309 0.92496,2.30917 0.65445,2.96908 -0.35498,0.86597 -0.51379,0.87812 -0.57077,0.0436 z m -2.51466,-6.9661 c -0.54268,-1.4105 -0.42782,-1.52418 0.5598,-0.55402 0.68342,0.67134 0.99067,1.46992 0.68278,1.77464 -0.30789,0.30472 -0.86705,-0.24456 -1.24258,-1.22062 z m -46.1593,-17.36227 -1.90499,-2.2268 2.25,1.88535 c 1.2375,1.03694 2.25,2.039 2.25,2.2268 0,0.792 -0.80479,0.20729 -2.59501,-1.88535 z m 8.46745,-5.4433 c -1.24387,-1.56971 -1.2085,-1.60471 0.37756,-0.37367 0.9625,0.74707 1.75,1.52645 1.75,1.73196 0,0.81456 -0.82119,0.29029 -2.12756,-1.35829 z m -13.999995,-0.98969 c -1.243871,-1.56971 -1.208501,-1.60471 0.377555,-0.37367 0.9625,0.74707 1.75,1.52645 1.75,1.73196 0,0.81456 -0.821186,0.29029 -2.127555,-1.35829 z m 3.127555,-24 c -0.588702,-1.08866 -0.845368,-1.97938 -0.570368,-1.97938 0.275,0 0.981666,0.89072 1.570368,1.97938 0.588702,1.08866 0.845368,1.97938 0.570368,1.97938 -0.275,0 -0.981666,-0.89072 -1.570368,-1.97938 z m -4.5,-7.91753 c -0.853248,-1.63298 -1.32636,-2.96907 -1.05136,-2.96907 0.275,0 1.198112,1.33609 2.05136,2.96907 0.853248,1.63299 1.32636,2.96908 1.05136,2.96908 -0.275,0 -1.198112,-1.33609 -2.05136,-2.96908 z m 80.97894,134.84537 c 1.17266,-7.45922 0.92383,-10.3354 -1.30572,-15.09278 l -2.08719,-4.45361 0.0666,11.38144 c 0.0366,6.25979 0.26881,11.71547 0.516,12.12371 1.10476,1.8245 2.12771,0.38353 2.81036,-3.95876 z M 457,578.47424 c -1.06642,-1.2717 -0.7409,-1.48453 2.27057,-1.48453 2.20236,0 3.73045,0.5545 4.09106,1.48453 0.42856,1.1053 -0.15148,1.48454 -2.27057,1.48454 -1.56539,0 -3.40637,-0.66804 -4.09106,-1.48454 z m 9.61311,-0.0651 c -0.46791,-1.2068 -0.0108,-1.48053 2.06589,-1.23711 1.46672,0.17192 2.85147,0.86927 3.07721,1.54969 0.61308,1.84782 -4.42414,1.54168 -5.1431,-0.31258 z m 8.05356,0.88989 c -1.26779,-1.25475 -0.65891,-2.3093 1.33333,-2.3093 1.11111,0 2,0.65979 2,1.48453 0,1.50672 -2.1154,2.03012 -3.33333,0.82474 z M 481,577.9794 c 0,-0.54433 1.15156,-0.98969 2.55902,-0.98969 1.45136,0 2.2915,0.42837 1.94098,0.98969 -0.33992,0.54433 -1.49148,0.98969 -2.55902,0.98969 -1.06754,0 -1.94098,-0.44536 -1.94098,-0.98969 z m -80,-15.94939 c -4.125,-0.46598 -18.975,-2.41302 -33,-4.32675 -14.025,-1.91374 -28.65,-3.86785 -32.5,-4.34248 -3.85,-0.47462 -5.65,-0.91525 -4,-0.97917 4.48666,-0.1738 75.76544,8.61796 82.5,10.17583 2.84091,0.65717 -5.51431,0.31819 -13,-0.52743 z m -4.27164,-4.39148 c -4.27441,-0.7125 -8.54941,-1.5298 -9.5,-1.81625 -3.05825,-0.92155 9.05387,0.47412 15.77164,1.81736 8.41287,1.68218 3.82185,1.68137 -6.27164,-9.9e-4 z M 380.25,554.53429 c 0.9625,-0.24893 2.5375,-0.24893 3.5,0 0.9625,0.24893 0.175,0.45261 -1.75,0.45261 -1.925,0 -2.7125,-0.20368 -1.75,-0.45261 z m -5.98097,-0.99332 c 0.97297,-0.25092 2.32297,-0.23442 3,0.0367 0.67703,0.27111 -0.11903,0.47641 -1.76903,0.45624 -1.65,-0.0202 -2.20394,-0.24198 -1.23097,-0.49291 z m -7,-0.98969 c 0.97297,-0.25092 2.32297,-0.23442 3,0.0367 0.67703,0.27111 -0.11903,0.47641 -1.76903,0.45624 -1.65,-0.0202 -2.20394,-0.24198 -1.23097,-0.49291 z M 319.75,551.54898 c 1.2375,-0.2359 3.2625,-0.2359 4.5,0 1.2375,0.2359 0.225,0.42891 -2.25,0.42891 -2.475,0 -3.4875,-0.19301 -2.25,-0.42891 z m -22.48097,-5.92553 c 0.97297,-0.25093 2.32297,-0.23443 3,0.0367 0.67703,0.2711 -0.11903,0.4764 -1.76903,0.45623 -1.65,-0.0202 -2.20394,-0.24198 -1.23097,-0.4929 z m -145,-0.98969 c 0.97297,-0.25093 2.32297,-0.23443 3,0.0367 0.67703,0.27111 -0.11903,0.47641 -1.76903,0.45624 -1.65,-0.0202 -2.20394,-0.24198 -1.23097,-0.4929 z m 45.98097,-0.0417 c 2.6125,-0.20387 6.8875,-0.20387 9.5,0 2.6125,0.20388 0.475,0.37068 -4.75,0.37068 -5.225,0 -7.3625,-0.1668 -4.75,-0.37068 z m 85.5625,0.0514 c 0.72187,-0.2859 1.58438,-0.25074 1.91667,0.0781 0.33229,0.32887 -0.25834,0.56278 -1.3125,0.51981 -1.16495,-0.0475 -1.4019,-0.282 -0.60417,-0.59793 z M 129,540.86599 c -8.525,-1.79174 -14.375,-3.343 -13,-3.44724 1.69301,-0.12835 0.24044,-0.92717 -4.5,-2.4747 -3.85,-1.25685 -6.53762,-2.33135 -5.9725,-2.38781 0.56513,-0.0564 6.86513,1.70594 14,3.91641 7.13488,2.21045 17.0225,4.84226 21.9725,5.84844 4.95,1.00618 7.65,1.82338 6,1.81602 -1.65,-0.007 -9.975,-1.47937 -18.5,-3.27112 z m -19.1875,-4.13998 c 0.72187,-0.28589 1.58437,-0.25074 1.91667,0.0781 0.33229,0.32886 -0.25834,0.56277 -1.3125,0.5198 -1.16495,-0.0475 -1.4019,-0.282 -0.60417,-0.59793 z m -43.444372,-7.58867 c -8.02959,-4.28376 -14.922148,-9.37372 -19.864709,-14.66953 l -3.996581,-4.28223 4.996581,4.55351 c 6.985949,6.36646 11.434818,9.48654 19.773675,13.86766 3.972598,2.08713 6.772906,3.7964 6.222906,3.79836 -0.55,0.002 -3.759342,-1.46854 -7.131872,-3.26777 z m 35.444372,2.64022 c 0.72187,-0.2859 1.58437,-0.25074 1.91667,0.0781 0.33229,0.32887 -0.25834,0.56278 -1.3125,0.51981 -1.16495,-0.0475 -1.4019,-0.282 -0.60417,-0.59793 z M 57,528.62022 c -2.475,-1.54335 -5.861848,-4.09571 -7.526329,-5.67191 -4.078378,-3.86207 -10.8584,-12.21701 -10.334691,-12.73532 0.231837,-0.22945 2.250271,1.92197 4.485409,4.78092 4.566313,5.84075 10.923575,11.262 16.860802,14.3783 2.191855,1.15045 3.316855,2.08326 2.5,2.07292 C 62.168336,531.43479 59.475,530.16358 57,528.62022 Z m 40.8125,2.16765 c 0.721875,-0.2859 1.584375,-0.25074 1.916667,0.0781 0.332293,0.32887 -0.258334,0.56278 -1.3125,0.51981 -1.164943,-0.0475 -1.4019,-0.28201 -0.604167,-0.59793 z m -48.940055,-2.04559 c -1.243871,-1.56971 -1.208501,-1.60471 0.377555,-0.37366 1.665748,1.2929 2.195479,2.10562 1.372445,2.10562 -0.207656,0 -0.995156,-0.77938 -1.75,-1.73196 z m 44.940055,1.05589 c 0.721875,-0.28589 1.584375,-0.25073 1.916667,0.0781 0.332291,0.32887 -0.258334,0.56278 -1.3125,0.51981 -1.164943,-0.0475 -1.4019,-0.28201 -0.604167,-0.59794 z M 43.924314,524.78352 41.5,522.06187 l 2.75,2.39932 c 1.5125,1.31963 2.75,2.54437 2.75,2.72165 0,0.77619 -0.809799,0.14447 -3.075686,-2.39932 z m -7.389926,-4.43467 c -5.73924,-6.63588 -12.379335,-19.93276 -13.971295,-27.9777 -0.323141,-1.63299 0.300192,-0.6029 1.385185,2.28909 3.347898,8.92364 8.780362,19.24104 12.994862,24.67998 4.842669,6.24962 4.613388,6.81539 -0.408752,1.00863 z m 3.338057,-0.51378 c -1.243871,-1.56971 -1.208501,-1.60472 0.377555,-0.37367 1.665748,1.2929 2.195479,2.10563 1.372445,2.10563 -0.207656,0 -0.995156,-0.77939 -1.75,-1.73196 z M 471,505.23713 c 0,-0.98969 1,-1.48454 3,-1.48454 2,0 3,0.49485 3,1.48454 0,0.98969 -1,1.48453 -3,1.48453 -2,0 -3,-0.49484 -3,-1.48453 z m 9.66667,0.82474 c -1.4835,-1.46821 -0.58414,-3.16959 1.46864,-2.77833 2.69151,0.51298 3.23636,1.05258 2.40581,2.38259 -0.73911,1.18357 -2.85957,1.40015 -3.87445,0.39574 z M 487,504.74228 c 0,-0.54433 0.87344,-0.98969 1.94098,-0.98969 1.06754,0 2.2191,0.44536 2.55902,0.98969 0.35052,0.56132 -0.48962,0.98969 -1.94098,0.98969 -1.40746,0 -2.55902,-0.44536 -2.55902,-0.98969 z m 8,0 c 0,-0.54433 0.45,-0.98969 1,-0.98969 0.55,0 1,0.44536 1,0.98969 0,0.54433 -0.45,0.98969 -1,0.98969 -0.55,0 -1,-0.44536 -1,-0.98969 z m -158.21081,-0.73376 c 3.45905,-0.19382 8.85905,-0.19222 12,0.004 3.14094,0.19578 0.31081,0.35434 -6.28919,0.35239 -6.6,-0.002 -9.16987,-0.16213 -5.71081,-0.35594 z m -17.02128,-0.97319 c 1.79735,-0.22026 4.49735,-0.21572 6,0.0101 1.50265,0.22583 0.0321,0.40604 -3.26791,0.40049 -3.3,-0.006 -4.52944,-0.19032 -2.73209,-0.41059 z M 307.75,502.06445 c 1.2375,-0.23591 3.2625,-0.23591 4.5,0 1.2375,0.23589 0.225,0.4289 -2.25,0.4289 -2.475,0 -3.4875,-0.19301 -2.25,-0.4289 z m -8.48097,-0.97709 c 0.97297,-0.25092 2.32297,-0.23442 3,0.0367 0.67703,0.27111 -0.11903,0.47641 -1.76903,0.45624 -1.65,-0.0202 -2.20394,-0.24198 -1.23097,-0.49291 z m -7,-0.98969 c 0.97297,-0.25092 2.32297,-0.23442 3,0.0367 0.67703,0.27111 -0.11903,0.47641 -1.76903,0.45624 -1.65,-0.0202 -2.20394,-0.24198 -1.23097,-0.49291 z m -6.45653,-0.97991 c 0.72187,-0.28589 1.58438,-0.25074 1.91667,0.0781 0.33229,0.32886 -0.25834,0.56278 -1.3125,0.5198 -1.16495,-0.0475 -1.4019,-0.282 -0.60417,-0.59793 z m -6.0625,-0.96907 c 0.6875,-0.27455 1.8125,-0.27455 2.5,0 0.6875,0.27455 0.125,0.49919 -1.25,0.49919 -1.375,0 -1.9375,-0.22464 -1.25,-0.49919 z m -9.9375,-2 c 0.72187,-0.28589 1.58438,-0.25074 1.91667,0.0781 0.33229,0.32886 -0.25834,0.56277 -1.3125,0.5198 -1.16495,-0.0475 -1.4019,-0.282 -0.60417,-0.59793 z m -4,-0.98969 c 0.72187,-0.28589 1.58438,-0.25074 1.91667,0.0781 0.33229,0.32887 -0.25834,0.56278 -1.3125,0.51981 -1.16495,-0.0475 -1.4019,-0.282 -0.60417,-0.59793 z m -4,-0.98969 c 0.72187,-0.28589 1.58438,-0.25074 1.91667,0.0781 0.33229,0.32887 -0.25834,0.56278 -1.3125,0.51981 -1.16495,-0.0475 -1.4019,-0.282 -0.60417,-0.59793 z m -4,-0.98969 c 0.72187,-0.2859 1.58438,-0.25074 1.91667,0.0781 0.33229,0.32887 -0.25834,0.56278 -1.3125,0.51981 -1.16495,-0.0475 -1.4019,-0.282 -0.60417,-0.59793 z M 251.5,491.8763 c -1.26064,-0.53613 -1.44548,-0.85057 -0.5,-0.85057 0.825,0 2.4,0.38276 3.5,0.85057 1.26064,0.53614 1.44548,0.85057 0.5,0.85057 -0.825,0 -2.4,-0.38275 -3.5,-0.85057 z m 31.3125,0.31363 c 0.72187,-0.2859 1.58438,-0.25074 1.91667,0.0781 0.33229,0.32887 -0.25834,0.56278 -1.3125,0.51981 -1.16495,-0.0475 -1.4019,-0.282 -0.60417,-0.59793 z m -5,-0.98969 c 0.72187,-0.2859 1.58438,-0.25074 1.91667,0.0781 0.33229,0.32887 -0.25834,0.56278 -1.3125,0.51981 -1.16495,-0.0475 -1.4019,-0.28201 -0.60417,-0.59793 z m -34.625,-1.97939 c -2.37188,-0.83022 -4.13569,-1.68449 -3.91958,-1.89836 0.45625,-0.45155 9.73208,2.56251 9.73208,3.16231 0,0.61973 -1.13786,0.3723 -5.8125,-1.26395 z M 235,485.93816 c -0.825,-0.52767 -1.05,-0.95938 -0.5,-0.95938 0.55,0 1.675,0.43171 2.5,0.95938 0.825,0.52766 1.05,0.95937 0.5,0.95937 -0.55,0 -1.675,-0.43171 -2.5,-0.95937 z M 20.078947,484.37115 c 0.04798,-1.15294 0.284941,-1.38745 0.604167,-0.59794 0.288871,0.71443 0.253344,1.56805 -0.07895,1.89691 -0.332292,0.32886 -0.568641,-0.25568 -0.52522,-1.29897 z m 80.710243,-0.15645 c 3.45905,-0.19381 8.85905,-0.19222 12,0.004 3.14094,0.19577 0.31081,0.35434 -6.28919,0.35239 -6.6,-0.002 -9.169866,-0.16213 -5.71081,-0.35594 z m 21.47984,-0.94177 c 0.97297,-0.25093 2.32297,-0.23443 3,0.0367 0.67703,0.2711 -0.11903,0.47641 -1.76903,0.45624 -1.65,-0.0202 -2.20394,-0.24198 -1.23097,-0.49291 z M 224.75,481.4195 c -2.6125,-1.34591 -4.75,-2.66876 -4.75,-2.93966 0,-0.44178 9.89973,4.18599 10.91667,5.10315 1.2381,1.11663 -2.01533,-0.0247 -6.16667,-2.16349 z m -125.5,0.81568 c 3.7125,-0.19043 9.7875,-0.19043 13.5,0 3.7125,0.19043 0.675,0.34622 -6.75,0.34622 -7.425,0 -10.4625,-0.15579 -6.75,-0.34622 z m 369.20888,-0.32163 c -0.36253,-0.58054 -0.4085,-1.30361 -0.10214,-1.6068 0.82264,-0.81416 3.64326,0.45676 3.64326,1.64159 0,1.34326 -2.69711,1.31676 -3.54112,-0.0347 z M 474,482.01045 c 0,-0.52724 0.675,-0.70227 1.5,-0.38896 0.825,0.31333 1.5,0.74471 1.5,0.95864 0,0.21392 -0.675,0.38896 -1.5,0.38896 -0.825,0 -1.5,-0.43139 -1.5,-0.95864 z m -13.16486,-0.69705 c -1.77882,-0.46625 -3.38305,-3.29277 -1.86885,-3.29277 1.96135,0 6.03371,1.9874 6.03371,2.94458 0,1.03211 -1.17944,1.13071 -4.16486,0.34819 z M 79.75,480.33425 c 0.6875,-0.27455 1.8125,-0.27455 2.5,0 0.6875,0.27455 0.125,0.49919 -1.25,0.49919 -1.375,0 -1.9375,-0.22464 -1.25,-0.49919 z m 79.31528,-0.4327 c -1.33909,-0.52949 -3.01218,-0.74339 -3.71797,-0.47534 -0.70579,0.26805 -1.54923,0.0615 -1.8743,-0.45911 -0.90905,-1.4557 4.71332,-1.05379 7.52699,0.53807 2.84067,1.60713 1.71212,1.83835 -1.93472,0.39638 z M 102.25,479.29115 c 1.5125,-0.22677 3.9875,-0.22677 5.5,0 1.5125,0.22676 0.275,0.41229 -2.75,0.41229 -3.025,0 -4.2625,-0.18553 -2.75,-0.41229 z M 234,479.01032 c -0.825,-0.52766 -1.05,-0.95937 -0.5,-0.95937 0.55,0 1.675,0.43171 2.5,0.95937 0.825,0.52767 1.05,0.95938 0.5,0.95938 -0.55,0 -1.675,-0.43171 -2.5,-0.95938 z m 215.34508,-0.53753 c -0.32569,-0.83997 -0.33252,-1.78417 -0.0152,-2.09823 1.07589,-1.0648 5.67011,0.68517 5.67011,2.15977 0,1.97978 -4.88404,1.92663 -5.65492,-0.0616 z m -259.88721,-1.50932 c -0.3631,-0.58144 -1.38844,-0.78058 -2.27854,-0.44254 -0.8901,0.33804 -1.29849,0.29805 -0.90753,-0.0889 0.39097,-0.38693 0.15225,-1.37411 -0.53048,-2.19372 -1.07272,-1.2878 -0.9585,-1.34112 0.84092,-0.39252 2.12161,1.11844 5.12264,4.17483 4.09922,4.17483 -0.30988,0 -0.8605,-0.47572 -1.22359,-1.05716 z M 164,476.04125 c -1.82797,-1.16914 -0.24909,-1.16914 2.5,0 1.31874,0.56084 1.48906,0.8691 0.5,0.90497 -0.825,0.0299 -2.175,-0.37731 -3,-0.90497 z m 40.44113,-0.54945 c -1.86402,-1.47799 -1.85176,-1.49626 0.30887,-0.46001 1.2375,0.5935 2.25,1.28611 2.25,1.53912 0,0.75733 -0.51861,0.53863 -2.55887,-1.07911 z m -44.62863,-1.11631 c 0.72187,-0.28589 1.58437,-0.25074 1.91667,0.0781 0.33229,0.32886 -0.25834,0.56278 -1.3125,0.5198 -1.16495,-0.0475 -1.4019,-0.282 -0.60417,-0.59793 z M 222,474.06187 c -0.825,-0.52766 -1.05,-0.95938 -0.5,-0.95938 0.55,0 1.675,0.43172 2.5,0.95938 0.825,0.52766 1.05,0.95938 0.5,0.95938 -0.55,0 -1.675,-0.43172 -2.5,-0.95938 z M 92,473.07218 c -3.417609,-0.71196 -3.429379,-0.73055 -0.5,-0.78984 1.65,-0.0334 3.9,0.32202 5,0.78984 2.404677,1.02268 0.409125,1.02268 -4.5,0 z m 125.50708,-0.97836 c -0.35034,-0.56102 0.0511,-0.72693 0.94098,-0.38896 1.73242,0.65794 2.04939,1.36732 0.61096,1.36732 -0.51754,0 -1.21592,-0.44027 -1.55194,-0.97836 z M 211,469.11342 c -1.925,-1.04303 -3.05,-1.89642 -2.5,-1.89642 0.55,0 2.575,0.85339 4.5,1.89642 1.925,1.04302 3.05,1.89641 2.5,1.89641 -0.55,0 -2.575,-0.85339 -4.5,-1.89641 z m -55,-9.56223 c 1.375,-1.54491 2.6125,-2.99448 2.75,-3.22128 0.1375,-0.2268 0.25,0.48109 0.25,1.5731 0,1.20658 -1.07881,2.47027 -2.75,3.22128 l -2.75,1.2358 z m 42.8125,-1.01075 c 0.72187,-0.28589 1.58437,-0.25074 1.91667,0.0781 0.33229,0.32886 -0.25834,0.56277 -1.3125,0.5198 -1.16495,-0.0475 -1.4019,-0.282 -0.60417,-0.59793 z M 77.5,449.3196 c -1.785834,-0.75949 -1.711841,-0.85802 0.690983,-0.92012 1.480041,-0.0383 2.969098,0.37579 3.309017,0.92012 0.737836,1.18153 -1.221775,1.18153 -4,0 z m -6.502376,-1.73196 c -0.0013,-0.40825 -2.506998,-2.03751 -5.568203,-3.62058 -12.855199,-6.64796 -27.342035,-23.81867 -34.728939,-41.16292 -3.572841,-8.38894 -7.608673,-25.1059 -7.802843,-32.32041 l -0.102362,-3.80331 -0.881153,3.46392 c -0.940181,3.69596 -0.250591,12.741 1.282712,16.82474 0.662764,1.76519 0.620451,2.17254 -0.147652,1.42147 -2.580375,-2.52315 -3.477026,-11.95854 -2.224273,-23.40586 0.672336,-6.14364 1.685591,-17.4053 2.251678,-25.02592 0.566086,-7.62062 2.371399,-25.43505 4.011807,-39.58763 3.974386,-34.28892 4.585541,-58.37997 2.523256,-99.46392 -1.564228,-31.16185 -2.01032,-48.27305 -1.236317,-47.42268 0.206434,0.2268 0.889216,8.42887 1.517294,18.22681 0.628077,9.79793 1.430794,22.26804 1.783814,27.71134 0.353021,5.4433 0.632892,22.58969 0.621937,38.10309 -0.01668,23.61705 -0.45386,32.23174 -2.687049,52.94846 -6.135175,56.91443 -6.669045,66.66508 -4.580287,83.65482 3.825617,31.11719 20.681952,58.42781 43.488973,70.46082 4.704693,2.48219 6.246542,3.69199 4.729983,3.71134 -1.2375,0.0157 -2.251069,-0.30533 -2.252376,-0.71358 z M 246.75,446.68477 c 0.6875,-0.27455 1.8125,-0.27455 2.5,0 0.6875,0.27455 0.125,0.49919 -1.25,0.49919 -1.375,0 -1.9375,-0.22464 -1.25,-0.49919 z m 27.01166,-0.0445 c 1.24391,-0.23672 3.04391,-0.22774 4,0.02 0.95609,0.24771 -0.0617,0.4414 -2.26166,0.43042 -2.2,-0.011 -2.98225,-0.21367 -1.73834,-0.45039 z m -12,-0.98969 c 1.24391,-0.23672 3.04391,-0.22774 4,0.02 0.95609,0.24771 -0.0617,0.4414 -2.26166,0.43042 -2.2,-0.011 -2.98225,-0.21367 -1.73834,-0.45039 z M 38.452948,430.26805 34.5,426.06187 l 4.25,3.9122 c 2.3375,2.1517 4.25,4.04449 4.25,4.20618 0,0.74878 -0.87085,-4.8e-4 -4.547052,-3.9122 z M 417.75,427.83764 c 1.2375,-0.2359 3.2625,-0.2359 4.5,0 1.2375,0.23589 0.225,0.4289 -2.25,0.4289 -2.475,0 -3.4875,-0.19301 -2.25,-0.4289 z m -24.25,-1.81236 c -16.83762,-1.99978 -34.56432,-4.68326 -34.0831,-5.15952 0.23729,-0.23484 7.10306,0.51298 15.25726,1.66182 8.15421,1.14885 20.22584,2.69015 26.82584,3.42512 6.6,0.73498 9.975,1.34593 7.5,1.35768 -2.475,0.0118 -9.45,-0.56655 -15.5,-1.2851 z m 56.5,0.87774 c -17.35773,-1.61978 -81.55735,-9.87614 -80.26996,-10.32308 0.91267,-0.31684 -1.80556,-1.12928 -6.04051,-1.80541 -12.14853,-1.93956 -25.25948,-5.73759 -34.33277,-9.94564 C 324.76054,402.69724 321,400.72952 321,400.45617 c 0,-0.27333 3.01343,0.8553 6.69651,2.50808 9.13533,4.09944 23.1698,7.04046 53.30349,11.1701 38.85761,5.3252 42.60035,5.66453 69.98808,6.34541 23.85348,0.59302 25.51113,0.75269 25.8475,2.48985 0.34486,1.78104 -0.48479,1.83419 -20.48808,1.31267 -23.4955,-0.61258 -23.79287,-0.24001 -1.3475,1.6882 12.7674,1.09681 14.00148,1.32519 7,1.29536 -4.675,-0.0199 -10.075,-0.18319 -12,-0.36282 z m -94.1875,-3.00176 c 0.72187,-0.28589 1.58438,-0.25073 1.91667,0.0781 0.33229,0.32887 -0.25834,0.56278 -1.3125,0.51981 -1.16495,-0.0475 -1.4019,-0.28201 -0.60417,-0.59794 z m -5.54347,-0.99946 c 0.97297,-0.25093 2.32297,-0.23443 3,0.0367 0.67703,0.27111 -0.11903,0.47641 -1.76903,0.45624 -1.65,-0.0202 -2.20394,-0.24198 -1.23097,-0.49291 z m 130.18985,-0.36969 c -0.78409,-1.25561 -0.46729,-1.65373 1.54112,-1.93671 2.85459,-0.40222 4,0.0295 4,1.5077 0,1.72046 -4.51629,2.07012 -5.54112,0.42901 z m 9.10034,-0.63315 c -0.88271,-2.27659 0.2442,-2.88879 2.04213,-1.10939 1.36698,1.35288 1.37406,1.60595 0.0589,2.1054 -0.85016,0.32287 -1.75625,-0.10665 -2.10108,-0.99601 z M 27.278145,421.36084 c -1.499183,-1.91846 -2.442242,-3.71134 -1.952172,-3.71134 0.244204,0 1.181135,1.1134 2.08207,2.47422 1.685833,2.54639 1.591948,3.44051 -0.129898,1.23712 z m 316.990885,0.55126 c 0.97297,-0.25092 2.32297,-0.23442 3,0.0367 0.67703,0.27111 -0.11903,0.47641 -1.76903,0.45624 -1.65,-0.0202 -2.20394,-0.24198 -1.23097,-0.49291 z m 151.18985,-0.36968 c -0.36253,-0.58055 -0.4085,-1.30362 -0.10214,-1.60681 0.82264,-0.81416 3.64326,0.45676 3.64326,1.64159 0,1.34326 -2.69711,1.31677 -3.54112,-0.0347 z m -157.18985,-0.62001 c 0.97297,-0.25092 2.32297,-0.23442 3,0.0367 0.67703,0.27111 -0.11903,0.47641 -1.76903,0.45624 -1.65,-0.0202 -2.20394,-0.24198 -1.23097,-0.49291 z M 332.75,419.96312 c 0.6875,-0.27455 1.8125,-0.27455 2.5,0 0.6875,0.27455 0.125,0.49919 -1.25,0.49919 -1.375,0 -1.9375,-0.22464 -1.25,-0.49919 z m 22,0 c 0.6875,-0.27455 1.8125,-0.27455 2.5,0 0.6875,0.27455 0.125,0.49919 -1.25,0.49919 -1.375,0 -1.9375,-0.22464 -1.25,-0.49919 z m -5.48097,-1.02009 c 0.97297,-0.25092 2.32297,-0.23443 3,0.0367 0.67703,0.27111 -0.11903,0.47641 -1.76903,0.45624 -1.65,-0.0202 -2.20394,-0.24198 -1.23097,-0.49291 z m -4.45653,-0.97991 c 0.72187,-0.28589 1.58438,-0.25074 1.91667,0.0781 0.33229,0.32886 -0.25834,0.56277 -1.3125,0.5198 -1.16495,-0.0475 -1.4019,-0.282 -0.60417,-0.59793 z m -5,-0.98969 c 0.72187,-0.28589 1.58438,-0.25074 1.91667,0.0781 0.33229,0.32886 -0.25834,0.56277 -1.3125,0.5198 -1.16495,-0.0475 -1.4019,-0.282 -0.60417,-0.59793 z m 22.9375,-0.96908 c 0.6875,-0.27455 1.8125,-0.27455 2.5,0 0.6875,0.27455 0.125,0.49919 -1.25,0.49919 -1.375,0 -1.9375,-0.22464 -1.25,-0.49919 z m -31.9375,-1.0103 c 0.72187,-0.28589 1.58438,-0.25074 1.91667,0.0781 0.33229,0.32887 -0.25834,0.56278 -1.3125,0.51981 -1.16495,-0.0475 -1.4019,-0.282 -0.60417,-0.59793 z m 26,0 c 0.72187,-0.28589 1.58438,-0.25074 1.91667,0.0781 0.33229,0.32887 -0.25834,0.56278 -1.3125,0.51981 -1.16495,-0.0475 -1.4019,-0.282 -0.60417,-0.59793 z m -44.52538,-1.87609 c 0.94208,-1.13152 1.70287,-2.69029 1.69064,-3.46392 -0.0326,-2.065 -2.94723,-5.3257 -7.36731,-8.24222 -2.13925,-1.41155 -3.41173,-2.56645 -2.82774,-2.56645 2.11091,0 9.72276,6.58392 10.65947,9.21997 0.80873,2.27593 0.58073,3.04479 -1.45443,4.90449 -2.07796,1.89881 -2.17537,1.91941 -0.70063,0.14813 z m 38.46288,0.90701 c 0.6875,-0.27455 1.8125,-0.27455 2.5,0 0.6875,0.27455 0.125,0.49919 -1.25,0.49919 -1.375,0 -1.9375,-0.22464 -1.25,-0.49919 z m -99.97357,-3.03956 c 2.35204,-0.20906 5.95204,-0.20612 8,0.007 2.04796,0.21266 0.12357,0.38371 -4.27643,0.38012 -4.4,-0.004 -6.07561,-0.17759 -3.72357,-0.38666 z m 67.4679,-3.66234 c -4.29743,-8.75422 -15.45851,-13.63873 -31.04253,-13.58537 -9.9556,0.034 -18.59562,2.11676 -19.60745,4.72636 -0.72153,1.86091 1.80952,6.86716 4.15563,8.21955 0.96251,0.55483 1.30002,1.01243 0.75002,1.01688 -1.53127,0.0124 -5.13012,-3.14936 -6.41814,-5.63862 -2.28864,-4.42306 2.53242,-8.19503 12.9808,-10.15609 16.05458,-3.0133 37.31205,2.04119 40.92751,9.73153 2.38336,5.06957 2.89737,7.94466 1.60948,9.0025 -0.91246,0.74947 -1.78039,-0.10848 -3.35532,-3.31674 z m -79.48267,2.69862 c 1.24391,-0.23672 3.04391,-0.22774 4,0.02 0.95609,0.24771 -0.0617,0.44141 -2.26166,0.43042 -2.2,-0.011 -2.98225,-0.21366 -1.73834,-0.45039 z M 229.5,408.69606 c -1.3939,-0.62501 -0.7878,-0.7141 2,-0.29399 2.2,0.33154 4.1875,0.76639 4.41667,0.96635 0.85918,0.74966 -4.49696,0.18842 -6.41667,-0.67236 z m 6.55355,-4.44399 c -2.99554,-0.82878 -5.69554,-1.78205 -6,-2.11838 -0.30445,-0.33633 0.57145,-0.28228 1.94645,0.1201 5.62608,1.64643 19.46492,1.75428 25.45743,0.19841 7.01971,-1.82256 8.45795,-1.34243 2.94611,0.98353 -5.39748,2.27769 -17.59059,2.68647 -24.34999,0.81634 z M 13.0258,380.45362 c 0.08075,-9.03522 5.986175,-55.30466 6.763885,-52.99557 0.212098,0.62973 -0.322307,6.37217 -1.187567,12.76099 -0.86526,6.38881 -2.256038,18.48332 -3.09062,26.87669 -1.402531,14.10522 -2.547365,20.25744 -2.485698,13.35789 z m -0.946853,-33.1362 c -0.04342,-0.85171 0.799022,-10.87233 1.872095,-22.26804 3.087764,-32.79112 9.559495,-134.47629 10.217061,-160.53256 0.117684,-4.66326 0.293781,-5.47378 0.587124,-2.70238 0.669431,6.32454 -4.240764,103.22554 -6.820384,134.59794 -1.296244,15.76444 -4.90622,50.10783 -5.409585,51.46392 -0.20205,0.54433 -0.40289,0.29284 -0.446311,-0.55888 z m 8.153056,-24.67824 c 0,-1.90515 0.205795,-2.68453 0.457323,-1.73195 0.251527,0.95257 0.251527,2.51134 0,3.46391 -0.251528,0.95258 -0.457323,0.1732 -0.457323,-1.73196 z m 1.02018,-7.42268 c 0.0111,-2.17732 0.215885,-2.9515 0.455078,-1.72042 0.239193,1.23109 0.230112,3.01253 -0.02018,3.95877 -0.250293,0.94623 -0.445997,-0.061 -0.434898,-2.23835 z m 1.020181,-8.41237 c 0,-2.44948 0.195016,-3.45154 0.433369,-2.2268 0.238353,1.22474 0.238353,3.22886 0,4.45361 -0.238353,1.22474 -0.433369,0.22268 -0.433369,-2.22681 z m 1.037505,-10.39175 c 0.0056,-3.26598 0.192301,-4.48275 0.414862,-2.70392 0.222562,1.77882 0.217969,4.45098 -0.0102,5.93814 -0.228174,1.48716 -0.41027,0.0318 -0.404657,-3.23422 z m 1.032941,-14.84536 c 0.0036,-4.35464 0.179441,-6.01298 0.390687,-3.68518 0.211245,2.32779 0.208273,5.89067 -0.0066,7.91752 -0.214882,2.02685 -0.387719,0.1223 -0.384087,-4.23234 z m 1.038954,-21.7732 c 0.002,-6.53196 0.16382,-9.07533 0.35965,-5.65193 0.19583,3.42339 0.194213,8.76772 -0.0036,11.87629 -0.197803,3.10855 -0.358027,0.3076 -0.35605,-6.22436 z m 1.044374,-41.56701 c 7.56e-4,-11.97526 0.145155,-16.7382 0.320888,-10.58433 0.175732,6.15389 0.175113,15.95183 -0.0014,21.7732 -0.176463,5.82138 -0.320244,0.78639 -0.319488,-11.18887 z m 53.807454,-41.07217 c -0.691066,-6.80412 -1.199595,-13.92989 -1.130066,-15.83505 0.06953,-1.90515 0.748126,2.54846 1.507992,9.89691 0.759866,7.34845 1.268395,14.47423 1.130066,15.83505 -0.13833,1.36083 -0.816926,-3.09278 -1.507992,-9.89691 z m -55.235186,-42.85193 0.498405,-22.9625 0.271208,22.19915 c 0.149164,12.20953 -0.07512,22.54265 -0.498406,22.9625 -0.423287,0.41984 -0.545331,-9.56978 -0.271207,-22.19915 z m 52.654408,12.52612 C 77.293766,141.02114 77.079807,123.31188 77.17735,107.47491 L 77.3547,78.680415 78.021316,117.7732 c 0.366639,21.50103 0.580598,39.21029 0.475464,39.35391 -0.105133,0.14363 -0.484918,-4.4906 -0.843966,-10.29828 z m -18.287583,-7.77728 c 0.0026,-5.4433 0.170532,-7.54384 0.373173,-4.66786 0.202642,2.87599 0.200512,7.32959 -0.0047,9.89691 -0.205279,2.56732 -0.371077,0.21425 -0.368473,-5.22905 z m -1.170282,-18.80412 c 0.02038,-1.63299 0.244498,-2.18122 0.498042,-1.21828 0.253543,0.96294 0.236869,2.29902 -0.03705,2.96907 -0.273927,0.67005 -0.481372,-0.1178 -0.460992,-1.75079 z m -0.03705,-5.4433 c 0,-1.36083 0.226973,-1.91753 0.504386,-1.23712 0.277412,0.68042 0.277412,1.79382 0,2.47423 -0.277413,0.68041 -0.504386,0.12371 -0.504386,-1.23711 z M 25.365231,99.46392 c 0.0026,-5.443299 0.170532,-7.543833 0.373173,-4.667854 0.202642,2.875979 0.200512,7.329584 -0.0047,9.896904 -0.205279,2.56732 -0.371077,0.21425 -0.368473,-5.22905 z M 24.157895,77.195878 c 0,-1.360824 0.226973,-1.917525 0.504386,-1.237113 0.277412,0.680412 0.277412,1.793815 0,2.474227 -0.277413,0.680412 -0.504386,0.123711 -0.504386,-1.237114 z m 54.207336,-9.402062 c 0.0026,-5.443299 0.170532,-7.543833 0.373173,-4.667854 0.202642,2.875979 0.200512,7.329587 -0.0047,9.896907 -0.205279,2.56732 -0.371077,0.214247 -0.368473,-5.229053 z M 83.25,57.68088 C 82.5625,57.43681 82,56.145157 82,54.810541 c 0,-2.11989 0.25277,-2.292689 2,-1.367241 3.080093,1.631423 2.419675,5.362854 -0.75,4.23758 z M 13.604642,51.358149 c -0.964721,-3.006367 -1.286538,-6.822065 -0.575376,-6.822065 0.413557,0 0.96229,1.670103 1.219407,3.71134 0.483151,3.835716 0.132343,5.530148 -0.644031,3.110725 z M 11.696917,38.208864 c -0.409197,-1.030487 -0.508402,-2.106775 -0.220456,-2.391753 0.91206,-0.902657 1.714561,0.576558 1.332392,2.455943 -0.350243,1.722384 -0.403729,1.719296 -1.111936,-0.06419 z"
       id="path1589" />
    <path
       style="fill:#3584e4;stroke:#3584e4;stroke-width:3.03874016;stroke-linecap:butt;stroke-linejoin:miter;stroke-opacity:1;stroke-dasharray:none"
       d="M 87.145409,7.715329 88.599,585.25059"
       id="path1806" />
  </g>
</svg>
