<?xml version="1.0" encoding="UTF-8" standalone="no"?>
<svg
   width="20"
   height="20"
   fill="none"
   viewBox="0 0 20 20"
   version="1.1"
   id="svg4"
   sodipodi:docname="ic_fluent_arrow_circle_up_24_filled.svg"
   inkscape:version="1.2 (dc2aedaf03, 2022-05-15)"
   xmlns:inkscape="http://www.inkscape.org/namespaces/inkscape"
   xmlns:sodipodi="http://sodipodi.sourceforge.net/DTD/sodipodi-0.dtd"
   xmlns="http://www.w3.org/2000/svg"
   xmlns:svg="http://www.w3.org/2000/svg">
  <defs
     id="defs8" />
  <sodipodi:namedview
     id="namedview6"
     pagecolor="#ffffff"
     bordercolor="#666666"
     borderopacity="1.0"
     inkscape:showpageshadow="2"
     inkscape:pageopacity="0.0"
     inkscape:pagecheckerboard="0"
     inkscape:deskcolor="#d1d1d1"
     showgrid="false"
     inkscape:zoom="9.8333333"
     inkscape:cx="-8.6949153"
     inkscape:cy="10.016949"
     inkscape:window-width="1368"
     inkscape:window-height="842"
     inkscape:window-x="-6"
     inkscape:window-y="-6"
     inkscape:window-maximized="1"
     inkscape:current-layer="svg4" />
  <path
     d="M 20,10 C 20,4.477 15.524,0 10,0 4.478,0 0,4.477 0,10 0,15.523 4.478,20 10,20 15.524,20 20,15.523 20,10 Z M 5.47,10.28 A 0.75,0.75 0 0 1 5.397,9.304 l 0.073,-0.085 4,-4 a 0.75,0.75 0 0 1 0.977,-0.073 l 0.085,0.073 4,4.001 a 0.75,0.75 0 0 1 -0.977,1.133 l -0.084,-0.072 -2.72,-2.722 v 6.691 a 0.75,0.75 0 0 1 -0.649,0.744 L 10,14.999 A 0.75,0.75 0 0 1 9.257,14.351 L 9.25,14.249 v -6.69 l -2.72,2.72 A 0.75,0.75 0 0 1 5.554,10.352 L 5.47,10.279 Z"
     fill="#212121"
     id="path2"
     style="fill:#0b77b6;fill-opacity:1" />
</svg>
