<?xml version="1.0" encoding="UTF-8" standalone="no"?>
<svg
   version="1.1"
   id="Layer_1"
   x="0px"
   y="0px"
   viewBox="0 0 1584.7 500.8"
   style="enable-background:new 0 0 1584.7 500.8;"
   xml:space="preserve"
   sodipodi:docname="ota-logo-horizontal.svg"
   inkscape:version="1.1 (c68e22c387, 2021-05-23)"
   xmlns:inkscape="http://www.inkscape.org/namespaces/inkscape"
   xmlns:sodipodi="http://sodipodi.sourceforge.net/DTD/sodipodi-0.dtd"
   xmlns="http://www.w3.org/2000/svg"
   xmlns:svg="http://www.w3.org/2000/svg"><defs
   id="defs101" /><sodipodi:namedview
   id="namedview99"
   pagecolor="#ffffff"
   bordercolor="#666666"
   borderopacity="1.0"
   inkscape:pageshadow="2"
   inkscape:pageopacity="0.0"
   inkscape:pagecheckerboard="0"
   showgrid="false"
   inkscape:zoom="0.75219287"
   inkscape:cx="797.00304"
   inkscape:cy="250.60062"
   inkscape:window-width="1368"
   inkscape:window-height="842"
   inkscape:window-x="-6"
   inkscape:window-y="-6"
   inkscape:window-maximized="1"
   inkscape:current-layer="Layer_1" />
<style
   type="text/css"
   id="style2">
	.st1{fill:#01509b;}
</style>
<g
   id="Logo"
   style="fill:#ffffff">
	<path
   class="st1"
   d="M587.5,148.9c0.2-0.6,0.5-1.8,0.7-1.8c0.9,0,1.9,0.3,2.7,0.8c0.7,0.5,0.8,2.2,1.4,2.3c1.7,0.2,3.5,0.2,5.2,0   c1.5-0.1,3.1-0.4,4.6-0.3c2.2,0.1,3.1,1.3,2.8,3.4s-2,2.5-3.5,2c-1.7-0.6-2.5,0-3.8,0.8c-1.8,1.1-3.8,0.2-5.7-0.6   c-2.4-1.1-4.9-2.1-7.4-3.1c-0.2-0.1-0.5-0.3-0.7-0.3c-1.2,0.1-2.5,0.2-3.7,0.3c1.1,0.8,2.2,2.2,3.3,2.2c3,0,2.8,1.4,2.2,3.4   c-0.1,0.8,0.2,1.6,0.8,2.1c1.8,1.8,3.8,3.4,5.6,5.2c0.6,0.6,1.1,1.3,1.4,2c1.3,2.8,0.6,4-2.4,4.6c-1.4,0.3-2.7,0.8-3.9,1.5   c-2.1,1.3-3.9,2.7-6.7,2.5c-1.2-0.1-2.6,1.3-3.9,2.1c-0.2,0.1,0,1,0.2,1.3c2.2,3.7,5.2,6.8,8.8,9.1c0.8,0.5,1.1,0.4,1.2-0.7   c0.1-1.5,1.2-2,2.7-2.1c2.4,0,4.8,0.3,7-1.4c1.8-1.4,3.6,0,3.5,2.3c-0.1,3.3,1.8,5.4,4.1,7.2c0.7,0.5,2,0.3,3,0.2   c0.9-0.2,1.9,0.3,2.2,1.3c0,0.1,0,0.1,0,0.2c0.3,1.5,2.1,2.9,0.6,4.6c-0.1,0.1-0.3,0.1-0.5,0.1c-0.1-1-0.3-1.9-0.6-2.9   c-0.6-0.7-1.2-1.4-2-1.9c-0.6,0.8-1.7,1.6-1.6,2.3c0.3,1,1,1.9,1.9,2.4c0.6,0.4,1.6,0.1,2.5,0.1c-3.5,2-6.9,0.6-10.3-0.1   c-2.6-0.5-5.3-0.8-8-1c-0.7,0-1.4,0.6-2.1,0.9c0.4,0.5,0.9,1,1.4,1.4c1.2,0.9,1.8,1.8,0.7,3.2c-0.2,0.4-0.5,0.8-0.6,1.2   c0.6,0.3,1.2,0.9,1.9,0.9c3.4-0.1,6.7-0.3,10.1-0.5c1.8-0.1,3,1,3.1,2.9c0.1,1.5,0.3,3,0.6,4.5c0.5,2.2-0.2,3.1-2.4,2.4   c-1.5-0.4-3-1.1-4.5-1.7c-0.4-0.2-0.8-0.4-1.2-0.6l-4.5-1.9c0.3,1.7,0.3,3.6,0.9,5.1c1.6,3.8,3.4,7.5,5.2,11.2   c1.2,2.4,0.6,5.2-1.4,6.4c-2.3,1.2-5.1,0.6-6.8-1.4c-2.9-3.8-5.6-7.8-8.7-11.4c-2.5-2.9-5.2-5.6-8.1-8.1c-3.6-3.2-7.2-6.4-11-9.3   c-5.9-4.4-12-8.5-18-12.7c-0.5-0.3-1-0.5-1.5-0.7c0.1,0.6,0.3,1.2,0.5,1.8c1.1,2.7,2.4,5.4,3.2,8.2c0.4,1.7,0.4,3.5,0,5.2   c-0.5,1.4-0.1,3,1.1,4c0.8,0.7,1.5,1.7,2.4,2.3c3.4,2.5,3.5,6.1,3.2,9.8c-0.1,1.4-1.2,2.5-2.6,2.6c-0.7,0-1.5,0-2.2,0   c-3.4,0-3.5,0-4,3.3c-0.3,2-1.9,2.1-2.8,1.5c-1.3-0.9-2.2-2.5-3.3-3.7c2.1,0.2,4,0,5.4-1.8c0.2-0.3,0.3-0.6,0.2-1   c-1.3-0.6-2.6-1.5-3.9-1.5s-2.6,0.9-3.9,1.4l2.1,2.7c0,0.1,0.1,0.2,0.1,0.3c-2.8,0.4-4-2-5.7-3.3c-3.3-2.7-7.1-2.3-10.8-2   c-0.3,0-0.6,0.4-0.9,0.6c0.4,0.1,0.7,0.2,1.1,0.3c2.1,0,4.2-0.2,5.8,1.5c0.3,0.4,0.5,0.8,0.7,1.3c-0.4,0.2-0.8,0.4-1.2,0.5   c-1.5,0.4-3.2,1.2-4.6,1c-4.1-0.7-8.2-1.6-12.2-2.8c-0.5-0.1-0.6-1.7-0.8-2.6c-0.1-0.5-0.1-0.9-0.1-1.4c-0.5,0.2-1.2,0.4-1.4,0.8   c-1.6,3.6-4.7,5.1-8,6.8c-1.5,0.8-2.5,2-4.4,1c-0.2-0.1-0.6,0.2-0.9,0.4c-3.2,2.2-6.1,1.6-8-1.7c-0.6-1-1.2-2-1.7-3   c-0.2-0.4-0.3-0.8-0.2-1.2c0.6-1.8,1.4-3.5,2.3-5.1c0.8-1.2,1.3-2,0.5-3.5c-1-1.8-1.8-3.6-4.2-3.7c-3.8-0.2-7.6,0.9-10.7,3.1   c-2.7,1.7-5.6,3.2-8.5,4.6c-0.5,0.3-1,0.6-1.5,1c0.5,0.1,1,0.1,1.5,0.1c0.8-0.1,1.6-0.1,2.5,0.1c0.7,0.3,1.2,1,1.7,1.6   c-0.6,0.6-1,1.3-1.7,1.6c-1.1,0.4-2.3,0.8-3.5,1.1c-0.2,0.1-0.5,0.4-0.5,0.6c0.2,2,0.7,4,0.7,5.9c0,31.9,0,63.9,0,95.8   c0,3.3,0,3.1-3.1,3.3c-2.9,0.2-5.6-0.9-7.5-3.2c-1.8-2-3.7-4-5.5-6.1c-1.6-1.9-3.8-3.4-6.2-4.1c-4.4-1.3-5.9-4-4.8-8.6   c0.6-2.5-0.4-4-2.8-5c-1.3-0.5-2.6-1.2-3.7-2.1c-1.4-1.3-2-0.7-2.5,0.7c-0.2,0.9-0.5,1.7-0.9,2.5c-0.6,0.7-1.3,1.2-2.2,1.4   c-0.5,0.1-1.6-0.6-1.6-1c0-0.9,0.1-2.4,0.7-2.7c2.5-1.3,1.8-2.7,1.1-4.9c-1.3-3.6-0.5-7.5,0-11.2c0.2-1.7,0.2-3.5,0.3-5.2   c0-0.2-0.1-0.5-0.2-0.6c-0.2,0.1-0.5,0.2-0.6,0.4c-0.6,1.2-1.2,2.4-1.9,3.6c-0.1,0.2-0.5,0.4-0.7,0.6c-0.1-0.3-0.4-0.6-0.4-0.9   c0.3-1.3,0.4-2.7,0.5-4c-0.3-5.1-0.8-10.1-1-15.2c-0.1-2.5,0.1-5.1,0.6-7.6c0.3-0.9,0.9-1.6,1.8-2c1.5-0.3,3.6-0.5,4,1.4   c0.4,2.5,0.5,5,0.4,7.4c0,0.9-0.1,1.8-0.2,2.7c-0.1,1.7,0.5,3.7-0.2,5.1c-1.5,3-0.6,5.9-0.8,8.9c0,0.5,0.4,1.6,0.7,1.6   c2.8,0.5,2.6,2.6,2.6,4.6c0,0.4,0.5,0.7,0.7,1.1c0.3-0.2,0.6-0.4,0.9-0.7s0.5-0.4,0.5-0.6c0.2-3.2,0.4-6.3,0.4-9.5c0.1-3,0-6,0-9   c0-0.3,0.3-0.5,0.2-0.8c-0.5-4.9-0.9-9.9-1.7-14.8c-0.5-2.8-1.9-3-4-1.1c-0.9,0.8-2.4,1.9-3.1,1.6c-1.8-0.7-3.1-2.4-3.3-4.4   c-0.1-1.5,0-3,0-4.4c0-2.5-1.3-4.9-2.6-4.9s-2.5,2.5-2.4,4.7s0.5,4.7,0.5,7.1c0,2.9-0.5,5.8-0.5,8.7c0,5.1,1,10.3,0.3,15.3   c-0.8,6.2-0.8,12.4-1,18.5c-0.2,1.7-1.7,2.9-3.4,2.7c-0.5,0-0.9-0.2-1.3-0.4c-0.6-0.5-0.8-1.8-0.8-2.7c0-10.1,0-20.2,0-30.4   c0-8.4,0-16.8,0-25.1c0-2.5,0.2-5.1,0.6-7.6c0.2-1.5,0.9-2.8,2.9-2.5c1.2,0.2,2.5,0.5,3.7,0.8c3.1,1,6.2,2.2,9.4,2.9   c1.1,0.3,2.6-0.7,3.9-1.1c-0.7-1.3-1.2-3.1-2.2-3.6c-2-0.9-4.2-1.5-6.4-1.8c-3.3-0.6-6.6-0.8-9.9-1.3c-4-0.6-7.9-1-11.6,1.2   c-0.5,0.2-1,0.5-1.5,0.6c-3.5,1.5-5.7,0.5-6.4-3.1c-0.6-2.9-2.5-5.3-5-6.6c-1.6-1-4,0.1-4.8,2.4c-0.4,1.8-2.1,3.1-4,2.9   c-1.7,0-3.3,0.7-5,1c-3.2,0.5-6.1-0.6-8.7-2.2c-3.6-2.2-6.9-1.2-9.6,1.1c-3.4,2.9-9.4,2.2-12.4,0.4c-1.2-0.7-1.7-2.1-1.2-3.3   c0.4-1.3,3.1-2.4,4.7-1.9c1.5,0.7,3.3,0.8,4.9,0.4c0.5-0.1,1.2-0.2,1.5-0.6c0.6-0.8,1.1-1.5,1.5-2.4c-0.7-0.3-1.5-1-2.2-0.8   c-2.4,0.5-4.8,1.5-7.2,1.8c-1.8,0.3-3.7,0.2-5.5-0.4c-1.2-0.7-1.9-2-1.9-3.4c0.2-1.6,1.6-2.7,3.1-2.5c0.1,0,0.1,0,0.2,0   c1.5,0.1,3,0.7,4.5,0.9c0.8,0,1.6-0.2,2.4-0.4c-0.3-0.8-0.6-1.6-1-2.4c-0.1-0.2-0.2-0.3-0.4-0.4c-0.9-0.7-2.5-1.1-1.8-2.5   c0.7-0.9,1.7-1.5,2.8-1.6c2-0.3,4-0.3,6-0.1c1.2,0,2.2,1,2.2,2.2c0,0.2,0,0.4-0.1,0.6c0,0.4,0.1,0.8,0.3,1.1   c0.3-0.2,0.6-0.4,0.9-0.6c1.4-0.8,2.7-1.6,4.1-2.3c0.5-0.2,1.2,0.1,1.8,0.1c-0.1,0.6-0.3,1.2-0.6,1.7c-0.5,0.7-1.4,1.1-1.7,1.8   c-0.5,1.2-1,2.7-0.7,3.8c0.5,1.4,1.9,2.2,3.3,1.9c0.9-0.2,1.8-0.2,2.8,0c0.7,0.2,1.3,0.7,1.7,1.2c0.3,0.5,0.5,1.1,0.6,1.8   c1-0.6,2.1-1.2,3-1.8c1.5-1.1,2.7-2.7,4.3-3.4c3-1.4,4-0.9,5.7,2c0.6,1,1.2,1.2,1.9,0.5c1.5-1.5,3.1-1,4.8-0.3   c4.5,2,8.9,4.2,13.5,6.1c1.8,0.8,3.7,1.3,5.6,1.4c2,0,2.1-2,2.3-3.6c0.2-2.6,1-3.2,3.5-2.5c0.8,0.1,1.6,0.2,2.4,0.1   c0-1.1,0.4-2.6-0.1-3.1c-1.4-1.4-2.3-3.9-5.4-3c-2.1,0.6-2.4,0-1.8-2.2c0.1-0.7-0.1-1.4-0.5-1.9c-0.9-1.1-1.8-2.1-2.9-2.9   c-0.5-0.3-1.1-0.3-1.5,0c-3,2-7.9,0.2-8.5-3.3c-0.4-1.9-0.5-4.1,1.4-5.6c1.3-1,0.5-1.7-0.3-2.4c-1.4-1.1-3.2-1.8-4-3.1   c-1-1.6-1.9-0.9-2.9-0.4c-2.2,1.3-3.3,3.9-2.6,6.4c0.3,0.9,0.4,1.9,0.3,2.8c-0.7,3.5-4,4.5-7.1,2.3c-0.4-0.3-0.9-0.6-1.3-0.9   c-0.1,0.4-0.1,0.9-0.1,1.3c0,1,0.1,1.8-1.4,1.8s-1.4-0.6-1.5-1.7c0-0.6-0.3-1.2-0.8-1.6c-0.6-0.4-1.3,0.1-2.1,0.8   c-0.4,0.3-1.6,0.2-1.7,0c-1-2.4-3-1.9-4.9-2c-0.7,0-1.8-0.3-1.9-0.7c-0.4-1,0-2.1,1-2.6c0.1,0,0.1-0.1,0.2-0.1   c3.8-1.7,7-4.5,9.2-7.9c2.2-3.3,3.8-3.6,7.3-2.4c0.5,0.2,1,0.4,1.5,0.5c1.1,0.1,2.2,0.2,3.4,0.2c0-1,0-2-0.1-3   c0.4,0.1,0.8,0.3,1.1,0.5c2.3,2.1,4,4.8,7.7,5.1c1.7,0,3,1.4,3,3c0,0.1,0,0.2,0,0.3c0,1.4,0.8,2.2,2.4,2.8c1.9,0.6,3.7,1.7,5.1,3.3   c2.7,3.2,4.9,6.8,7.3,10.2c0.6,0.9,1.3,1.1,2.2,0.2c1.3-1.4,2.3-2.8,1.4-4.9c-0.3-0.6-0.4-1.2-0.2-1.9c1.1-3.1-1-4.6-3.2-5.3   c-4.3-1.4-8.3-3.7-11.7-6.7c-2.1-1.8-4.9-2.9-7.3-4.4c-1-0.7-1.8-1.5-2.6-2.4c-1.2-1.4-2.4-2.8-3.6-4.1c-0.7-0.8-1.9-1.4-2.3-2.3   c-1.2-3-3.8-4.5-6.2-6.2c-1.2-0.8-2.2-2.1-3.5-2.4c-2.2-0.4-4.2-1.7-5.4-3.6c-1-1.7-2.8-1.6-4.4-1.4c-0.7,0.1-1.3,0.6-1.6,1.3   c-0.1,0.4,0.5,1.3,1,1.7c0.8,0.6,1.6,1.1,2.5,1.5c3.4,1.9,5.3,6.5,10.1,6.2c3.2,2.9,7.4,4.9,8.4,9.7c-3.4-0.4-7-1.6-10.2-0.9   s-6.3,0.5-9.4,1c-9.3,1.6-17,6.7-25.2,10.9c-2.2,1.1-2.1,1.6,0.2,2.8c0.7,0.3,1.4,0.8,2,1.4c0.9,0.7,1,1.9,0.3,2.8   c-0.3,0.4-0.8,0.7-1.3,0.7c-5,1.4-9.9,2.7-15,3.8c-1.5,0.3-3.2-0.3-4.8-0.6c-8.6-1.3-16.6-0.4-23.1,6.1c-3.3,3.3-6.8,6.4-10.1,9.6   c-4.2,4.2-8.4,8.4-12.5,12.7c-0.4,0.4-0.2,1.2-0.4,1.8c-0.8,3.9-4.7,6.1-8,4.3c-2.1-1.2-2.6-3.9-1.5-6.6c1.3-2.8,2.5-5.7,3.4-8.7   c0.6-2.2,0.3-4.7,0.6-7c0.1-1.1,0.3-2.1,0.8-3.1c0.6-1.1,1.6-1.7,2.9-0.6c0.8,0.3,1.6,0.2,2.3-0.4c0.8-0.8,1.8-2.1,0.1-3.1   c-1.1-0.7-2.3-1.5-3.5-2.1c-4.2-2.1-5.3-5-4.6-9.8c0.4-2.5,0.6-4.7,3.2-5.9c-0.1-0.7-0.4-1.4-0.9-2c-0.9-0.6-2.2-0.8-3.1-1.4   c-1.9-1.3-2.1-3.4-1.7-5.4s2.1-2.3,3.8-2.1c0.3,0,0.5,0,0.8-0.1c-0.1-0.3-0.3-0.6-0.5-0.9c-0.7-0.6-1.5-1-2.1-1.6   c-1.7-1.6-1.4-3.3,0.7-4.2c0.4-0.2,0.9-0.1,1.3-0.4c0.7-0.5,1.4-1.1,2-1.7c-0.5-0.7-1-1.3-1.7-1.8c-3.4-2-3.7-5.9-0.3-7.8   c1.3-0.7,0.3-0.9,0-1.4c-1.6-2.3-3.1-4.7-1.8-7.7c0.3-0.7,0.7-1.8,1.2-1.9c2.9-0.9,1.4-2.4,0.5-3.6c-1-1.3-1.3-2.9-1-4.5   c0.6-3.6,3.3-3.6,5.9-4.3c1.1-0.3,2.7-1,2.9-1.8s-0.7-2.4-1.5-3.1c-3.4-2.8-2.5-6.6-2.4-10.1c0-0.6,1.2-1.3,1.9-1.6   c2-0.7,4.1-1.3,6.1-1.9c1.7-0.4,1.5-1,0.4-2c-1.1-1.1-2.1-2.3-3-3.5c-0.3-0.4-0.6-0.9-0.6-1.4c-0.3-2.2,3.6-7.6,5.8-7.7   c1.7-0.1,1.4-1.2,1.3-2.1c-0.2-1.6-1.9-3.3-0.4-4.7c1.7-1.4,3.5-2.7,5.4-3.8c0.2-0.1,0.5-0.3,0.7-0.4c3.1-1.5,3.3-2,1.1-4.6   c-2.3-2.8-1.6-6.1,1.6-7.7c2.1-1.1,3.7-0.4,4.3,1.9c0.7,2.5,2.8,3.3,4.8,1.8c0.4-0.7,0.4-1.5,0.1-2.2c-4.1-3-2.5-7.3-2.6-11.2   c0-1.8,1.3-2.6,3.2-2.4c2.1,0.2,4.3,1.7,4.4,3.6c0,1.2-0.3,2.3-0.7,3.4c-0.2,0.6-0.9,1.2-0.8,1.7c0.3,1,0.7,2,1.2,2.9   c0.6-0.6,1.4-1,1.7-1.7c0.6-1.4,1-2.8,1.3-4.3c0.6-2.2,1-4.4,1.3-6.6c0-1.1-0.4-2.1-1.1-2.9c-1.2-1.5-2.1-2.8-1.2-4.8   c1-2.3,2.5-3,4.6-1.8c0.4,0.3,0.9,0.6,1.4,0.8c0.5,0.1,1,0.2,1.5,0.3c0.1-0.5,0.1-1,0-1.5c-0.4-1.1-0.6-2.2-0.8-3.4   c0-0.9,0.4-2.4,0.9-2.5c1.1-0.3,2.3-0.1,3.3,0.5c2.1,1.5,4,3.1,5.8,4.9c0.4,0.7,0.6,1.4,0.4,2.2c-0.2,0.8-0.5,1.5-0.8,2.2   c-0.1,0.7-0.2,1.3-0.3,2c0.8-0.3,1.8-0.4,2.4-1c1.8-1.9,1.3-6.9-0.8-9.3c-0.3-0.3-0.6-0.7-1-1c-3.2-3-2.6-3.7-0.1-7   c0.7-0.9,1.4-1.7,2.3-2.4c1.5-1.5,2.8-0.9,4.2,0.1c0.7,0.3,1.5,0.5,2.2,0.6c-0.1-0.7-0.2-1.3-0.2-2c0.1-1,0-2.2,0.6-2.8   c0.4-0.4,1.7,0,2.5-0.1s2.1,0.7,1.4-1.4c-0.9-2.9,0.3-4.3,3.4-4.6c0.7,0,1.4-0.1,2.1-0.4c2.6-1.9,5.6-1.8,8.6-1.8   c2.4,0.1,3.6-1.2,2.8-3.2s0.5-2.3,1.5-2.6c1.2-0.4,2.6-0.7,3.1,1.5c0.4,1.9,2.9,3.3,4.7,3.3c1.1,0,1.7-0.1,0.8-1.4   c-0.5-0.9-1-1.9-1.4-2.9c-0.9-1.5-0.6-3.3,0.6-4.5c0.6-0.5,2.4-0.2,3.4,0.3c2.2,1.1,3.6,0.6,5.1-1.2c1-1.2,1.9-2.9,4-2.5   c0.6,0.1,1.2,0.3,1.7,0.6c3,1.8,3.4,1.7,5.6-1.2c2.5-3.4,5.6-3.5,8-0.1c0.4,0.5,0.4,2.1,0.1,2.3c-2.4,1.3-0.1,1.3,0.4,1.4   c3.1,0.5,6.2,1,9.3,1.5c0.3,0,0.7-0.1,1-0.2c-0.2-0.3-0.4-0.6-0.6-0.8c-2.9-2.2-5.8-4.4-8.7-6.5c-1.4-1-1.6-2.4-0.2-3.2   c1.9-1.2,4-2.1,6.4-0.8c1.7,1,3.1,1.1,4.6-0.7c1.6-2,2.8-1.9,4.8-0.2c1.4,1.1,2.8,2.2,4.3,3.3c1.3,0.9,2,0.7,1.9-1   c0-0.6,0-1.3,0-1.9c-0.4-4.6,1.3-4.5,5.2-5.2c2.8-0.5,5.8,0.1,8.7,0.5c1.4,0.2,1.8,1.6,0.6,2.8c-2,2.1-4.1,4.2-6.2,6.3   c-1.4,1.3-1.4,3.5-0.1,4.9c0.3,0.4,0.8,0.6,1.2,0.8c2.4,1.2,2.5,1.7,1.2,3.9c-0.6,1-1.5,2.2-1.4,3.2c0.4,3.2,1.2,3.5,4.5,3   c1.7-0.2,3.5-0.2,5.2-0.1c0.5,0,1,0.6,1.5,0.9c-0.4,0.4-0.8,1-1.2,1.2c-0.9,0.3-1.7,0.5-2.6,0.6c-2.4,0.5-2.7,1.4-1.7,3.6   c1.1,2.4,3.3,2.6,5.4,3c0.9,0.2,1.8,0.2,2.8,0c0.8-0.1,2.1-0.4,2.3-0.9c0.1-0.9-0.2-1.7-0.8-2.4c-0.9-1.3-2.2-2.4-3.1-3.8   c-1-1.5-0.5-2.3,1.4-2.3c2.9,0,5.2,1.8,5.4,4.7c0.4,6.1,3.4,7.2,8.2,7.4c2,0,3.8,1,4.8,2.8c0.8,1,1.8,1.8,3,2.3   c1.5,0.7,3,1.2,4.5,1.7c1.1,0.5,2.5,0.4,3.4-0.4c2.4-1.9,4.9-3.7,7.2-5.7c0.7-0.8,1-1.9,0.8-2.9c-1-3.5-8.6-7.2-12.1-5.9   c-1.1,0.5-2.1,1-3.1,1.6c-2,1-3.6,0.3-4.7-2s-0.6-4,1.4-5.1c2.8-1.5,3.2-2,0.9-4.5c-0.9-1-2-1.9-2.9-3c-1-1.2-0.5-2.4,1-2.4   c2.5,0,5,0.7,7.1,2.2c1.7,1.3,1,2.9,0.8,4.4c-0.5,4,0.6,5.8,4.4,6.6c2.7,0.6,4.4-0.3,5.6-2.9c0.9-2,1.7-4.1,2.7-6.1   c1.1-2.2,5.2-3.5,7.3-2.4c0.2,0.1,0.3,1.4,0,1.7c-1.4,1.4-3,2.6-4.4,4c-3.1,2.9-3.2,7.7-0.3,10.8l0.1,0.1c0.5,0.5,0.9,1,1.3,1.5   c1.8,2.9,2.9,3.1,4.9,0.4c1-1.4,1.6-3,1.7-4.7c0.2-3,1-5.3,4-6.8c2.6-1.3,2.7-3.5,0.4-5.3c-1.6-1.2-3.5-2.1-3.1-4.6h-0.1l1.2-0.6   H492c2.2-0.5,4.4-0.7,6.5-1.4c2.4-0.7,4.2,0.1,4.5,2.7c0.5,3.2,0.9,3.4,3.8,1.9c1.1-0.6,2.1-1,2.4,1.1s1.7,3,3.9,3   c2.2,0,4.4-0.1,6.6,0c0.9,0.1,1.7,0.4,2.3,1.1c0.5,0.8,0.8,1.6,1,2.4c-0.7,0.4-1.4,0.7-2.2,0.8c-2.4,0-4.9-0.4-7.3-0.4   c-0.7,0-1.4,0.3-1.9,0.8c-0.2,0.2,0.1,1.2,0.5,1.6c2,2,3.9,4.3,7.2,4.2c2.1-0.1,3.7-0.8,4.5-2.8c0.5-1.4,1.9-2.3,3.4-2.2   c1.6,0,2,0.9,2.6,2.3c0.7,1.6,1.7,3.1,3.8,3.4c0.8,0.1,1.4,1.2,2.1,1.8c-0.7,0.5-1.5,1-2.3,1.4c-1.1,0.5-2.2,0.8-3.3,1   c-0.8,0.1-1.9,0.6-2.3-1.1c-0.3-1.4-3.4-1.4-4.7-0.4c-0.9,0.8-2,1.3-3.1,1.5c-2.3,0.2-4.6-0.2-6.8-0.1c-0.9,0-1.7,0.8-2.5,1.2   c0.5,0.6,1,1.5,1.6,1.7c1.1,0.4,2.3,0.5,3.4,0.5c4.3-0.1,8.6-0.4,12.8-0.4c1.1,0.1,2,0.6,2.8,1.4c1.6,1.5,3.2,1.3,5,0.7   c3.2-1,6.5-2,9.8-2.9c1.5-0.4,2.5-0.1,2.4,1.7c-0.1,1.5,0.3,2.3,2.1,2.5c1.1,0.3,1.9,1.1,2.3,2.2c2.1,5.3,4.9,9.5,11.3,10   c0.7,0.2,1.4,0.5,2,1c-0.5,0.5-1.1,0.9-1.8,1.2c-2.3,0.6-4.7,1.1-7,1.7c-0.6,0.2-1.1,0.5-1.5,0.9c0.3,0.5,0.5,1.2,1,1.5   c1,0.7,2.3,1.1,3.3,1.8c1.5,1,1.6,2.3,0,3.2c-1.4,0.7-2.9,1.4-4.4,2c-0.7,0.3-1.4,0.7-2,1.2c-0.4,0.4-0.5,1-0.4,1.5   c0.2,0.5,0.7,0.9,1.2,1c1.4,0,2.9-0.2,4.3-0.5c2.5-0.5,4.9-1,7.3-1.7c1.2-0.4,2.3-1,3.3-1.8c2-1.6,4.2-1.2,5.3,1.2   c0.3,0.6,0.5,1.1,0.6,1.8c0.4,2.9,2.2,4.3,4.9,5.1c1,0.3,1.7,1.4,2.5,2.2c-1.1,0.3-2.2,0.5-3.4,0.6c-3.2-0.4-6.5,0.1-9.5,1.4   c-1.7,0.7-1.8,1.3-0.5,2.5c0.6,0.6,1.1,1.2,1.8,1.7c1.3,1.1,1.8,2.4,0.6,3.8c-0.8,1-2.8,0.3-3.9-1.2c-0.9-1.5-1.9-3-3.1-4.4   c-0.8-0.7-1.8-1.2-2.8-1.5c-0.1,1.3-0.8,2.9-0.2,3.8c1.4,2.2,3,4.2,4.8,6c0.2,0.3,1.5,0,2-0.4c1.9-1.4,3.5-1.7,5.5,0.1   c1.1,0.9,3.2,0.7,4.8,0.6c3.4-0.2,6.7-1.3,10.2-0.3c2.9,0.9,3.9,2.7,2.1,5.1c-1.2,1.6-1.3,2.9-0.1,4.6c1.6,2.2-0.2,5.5-3,5.8   c-0.8,0.2-1.6,0.5-2.4,0.8c0.7,0.7,1.3,1.8,2.2,2.1c1.5,0.3,3.1,0.4,4.6,0.3c8-0.1,7.6-0.2,7.5,7.7c0,0.1,0,0.2,0,0.3   c0.2,1.4-0.2,2.7-1.7,3c-1.5,0.4-3-0.5-3.5-1.9c-0.7-2.3-2.6-4-5-4.4c-0.4-0.1-1-0.2-1.2,0c-0.2,0.4-0.3,0.8-0.1,1.2   c1,2.2,2.7,4.3,0.5,6.7c0.2,0.3,0.5,0.6,0.8,0.8c0.7,0.4,1.4,0.8,2.2,0.9c2,0.3,2.5,1.4,2.5,3.3c0,3,0.7,3.4,3.7,2.8   c1.5-0.3,3.1-0.4,4.6-0.3c0.9,0.1,1.6,0.7,2,1.4c0.2,0.9,0,1.9-0.6,2.7c-1.7,2-5.8,2.5-8,1.1c-0.7-0.7-1.5-1.2-2.4-1.7   c-0.9-0.3-1.9-0.4-2.9-0.2c-1.5,0.2-2.9,0.8-4.4,1c-2.3,0.3-4.7,0.4-7,0.6c-0.8,0.1-1.6-0.1-2.3-0.5c-0.9-0.8-1.6-1.9-1.9-3.2   c-0.1-0.7,1.2-2,2-2.3c2.2-0.8,4.5-1.2,6.7-1.8c1.7-0.5,2.2-2,1.3-3.1c-1.4-1.7-3.1-3.1-4.9-4.4c-0.8-0.6-1.6-0.2-1.5,1   c0,0.4,0.2,0.7,0.3,1c0.1,1.2,1.1,2.8-0.8,3.5s-3.5,0.8-4.7-1.2c-0.7-1-1.3-2-1.8-3c-0.8-2-0.1-3.1,1.9-3.8c1-0.3,2.7-1.1,2.7-1.6   c0-1.4-1.3-1.9-2.8-2.3c-2.7-0.7-4.7-0.8-5.8,2.4c-0.2,0.6-1.5,0.7-2.4,1.1c0.6-1.8,1.2-3.5,1.8-5.3c0.4-1.2,0-1.7-1.3-1.1   c-1.7,0.8-3.4,1.5-5,2.3c-1,0.5-2.4,1-2.8,1.9s-0.1,2.5,0,3.7c0.9-0.1,1.7-0.2,2.6-0.4c1.6-0.4,3.2-0.9,4.9-1.3   c-1.1,3.7-2.9,4.8-6.2,3.8c-0.3-0.1-0.7-0.3-0.9-0.2c-1.4,0.5-3,3.9-2.8,5.8c0.4,1.9,2.1,3.3,4,3.2c2.2-0.2,4.4-0.6,6.6-1   c0.7-0.1,1.8-0.4,2.1-0.1s0.3,1.4,0.3,2.2s-0.3,1.4-0.3,2.1c-0.1,2.6-0.1,2.6-2.3,1.5c-0.2-0.1-0.3-0.2-0.5-0.2c-1-0.2-2-2-3-0.4   c-1.2,1.8,1.1,2.2,1.8,2.5c2.6,1,5.4,1.8,8.2,2.3c2,0.3,2.6,1.2,2.4,3c-0.3,2.8,0.6,4.9,3.1,5.9c3.1,1.3,6.4,2.2,9.5,3.3l1,0.4   L587.5,148.9z M588.8,190.1l-1-0.4l0.5,0.7c1.8,0.8,3.6,1.8,5.5,2.4c1.7,0.7,3.7-0.1,4.5-1.8c0.1-0.2,0.2-0.5,0.2-0.7   c0.1-0.8,0-1.6-0.2-2.4c-0.7,0.1-1.4,0.2-2.1,0.3C593.8,188.9,591.3,189.5,588.8,190.1L588.8,190.1z M535.2,166.4   c4.2-0.6,7-3.6,10-6c1.4-1.1,2-2,0.6-3.8s-0.8-2.9,1.7-2.9c1.2,0,2.4,0,3.6-0.1c0.5-0.1,0.9-0.7,1.2-1.2c0.2-0.2,0-0.7,0-1.1   c-0.5,0.2-1.1,0.3-1.6,0.4c-1.5,0.1-3.4,0.8-4.5,0.2c-2.2-1.2-3.2-3.6-3.1-6.2c0-0.5,0.9-1.2,1.5-1.4c2.6-0.7,5.2-1.1,7.8-1.8   c2.2-0.5,2.7-2,1.3-3.8c-1.8-2.1-4.8-2.8-7.4-1.7c-4.2,2-8,5-13,5.2c-2.3,0.1-2.9,3.5-1.3,5.1c0.8,0.6,1.5,1.4,2.1,2.2   c0.6,1.1,1.3,2.9,0.9,3.7c-1,1.8-2.8,3.2-4.3,4.8c-0.1,0.1-0.4,0-0.5,0c-3.1-0.7-4.7-5.4-2.7-8c1.4-1.8,1.1-3.1-0.8-4   c-0.8-0.4-1.7-0.6-2.6-0.6c-3.8-0.1-7.5-1-10.9-2.5c-1.7-0.8-3.7-0.1-4.5,1.6c0,0.1-0.1,0.2-0.1,0.3c-1.2,2.8-0.2,6.1,2.4,7.7   c2.6,1.6,5.4,2.8,7.9,4.5c2.3,1.6,5.1,2.4,7.9,2.1c1.2-0.1,2.4-0.1,3.6,0c3,0.2,5.9,2.7,4.6,6.8c-1.2,0.6-2.7,0.4-3.7-0.6   c-1-0.7-2.2-1.1-3.4-1.2c-0.4-0.1-1,0.6-1.5,1c0.3,0.4,0.6,0.9,1,1.2C529.8,167.7,532.5,168.1,535.2,166.4z M471.1,70.2l0.4-0.1   c-0.3-1.5-0.7-2.9-1.2-4.3c-1.8-4.1-3.6-8.1-5.5-12.1c-0.4-0.8-1.1-1.3-1.9-1.5c-2.7-0.2-5.5-0.2-8.2,0.3c-5,1.1-9.8,3.6-15.1,1.3   c-0.7-0.3-1.4-0.5-2.1-0.5c-1.9-0.2-3.2,0.4-3.9,2.4c-0.5,1.2-1.1,2.2-2,3.1c-1.8,2.2-1.7,2.9,0.9,4s2.7,1.2,1.2,4   c-0.6,1.1-1.2,2.3,0.7,3c0.5,0.4,0.8,1.1,0.8,1.8c-0.4,0.6-1.1,0.9-1.8,0.9c-3.2-0.4-4.5,1.3-5.3,4.1c-0.8,2.5-1.6,5.1-5.2,4.8   c-1.1-0.1-1.9,0.7-0.8,2c0.8,0.9,1.4,2.1,2.2,3c1.5,1.7,2.7,3.7,5.4,3.8c2,0.1,4,0.3,5.9,0.6c1,0.2,2,0.6,2.8,1.2   c2.1,1.6,1.3,4.2,1.9,6.2c0.8,2.6,1.4,5.2,2.3,7.6c0.2,0.7,1.4,1,2.1,1.4c1,0.4,1.9,0.9,2.7,1.4c2.2,1.7,5.2,1.8,7.5,0.1   c2-1.5,1.6-3.4,0.3-5.2c-0.7-1.1-0.8-2.4,0.6-2.8c1.2-0.4,2.6-0.4,2.7,1.7c0.1,1.7,0.9,1.8,2.4,1.1c4.6-2.1,7.1-7.1,6-12   c-0.2-0.8-0.2-1.6,0.1-2.4c1-2.2,0.8-4.8-0.4-6.9c-0.5-0.7-1-1.4-1.6-2c-0.5,0.6-1.3,1.1-1.6,1.8c-1.7,4.4-3.8,8.7-3.9,13.6   c0,2.8-1.9,3.8-4.4,2.6c-0.5-0.3-0.9-0.6-1.3-0.9c-1.4-1-2.7-2.1-3.9-3.3c-1.6-2,0-4.8,2.8-5.5c2.2-0.5,4.5-0.8,5-3.6   c0.4-1.2,0.5-2.4,0.6-3.7c-0.1-0.9,0.1-2.7-1.5-2.6c-3.1,0.1-5.5-1.3-7.8-3.1c-2.1-1.5-4.2-2.9-6.4-4.3c-1-0.7-3.2-0.5-1.9-2.8   c0.1-0.2-0.9-0.9-1.2-1.5c-0.3-0.8-0.6-1.7-0.8-2.6c0.8-0.2,1.9-0.7,2.4-0.4c1.7,1,3.7,2,4.6,3.6c1.4,2.3,3.7,3.9,6.3,4.3   c5.7,1.2,11.6,1.6,17.4,2.3c0.5,0.1,1.3-0.8,1.5-1.4C471.2,71.7,471.2,70.9,471.1,70.2z M544.2,61.9c1.2,0,2.4,0.1,3.6,0   c2.3,0,4.2-2,4.1-4.3c0-0.9-0.3-1.7-0.8-2.4c-0.8-0.8-1.9-1.3-3-1.5c-0.3-0.1-1.1,1-1.3,1.6c-1.3,3.1-3.5,3.6-5.7,1.1   c-0.6-0.7-0.8-1.5-0.8-2.4c0.1-0.4,1.2-0.8,2-1c1.8-0.3,3-0.9,2.9-3.1c-0.1-2.9-1.2-4.1-4.1-4.1c-5.4,0-10.9,0.5-15.9-2.5   c-0.2-0.1-0.3-0.2-0.5-0.2c-1.7-0.3-2.3,0.5-1.9,2.1c0.3,1.2,0.6,2.4,0.8,3.7c0.3,1.8-0.2,2.2-1.8,1.4s-3.1-1.8-4.8-2.5   c-3.9-1.8-7.8-3.5-11.8-5c-0.7-0.3-2.2,0-2.3,0.4c-0.3,0.9-0.2,1.9,0.2,2.8c0.2,0.6,1,1.1,1.6,1.5c2.8,2,2.9,2.4,1.2,5.2   c-1.9,3-3.9,3.4-6.9,1.5c-0.4-0.2-0.8-0.4-1.2-0.7c-1.5-1-3-1.9-4.6-0.2s-1.4,3.2,0,5.3c0.3,0.7,0.4,1.4,0.3,2.1   c-0.3,0.8-0.7,1.6-1.2,2.4c-0.8,2.1-0.1,3.1,2.2,3.2c1.2,0.1,2.8-0.3,2.5,1.6c-0.4,1-1.2,1.8-2.2,2.2c-4.4,1.8-9,3.3-13.4,5.2   c-2.6,1-2.7,3.3-0.4,4.9c4.2,2.9,9.1,2.9,13.6,1.9c6.8-1.4,13.5-3.5,20.1-5.6c2.6-1,5.6-0.5,7.8,1.2c3.4,2.4,4.5,2.5,7.6,0   c2.7-2.1,4.9-4.3,0.7-7.6c-2.1-1.7-3.2-3.7-2.3-6.5c0.2-0.6-0.3-1.4-0.6-2.1c-0.7,0.3-1.4,0.7-2,1.3c-2.3,3.3-6.7,4.2-10.2,2.2   c-1.1-0.8-2.2-1.7-3.2-2.6c-0.7,1.1-1.4,2.2-2.2,3.2c-1,1.2-2.7,1.3-3.9,0.4c-1.2-0.7-2.2-2-1-3.4c1.4-1.7,1-2.9-0.2-4.5   c-0.6-0.6-0.7-1.6-0.1-2.2c0.4-0.4,1-0.6,1.6-0.4c1.6,0.2,3.1,0.8,4.4,1.6c1.8,1.1,3.7,1.8,5.7,1s4-1.9,6.1-2.8   c1.8-0.8,3.6-2.8,5.6-0.7c1.7,1.8,4,3.1,6.4,3.8c2.3,0.6,2.4,1.6,0.8,3.5c-0.3,0.3-0.8,0.6-0.9,1c-0.2,0.8-0.4,1.8,0,2.3   c1.5,2.1,3.3,4.1,4.9,6.2c0.8,1,1.3,1.9,0.7,3.4c-1.1,2.5-0.6,3,2.1,2.9c1.7,0.1,3.2-1.2,3.3-2.9c0-0.2,0-0.4,0-0.6   c-0.1-2,0.5-3,2.5-3.3c1.3-0.2,2-1.2,0.5-2.1c-2-1.2-4.1-2.1-6-3.3c-1-0.8-1.9-1.8-2.7-2.8c0.9-0.2,1.8-0.3,2.7-0.5   C543.1,61.9,543.7,61.9,544.2,61.9z M491.5,86.7c-1.3,0-2.5,0.1-3.8,0.4c-4.8,1.1-6.5,5.5-8.7,9c-1.5,2.4,1.1,5.6,3.7,5   c1.9-0.5,3.7-1.3,5.4-2.3c3.2-1.9,6.1-4.1,9.3-5.9c2.4-1.3,3.5-0.6,3.6,2.1c0.1,2.3,0.3,4.7,0.5,7c0.2,1.8-0.9,3.8-2.5,4   c-1.9,0.3-3.8,0.5-5.7,0.6c-5.8,0.2-11.7-0.6-17.5,0.6c-1.6,0.2-3.1,0.8-4.4,1.7c-1.5,1.4-1.5,5.6,0,7.1s2.1,3.6,1.8,5.7   c-0.2,1.9,0.7,3.7,2.4,4.6c1.5,0.8,3.1,0.1,4.6-0.9c3.3-2.2,6.8-4.2,10.2-6.4c1.2-0.7,2.4-1.5,3.5-2.4c1.1-1.4,2.2-2.8,3.1-4.4   c1.6-2.3,3.8-4.1,6.5-5.1c4.5-1.6,8.2-4.3,10.2-9c1-2.4,2.9-4.5,4.3-6.8c1.1-1.7,2.2-3.2,3.2-5c1.4-2.6,0.9-3.2-2-3.5   c-0.4,0-0.8-0.3-1.3-0.3c-4-0.4-7.8-0.4-11.7,1.2c-2.8,1.2-3.9,3.6-5.5,5.7c-0.9,1.2-1.6,1.8-2.7,0.2   C496.4,87.6,494.5,86,491.5,86.7z M378,65.4l0.3,0.8c1.1-0.7,2.2-1.4,3.2-2.3c1.5-1.3,2.9-2.5,5.1-2.6c3.4-0.2,3.7-1.2,2-4.2   c-0.1-0.2-0.3-0.3-0.3-0.4c0-0.6-0.1-1.5,0.2-1.7c0.6-0.2,1.2-0.2,1.8,0.1c0.5,0.4,0.9,0.9,1.2,1.4c1.5,2.2,3,2.6,4.7,1.5   c2.2-1.4,3.4-4.7,2.3-6.4s-2.8-3.6-3.4-5.7c-1-3.6-0.6-7,3.5-7.2c0.9-0.1,1.8-0.3,2.8-0.5c-0.6-0.9-1-2.1-1.8-2.6   c-1.4-0.7-2.9-1.3-4.4-1.8c-0.7-0.3-1.4-0.6-2.1-1c0.6-0.7,1.1-2,1.7-2c2.1-0.2,4.3-0.1,6.4,0.3c0.9,0.2,1.7,1.5,2.4,2.3   c1.6,2.1,3.1,2.3,5.1,0.4c1.3-1.3,2.6-2.7,3.9-4c0.2-0.2,0-0.8,0-1.1c-0.3-2,0.2-2.8,2.2-2.6c1.2,0.2,2.4,1.1,3.5,1.7   s2.4,1.4,3.7,2c0.1-1.2,0.3-2.3,0.4-3.5c0.3-3.1-0.8-5.2-3.9-6.3c-0.7-0.2-1.6-2.3-1.4-2.6c2.1-2.5-0.1-3.1-1.6-4   c-0.9-0.6-1.9-1-2.9-1.3c-0.9-0.1-1.8,0-2.7,0.2c0,1,0.2,2,0.5,3c0.4,0.9,1.6,1.3,2,2.2s0.3,2.5-0.1,2.7c-1.9,0.9-2,2.6-2.6,4.1   c-0.5,1-1.3,1.7-2.3,2.1c-2.1,0.7-4.4,0.8-6.5,1.5c-2.5,0.9-5.2,0.8-7.5-0.4c-0.7-0.2-1.5-0.2-2.2,0.1c-1.5,0.5-2.5,1.9-2.4,3.5   c0,2.2,0.7,4.3,3,5.3c1.3,0.6,2.1,1.4,1,2.9c-0.2,0.5-0.1,1,0.2,1.3c1.8,1.2,1.9,2.3,0.2,3.4c-0.8,0.6-1.6,1.1-2.5,1.6   c-0.4,0.2-1.2,0.4-1.3,0.3c-2-2.4-3.5-1-4.9,0.5c-1,1.1-2,1.3-3.3,0.2c-1.8-1.5-2.6-1.3-4,0.6c-0.6,0.9-1.2,2-2.1,2.4   c-2.9,1.2-4,2.7-3,6.2c0.6,2.3-2.2,3.7-4.1,4.8c-1.7,1-3.8,0.8-5.3-0.6c-2.3-1.7-2.5-1.7-3.4,1c-0.6,1.9-1.4,3.7-3.4,4.6   c-0.4,0.2-0.9,1.3-0.7,1.6c1,1.5,2,3.2,3.5,4.3c1.7,1.1,3.7,1.9,5.6,2.3c1,0.3,2.6,0.4,3.1-0.2c0.7-1,0.9-2.2,0.7-3.4   c-0.5-3.1-0.1-4.1,3-4.7C373.4,65.5,375.7,65.5,378,65.4z M461.7,203.4c0,3.2,1.4,4.1,4.5,2.3c1-0.6,1.8-1.5,2.8-2.1   c1.2-0.7,2.5-1.8,3.7-1.8c2.5,0,4.3-1.2,6.1-2.5c0.6-0.4,1.2-0.7,1.9-0.9c4-0.9,7.6-3.2,10.1-6.5c0.4-0.5,2.1-0.3,3.1-0.1   c0.5,0.1,1,0.8,1.4,1.3c0.9,1.3,1.9,0.7,2.8,0.1c1.3-0.9,0.1-1.4-0.2-2.2c-0.4-1-0.7-2.4-0.3-3.1c0.7-1,1.8-1.7,2.9-2.2   c4.3-2.1,8.6-4.1,12.9-6.2c0.3-0.2,0.6-0.4,0.9-0.7c1-1.1,0.7-2.1-0.7-2.4c-3.3-0.8-6.7-1.3-10.1-1.6c-4-0.3-8.1-0.3-12.2,0   c-9.1,0.6-17,3.4-23.2,10.8C463.7,190.7,461.9,196.5,461.7,203.4L461.7,203.4z M403.8,127.7c0.8,0.1,1.7,0.1,2.5,0   c0.8-0.3,1.6-0.7,2.3-1.2c-0.5-0.9-1-1.8-1.7-2.5c-0.6-0.5-1.3-0.7-2-0.6c-3.8,0.6-6-2.1-7.5-4.6c-1.8-2.8-4.4-3.3-7-4.3   c-2.9-1.2-5.8-2.3-8.5-3.8c-1.5-0.8-1.4-2.1,0.1-2.8c0.8-0.4,1.7-0.6,2.6-0.6c3.4,0.3,6.8,0.6,10.2,1.1c2.7,0.4,3.2,1.3,2.7,3.9   c-0.1,0.7-0.6,1.6-0.3,2c1.8,2.3,4.3,3.9,7.1,4.6c0.5,0.1,1.1,0,1.5-0.4c1.1-1.2,2.6-1.9,4.3-1.9c2.3-0.1,2.7-1.4,1-3   c-1.3-1.2-1.5-2.9-0.6-3.9c1.6-1.9,0.7-3.2-0.2-5c-0.5-1.1-0.7-3.4-0.1-3.8c3-2.1,2.5-4.8,1.7-7.5c-2.1-7-7.2-10.7-14.4-10.8   c-0.8,0.1-1.5,0.3-2.1,0.8c0.5,2.1,0.6,4.5,1.8,6.2s3.3,2.9,5.2,4.2c1.3,0.8,2.8,1.7,2.1,3.3c-0.5,1-2.2,1.4-3.4,2   c-0.1,0.1-0.4,0-0.5,0c-4.1,0.4-8.3,0.7-12.4,1.1c-3.4,0.3-6.2,1.6-8,4.8c-0.9,1.6-2.4,2.9-4.2,3.5c-1.8,0.7-3.7,1.4-5.5,2.2   c-2.7,1.2-4,0.5-5.2-2.3c-0.3-0.8-0.9-1.9-1.6-2c-1.6-0.3-3.3-0.5-4.4,1.3c-0.1,0.2-0.4,0.4-0.4,0.6c-0.2,2.6,5.2,5.9,7.6,4.9   c1.4-0.6,2.9-0.9,4.4-0.7c3.5,0.6,6.9,1.9,10.4,2.5c1.6,0.3,2.2,0.9,2.3,2.3c0.1,1.9,1.1,1.5,2.1,0.9c2.6-1.6,4.4-1.4,6.5,0.7   c0.8,0.8,1.3,1.6,0.3,2.6s-0.4,1.7,0.4,2.5C395.9,127.1,399.7,127.8,403.8,127.7z M550.6,121.3c0-5.4,0-5.4-5.3-4.7   c-2.6,0.3-5.1-1-6.3-3.3c-1.2-2.2-0.6-3.2,1.8-3.3c2.9-0.1,5.8-0.2,8.7-0.6c1.1-0.1,2-0.7,2.6-1.6c0.2-1,0-2-0.7-2.7   c-3.5-2.9-7.9-4.4-12.4-4.4c-2.4,0-4.9,0.9-7.3,1.6s-4.7,1.2-6,3.6c-0.5,1.2-2,1.7-3.2,1.2c-0.1-0.1-0.2-0.1-0.3-0.2   c-1.1-0.6-2.4-0.8-3.7-0.7c-5.1,0.7-9.9,2.4-14.4,4.9c-2.6,1.5-4.9,3.3-5.8,6.5c-0.4,1.4-0.1,2.1,1.3,2.3c2.2,0.2,4.5,0.3,6.8,0.6   c0.9,0.2,1.8,0.5,2.7,0.9c-0.3,0.9-0.7,1.8-1,2.6s-1.9,1.7-0.6,2.7c2.2,1.7,4.5,3.2,6.9,4.6c0.5,0.2,1,0.1,1.5-0.2   c1.8-1.5,3.6-3.1,5.2-4.8c0.5-0.8,0.5-1.7,0.2-2.6c-0.5-1-1.4-1.1-2.7-0.6c-1.7,0.5-3.5,0.7-5.3,0.5c-0.6,0-1.3-1.1-1.8-1.8   c-0.1-0.2,0.6-1.3,1-1.4c2.6-0.3,3.2-2.1,3.9-4.2c1.1-3.6,2.2-3.8,4.9-1.3s2.5,2.4,5.6,0.5c3.2-2.1,3.7-1.9,6.8,0.3   c4,2.8,6.4,7.4,11,9.4c1.4,0.6,3.1,1.4,4.5,1.1c0.7-0.1,1.1-2.3,1.5-3.6C550.7,122.2,550.7,121.8,550.6,121.3L550.6,121.3z    M366.9,93.2c1.5-0.3,2.9-0.8,4.3-1.3c3.6-2,6.2-5.4,10.4-6.5c0.1,0,0.2-0.1,0.2-0.2c0.3-0.6,0.9-1.3,0.7-1.9   c-0.2-0.6-1.1-0.9-1.7-0.9c-6.3,0.2-12.3-1.1-18.4-2.7c-5.6-1.3-10.1-5.5-11.8-11c-0.3-0.8-0.5-1.7-0.5-2.6c-0.1-1.7,0-3.3-0.1-5   c0.1-1.3-0.9-2.3-2.2-2.4c-0.1,0-0.1,0-0.2,0c-1.2,0.1-2.3,0.7-3.1,1.7c-1.5,2.1-1,5.3,0.5,7.4c1.2,1.8,2.7,3.7,1.2,5.9   c-1,1.2-1.1,2.9-0.2,4.1c0.5,0.8,0.7,2.4,0.2,2.9s-2,0.7-3,0.5c-2.9-0.4-5.9-0.8-8.3-2.7c-1-0.8-1.6-0.4-2.1,0.6   c-1,2.2-0.7,4.7,0.8,6.6c1.9,2.8,2.9,2.9,4.9,0.2c1.4-2,3.9-2.9,5.7-2.3c1.3,0.5,2.7,0.8,4.1,1c1,0.2,2,0,2.3,1.4   c0.3,1.4-0.9,1.6-1.7,1.9c-2,0.8-4,1.4-6,2.3c-0.7,0.3-1,1.3-1.5,1.9c0.7-0.1,1.3-0.2,2-0.3c0.9-0.1,1.7-0.4,2.6-0.7   c1.9-0.9,3.4-0.4,4.9,1.1c2.8,2.9,4.3,2.5,5.5-1.4c0.6-1.8,1.3-2.1,2.8-1.2c0.6,0.3,1.3,0.7,1.8,1.2   C362.5,92.6,364.5,93,366.9,93.2z M432.1,213.3c0.3,0,0.5,0,0.8,0c1.1-0.4,2.1-0.8,3.2-1.2c-0.5-0.7-1.1-1.4-1.7-2   c-1.1-1-1.4-1.9,0.2-2.7c0.2-0.1,0.4-1,0.2-1.3c-0.7-1-1.4-1.9-2.1-2.8c-2.6-3.2-2.8-4.3-1.1-7.6c0.7-1.4,1.1-3,1.2-4.7   c0.1-1.8,0.1-3.7-0.2-5.5c-0.1-0.8,0.8-2,1.5-2.5c1.7-1.4,3.2-2.9,2.8-5.1c-0.6-2.8,0.6-4.9,2-7.1c1-1.7,2.7-3.4,1.8-5.9   c-1.1-2.5-0.3-5.4,1.9-7.1c2.3-1.9,3.8-4.6,4.4-7.5c0.4-2,0.8-4,1.1-6c0.2-1.2,0.4-2.5,0.5-3.7c0-0.3,0-0.5-0.1-0.8   c-0.3,0.1-0.8,0.2-0.9,0.5c-1.4,2.5-3,4.9-3.9,7.6s-1.5,5-3.8,6.6c-1.3,1-2.1,2.6-2,4.2c-0.2,2-0.7,4-1.6,5.8   c-0.4,0.9-0.9,1.4-0.4,2.5c0.5,0.9,0.2,2-0.7,2.5c-0.3,0.2-0.6,0.2-0.9,0.2c-1.6,0.1-3.2-0.1-4.8-0.6c-1.6-0.7-1.5,0.1-1.4,1.1   c0.1,0.6,0.3,1.2,0.5,1.8c0.4,2,1.2,4.1,1,6c-0.4,2.9-1.7,5.6-2.4,8.5c-0.8,3.1-1.4,6.3-1.8,9.4c-0.3,3,0.3,6.1-0.2,9.1   C424.3,209.7,427,213.3,432.1,213.3L432.1,213.3z M526.9,204.2c-0.2-0.4-0.3-0.8-0.6-1.2c-0.8-1.2-1.7-2.5-2.6-3.7   c-1.6-2.5-4.7-3.5-7.5-2.6c-1.8,0.7-3.6,1.5-5.5,2.1c-3.3,1.1-5.8,3.3-8.1,5.7c-0.8,0.9-0.6,1.5,0.2,2c0.6,0.4,1.3,0.6,2,0.6   c3.2,0.2,3.4,0.4,3.8,3.5s1.8,4.2,4.9,4.3c1.3,0,2.5,0.2,3.7,0.5c3.2,0.7,6.4,1.6,9.7,2.2c1,0.2,2.1,0,3-0.6c1-1.1,0-2.1-0.9-3   c-2.3-2.4-4.6-4.8-2.2-8.4C527,205.4,526.9,205.1,526.9,204.2L526.9,204.2z M480.5,165.5c0.3-2.1-1.3-3.1-2.6-3.8   c-0.5-0.3-2,1.1-3,1.7c-0.3,0.2-0.4,0.6-0.6,0.9c-1.2,1.9-2.4,3.8-3.8,5.6c-2,2.6-4,5.3-6.3,7.8c-1.4,1.7-3.1,3.1-4.9,4.1   c-5,2.4-9.6,5.3-12.5,10.2c-0.4,0.9-0.4,1.9-0.1,2.8c0.5,1.7,1.3,3.3,2.2,4.8c0.8,0.9,1.8,1.6,2.9,2.1c1,0.4,2,0.7,3.1,0.8   c0.5,0.1,1,0.1,1.5,0.1c-0.1-0.4-0.2-0.8-0.3-1.2c-1.1-3.6-0.6-6.6,2.4-9.2c1.3-1.3,2.1-2.9,2.4-4.6c0.3-2.4,2.3-4.3,4.8-4.4   c2.2-0.3,3.1-1.6,4.2-3s2.2-2.7,3.6-3.3C478.8,174.6,479.5,170,480.5,165.5L480.5,165.5z M402.7,78.1c0.3,0,0.6-0.1,0.9-0.2   c1-0.4,1.9-1,2.8-1.5c-0.8-0.9-1.3-2.2-2.3-2.6c-1.6-0.6-3.2-1.1-4.9-1.4c-0.6-0.2-1.4-0.4-1.5-0.9c-0.5-1.6-0.9-3.3-1.2-4.9   c-0.4-1.8,0.7-2.4,2.3-2.5c1.4,0,2.8,0.3,4.1-0.1c1.1-0.4,2.1-1.2,2.9-2.2c0.3-0.3,0-1.6-0.5-2.1c-1.1-1.2-2.3-0.3-3.4,0.3   c-0.1,0.1-0.4,0.1-0.5,0.2c-2.8,2.4-6.2,2.7-9.7,2.7c-2.3,0-4,1.1-4.5,3.2c-0.2,1.4-1.4,2.4-2.8,2.4c-2.9,0.3-5.8,0.3-8.7,0.5   c-0.7,0.1-1.9,0.2-2,0.6c-0.5,1.3-0.7,2.6-0.5,4c0.5,1.7,2.1,0.8,3.2,0.4c2.9-0.8,5.8-1.2,8.4,1.1c1.2,1.1,2.6,1.9,4.2,2.2   C393.5,77.8,398,77.9,402.7,78.1z M504.7,167.7c-0.9-0.1-1.9-0.4-2.7-0.8c-0.5-0.3-1-1.4-0.8-1.9c0.3-0.6,1.6-1.4,1.8-1.3   c2.4,1.9,4.6,1.4,7-0.1c0.3-0.1,0.7-0.1,1.1,0c1.8,0.7,3.6,1.4,5.4,2.3c0.3,0.1,0.5,1.1,0.3,1.5c-1.1,2.5-0.8,3.2,1.9,3.3   c1.1,0,2.1-0.2,3.2-0.5c0.4-0.2,0.8-0.4,1.1-0.7c-0.3-0.2-0.7-0.5-1-0.7c-1.3-1.2-2.6-2.4-3.8-3.5c-1-0.9-1.9-1.9-2.9-2.8   c-1.8-1.5-4.1-2.6-5.4-4.4s-2.9-2.7-4.8-2.1c-2.2,0.6-4.8,1-5.2,4.3c-0.2,1.6-1.1,2.9-3.2,1.7c-2.1-1.3-4.8-0.7-6.1,1.3   c-0.1,0.1-0.2,0.3-0.2,0.4c-1.2,2.2-1.7,4.8-2.4,7.2c0,0.2,0.7,0.9,1.2,0.9c3.3,0.4,6.7,0.5,10.1,0.5c3.2-0.1,6.5-0.6,9.7-1   c1-0.1,2-0.4,3.1-0.6c-0.6-1.1-1.3-2.1-2.1-3c-0.7-0.5-1.6-0.7-2.4-0.6C506.3,167.2,505.5,167.4,504.7,167.7L504.7,167.7z    M544.3,89.4c5.3,0.6,9.5,2.8,11.8,7.7c0.6,1.6,2.3,2.4,3.9,1.8c0.1,0,0.1,0,0.2-0.1c0.9-0.4,1.4-1.1,0.4-1.8   c-1.5-1.1-1.7-2.6-1.7-4.3c0-1.7-4.6-7-6.1-7.3c-0.2,0-0.5,0.1-0.7,0.2c-1.5,0.4-2.9,0.9-4.2,1.6c-2.4,1.4-5.2,1.8-7.9,1.1   c-2.2-0.4-4-0.8-6,0.5c-0.4,0.3-1.2,0-1.8,0c0.2-0.5,0.5-1,0.7-1.6c0.3-0.7,0.8-1.6,0.6-2.2c-0.2-0.6-1.3-0.9-2-1   c-1.4-0.2-4.5,3-4.5,4.4c0.1,0.4,0.2,0.8,0.5,1.1c1.6,1.8,1.4,2.4-0.3,3.9c-1.9,1.5-3.6,3.2-5.1,5c-0.6,0.8-0.2,2.3-0.2,3.5   c0.9-0.1,1.8-0.2,2.7-0.4c0.8-0.3,1.6-0.7,2.4-1.2c3.1-1.8,6.6-2.2,10.1-2.5c1.2-0.2,2.4-0.5,3.6-0.8c-0.5-1-0.9-2.1-1.4-3.1   c-0.1-0.2-0.2-0.5-0.3-0.8c-0.6-1.5-1.3-3,1.4-3.1C541.7,89.9,543,89.7,544.3,89.4L544.3,89.4z M501.2,141.9c0.6-0.2,1.1-0.6,1.6-1   c1.5-1.9,2.9-3.8,4.2-5.9c0.4-0.7,0.5-1.6,0.1-2.4c-1.9-2.7-4-5.3-6.3-7.6c-2-1.9-3.1-1.7-5,0.4c-1.7,2.2-4.7,3-7.3,1.9   c-0.8-0.2-1.6,0-2.1,0.5c-0.5,0.8-0.6,1.7-0.3,2.5c1,1.9,2.5,3.5,3.7,5.3C492.3,139.6,496.3,141.2,501.2,141.9z M483.2,70.8   c0.8,0.1,1.6,0.1,2.5-0.1c0.8-0.4,1.9-1.3,1.8-1.9c-0.4-2.5-1-5-1.8-7.5c-1.1-3.8-2.4-7.6-3.5-11.4c-0.7-2.4-2.4-4.2-4.1-3.9   c-4.1,0.8-6.6,6.7-4.6,10.4c1.1,2.1,1.8,4.4,2,6.8C475.7,68.6,477.7,70.8,483.2,70.8z M342.2,156.6v-0.2c0.5,0,1.1,0,1.7,0   s1.4-0.1,2.1-0.2c-0.5-0.6-1.1-1.1-1.7-1.5c-4.3-2.3-8.5-4.6-12.9-6.7c-1.2-0.4-2.6-0.2-3.7,0.4c-1.2,0.7-2.2,1.5-3.2,2.5   c-2.1,1.8-3.8,1.6-5-0.6c-1.1-2-2.9-1.9-4.4-1.4c-3.4,1.3-6.7,2.8-9.9,4.4c-1.2,0.6-1.7,2.2-1.1,3.4c0.1,0.3,0.4,0.5,0.6,0.8   c2,1.7,5.1,1.5,6.8-0.5c0.1-0.1,0.1-0.2,0.2-0.2c1.5-1.9,3.1-3.8,6-3.6c2.2,0.1,4.1,1.2,5.4,3c1.2,1.6,2.5,2.6,4.9,1.6   c2.7-1,5.5-1.5,8.4-1.7C338.2,155.8,340.2,156.4,342.2,156.6z M433.6,100.9c0-3.1-2.3-5.2-5.9-5.2c-2.2,0-3.7-0.6-4.9-2.6   c-0.4-1-1.6-1.5-2.6-1.1c-0.4,0.2-0.8,0.5-1,1c-1.5,2.2-1.7,4.9-0.6,7.3c1,2.4,3,2.6,5.2,2.5c1.6-0.1,2,0.6,2.1,2.1   c0.1,2,0.5,4.1,1.1,6c0.7,1.6,1.7,3.1,3,4.4c1.2,1.3,2.8,0.5,4-0.1s1-1.9,0.7-3.1C433.8,108.3,431.9,104.5,433.6,100.9L433.6,100.9   z M425.3,39.9c6.8,0.4,6,2.7,4.8,6.7c-0.4,1.2-0.9,2.3-1.5,3.4c1.4-0.1,2.8-0.2,4.2-0.3c0.3-0.1,0.7-0.3,0.9-0.5   c1.5-1.2,3.6-1.5,5.4-0.8c3.7,0.9,7.7,0.5,11.2-1c0.8-0.3,1.3-1.4,2-2.1c-0.7-0.6-1.5-1.1-2.3-1.5c-0.9-0.4-1.9-0.5-2.9-0.6   c-3.1,0-6.1,0.2-9-1.5c-1.2-0.5-2.4-0.7-3.7-0.7c-4-0.2-6.9-1.9-8.1-5.8c-0.4-1.4-1-1.5-2.4-1.1c-4,1.2-5.9,4.5-8,7.7   c-0.6,1,0.1,1.6,1.1,1.4c0.9-0.3,1.8-0.7,2.7-1.1L425.3,39.9z M323,100.3l-2.7,1.8c0.8,0.7,1.6,1.3,2.4,1.8c0.6,0.3,1.3,0.5,2,0.5   c3.1,0.2,3.8,0.4,4.2,3.3c0.3,2.1,1.4,2.6,3,2.7c3.4,0.2,6.6,2,10.2,1.2c0.5-0.1,1.1,0.1,1.4,0.5c1.7,2.5,3,1.4,4.4-0.3   c0.9-1.1,2.2-1.1,2.6,0.2c1,3.7,4.2,2.8,6.6,3.4c1.6,0.4,1.9-0.8,1.1-1.9c-1.5-1.8-3-3.7-4.9-4.9c-2.8-1.6-5.7-2.8-8.8-3.8   c-0.9-0.1-1.9,0.2-2.5,0.9c-3.2,3.5-5.1,3.8-7.3,0C332,101.1,327.5,101.7,323,100.3z M352.4,137.4v-0.6c-0.3-0.1-0.6-0.2-0.9-0.3   c-0.9-0.2-1.7-0.4-2.6-0.6c-2-0.4-4.9-3.2-5.4-5.2c-0.4-1.3-0.9-2.6-1.6-3.9c-1-2.1-2.6-3.9-2.4-6.5c0-0.4-0.9-1-1.4-1.5   c-0.3,0.5-0.5,1-0.7,1.5c-0.2,0.8-0.3,1.6-0.6,2.3c-0.7,2-2.5,2.4-3.9,0.8c-0.4-0.7-0.8-1.4-1.2-2.1c-0.9-1.4-2.1-1.8-3.3-0.6   c-1.3,1.3-2.5,2.6-3.6,4.1c-0.8,1.1-0.5,2.6,0.6,3.4c0.3,0.2,0.7,0.3,1,0.4c0.6,0.2,1.3,0.2,1.9,0c1.7-0.9,2.9-0.7,3.7,1.2   c0.1,0.3,0.5,0.8,0.8,0.8c3,0,4.1,2.6,5.9,4.2c0.4,0.4,0.8,0.7,1.4,0.8c3.4,0.9,6.7,1.7,10.1,2.4   C351,138.2,351.7,137.7,352.4,137.4L352.4,137.4z M416.1,80.3c0.8-0.6,2.3-1.1,3-2.2c1.5-2.1,2.6-4.5,3.2-7   c0.4-2.1,0.6-3.7,2.6-4.8c1-0.5,1.5-2.2,0.2-2.5c-2.6-0.6-4.7-2.4-5.7-4.8c-0.8-1.3-0.8-2.9,0-4.2c0.5-1,0.9-2,1.2-3.1   c-1.2,0.3-2.3,0.5-3.5,0.9c-0.5,0.2-1,0.5-1.3,0.9c-0.2,0.3-0.4,1.1-0.2,1.3c1.6,1.8,0.8,2.9-1,3.8c-0.6,0.2-1.1,0.6-1.5,1.1   c-0.2,0.2,0.1,1.2,0.2,1.2c2.7,0.2,2.4,1.9,1.6,3.5c-1.3,2.4-1,4.4,0.9,6.2c1,1,1.1,2,0.3,3.3s-1.3,3.1-2,4.6   C413.1,80.1,414.4,80,416.1,80.3z M456.5,173.9l0.1-0.4c1,0,2,0.1,3,0c2.7-0.3,5.6-1.1,6.1-3.9c0.5-2.3,1.7-3.7,3.1-5.2   c0.2-0.3,0.4-0.6,0.6-0.9c1-1.8,0.5-5.6-0.7-6.4s-3.3,0.1-5,2.4c-0.7,0.7-1.4,1.3-2.2,1.9c-0.8,0.7-2.2,1.3-0.7,2.8   c0.4,0.8,0.4,1.7,0,2.5c-0.3,0.5-1.4,0.7-2.2,0.7c-2.3-0.1-4.7-0.3-7-0.4c-1.5-0.3-2.8,0.7-3.1,2.2v0.1c-0.4,1.5,0.5,3,2,3.4l0,0   C452.5,173.1,454.5,173.5,456.5,173.9z M576,157.9c-0.8-1.5-1.3-3.3-2.4-4.6c-1.9-2.4-4.1-4.5-6.5-6.5c-1.7-1.2-3.6-2.3-5.6-3   c-0.5-0.2-1.3,0.4-1.9,0.6c0.4,0.5,0.7,1.1,1.2,1.4c1.2,0.6,2.5,0.9,3.6,1.6c0.9,0.5,1.7,1.4,2,2.5c0.1,0.6-1.1,1.7-1.9,2.2   c-2.2,1.3-2.9,2.5-2.3,5.1c0.3,1,0.6,2,1,3c1.1,2.8,4.5,4.1,8.4,3.4C574,163.2,575.5,160.9,576,157.9L576,157.9z M392,94.2V94   c0.6,0,1.3,0,1.9,0c2-0.1,3-1.3,2.5-3.6c-0.4-1.6-1.6-0.7-2.6-0.3c-0.6,0.2-1.3,0.2-1.9,0.1c-1.3-0.2-2.2-0.6-2.1-2.2   c0-0.7-0.1-1.3-0.3-1.9c-0.6,0.3-1.3,0.7-1.8,1.1c-1.2,1.1-2.3,2.5-3.6,3.5c-2.7,2.3-5.5,4.5-8.2,6.7c-0.4,0.3-1,0.5-1.5,0.5   c-4.1,0-8.3-0.1-12.4-0.1c-3.3,0-6.6,0.1-10,0.3c-0.6,0-1.2,0.7-1.8,1.1c0.4,0.7,0.8,1.7,1.3,1.9c1.8,0.7,3.8,1.1,5.7,1.1   c3-0.1,6.1-0.9,9.1-0.9c5.8-0.1,10.6-2.6,14.8-6.1c2.1-1.7,4-2.9,6.8-1.7C389.3,93.8,390.6,94.1,392,94.2L392,94.2z M360.2,56.4   c2-0.2,4.4-0.8,5.9-3.5c1.6-3.1,4.1-5.6,7.1-7.1c1.4-0.8,2.4-2.1,2.9-3.7c0.3-0.8,0.4-1.3-0.8-1.2c-2.4,0.2-4.7,0.8-6.3,2.9   s-3.6,2.8-5.2,1.7c-2-1.4-3.6-0.7-4.8,0.7c-1.4,1.5-2.5,3.3-3.5,5.1c-1.7,3.1-0.7,4.8,2.9,5.2C358.8,56.4,359.2,56.4,360.2,56.4z    M481.5,150.1c-0.6-1.7-0.9-3.2-1.5-4.6c-1.2-2.8-2.9-5.4-3.7-8.2c-0.4-1.4-1.2-2.2-2.2-2.3c-1.1,0.1-2,0.6-2.6,1.5   c-1,2.4-2.3,3.5-5,2.2c-0.6-0.1-1.2,0.1-1.6,0.5c-0.2,0.5-0.1,1.1,0.2,1.6c0.9,1.1,1.9,2,3,2.8c1.5,1,2.9,1.7,3.8,3.5   c1,1.9,2.4,3.5,4.1,4.8c1.1,0.7,2.4,1,3.7,0.8C480.4,152.6,480.8,151.1,481.5,150.1L481.5,150.1z M541.2,134.3   c1.1-0.5,2.1-1.1,3.1-1.8c0.3-0.3,0.1-1.6-0.2-2.2c-2.4-4-7-5.9-11.5-4.8c-0.9,0.1-1.8,0.3-2.6,0.6c-2.8,1.2-6,2-7.2,5.5   c-0.6,1.5-0.1,3,1.2,3.1c2.7,0.3,5.7,1.1,8.1-1.2c1.7-1.7,3.7-1.7,5.7-0.7C538.8,133.3,539.9,133.7,541.2,134.3z M420.7,174.1   c0,0.2,0,0.4,0,0.6c0.3,0.1,0.5,0.1,0.8,0c1.2-0.6,3-0.9,3.5-1.8c0.8-1.6-0.5-3-2-3.9s-2.5-2.1-4-2.7c-1.2-0.5-3.3-1-3.9-0.4   c-2,2-4.2,2.3-6.7,2.2c-1,0-2,0.2-2.9,0.6c-1.1,0.5-1.6,1.8-1.1,2.9c0.1,0.3,0.4,0.6,0.6,0.8c1,0.9,2.3,1.4,3.6,1.6   C412.7,174.2,416.7,174.1,420.7,174.1z M350.1,125.9c-0.8,0.3-2.4,0.6-2.6,1.2c-0.1,1.1,0.3,2.2,1,3.1c1.6,2.2,3.9,1.5,6,1.1   c2.3-0.5,4.3-0.3,6,1.5c0.5,0.5,1.3,0.7,1.7,1.3c1.1,1.4,2.1,0.5,3-0.2s1.4-1.7,0.3-2.7c-0.3-0.3-0.4-0.8-0.4-1.2   c-0.1-1.6-0.2-3.2,1.5-4.1c-1-1.3-2.1-2.8-1.3-4.4s-0.5-1.5-1.2-1.3c-0.7,0.4-1.3,0.9-1.7,1.6c-2.4,3.1-5,5.6-9.3,5   C352.1,126.4,351.2,126.2,350.1,125.9z M490,154.4c4-0.3,6.8-1.2,8.1-4.3c0.4-0.9,0.5-2.6,0-3.1c-2.3-2-4.8-3.8-7.3-5.4   c-0.9-0.6-1.9-0.9-3-1.1c-1.4-0.3-2.8,0.6-3.1,2c-0.1,0.6,0,1.1,0.2,1.7c0.9,2.6,1.9,5.1,2.7,7.7   C488.2,153.5,488.9,154.6,490,154.4L490,154.4z M360.5,177.4c1.9,0,3.9,0.1,5.8,0c1.7-0.2,3.4-0.5,5-0.9c1.9-0.5,1.9-1.5,0.5-2.6   c-0.5-0.4-1-0.7-1.6-0.8c-3.8-0.4-7.5-1.9-11.4-0.6c-0.9,0.1-1.8,0.1-2.7-0.1c-1.3,0-2.7-0.2-3.8,0.2s-1.7,1.6-2.5,2.5   c1,0.8,2,1.6,3,2.4c0.4,0.2,1.1,0,1.6,0L360.5,177.4z M470.4,124c-1.1-2.2-2.5-5.1-4.1-7.9c-0.2-0.3-1.7-0.3-2,0.1   c-0.7,0.8-1.2,1.7-1.5,2.7c-0.8,2-1.5,4.1-2,6.3c-0.3,1.7-0.3,3.4-0.1,5.2c0.3,0.8,1,1.4,1.8,1.6c0.6,0.1,1.4-0.7,2-1.2   c1.2-1.1,1.9-2.5,3.9-2.6C470,128,470.7,126.5,470.4,124L470.4,124z M400.5,136.1l-0.6-0.9c-1.3-1.9-4.9-2.8-6.8-1.6   s-3.5,1.9-5.7,0.4c-0.6-0.4-2.2,0.5-3.4,0.9c0.3,0.8,0.4,2,1,2.4c2.6,1.7,5.2,3.3,8,4.6c1.9,0.9,3.3-0.1,3.4-2.1   c-0.2-1.2,0.7-2.3,1.9-2.5c0.1,0,0.1,0,0.2,0C399.3,137.2,399.8,136.6,400.5,136.1z M332.6,57.1c0.4,2.4,1.6,3.4,3.4,2.5   c0.6-0.3,1-1,1.6-1.4c2.8-1.9,5.8-3.7,9.2-2.7c2.2,0.6,2.7-0.3,3.5-1.7c0.9-1.6,0.1-2.6-1.2-3.4c-2.1-1.3-3.9-1.1-6,0.6   s-4.2,3.2-6.9,1c-0.6-0.1-1.2,0-1.6,0.4C333.8,54,333.2,55.5,332.6,57.1L332.6,57.1z M463.4,152.4c0.1-2.3-3.9-6.3-6.5-6.4   c-1.6-0.1-5,3.9-5.1,6.1c-0.1,2.4,2,4.2,5.1,4.4S463.3,154.4,463.4,152.4L463.4,152.4z M444,129.4c1.6,0.2,2.5-0.5,2.3-2.3   c-0.2-1.5-0.4-3-0.5-4.6c0-0.5,0.1-1.1,0.3-1.5c1-2.5,2-4.9,3-7.4c0-0.3-0.1-0.5-0.3-0.7c-4.2-0.9-7,1-6.9,4.9   c0.1,2.7-0.1,5.4-0.6,8.1C440.7,128.6,441,129.4,444,129.4L444,129.4z M379.8,36c1.6-0.3,2.8-1.4,3.3-2.9c0.8-2,1.5-4,2.1-6   c0-0.8-0.1-1.7-0.4-2.5c-0.6,0.2-1.2,0.5-1.8,0.9c-0.6,0.5-1.2,1.1-1.8,1.7c-1.2,1.4-2.2,1.4-3.7,0.2c-1-0.6-2.2-0.6-3.3-0.2   c-0.6,0.4-0.8,2-0.7,3.1c0.1,0.9,1,1.7,1.4,2.6C375.7,35.1,376.9,36,379.8,36L379.8,36z M417.5,150c5-0.2,5-0.2,3.1-4.6   c0-0.1-0.1-0.1-0.1-0.2c-1.6-4-5.1-5-8.4-2.3c-1,1-1.6,2.4-1.6,3.8c-0.1,1.5,1,2.3,2.6,2.6S416,149.8,417.5,150L417.5,150z    M384.2,161.3l2.8-1.3c-0.4-0.9-0.9-1.7-1.4-2.5c-0.5-0.5-1.1-0.8-1.8-1c-2.4-0.7-4.5-1.6-5.3-4.4c-0.3-1-1.4-1.9-2.1-2.8   c-0.2-0.2-0.7-0.4-0.8-0.2c-1.3,1.1-2.5,2.3-3.7,3.5c-0.7,0.8-1,1.6,0.5,2.4c2.6,1.2,4.9,3,7.3,4.4   C381.2,160.1,382.7,160.6,384.2,161.3z M451.2,227.9c0,2.8,1.9,4.1,4.2,2.5c2-1.4,3.5-3.7,5.6-4.9c2.3-1.4,1.2-2.7,0.7-4.2   c-0.1-0.4-0.9-0.8-1.1-0.7c-1.6,0.7-3.2,1.4-4.8,2.2c-0.7,0.4-1.3,1.2-2,1.3C451.6,224.6,451.1,226,451.2,227.9L451.2,227.9z    M492.6,48.7c2.5,0,4.7-2.3,6.5,0.5c0.5-0.3,1-0.7,1.5-1.1c0.1-0.1-0.4-1-0.5-0.9c-4.1,0.6-2.8-2.9-3.5-4.7c-0.3-0.9-0.6-1.8-1-2.7   c-0.6-0.9-1.4-1.5-2.5-0.5c-2,1.7-4,3.3-6,5c-0.2,0.1,0.2,1.1,0.2,1.1c2-0.2,3.1,0.8,3.9,2.5C491.3,48.4,492.4,48.7,492.6,48.7z    M538.5,217.2l0.3,0.5c1-0.6,2.5-1,2.7-1.8c0.3-1.5,0.4-4-0.4-4.6c-1.6-1.2-2.9-2.8-3.7-4.7c-0.3-0.7-1.4-1-2.1-1.5   c-0.2,0.7-0.7,1.6-0.5,2.1c1,1.9,0.2,3.5-0.7,5.1c-2,3.6-1.6,4.3,2.5,4.9C537.2,217.2,537.8,217.2,538.5,217.2L538.5,217.2z    M352.5,150.9c1.9,0,3.3,0.1,4.6,0c0.6-0.1,1.1-0.4,1.7-0.7c-0.3-0.6-0.7-1.2-1.1-1.7c-0.3-0.3-0.9-0.2-1.3-0.3   c-3.8-0.8-7.6-1.4-10.8-3.8c-0.6-0.4-1.3-0.6-2-0.5c-0.8,0-1.8,0.2-2.1,0.7s0.1,1.5,0.4,2.2c0.2,0.4,0.5,0.7,0.9,1   C345.6,150.7,349.2,151.2,352.5,150.9z M505.2,23.7c-4.5,0.3-10.1,4.1-12,7.6c-0.3,0.5-0.9,1.1-0.9,1.6c0.1,0.7,0.6,1.8,1.2,1.9   c1.9,0.5,6.2-2,6.9-3.9s1.5-3.8,4.2-3.9c0.6,0,1.2-1.5,1.6-2.3C506.3,24.5,505.3,23.8,505.2,23.7z M448.5,128.7   c0.7,1.1,1,2.1,1.7,2.5c0.7,0.2,1.5,0.1,2.2-0.2c1.5-0.7,2.4-2.3,2.2-4c-0.1-3.3,0.7-6.7,2.4-9.6c0.4-0.6,0.7-1.3,0.9-1.9   c0-0.5-0.1-1-0.3-1.5c-0.5,0.1-1.1,0.1-1.5,0.5c-0.7,0.7-1.3,1.5-1.8,2.3C452.2,120.7,450.3,124.7,448.5,128.7L448.5,128.7z    M582.2,171.1c0-2.2,0.1-4.4-2-5.8c-1.3-0.8-2.4-0.8-3.2,0.6s0.4,1.8,1.3,2.4c0.7,0.6,1.3,1.3,1.7,2.1c-0.7,0.6-1.4,1.1-2.1,1.5   c-1.6,0.7-3.4,1-5,1.7c-0.7,0.3-1.1,1.1-1.6,1.7c0.9,0.8,1.8,1.7,2.8,2.4c0,0,0.6-0.8,1.1-1.1c0.7-0.4,1.4-0.6,2.1-0.8   C582.2,174.4,582.3,174.9,582.2,171.1L582.2,171.1z M434.3,121.6c-0.5-0.5-1.1-0.8-1.8-1.1c-2-0.6-4.1-1-6.2-1.4   c-0.7-0.1-1.8-0.1-2.1,0.2c-0.3,0.8-0.4,1.6-0.2,2.4c0.3,1.5,0.7,2.9,1.2,4.3c0.4,1.2,1.2,2.2,2.6,1.4c2-1.3,4-2.7,5.9-4.2   C434,123,434,122.5,434.3,121.6z M430.6,143.9c-0.9,0.5-2.3,0.7-2.5,1.3c-0.8,2.7,4,7.8,6.8,7.2c0.7-0.2,1.3-0.6,1.8-1.2   c1.3-1.7,0.9-4.1-0.8-5.4c-0.3-0.2-0.5-0.4-0.8-0.5C433.6,144.8,432.1,144.3,430.6,143.9L430.6,143.9z M382.1,142.5   c-1.3,0.1-2.5,0-3,0.4c-0.4,0.8-0.4,1.7,0.1,2.4c2.2,2.8,5.4,4.6,8.9,5c0.5,0.1,1.6-0.2,1.6-0.4c0.2-0.8,0.1-1.6-0.2-2.3   c-0.3-0.6-1.1-0.8-1.7-1.3c-1.1-0.7-2-1.5-2.9-2.4C384,142.8,383.3,141.8,382.1,142.5L382.1,142.5z M334.3,167.5   c2.1,0,4.8-2.5,4.7-4.5c-0.1-1.6-1.8-2.7-4.1-2.7s-5.2,1.6-5.3,3C329.6,165,332.4,167.5,334.3,167.5L334.3,167.5z M391.6,164.3   c-0.8,0.7-2,1.2-2.4,2c-0.3,1-0.1,2,0.5,2.8c1.9,1.5,4,2.9,6.2,4.1c1,0.6,2,0.2,2.2-1.3C398.6,169.4,393.8,164.6,391.6,164.3   L391.6,164.3z M477.2,87.8c0-0.8-0.1-1.7-0.3-2.5c-0.6-1-1.3-2-2.1-2.9c-0.9,1-2.2,1.8-2.6,3c-0.4,1.4-0.4,2.9,0,4.3   c0.6,1.5,1.4,2.9,2.3,4.2c0.7-1.3,1.5-2.6,2.1-3.9C476.9,89.3,477.1,88.6,477.2,87.8z M378.4,219c1.3-0.7,2.4-1.6,3.5-2.6   c0.4-0.4-0.1-1.9-0.4-2.7c-0.1-0.3-1.3-0.5-1.7-0.3c-1.5,1.2-3.7,1.2-5.2,0c-0.4-0.3-1.3,0.2-2,0.4c-0.2,0.1-0.3,0.6-0.2,0.9   C373.3,218.1,374,218.6,378.4,219z M315,122c1.3-0.6,2.5-0.7,2.8-1.3c0.3-0.8,0.1-1.8-0.4-2.4c-1.3-1.3-2.9-2.3-4.5-3.2   c-0.6-0.3-2,0.4-2.5,1c-0.4,0.8-0.4,1.8,0,2.6C311.9,119.9,313.4,121,315,122L315,122z M299.9,103.3c2.2,0.1,3-0.7,3.3-2.5   s1.4-3.2,2-4.9c0.2-0.7,0.4-2,0-2.2c-1.3-0.8-2.6-1.4-4-1.9c0,0-0.4,0.4-0.3,0.6c0.3,1.6,0.2,3.5,1,4.8s0.8,1.9-0.2,2.8   c-0.6,0.5-1.4,0.9-1.9,1.4c-0.4,0.5-0.7,1-0.9,1.5L299.9,103.3z M577.8,101.7l-0.5,0.2c0.5,0.8,0.9,1.8,1.6,2.2   c0.4,0.3,1.5-0.2,2.1-0.6c0.9-0.6,1.8-1.3,2.5-2c0.4-0.3,0.6-0.6,0.7-1.1c0-1.6-4.2-3.8-5.7-3.1c-0.3,0.1-0.7,0.5-0.7,0.8   C577.8,99.4,577.8,100.5,577.8,101.7L577.8,101.7z M352.5,166.6v-0.2c1.3,0.1,2.6,0.1,3.8-0.1c0.7-0.1,1.4-0.8,2-1.3   c-0.5-0.5-1-1-1.6-1.4c-3.3-1.4-6.4,1.4-9.7,0.7c-0.1,0-0.6,0.5-0.6,0.7c0.1,0.3,0.4,0.6,0.7,0.7   C348.9,166,350.7,166.3,352.5,166.6z M499.6,210.7c-0.5-2-1.3-2.5-2.9-1.8c-0.9,0.3-1.8,0.7-2.7,1.3c-0.7,0.7-1.3,1.6-1.8,2.4   c1.3,0.6,2.9,1.9,3.9,1.6C497.5,213.6,498.5,211.9,499.6,210.7z M559.4,106.6c0.2-1.9-3.2-5.9-5.1-6.5c-0.5-0.1-1.1-0.1-1.6-0.1   c0,0.8-0.4,1.8,0,2.2c1.6,1.7,3.4,3.3,5.2,4.7C558.2,107.1,559,106.7,559.4,106.6L559.4,106.6z M372.2,132.8   c0.1,0.9,0.5,2.1,2.3,1.1c1.3-0.8,2.5-1.6,3.6-2.6c1.5-1.3,0.4-2-0.8-2.4C375.3,128.2,372.2,130.3,372.2,132.8z M397.2,159.9   c1.2-0.3,2.3-0.5,3.4-0.7c1.4-0.2,1-1.1,0.5-1.7c-1-1.3-5.1-2-6.4-1.1c-0.6,0.5-1,1.1-1.1,1.8c-0.1,0.2,0.7,0.9,1.1,1.1   C395.5,159.5,396.3,159.7,397.2,159.9L397.2,159.9z M284.3,154.1c0.1-3.2-2-3.2-3.1-3.1s-1.9,1.7-2.9,2.6c1.4,0.9,2.8,1.6,4.4,2.1   C283.2,155.8,284.1,154.4,284.3,154.1L284.3,154.1z M313.4,135.8c-2.1,0.9-4,1.6-5.7,2.5c-0.5,0.3-0.8,1.1-1.2,1.7   c1.1,0.5,2.6,1.8,3.2,1.5c1.5-1,2.8-2.3,3.8-3.8C313.8,137.4,313.4,136.6,313.4,135.8L313.4,135.8z M531.6,196.1   c0.5,0.1,1,0.1,1.4,0c0.7-0.3,1.4-0.6,2.1-1c-0.6-0.6-1.2-1.2-1.9-1.6c-1.1-0.4-2.2-0.7-3.3-0.8L527,192c0.6,1.1,1.3,2.1,2.1,2.9   C529.8,195.5,530.7,195.9,531.6,196.1L531.6,196.1z M427.2,156.5c-0.8,0.5-1.3,0.7-1.3,0.9c-0.1,0.6,0,1.2,0.3,1.8   c1.1,1.3,2.3,2.5,3.6,3.6c0.5,0.2,1,0.2,1.5,0c0.4-0.2,0.8-1.2,0.6-1.3C430.3,159.8,428.7,158.2,427.2,156.5z M515.8,219.2   l-2.4,0.4c0.3,0.5,0.7,1,1.1,1.4c1.3,0.8,2.6,1.6,4,2.2c0.4,0.2,1.6-0.3,1.7-0.6c0.1-0.7-0.1-1.4-0.7-1.9   C518.3,220.1,517.1,219.6,515.8,219.2L515.8,219.2z M411,123.4l0.8,0.1c1-1.4,2-2.8,2.9-4.3c0.1-0.2-0.6-1-0.9-1.4   c-1.4,1-2.7,2-3.9,3.2C409.6,121.2,410.6,122.6,411,123.4z M362.8,37.2c0.3,0.5,0.6,1,1,1.4c0.2,0.2,1.2-0.2,1.4-0.5   c0.8-1.7,1.4-3.4,2-5.1c0-0.1-0.8-0.8-0.8-0.7C364.8,33.5,362.8,34.3,362.8,37.2z M411.6,137.2c0.5-0.1,1.4-0.4,2.2-0.6   s1.8-0.8,2.7-1.1c0.4-0.1,0.9-0.2,1.3-0.2c-0.4-0.3-0.8-0.7-1.3-0.8c-0.7-0.1-1.8-0.3-2.1,0.1c-1.4,1.6-2.8,0.5-4.3,0.3   c-0.5,0-1,0-1.5,0c0.2,0.7,0.5,1.4,0.9,2.1C409.8,137.2,410.6,137.1,411.6,137.2z M519.5,139.5l1.8-0.5c-0.4-0.6-0.7-1.4-1.2-1.8   c-0.8-0.6-1.7-1-2.7-1c-0.7,0-1.3,1-2,1.5c0.5,0.4,1,0.8,1.6,1.1C517.8,139,518.6,139.3,519.5,139.5L519.5,139.5z M328.7,89.8   c-0.6,0.5-1.7,1.1-1.6,1.6c-0.1,1.4,1,2.5,2.3,2.6c0.9,0.1,1.8-0.4,2.3-1.3C331.2,91.5,331.3,89.5,328.7,89.8z M431.5,137.9   l2.4-0.8l1.8-0.6c-0.6-0.6-1.3-1.1-1.9-1.6c-0.3-0.2-0.6-0.4-1-0.4c-1.2,0.1-2.6,0.3-2.5,2C430.3,137,431,137.4,431.5,137.9z    M350.4,45.7c-1.1-1-2-2-2.2-1.9c-1,0.6-1.8,1.4-2.3,2.3c-0.1,0.2,1.3,1.9,1.7,1.8C348.4,47.7,349.1,46.7,350.4,45.7z M297.4,117.7   l-0.8-2.1c-0.5,0.2-0.9,0.5-1.3,0.8c-0.6,0.5-1.2,1.1-1.7,1.8c-0.3,0.4-0.4,1.4-0.2,1.6c0.5,0.4,1.5,0.7,1.8,0.4   C296.1,119.4,296.8,118.6,297.4,117.7L297.4,117.7z M368.1,142c-0.4-0.9-0.4-1.3-0.6-1.5c-1-0.8-5.2,0.1-5.7,1.2   c-0.1,0.4,0,0.7,0.1,1.1c0,0,0.3,0,0.4,0c1.3-1.5,2.7,0.3,4-0.2C366.8,142.4,367.4,142.3,368.1,142L368.1,142z M321.6,143.1   L321.6,143.1c0.3,0,0.6,0.1,0.8,0c0.6-0.4,1.5-0.8,1.6-1.4s-0.6-1.4-0.9-2.1c-0.4,0.4-0.9,0.7-1.3,1.1c-0.5,0.3-1.1,0.5-1.7,0.7   l-1.5,0.7c0.5,0.4,1,0.7,1.6,0.9C320.7,143.2,321.1,143.2,321.6,143.1L321.6,143.1z M498.1,221.9c-0.9,0.3-1.5,0.4-1.5,0.6   c-0.2,0.8-0.3,1.6-0.3,2.5c0,0.3,0.4,0.5,0.7,0.8c1-1.5,2.1-0.7,3.3-0.3c0.1,0,0.4-0.5,0.3-0.5   C499.7,223.8,498.8,222.8,498.1,221.9L498.1,221.9z M377.4,121.1c-0.8-0.5-1.6-0.8-2.4-1.1c-1.2-0.2-3.4,1.4-3.1,2.4   c0.4,0.5,1,0.9,1.7,0.8C374.9,122.6,376.2,121.9,377.4,121.1z M402.6,182c0.8-1.2,1.4-2.4,2-3.7c0.1-0.2-0.9-0.9-1.4-1.4   c-0.6,0.9-1.2,1.8-1.6,2.8C401.4,180.1,402,180.8,402.6,182L402.6,182z M327.6,69.4c-0.9-0.9-1.3-1.8-1.8-1.8   c-2.2-0.2-0.5,2.2-1.7,2.7c0.4,0.4,0.9,1.1,1,1C326,70.7,326.8,70,327.6,69.4z M508.4,32.2l-1-2.1c-0.8,0.7-1.4,1.5-1.9,2.4   c-0.1,0.3,1,1.2,1.6,1.8L508.4,32.2z M304.7,121.1l-1.5,0.7c0.3,0.3,0.6,0.6,1,0.9c0.3,0.3,0.7,0.6,1.1,0.8   c0.9,0.3,1.8,0.5,2.6,0.7c-0.5-0.8-1-1.6-1.6-2.3C305.8,121.5,305.3,121.2,304.7,121.1z M353,35.2l-2.2,0.7   c0.8,0.5,1.5,1.5,2.2,1.5s1.4-0.9,2.1-1.5L353,35.2z M588,201l-1.9,1.8c0.9,0.6,1.8,1.3,2.7,1.9c0.1,0,0.5-0.3,0.5-0.4   C588.9,203.4,588.5,202.4,588,201L588,201z M381.7,128.4l2-2.4c-0.7-0.5-1.4-1.4-2-1.3c-2.2,0.3,1,1.6-0.3,2.3   C381.4,127,381.5,127.5,381.7,128.4z M409.9,41.8c0-0.2,0-0.4,0-0.6c-0.6-0.2-1.2-0.7-1.8-0.7s-1,0.7-1.6,1.1   c0.5,0.3,1.1,0.9,1.7,1S409.3,42,409.9,41.8z M297.6,158l1.6-1.6c-0.5-0.4-1.1-1-1.6-1s-1.1,0.6-1.6,1L297.6,158z M341.8,169.5   l-1.4,0.7c0.4,0.3,0.8,0.5,1.2,0.7c0.4,0.2,0.8,0.3,1.2,0.4c0.5,0.1,1,0.1,1.5,0.1c-0.4-0.4-0.7-0.9-1.2-1.2   C342.8,170,342.3,169.7,341.8,169.5L341.8,169.5z M538.1,195.3c-0.2,0.4-0.4,0.8-0.6,1.2c1.1,0.7,2.2,1.3,3.3,1.9   c0.1-0.2,0.4-0.6,0.3-0.6C540.3,197,539.4,196.3,538.1,195.3L538.1,195.3z M287.3,175.9c-0.8-0.1-1.2-0.3-1.5-0.1   c-0.6,0.4-1,1-1.4,1.6c0,0.1,0.6,0.6,0.9,0.9L287.3,175.9z M544.4,84.9l1.8-0.9c-0.5-0.3-1-0.9-1.5-0.9s-1.2,0.6-1.7,0.9   L544.4,84.9z M359.3,42.9c-0.1-0.1-0.1-0.2-0.2-0.1c-1,0.2-2.1,0.3-3.1,0.5c-0.1,0-0.2,0.4-0.4,0.6c0.7,0,1.4-0.1,2.1-0.1   c0.3,0,0.7-0.1,1-0.2C359,43.4,359.2,43.1,359.3,42.9L359.3,42.9z M304,178.9c-0.6-0.3-1.1-0.8-1.3-0.7c-0.7,0.3-1.4,0.7-2.1,1.1   c0.6,0.3,1.2,0.5,1.8,0.6C302.9,179.9,303.3,179.4,304,178.9L304,178.9z"
   id="path4"
   style="fill:#ffffff" />
	<path
   class="st1"
   d="M0.4,324.7c0-3.2-0.1-6.5,0-9.7c0.4-8.7,1.4-17.3,3.1-25.8c1.9-10.2,5-20.2,9.1-29.7   c4.1-9.5,9.3-18.5,15.4-26.8c5.5-7.6,11.7-14.6,18.5-21.1c8.9-8.5,18.7-15.9,29.3-22.1c7.3-4.2,15-7.7,22.9-10.4   c16.3-5.3,33.4-7.3,50.4-6c15.1,0.9,29.9,4.6,43.6,10.9c10.6,4.7,20.5,10.8,29.4,18.2c5.2,4.2,10.2,8.7,15,13.5   c8.4,8.7,15.6,18.4,21.5,29c5.1,9,9.1,18.5,11.8,28.4c2,7.4,3.6,15,4.9,22.5c0.9,5.7,1.4,11.5,1.7,17.3c0.5,6.5,0.7,13,0.5,19.5   c-0.4,7.6-1.7,15.2-2.6,22.9c-1.1,8.4-3.2,16.7-6.2,24.7c-4.9,14.4-12.2,27.8-21.6,39.7c-4.7,6-9.7,11.8-15.1,17.2   c-12.8,12.5-27.1,22.9-43.6,30c-9,3.9-18.4,6.7-28,8.3c-6.2,1.1-12.4,1.7-18.7,1.6c-6.6-0.2-13.3,0.1-19.8-0.7   c-11.8-1.5-23.5-4.2-34.3-9.3c-7.4-3.5-14.7-7.4-21.7-11.7c-4.7-2.8-8.8-6.6-13.1-10.1c-3.5-2.8-6.8-5.7-10-8.9   c-9.5-9.7-17.6-20.6-24.2-32.4c-4.1-7.4-7.5-15.2-10.1-23.4c-2.3-7.6-4.3-15.4-5.9-23.1c-0.9-5.3-1.5-10.6-1.7-15.9   c-0.4-5.6-0.6-11.1-0.9-16.7L0.4,324.7z M215.6,311.5h0.5c-0.3-3.9-0.5-7.8-0.8-11.7c-0.4-5.1-0.6-10.2-1.1-15.2   c-0.8-7.4-1.7-14.7-2.8-22c-1.4-9.3-3.6-18.4-6.5-27.4c-2.6-8.5-6.2-16.6-10.6-24.3c-4.6-8.4-10.9-15.7-18.4-21.5   c-9.9-7.4-21.3-11-33.5-11.8c-6.2-0.3-12.4,0.2-18.4,1.6c-12.5,2.7-23.7,9.6-31.9,19.5c-5.6,6.7-10.2,14.1-13.7,22.1   c-6,13.5-9.7,27.7-12.2,42.2c-1.6,8.9-2.4,17.9-3.3,26.9c-0.6,6.4-1.1,12.9-1.1,19.4c0,14.2,0.3,28.5,0.5,42.7   c0,2.8,0.3,5.6,0.6,8.4c0.7,5.9,1.4,11.8,2.2,17.7c0.6,4.1,1.1,8.2,2,12.2c1.6,7.1,3.1,14.4,5.3,21.3c2.4,7.8,5.4,15.5,8.9,22.9   C84,440,87.8,445,91.5,450c4.8,6.4,11,11.6,18,15.5c7.4,4.1,15.6,6.4,24.1,7c7.9,0.7,15.8-0.2,23.4-2.5c14.1-4.3,24.8-13.1,33-25.2   c3.7-5.5,7.2-11.1,9.5-17.4c2.6-7,5.4-14,7.5-21.2c2.8-9.2,4.7-18.6,5.7-28.2c0.6-5.6,1.5-11.1,2.1-16.6c0.5-4.9,0.9-9.8,1.1-14.7   c0.3-7.9,0.5-15.8,0.5-23.6C216.3,319.1,215.8,315.3,215.6,311.5L215.6,311.5z"
   id="path6"
   style="fill:#ffffff" />
	<path
   class="st1"
   d="M515.9,473c-30.8,0-61.7,0-92.5,0c-2.6-0.2-5.1,0.9-6.7,2.8c-2,2.2-4.5,4-6.2,6.4c-1.6,2.2-3.4,4.5-3.5,7.6   c-0.1,2.9-2.1,5-3.8,4.8c-1.9-0.3-3.1-2-2.7-5.2c0.5-3.7,1.5-7.4,2.2-11c0.1-0.7,0.1-1.5,0-2.2c-0.7,0-1.3,0.1-2,0.2   c-1,0.4-2,0.9-2.9,1.3c-2,0.9-4,1.9-6,2.7c-3.7,1.5-7.5,2.9-11.2,4.5c-2.3,1-4.5,2.2-6.5,3.6c-2.5,1.7-4.9,3.6-3.5,7.2   c0,0.3,0,0.5,0,0.8c0,1.5,0.9,3.4-1.2,4c-2.4,0.9-5.1-0.1-6.3-2.3c-2.6-5.1-1.1-11.6,2.4-15.3c1.6-1.7,4.2-2.5,6.5-3.7   c0.4,0.3,0.7,0.6,0.8,1.1c0,0.5,0,1-0.2,1.4c0.5-0.2,0.9-0.5,1.4-0.7c3.3-2.2,6.5-4.9,10.1-6.6c4.5-2,8-5.1,11.8-8   c0.8-0.5,1.8-0.9,2.7-1.1c3.7-0.9,5.9-3.6,8-6.5c2-2.7,4.1-5.3,6.3-7.8c0.5-0.5,1.5-0.6,2.2-0.8c1.2-0.3,1.7,0.4,1.5,1.5   c-1.3,6.1-2.8,12.2-5.8,17.8c-0.1,0.2-0.2,0.5-0.3,0.8c-0.2,1.2-0.4,2.4-0.6,3.6c1.1-0.8,2.5-1.3,3.2-2.3c3.5-5.3,6.2-11.1,8-17.2   c0.9-2.7,1.4-5.5,2.1-8.3c0.6-2.2,2.9-2.9,4.4-1.1c1.3,1.5,1.9,3.5,2.9,5.3c0.4,0.7,0.8,1.4,1.2,2.1c0.9-0.5,2.1-0.9,2.6-1.7   c0.6-1.4,1-2.9,1.2-4.4c0.5-1.7,0.8-3.5,1.1-5.2c0.2-1.9,0.5-4,0-5.8c-1.1-3.5-0.5-7.4-2.8-10.6c-0.4-1-0.4-2.1,0.2-3   c1.2-1.8,1.2-3.6,1.2-5.7c-0.2-6.8,0-13.6-0.1-20.4c-0.1-9-0.3-18-0.6-27c-0.2-1.7,0.5-3.5,1.9-4.6c1.6-1.4,2.9-3.2,3.7-5.2   c1.4-3.1,4.2-5.3,7.6-6c2.2-0.5,4.3-1.1,6.4-1.8c2-0.8,3-2.6,3.7-4.6c1.3-3.9,2.8-4.8,6.3-4.6c1,0.1,1.5,0.3,1.4,1.4   c0,0.6,0,1.1,0,1.7c0,32.6,0,65.2,0,97.8c0,3.3-0.5,6.5-0.5,9.8c-0.1,2,0.1,4,0.6,5.9c0.6,2.5,2.8,3.8,5.1,4.4   c3.8,0.9,7.7,1.7,11.6,2.2c6.9,0.9,13.8,1.8,20.8,2.1c2.8,0.1,5.8-0.9,8.7-1.7c8.3-2.2,16.1-5.6,22.7-11.2   c5.3-4.5,10.3-9.5,13.5-15.9c3.6-7.3,7.6-14.5,10.9-21.9c3.8-8.7,7.2-17.7,10.5-26.6c5.6-15.1,11-30.2,16.4-45.3   c0.2-0.5,0.3-1,0.5-1.5c0.5-1.2,0.2-1.7-1.1-1.6c-0.6,0-1.3,0-1.9,0H471.9c-5.4,0-7.9-4.2-5.4-9c1-2,2.5-2.6,4.6-2.6   c8.9,0,17.9,0,26.8,0c30,0,60,0,90,0c1.7,0,2.7-0.2,3.3-2.2c5-14.4,10.3-28.8,15.4-43.1c5.5-15.3,10.9-30.6,16.3-45.9   c4.4-12.4,8.8-24.7,13.3-37.1c3.4-9.4,6.8-18.8,10.3-28.2c1-2.7,2.3-3.8,4.9-3.7c2.4,0,4.5,1.6,5.2,3.9   c4.5,12.2,8.9,24.5,13.4,36.7c6.3,17.1,12.7,34.1,19,51.2c5.7,15.5,11.5,31,17.2,46.5c3.8,10.5,7.5,21,11.3,31.5   c4.2,11.6,8.6,23.1,12.9,34.6c5.9,16,11.7,32,17.7,48c4,10.7,8.1,21.4,12.5,31.9c1.6,3.9,3.8,7.8,7.7,9.8c2.4,1.3,5.1,2.1,7.8,2.4   c6.2,0.6,12.5,0.9,18.8,1.2c4.6,0.2,9.1,0.5,13.7,0.5c2.1,0,1.7,1.3,1.6,2.4s0.9,2.9-1.5,2.7c-0.5,0-1.1,0-1.7,0H642.2   c-3.2,0-3.9-0.9-3.1-4c0.1-0.4,0.6-0.7,1-0.9c0.2-0.1,0.5,0,0.8,0c9.1-0.2,18.2-0.1,27.2-0.6c7.9-0.5,15.9-0.8,23.5-3.2   c3.3-0.9,6.2-2.9,8.2-5.7c1.7-2.5,0.9-4.8,0.1-7c-3.7-10.7-7.7-21.3-11.5-32c-2.8-7.7-5.5-15.5-8.3-23.2   c-5.1-14.2-10.3-28.4-15.5-42.5c-1.3-3.5-2.5-7.1-3.7-10.6c-0.2-1.1-1.3-1.8-2.3-1.7c-21.3,0.1-42.5,0.1-63.8,0   c-1.5,0-1.7,0.7-2.1,1.8c-3.7,10.7-7.5,21.4-11.3,32.1c-5,14.1-10.1,28.1-14.9,42.2c-2.5,6.9-3.6,14.2-3.2,21.6   c0.8,10.7,5.6,18.9,16.9,23.5c8,3.1,16.4,4.8,25,5c1.8,0.1,3.6,0.3,5.4,0.6c0.6,0.2,1,0.7,1.2,1.3c0.5,3.6,0.4,3.7-3.2,3.7   L515.9,473z M626.6,329.9h27.9c1,0,1.9,0.3,1.2-1.5c-3-7.9-5.8-15.9-8.7-23.9c-5.1-14.2-10.3-28.4-15.5-42.5   c-1.4-3.9-2.7-7.7-4.2-11.6c-0.1-0.4-0.6-0.6-0.9-1c-0.1,0.4-0.1,0.7-0.2,1.1c-5.2,14.5-10.5,29-15.7,43.6   c-4.1,11.2-8.1,22.5-12.2,33.7c-0.6,1.6-0.7,2.2,1.5,2.2C608.7,329.8,617.7,329.9,626.6,329.9z"
   id="path8"
   style="fill:#ffffff" />
	<path
   class="st1"
   d="M410.3,401.3c0-5.9,0-11.8,0-17.7c-0.1-2.8,0.4-5.6,1.4-8.1c0.9-2.1,2.2-2.1,3.8-1.9c1.8,0.1,1.4,1.6,1.4,2.8   c-0.2,10.5-0.3,21.1-0.5,31.6c-0.1,4.2-0.1,8.4-0.6,12.6c-0.8,7.8,0,15.9-3.3,23.2c-1.8,3.7-3.9,7.2-6.4,10.5   c-4.5,6.2-11.4,9.7-16.8,14.8c-3.3,3.2-7.2,4.8-11.2,6.8c-2,1-3.5,0.4-4.9-1c-0.8-0.6-1.7-1-2.6-1c-3.7-0.7-6.8,1-10.1,1.8   c-1,0.2-2,0.1-2.8-0.5c-2.5-2.1-5-1.8-7.9-1.2c-1.8,0.2-3.7,0.2-5.5,0.1c-2.7,0-5.3,0-8,0c-2.2,0-2.7-0.7-2.8-3.1   c0-1.9,0.7-3,2.7-2.9c1.9,0.1,3.8,0.2,5.7,0.5c4.2,0.7,6.9-1.3,7.7-5.7c0.2-2,1.3-3.7,3-4.8c1.9-1.1,3-0.6,3,1.5   c0.1,1.8,0,3.5,0.1,5.2c0,0.2,1,0.7,1,0.6c1.1-0.9,2-2,2.7-3.1c1.7-3.8,5.3-4.4,7.9-1.1c0.4,0.5,0.7,1,1,1.6   c1.8,2.6,2.9,3.3,5.5,1.8c3.3-1.9,7-2,10.4-3.3c5.8-2,11-5.5,15.1-10c2.5-2.8,4.7-5.9,6.5-9.2c1.7-3,2.8-6.4,3.1-9.8   c0.9-10.3,1.2-20.6,1.7-30.9L410.3,401.3z"
   id="path10"
   style="fill:#ffffff" />
	<path
   class="st1"
   d="M408,358.6c0.4-2.5,0.8-5,1.1-7.5c0.1-1.1,0.1-2.2,0-3.3c0-0.3-0.4-0.7-0.4-1c0-4.6,0-9.2-0.1-13.8   c0.1-0.4,0.1-0.7,0-1.1c-2-5.4-1-10.9-0.5-16.4c0.2-1.8,1.9-2.5,3.4-1.2c1.4,1.5,3.7,2,5.6,1.3c2.8-0.8,4.8,1.7,6.7,3.3   c1.1,0.8,2,2,2.4,3.3c1.3,4.5,5.6,4.7,8.8,6.5c1.3,0.8,3.1,1,4,2.1c1.6,2,1.3,4.7,0.9,7.1c-0.4,2.2-1.7,4.1-3.5,5.4   c-2.2,1.8-4.2,3.9-5.8,6.3c-1.2,1.8-3.2,2.8-5.3,2.9c-4.8,0.3-9,3.1-11.2,7.3c-0.3,0.5-0.6,1.1-0.9,1.6c-0.9,1.4-2.4,2.1-3.8,1.4   c-0.7-0.4-1-1.9-1.3-2.9c-0.1-0.5-0.1-0.9,0-1.4L408,358.6z"
   id="path12"
   style="fill:#ffffff" />
	<path
   class="st1"
   d="M386.2,369c-0.2-2.7-0.7-5.4-0.7-8.1c0-3,0.5-6,0.5-9c-0.1-11-0.4-22-0.5-33c0-7,0.4-14.1,0.5-21.1   c0-1.5,0.2-2.8,1.9-3.1c1.7-0.5,3.4,0.4,4,2s1.1,3.8,0.5,5.3c-1.4,3.3-0.3,6.4-0.3,9.6c0,2.1,0,4.2,0,6.4c0,1.9-0.1,3.9,0,5.8   c0.1,2.9,0.4,5.8,0.5,8.7c0.1,0.4,0.1,0.7,0,1.1c-2.1,4.4-0.4,8.9-0.1,13.3c0.2,3.5-0.3,7.1-0.5,10.6c-0.2,4.5-0.3,8.9-0.6,13.4   c0,1.4-0.3,2.7-0.6,4c-0.4,1.4-1.2,2.8-2.9,2c-1-0.6-1.7-1.6-1.9-2.8c-0.2-1.7-0.2-3.3-0.1-5L386.2,369z"
   id="path14"
   style="fill:#ffffff" />
	<path
   class="st1"
   d="M456.3,0.6c0.4,0,0.7,0,1.1,0c4.2-0.2,5.2,0.6,3.9,4.8c-0.2,0.6,0.2,1.3,0.4,2c0.6-0.3,1.1-0.6,1.7-1   c0.4-0.3,0.6-0.8,1-0.9c0.8-0.2,1.7-0.4,2.6-0.4c0,0.8,0.2,1.9-0.2,2.4c-2.2,3.2-4.6,6.1-9.1,5.8c-0.5,0-0.9,0-1.4,0   c-2.3-0.4-3.1,0.5-2.8,2.8s-0.4,2.3-2,1.1c-1.1-0.6-2.3-1-3.5-1.1c-3.2-0.6-6.1-1.6-7.7-4.8c-0.4-0.8-1-1.4-1.8-1.9   c-2.3-1.7-2.8-3.3-1.5-5.6s4.2-3.6,6.2-2.6c0.5,0.4,0.8,0.9,0.9,1.5s0.1,1.3,0,1.9c0,3.5,0.1,3.9,3.5,4.6c2.4,0.5,5.1,0.9,7.1-1.4   c0.3-0.4,0.6-0.9,0.9-1.3c-0.5-0.3-1-0.8-1.5-0.9c-1.2-0.1-2.4,0.1-3.6-0.1c-0.9-0.3-1.7-0.6-2.5-1.1c0.5-0.7,0.8-1.9,1.4-2.1   c2.2-0.9,4.5-1.5,6.7-2.3L456.3,0.6z"
   id="path16"
   style="fill:#ffffff" />
	<path
   class="st1"
   d="M404.2,341.6c-0.6,7.6-1.1,14.5-1.6,21.3c0,0.9,0,1.8-0.1,2.7c-0.1,0.5-0.8,0.9-1.2,1.3   c-0.3-0.4-1-0.9-0.9-1.2c0.5-1.9-0.6-3.2-0.9-4.8c-1-4.3-1-8.8-1.3-13.2c1.9-1.8,1.6-4.4,2.5-6.6c0.3-0.7,1.4-1.1,2.1-1.7   L404.2,341.6z"
   id="path18"
   style="fill:#ffffff" />
	<path
   class="st1"
   d="M490.5,13.8c-2.1,0.3-4.3,0.5-6.5,0.5c-2.7-0.2-5.3-0.6-7.9-1.1c-1.1-0.2-1.4-1.1-0.9-2.1   c2.1-3.8,4.1-4.4,8.2-2.8c1,0.3,2,0.4,3.1,0.3c0.9,0,1.8-0.3,2.7-0.3c1.1,0.1,2.8,0.1,3.2,0.8c0.9,1.3,0.3,3-0.8,4.2h0.1   L490.5,13.8L490.5,13.8z"
   id="path20"
   style="fill:#ffffff" />
	<path
   class="st1"
   d="M605.2,185.7c-2.5,0.3-4.3-0.7-5.5-3.4c-0.9-2.1-2.4-3.9-3.4-6c-0.2-0.6-0.2-1.3,0.2-1.8   c0.4-0.3,1.3-0.1,1.9,0.1c0.6,0.2,1.1,0.6,1.5,1c2.1,2.4,4.7,4.3,7.5,5.7c1,0.4,2.2,1.9,2.1,2.7c-0.1,1.6-1.8,1.8-3.2,1.6   C606.1,185.7,605.8,185.7,605.2,185.7z"
   id="path22"
   style="fill:#ffffff" />
	<path
   class="st1"
   d="M599.7,149.2c-3.5,0-5.8-4.1-4.6-6.8c0.7-1.4,2.3-1.3,2.6-0.8c1.1,1.9,3,1.3,4.4,2c0.9,0.6,1.8,1.2,2.6,1.9   c-0.6,1-1.4,1.9-2.3,2.7C601.7,148.8,600.7,149.1,599.7,149.2z"
   id="path24"
   style="fill:#ffffff" />
	<path
   class="st1"
   d="M404.2,311.5c0,0.9,0.3,2-0.1,2.7c-0.6,0.8-1.4,1.4-2.4,1.7c-0.2,0.1-1.3-1.1-1.3-1.8c-0.2-2.1-0.2-4.2,0-6.4   c0.1-0.7,0.6-1.3,1.3-1.6c0.7,0,1.4,0.4,1.9,1c0.4,1.4,0.7,2.8,0.9,4.2L404.2,311.5z"
   id="path26"
   style="fill:#ffffff" />
	<path
   class="st1"
   d="M603.1,173.9c0-1,0.7-2,2.4-2c2.1,0,4.9,2.1,4.7,3.9c-0.2,1.3-1.3,2.3-2.6,2.2   C605,178,603.2,176.6,603.1,173.9z"
   id="path28"
   style="fill:#ffffff" />
	<path
   class="st1"
   d="M434.1,439c0,1.8,0.3,3.5-1.7,4c-1.2,0.3-2.7-1.7-2.7-3.4c0-2.1,1.2-3.7,2.7-3.7   C434.9,436,433.8,438,434.1,439z"
   id="path30"
   style="fill:#ffffff" />
	<path
   class="st1"
   d="M596.1,170.1l2.5-2.6c1,0.9,2.4,1.7,2.7,2.8c0.4,1-0.2,2.2-1.2,2.5c-0.3,0.1-0.7,0.1-1,0.1   C597.8,172.8,596.3,172.4,596.1,170.1z"
   id="path32"
   style="fill:#ffffff" />
	<path
   class="st1"
   d="M426.7,433.4c0.5,0.6,0.9,1.4,1.2,2.1c0.1,0.4-0.9,1.5-1.1,1.4c-0.8-0.2-1.5-0.8-2-1.5c-0.2-0.4,0.6-1.3,1-2   H426.7z"
   id="path34"
   style="fill:#ffffff" />
</g>
<g
   id="Wordmark_1_"
   style="fill:#ffffff">
	<path
   class="st1"
   d="M1200.5,242.7c-7.4,0.3-14.6-1.9-20.6-6.3c-5.1-3.8-8.8-9.1-10.6-15.2c-3-10-2.3-19.6,3.8-28.3   c4.4-6.3,10.9-10.8,18.3-12.6c7.6-1.9,15.4-2.3,23,0.3c11.2,3.9,18.1,11.9,20.4,23.3c1.7,8.4,0.5,16.7-4.3,24.1   c-5.2,7.9-12.8,12.1-21.9,13.9C1206,242.4,1203.2,242.5,1200.5,242.7z M1201.6,232.6c8,0.3,16.1-4.8,18.7-11.7   c2.5-6.4,1.6-12.8-1-18.9c-2-4.8-5.1-8.8-9.9-11.1c-3.7-1.9-8-2.4-12.1-1.5c-10.7,2.2-16.5,10.7-16,20.5c0.3,4.4,1.5,8.7,3.6,12.5   C1188.8,229,1194.1,232.5,1201.6,232.6z"
   id="path37"
   style="fill:#ffffff" />
	<path
   class="st1"
   d="M1359.9,360.1c-2.9,0-5.9,0-8.8,0c-0.6,0-1.5-0.3-1.6-0.5c-0.1-0.7,0-1.8,0.5-2.1c2.4-1.7,2.9-3.7,2.3-6.5   c-0.6-2.9-0.5-6.2-0.7-9.2c-0.2-4.4-0.3-8.8-0.6-13.1c-0.2-3-0.3-6-0.6-9c-0.1-0.4-0.2-0.8-0.3-1.1c-0.3,0.3-0.5,0.6-0.8,1   c-2,3.9-4.1,7.8-6.1,11.7c-3.4,6.4-6.9,12.8-10.2,19.3c-0.9,1.9-2.3,1.3-3.7,1.5c-2.2,0.4-3.3-0.6-4.3-2.5   c-5.3-10.4-10.8-20.7-16.2-31c-0.2-0.4-0.5-0.7-0.8-1c0,0.4-0.1,0.8-0.1,1.3c-0.4,7-0.7,14-1.1,21c-0.3,4.2-0.7,8.3-1.1,12.5   c-0.3,2,0.6,3.9,2.3,4.9c0.9,0.4,1.3,1.5,0.9,2.5c-0.1,0.4-1.2,0.6-1.8,0.6c-4.9,0-9.8,0-14.6,0c-0.6,0-1.5-0.4-1.6-0.8   c-0.1-0.7-0.5-1.6,0.9-2.1c1.8-0.5,2.7-2.2,2.8-4.2c0.3-6.2,0.7-12.4,1.1-18.5c0.3-5.7,0.7-11.4,1.1-17.2c0.2-3.1,0.4-6.2,0.5-9.3   c0.1-2.1-0.5-3.7-2.8-4.4c-0.6-0.2-0.8-1.6-1-2.4c0.5-0.4,1-0.7,1.6-0.7c5.9,0,11.8-0.1,17.7,0c0.7,0.1,1.4,0.5,1.8,1.1   c0.6,0.7,1.1,1.4,1.4,2.3c4.4,8.3,8.8,16.7,13.2,25c0.4,0.7,0.9,1.3,1.5,1.9c0.3-0.6,0.6-1.3,1-1.9c4-7.9,8.1-15.8,12.2-23.7   c0.6-1.3,1.3-2.5,2.2-3.7c0.5-0.5,1.2-0.9,2-0.9c5.7-0.1,11.4-0.1,17.1,0c0.6,0.1,1.2,0.3,1.6,0.7c-0.2,0.9-0.5,2.3-1,2.4   c-2.1,0.5-2.3,1.8-2.2,3.5c0.4,8.3,0.7,16.6,1.1,24.9c0.3,5.2,0.7,10.3,1.1,15.5c0,2.2,0.3,4.3,0.7,6.5c0.5,1.2,1.4,2.2,2.5,2.9   c0.9,0.7,1.6,1.3,1.1,2.3c-0.2,0.5-1.2,0.8-1.8,0.8C1365.6,360.2,1362.7,360.1,1359.9,360.1z"
   id="path39"
   style="fill:#ffffff" />
	<path
   class="st1"
   d="M1123.2,202.7c5,0,9.9,0,14.9,0c1.4,0,1.9-0.3,1.9-1.8c-0.1-4.1,0.2-8.3-0.1-12.4c-0.2-1.6-0.9-3-2.1-4.1   c-1-0.6-1.4-1.9-1-3c0.1-0.5,1.4-0.8,2.2-0.8c5.4-0.1,10.9,0,16.3,0c0.6,0,1.7,0.4,1.7,0.7c0,0.9,0,2.2-0.6,2.6   c-2.1,1.5-2.7,3.4-2.7,5.9c0.1,14.1,0.1,28.2,0,42.2c-0.1,2.1,0.8,4.1,2.5,5.5c0.6,0.6,0.7,1.8,0.8,2.8c-0.5,0.3-1.2,0.5-1.8,0.5   c-5.5,0-11,0-16.6,0c-0.7-0.1-1.3-0.3-1.9-0.5c0.3-0.9,0.3-2.3,0.8-2.6c2.2-1.1,2.5-2.9,2.4-5c0-5.7-0.1-11.4,0-17.1   c0-1.7-0.2-2.4-2.2-2.4c-9.9,0.1-19.7,0.1-29.5,0c-1.5,0-2.1,0.3-2,1.9c0.1,6.2-0.1,12.3,0.1,18.5c0.2,1.5,0.9,2.8,2.1,3.8   c1,0.5,1.4,1.7,1,2.7c-0.1,0.4-1.3,0.7-2,0.7c-5.5,0.1-11,0.1-16.6,0c-0.6,0-1.7-0.5-1.7-0.7c0-0.8,0.2-2.2,0.7-2.4   c2.6-1.1,2.6-3.2,2.5-5.4c0-14.4,0-28.7,0-43.1c0-2-0.4-3.6-2.3-4.8c-0.7-0.5-0.8-2-0.9-3.1c0.6-0.4,1.3-0.6,2-0.6   c5.4-0.1,10.9-0.1,16.3,0c0.7,0,1.9,0.4,1.9,0.7c0.1,0.9,0.6,2-0.8,2.8c-1.9,1-2.6,2.8-2.4,5.1c0.2,3.7,0.2,7.3,0,11   c-0.1,1.9,0.4,2.5,2.4,2.5C1113.5,202.6,1118.3,202.7,1123.2,202.7z"
   id="path41"
   style="fill:#ffffff" />
	<path
   class="st1"
   d="M1532.8,454.2c0,5.2,0,10.5,0,15.7c0,2.4,0.7,4.3,3,5.6c0.6,0.3,0.8,1.6,0.8,2.5c0,0.3-1,0.8-1.5,0.8   c-5,0.1-9.9,0.1-14.9,0c-0.6-0.1-1.2-0.3-1.6-0.8c0.2-0.9-0.9-2,1-2.6c2.2-0.7,2.8-2.9,2.8-5.1c0-14.3,0-28.5,0-42.8   c0-2.2-0.6-4.4-3-5.6c-0.6-0.3-0.7-1.6-0.8-2.5c0-0.2,1-0.8,1.6-0.8c4.8-0.1,9.6-0.1,14.3,0c0.6,0,1.3,0.6,1.9,1   c0.3,0.2,0.6,0.5,0.8,0.8c5.3,5.5,10.6,10.9,15.8,16.4c5,5.2,9.8,10.6,14.8,15.8c0.4,0.4,0.8,0.7,1.2,1c0.2-0.6,0.3-1.1,0.3-1.7   c0-8.7,0-17.3,0-26c0-2-0.6-3.4-2.7-4.2c-0.6-0.2-0.8-1.5-1.2-2.3c0.6-0.4,1.2-0.7,1.9-0.8c4.9-0.1,9.8-0.1,14.6,0   c0.8,0,2,0.4,2.1,0.8c0.2,1,0.6,2-1.2,2.7c-2.2,0.8-2.6,3.2-2.6,5.5c0,16.1,0,32.2,0,48.3c0,3.4,0,3.2-3.3,3.4   c-2,0.2-4-0.6-5.2-2.2c-6.2-6.7-12.5-13.3-18.8-20c-5.3-5.6-10.5-11.2-15.7-16.8c-1.1-1.2-2.1-2.5-3.2-3.7c-0.3-0.3-0.6-0.5-1-0.7   c-0.1,0.4-0.2,0.8-0.2,1.2c0,5.1,0,10.1,0,15.2L1532.8,454.2z"
   id="path43"
   style="fill:#ffffff" />
	<path
   class="st1"
   d="M1427.8,210.7c0-7,0-14,0-21c0-2.5-0.3-4.8-3.2-5.9c-0.4-0.2-0.6-1.5-0.6-2.3c0-0.3,0.8-0.8,1.3-0.8   c9.1,0,18.2-0.3,27.3,0.1c5.6,0.1,11.1,1.5,16,4c6.9,3.5,11.8,10.1,13.2,17.8c1.4,7.2,1.3,14.4-1.5,21.4   c-2.1,5.2-5.9,9.6-10.8,12.4c-4.3,2.5-9.1,3.9-14.1,4c-10,0.2-20,0.4-30,0.5c-0.5,0-1.5-0.4-1.5-0.6c0-0.8,0.1-2.2,0.6-2.4   c3-1.5,3.2-4,3.2-6.9C1427.7,224.1,1427.8,217.4,1427.8,210.7z M1441.6,210.9c0,5.9,0,11.8,0,17.6c0,1.2,0.1,1.9,1.6,1.8   c4.2-0.4,8.6-0.3,12.7-1.2c6.1-1.5,10.2-5.5,11.7-11.7c0.9-3.4,1.2-6.9,0.6-10.4c-1.2-7-4.8-11.9-10.8-14.2   c-4.5-1.7-9.2-0.8-13.8-1.1c-1.8-0.1-2.1,0.6-2.1,2.2C1441.6,199.5,1441.6,205.2,1441.6,210.9L1441.6,210.9z"
   id="path45"
   style="fill:#ffffff" />
	<path
   class="st1"
   d="M1104.6,480.8c-6.5,0.2-13-1.5-18.5-5c-6.7-4.2-10.8-10.3-12.9-17.7c-1.8-6.2-1.7-12.8,0.2-19   c2.1-6.9,6.6-12.7,12.8-16.5c5.6-3.6,12.2-5.5,18.8-5.6c6-0.1,11.8,0.4,17.4,3.1c8.5,4.2,14,10.7,16.2,19.7   c2.8,11.5,0.9,22.3-7.6,31c-4.9,5.1-11.3,7.9-18.2,9.1C1110.1,480.5,1107.4,480.6,1104.6,480.8z M1106,470.8   c1.6-0.2,3.2-0.4,4.8-0.8c9.7-2.3,15.3-9,15.2-19.1c-0.2-3.6-0.9-7.1-2.2-10.5c-3.2-9-12.1-15.7-22.8-13c-9.2,2.3-15.4,9.5-15.1,19   c0.1,3.9,0.8,7.7,2.2,11.3C1091,464.9,1096.4,470.7,1106,470.8L1106,470.8z"
   id="path47"
   style="fill:#ffffff" />
	<path
   class="st1"
   d="M917.1,242.9c-7.6,0-14.5-1.9-20.6-6.5c-5.8-4.4-9.8-10.7-11.2-17.8c-0.7-2.8-1.1-5.6-1.1-8.5   c0.3-5.8,1.5-11.6,5-16.5c5.4-7.7,13.7-12.9,23.1-14.1c6.2-0.9,12.4-1.1,18.3,0.9c12,4.1,19,12.5,21,25.2c1.4,8.8-0.3,16.8-5.5,24   c-4.6,6.3-10.9,9.8-18.2,11.7C924.4,242.2,920.7,242.4,917.1,242.9z M918.3,232.7c1.8-0.1,3.6-0.4,5.4-0.8   c8.9-2.5,14.5-8.5,14.7-18.4c0.2-5.6-1.4-11.1-4.5-15.8c-3.6-5.5-8.8-8.7-15.5-8.8c-6-0.1-11.7,2.5-15.5,7   c-3.6,3.9-4.8,8.5-4.7,13.4c0.2,3.4,0.9,6.8,2.2,9.9C903.2,227.1,909.6,233,918.3,232.7z"
   id="path49"
   style="fill:#ffffff" />
	<path
   class="st1"
   d="M1470.1,480.6c-7,0.6-14.1-1.4-19.8-5.4c-5.9-4.1-10.1-10.3-11.7-17.3c-2.4-9.5-1.6-18.5,4.1-26.8   c4.4-6.3,11-10.8,18.5-12.6c7.8-2.1,15.7-2.3,23.3,0.4c11.1,3.9,17.8,11.9,20.1,23.4c1.7,8.2,0.1,16.8-4.3,23.9   c-3.4,5.6-8.5,9.3-14.4,11.7C1480.8,479.9,1475.5,480.9,1470.1,480.6z M1471.1,427c-8.1-0.1-15.4,4.6-18.6,12   c-2.1,5.1-1.8,10.3-0.3,15.3c3.3,11.6,11.7,18.5,23.9,15.7c7.3-1.7,12.7-6,14.6-13.3c2.1-7.8,0.2-15.3-4.5-21.8   C1482.6,430.1,1477.8,426.8,1471.1,427L1471.1,427z"
   id="path51"
   style="fill:#ffffff" />
	<path
   class="st1"
   d="M1106.3,332.8c0,6.4,0.1,12.9,0,19.3c0,2.1,0.6,3.9,2.3,4.9c0.9,0.4,1.3,1.4,1,2.3v0.1c-0.2,0.4-1.3,0.6-2,0.6   c-5.5,0.1-11,0.1-16.6,0c-0.6-0.1-1.2-0.4-1.7-0.7c0.3-0.7,0.5-1.8,1-2.1c2.3-1.2,2.8-3.3,2.8-5.4c0.1-14,0.1-28,0-42   c0-2.5-0.5-5-3-6.6c-0.5-0.3-0.6-1.5-0.8-2.2c0.5-0.3,1-0.5,1.5-0.5c9.8,0,19.7-0.4,29.5,0.1c8.3,0.4,14.6,5.5,14.8,15.5   c0.2,6.6-4,12.5-10.2,14.6c-1,0.3-1.9,0.5-0.5,1.4c7.1,4.5,11.2,11.3,14.8,18.6c1.1,2.2,2.7,4.2,4,6.3c0.4,0.8,0.6,1.6,0.5,2.5   c0,0.3-1.3,0.6-2,0.6c-6,0-12,0-17.9,0c-0.7,0-1.7-0.3-1.9-0.8c-0.4-0.9,0-1.9,0.8-2.3c0.1,0,0.2-0.1,0.3-0.1   c1.5-0.7,1.8-1.9,1.3-3.6c-1.7-5.8-5-10.7-9.1-15.1c-1.7-1.8-3.6-3.3-5.4-5c-0.3-0.3-0.5-0.7-0.6-1.2c0-0.3,0-0.5,0-0.8   c0-2.2-0.8-5,0.3-6.5c0.9-1.2,3.9-1,6-1.3c5.4-0.8,7.4-5.8,5.9-9.2c-0.9-1.9-2.6-3.1-4.6-3.4c-2.7-0.5-5.6-0.4-8.4-0.7   c-1.6-0.1-2,0.4-2,2C1106.3,319.2,1106.3,326,1106.3,332.8z"
   id="path53"
   style="fill:#ffffff" />
	<path
   class="st1"
   d="M979.2,213c0,6.2,0,12.3,0,18.5c0,2.7,0.3,5.2,3.2,6.6c0.5,0.2,0.6,1.3,0.6,2c0,0.2-0.9,0.7-1.4,0.7   c-5.7,0-11.4,0-17.1,0c-0.6,0-1.7-0.5-1.7-0.7c0-0.8,0.2-2.2,0.7-2.4c2.3-1.1,2.5-3,2.5-5.2c0-14.3-0.1-28.5,0-42.8   c0.2-2.2-0.8-4.3-2.5-5.7c-0.5-0.4-0.6-1.5-0.7-2.2c0.5-0.3,1-0.5,1.5-0.5c9.9,0,19.9-0.3,29.8,0.1c7.2,0.1,13.2,5.6,13.9,12.8   c0.7,4.4-0.4,8.8-2.8,12.4c-1.9,2.8-4.9,3.9-7.7,5c-1.6,0.6-0.5,0.6,0,0.9c6.6,5,11.8,11.6,15,19.2c1,2.3,2.9,4.2,4.3,6.3   c0.4,0.7,0.6,1.5,0.4,2.3c-0.1,0.3-1.1,0.6-1.7,0.6c-6.4,0-12.7,0-19.1,0c-0.6,0-1.7-0.5-1.6-0.7c0-0.8,0.3-2.2,0.7-2.3   c3.1-0.7,2.1-3,1.6-4.5c-1.4-4.4-3.7-8.4-6.8-11.8c-2.2-2.5-4.7-4.7-7.1-7.1c-0.4-0.5-0.7-1-0.8-1.6c-0.1-0.8-0.1-1.7,0-2.5   c0-1.8-0.5-4.1,0.4-5.3c0.7-0.9,3.2-0.2,4.9-0.5c4.8-0.7,8.5-4.2,6.2-9.5c-0.8-1.5-2.1-2.6-3.7-3c-3.3-0.5-6.7-0.7-10-0.7   c-1.6-0.1-1,1.2-1.1,2C979.2,199.7,979.2,206.4,979.2,213z"
   id="path55"
   style="fill:#ffffff" />
	<path
   class="st1"
   d="M1386.5,240.8c-6.7,0-13.4,0-20.2,0c-0.7,0-1.9-0.5-2-1c-0.2-0.8-0.6-2,1.1-2.5c1-0.3,2-2.2,2-3.4   c0.1-15.4,0.1-30.7,0.1-46.1c0-1.6-0.4-2.9-2.1-3.4s-1.4-1.8-1.1-2.9c0.1-0.5,1.4-0.8,2.1-0.8c13.1,0,26.1,0,39.2-0.1   c1.5-0.2,2.8,0.8,3,2.2c1.1,3.4,2.6,6.7,3.8,10c0.2,0.9,0.4,1.7,0.5,2.6c-1.2-0.1-2.5-0.2-3.7-0.4c-0.5-0.1-0.8-1-1.4-1.3   c-1.7-0.8-3.4-1.9-5.1-2c-6.3-0.2-12.7,0-19-0.1c-1.8,0-2.6,0.3-2.5,2.3c0.2,2.6,0.1,5.2,0,7.7c0,1.2,0.3,1.6,1.5,1.6   c7.1,0,14.2,0.1,21.3-0.1c1.4-0.2,2.7-1,3.5-2.2c0.5-0.9,1.6-1.3,2.5-0.8c0.3,0.1,0.6,1.2,0.6,1.8c0,4.6,0.1,9.2,0,13.8   c-0.1,0.7-0.4,1.3-0.8,1.9c-0.7-0.3-1.8-0.5-2.1-1.1c-1-2.1-2.8-2.8-4.8-2.8c-6.5,0-13.1,0-19.6-0.1c-1.6,0-2,0.5-2,2   c0.1,4.2,0.1,8.5,0,12.7c0,1.3,0.2,1.9,1.8,1.9c6.4-0.1,12.9,0,19.3-0.1c2.6-0.1,5.1-1.2,7-3c0.3-0.2,0.5-0.7,0.8-0.8   c1.2-0.3,2.4-0.4,3.6-0.7c-0.1,0.9-0.2,1.7-0.5,2.5c-1.2,3.5-2.7,6.8-3.7,10.3c-0.5,1.7-1.3,2.1-2.9,2   C1400.1,240.8,1393.3,240.8,1386.5,240.8z"
   id="path57"
   style="fill:#ffffff" />
	<path
   class="st1"
   d="M1224.5,321.8c0-4.8,0-9.6,0-14.4c0-1.7-0.4-3.1-2.1-3.6c-1.5-0.5-1.4-1.7-1.1-2.7c0.1-0.4,1.3-0.7,2-0.7   c5.7-0.1,11.4-0.1,17.1,0c0.6,0,1.7,0.5,1.7,0.7c0,0.8-0.2,2.2-0.7,2.4c-3,1.3-3,4-3,6.4c-0.2,8.2-0.2,16.4,0,24.6   c0.1,4.1,0.7,8.3,3.9,11.5c4.7,4.7,10.4,5,16.4,3.4c5.9-1.6,8.5-6,8.9-11.8c0.6-9.2,0.6-18.5,0.6-27.8c0-2.4-0.4-4.8-3-6.2   c-0.5-0.3-0.8-1.6-0.7-2.4c0-0.3,1.2-0.7,1.9-0.8c4.8-0.1,9.6-0.1,14.4,0c0.6,0,1.2,0.2,1.8,0.6c-0.1,0.9-0.2,2.2-0.8,2.6   c-2.4,1.4-3,3.4-3,5.9c0.1,9.4,0,18.8,0,28.2c0.1,10.9-6.3,20.7-17,23.1c-9.1,2-18.2,2-26.6-2.9c-6.5-3.8-9.6-9.8-10-17.2   C1224.9,334.4,1224.7,328.1,1224.5,321.8L1224.5,321.8z"
   id="path59"
   style="fill:#ffffff" />
	<path
   class="st1"
   d="M1407.3,346.4c-3.4,0-6.8,0.1-10.2,0c-1.2-0.2-2.4,0.5-2.7,1.7c-0.8,2.1-1.9,4-2.8,6.1   c-0.7,1.6-0.4,2.7,1.5,3.3c0.5,0.2,0.9,1.1,0.9,1.7c0,0.3-0.9,1-1.4,1c-5.2,0.1-10.5,0.1-15.7,0c-0.5,0-1.4-0.4-1.4-0.7   c-0.1-0.7,0.1-1.5,0.6-2.1c1.9-1.6,3.4-3.5,4.4-5.8c5.8-12.6,11.8-25.1,17.7-37.7c2.2-4.6,4.4-9.2,6.4-13.9c0.6-1.4,1.3-2,2.8-1.8   c0.8,0.1,1.7,0.1,2.5,0c1.4-0.2,2,0.5,2.6,1.7c4.9,10.6,9.9,21.1,14.9,31.6c3.3,7,6.5,14,10,20.8c0.9,1.7,2.2,3.2,3.7,4.3   c1,0.5,1.4,1.7,1.1,2.7c-0.1,0.4-1.3,0.7-2,0.7c-5.9,0.1-11.8,0.1-17.7,0c-0.6,0-1.6-0.3-1.7-0.7c-0.2-0.8-0.5-1.8,1.1-2.2   c1.1-0.2,1.8-1.2,1.6-2.3c0-0.3-0.1-0.5-0.3-0.7c-1-2.3-2-4.6-3.2-6.8c-0.6-0.6-1.4-1-2.2-1   C1414.3,346.3,1410.8,346.4,1407.3,346.4z M1407.3,335.9c2,0,4,0,6,0c0.2,0,0.7-0.8,0.6-1c-2-4.4-4.1-8.7-6.1-13.1   c-0.6-1.2-0.9-0.4-1.3,0.2c-2,4.2-3.9,8.4-6,12.5c-0.8,1.5,0.1,1.3,1,1.3C1403.5,335.9,1405.4,335.9,1407.3,335.9L1407.3,335.9z"
   id="path61"
   style="fill:#ffffff" />
	<path
   class="st1"
   d="M1183.4,346.4c-3.6,0-7.2,0-10.8,0c-0.7,0-1.4,0.4-1.8,1c-1.2,2.2-2.2,4.5-3.1,6.8c-0.5,1.3-0.5,2.5,1.2,3.2   c0.6,0.4,0.9,1.1,0.9,1.7c0,0.3-0.9,0.9-1.4,0.9c-5.2,0.1-10.5,0.1-15.7,0c-0.5,0-1.4-0.4-1.4-0.7c0-0.7,0.2-1.8,0.6-2   c3.2-1.4,4.2-4.6,5.6-7.3c1.8-3.5,3.2-7.2,4.8-10.8c4.2-9,8.4-18,12.6-27c1.9-4.1,3.9-8.2,5.7-12.4c1-2.3,2.8-1.5,4.4-1.7   s2.7,0,3.5,1.7c5.4,11.8,10.9,23.5,16.5,35.3c2.9,6.2,5.9,12.3,9,18.3c0.7,1.3,1.7,2.4,2.9,3.1c1,0.5,1.5,1.7,1,2.8   c-0.1,0.4-1.3,0.6-2,0.6c-5.6,0-11.2,0-16.8,0c-0.7,0-1.8-0.3-1.9-0.8c-0.3-0.8-0.4-1.8,1.2-2.1c0.9-0.1,1.6-1,1.5-2   c0-0.3-0.2-0.6-0.4-0.8c-1.3-2.4-2.2-4.9-3.5-7.2c-0.5-0.5-1.2-0.8-2-0.8C1190.4,346.3,1186.9,346.4,1183.4,346.4z M1183,335.9h5.8   c1,0,1.8,0.1,1-1.4c-2.1-4-3.9-8.2-5.8-12.3c-0.4-0.9-0.8-1.5-1.4-0.2c-2,4.3-4,8.5-6.1,12.8c-0.4,0.9-0.3,1.2,0.8,1.2   C1179.2,335.8,1181.1,335.9,1183,335.9L1183,335.9z"
   id="path63"
   style="fill:#ffffff" />
	<path
   class="st1"
   d="M907.9,464.6c-3.4,0-6.8,0.1-10.2,0c-1.1-0.2-2.1,0.5-2.4,1.5c-1,2.2-1.9,4.5-3,6.6c-0.9,1.7-0.3,3,1.4,3.4   c1.6,0.4,1,1.3,0.9,2.1c0,0.3-0.9,0.7-1.4,0.7c-5.2,0.1-10.5,0.1-15.7,0c-0.5,0-1.5-0.4-1.5-0.6c0-0.8,0.1-2.2,0.6-2.4   c2.5-1.3,3.5-3.6,4.6-5.9c5.9-12.5,11.8-25,17.6-37.4c2.2-4.6,4.3-9.2,6.3-13.9c0.6-1.4,1.4-1.4,2.7-1.6c3.3-0.5,4.9,0.8,6.3,3.8   c5.4,11.8,11,23.5,16.6,35.2c2.7,5.6,5.4,11.1,8.2,16.6c0.5,1,1.7,1.5,2.4,2.5c0.6,1,1.1,2,1.5,3c-0.8,0.4-1.6,0.7-2.5,0.8   c-5.7,0.1-11.4,0.1-17.1,0c-0.7,0-1.7-0.4-1.9-0.8c-0.4-0.8-0.1-1.7,0.7-2.1c0.1-0.1,0.3-0.1,0.5-0.2c1.8-0.5,1.8-2,1.3-3.3   c-0.9-2.4-2-4.8-3.2-7.1c-0.3-0.5-1.4-0.8-2.1-0.8C914.9,464.5,911.4,464.6,907.9,464.6z M907.8,454.6h6.1c0.8,0,1.5,0,0.9-1.2   c-2.3-4.5-4.5-9-6.8-13.4c-0.1-0.1-0.5-0.2-0.5-0.1c-2.1,4.5-4,9-6.2,13.4c-0.6,1.3-0.2,1.4,0.8,1.4L907.8,454.6z"
   id="path65"
   style="fill:#ffffff" />
	<path
   class="st1"
   d="M1293.4,464.6c-3.4,0-6.8,0.1-10.2,0c-1-0.2-2,0.4-2.3,1.4c-1,2.3-2,4.6-3.1,6.9c-0.6,1.4-0.5,2.5,1.2,3   c0.9,0.1,1.5,1,1.3,1.9c0,0.1-0.1,0.3-0.1,0.4c-0.5,0.5-1.1,0.9-1.8,0.8c-5.1,0.1-10.1,0-15.2,0c-0.5,0-1.5-0.4-1.5-0.5   c0-0.8,0-2.2,0.5-2.5c3.2-1.9,4.4-5.1,5.8-8.2c3-6.4,6-12.8,9-19.2c4.6-9.8,9.2-19.6,13.6-29.5c1.3-3.1,3.6-1.5,5.5-1.9   s2.1,0.8,2.8,2.2c2.6,5.7,5.4,11.3,8.1,17c5.2,10.8,10.3,21.7,15.4,32.6c1.2,2.6,2.3,5.2,5,6.8c0.6,0.4,0.8,1.7,0.9,2.6   c-0.6,0.4-1.2,0.7-1.9,0.7c-5.9,0.1-11.8,0.1-17.7,0c-0.6,0-1.6-0.3-1.7-0.7c-0.3-0.9-0.3-1.9,1-2.4c2.2-0.7,2-2.2,1.1-3.9   c-0.5-0.8-0.9-1.6-1.1-2.5c-0.8-4.6-3.8-5.5-7.9-5C1297.8,464.7,1295.6,464.7,1293.4,464.6z M1293.6,454.6c2,0,4,0,6.1,0   c0.3,0,0.9-0.8,0.8-1c-2.1-4.4-4.2-8.7-6.3-13.1c-0.6-1.2-0.8-1-1.2,0c-2,4.3-4,8.6-6.2,12.8c-0.5,1.1-0.2,1.3,0.8,1.3   L1293.6,454.6z"
   id="path67"
   style="fill:#ffffff" />
	<path
   class="st1"
   d="M1322.2,226.5c-3.4,0-6.8,0-10.2,0c-1.2,0-1.6,0.2-2,1.5c-0.9,2.3-1.9,4.6-3.1,6.8c-0.7,1.4-0.3,2.4,1,3   c0.9,0.2,1.5,1.1,1.2,2c0,0.1-0.1,0.2-0.1,0.3c-0.2,0.5-1.2,0.8-1.9,0.8c-5,0.1-9.9,0.1-14.9,0c-0.6,0-1.2-0.6-1.9-0.9   c0.3-0.7,0.7-1.4,1.1-2.1c1-1.2,2.6-2.1,3.2-3.5c4-8.3,7.8-16.7,11.7-25.1c1.2-2.7,2.5-5.3,3.8-8c3.3-7.1,6.7-14.3,10-21.4   c0.2-0.4,0.6-0.7,1-0.8c1.5-0.1,2.9-0.1,4.4,0c0.7,0.2,1.4,0.6,1.7,1.3c2.5,5,5,10.1,7.4,15.2c2.7,5.6,5.2,11.2,7.9,16.8   c3.1,6.7,6.3,13.3,9.4,19.9c1,2.1,2,4.2,4.3,5.3c0.5,0.3,0.6,1.7,0.6,2.6c0,0.2-0.9,0.7-1.4,0.7c-6,0-12,0-18,0   c-0.5-0.1-1-0.3-1.4-0.7c0.2-0.8,0.3-1.8,0.9-2.2c1.3-0.5,1.9-2,1.4-3.2c-0.1-0.2-0.1-0.3-0.2-0.5c-1.1-2.3-2.1-4.6-3.4-6.7   c-0.6-0.6-1.4-1-2.2-1C1329.2,226.4,1325.6,226.5,1322.2,226.5z M1322.3,216.5c2,0,4,0,6,0c0.3,0,1-0.8,0.9-1   c-2.1-4.4-4.2-8.9-6.4-13.3c-0.1-0.2-1-0.3-1-0.2c-2.1,4.5-4.1,9.1-6.1,13.6c-0.1,0.2,0.4,0.8,0.6,0.8   C1318.2,216.5,1320.2,216.5,1322.3,216.5L1322.3,216.5z"
   id="path69"
   style="fill:#ffffff" />
	<path
   class="st1"
   d="M1185.6,480.8c-6.1-0.2-11.9-1.3-17-4.6c-6.7-4.3-11.4-11.2-13-19c-1.8-7.7-1.5-15.5,1.9-22.7   c3.9-8.3,10.3-14,19.5-16.3c8.4-2.1,17.2-1.4,25.2,2c1.1,0.5,2,0.6,2.4-0.5c0.7-1.7,2-1,3-0.9c0.5,0.1,0.9,1.3,1.1,2.1   c1,5.7,1.8,11.4,2.9,17c0.2,1,0.1,1.2-0.8,1.2c-1.8,0-3.1,0-4.3-1.9c-5.9-9.7-19.4-12.4-28.6-7.2c-5.4,3-8.1,7.8-8.9,13.9   c-0.9,6.3,0.7,12.6,4.4,17.8c3,4.4,7.9,7.1,13.2,7.3c4.8,0.4,9.5-0.2,13.4-3.2c2.5-1.9,4.8-4.1,6.8-6.4c0.8-0.9,1.2-1.1,2.1-0.5   c1.9,1.2,3.8,2.3,5.6,3.6c0.5,0.6,0.6,1.3,0.4,2c-5.7,8.3-12.7,14.5-23.3,15.5C1189.5,480.2,1187.5,480.6,1185.6,480.8z"
   id="path71"
   style="fill:#ffffff" />
	<path
   class="st1"
   d="M1556.3,242.6c-7.2-0.3-13.4-1.1-18.8-5c-6.7-4.9-11.1-11.3-12.4-19.5c-1-6.4-1.3-12.8,1.1-19   c3.8-10.2,10.6-16.7,21.5-19.1c8-1.7,16.3-1,23.8,2.1c0.9,0.5,2.1,0.3,2.7-0.5c0.6-0.5,1.3-0.8,2.1-0.9c1.1-0.2,1.7,0,1.9,1.5   c0.8,6,2,11.9,2.9,17.8c0,0.3,0,0.7-0.2,1c-1.6-0.1-3.2,0.7-4.5-1.3c-5.2-7.9-12.7-11.2-21.9-10.2c-9.1,1-16,8.6-16.2,17.7   c-0.1,4.9,0.4,9.6,2.8,13.9c3.5,6.1,8.6,9.6,15.9,9.9c8,0.2,14.2-2.7,18.8-9.1c0.9-1.3,2-1.6,3.4-0.6c1.3,1.1,2.7,2.1,4.2,2.9   c1.8,0.8,1.4,1.9,0.7,3c-5.3,8.2-12.6,13.5-22.5,14.8C1559.6,242.2,1557.5,242.4,1556.3,242.6z"
   id="path73"
   style="fill:#ffffff" />
	<path
   class="st1"
   d="M1037.2,481.1c-4.3-0.9-8.6-1.7-12.9-2.8c-0.9-0.4-1.9-0.2-2.6,0.4c-1.9,1.6-3.2,1.2-3.9-1.1   c-1.6-5.7-3.1-11.4-4.8-17c-0.3-1.2,0.1-1.5,1.2-1.5c1.5,0,2.7,0,3.9,1.5c3.8,4.6,8.5,8.2,14.6,9.1c2.6,0.5,5.2,0.3,7.7-0.5   c4.8-1.8,5.3-7.7,2.1-10.1c-2.4-1.8-4.8-3.5-7.3-5c-4.5-2.6-9-5.1-13.6-7.6c-3.2-1.8-4.8-4.9-5.7-8.2c-1.5-4.9-0.6-10.2,2.4-14.4   c2.7-3.9,6.6-5.5,10.8-6.3c6.1-1.1,12.3-0.3,17.9,2.3c0.5,0.1,1.1,0,1.6-0.2s0.8-0.8,1.2-1.1c1.5-1,2.7-0.5,2.9,1.2   c0.7,5.7,1.5,11.5,2.1,17.2c0,0.5-0.2,1.1-0.6,1.5c-1.3-0.2-2.8-0.2-3.7-0.9c-1.6-1.7-3.2-3.5-4.6-5.4c-2.7-3.1-6.6-4.9-10.7-5.1   c-2.4-0.2-5.2,0.4-6.7,3.1c-1.1,2-1.2,3.8,0.4,5.4c1.3,1.2,2.7,2.2,4.2,2.9c4.8,2.6,9.8,5,14.6,7.6c6.2,3.4,9.4,8.9,9.8,15.8   c0.6,9.7-6.1,17.2-15.7,18.1c-1.5,0.2-3,0.5-4.5,0.7L1037.2,481.1z"
   id="path75"
   style="fill:#ffffff" />
	<path
   class="st1"
   d="M978,481c-4.2-0.9-8.4-1.7-12.6-2.7c-1.1-0.3-1.9-0.7-2.8,0.5c-1.1,1.4-3,0.9-3.4-0.9   c-1.6-5.9-3.2-11.9-4.8-17.8c-0.1-0.3-0.1-0.9,0.1-1c1.1-0.7,4,0.2,4.9,1.4c4.8,6.1,10.9,9.6,18.7,9.5c3,0,5.9-1.1,7.2-4.3   c1.2-3.2-0.1-6.8-3.2-8.3c-4.2-2.4-8.6-4.4-12.8-6.7c-4.1-2.2-8.2-4.4-10.5-8.6c-4.9-9-2.1-20.8,9.5-23.9c6.3-1.7,13-1.2,18.9,1.5   c1.3,0.6,2.7,1,3.6-0.8c0.5-0.5,1.3-0.8,2-0.6c0.6,0.2,1.1,0.8,1.2,1.4c0.6,5.5,1.2,11,1.7,16.5c0.1,0.8-0.4,2.2-0.9,2.3   c-1.2,0.3-2.5,0.5-3.4-1.2c-2.3-4.5-6.2-7.8-11-9.4c-2-0.6-3.9-1.2-6.3-0.6c-2.9,0.8-4.5,2.2-5,5s1.7,4,3.5,5.1   c3.9,2.2,8.1,3.9,12,6.2c3,1.7,5.9,3.8,8.6,6c7.8,6.5,7,20.9-0.9,26.8c-2.4,1.6-5,2.8-7.8,3.5c-2,0.6-4.3,0.5-6.5,0.7L978,481z"
   id="path77"
   style="fill:#ffffff" />
	<path
   class="st1"
   d="M1249.4,211c0-7.2,0-14.4,0-21.5c0-2.5-0.5-4.6-3.2-5.7c-0.5-0.2-0.6-1.5-0.6-2.3c0-0.3,0.8-0.9,1.2-0.9   c8.2,0,16.4-0.3,24.6,0.1c5,0.3,10.2,0.9,14.6,4.1c5.3,3.8,7.5,8.8,6.6,15.3c-0.3,2.9-1.2,5.6-2.7,8.1c-2.5,4-6.5,6-10.9,6.6   c-4,0.5-8,0.4-12,0.7c-1.4,0.1-1.7-0.5-1.6-1.8c0.1-2.3-0.6-5.2,0.5-6.7c0.9-1.2,4-0.7,6.2-1c4.6-0.7,7.2-4.1,7.2-6.7   c0-4.2-2.3-7-6.8-7.6c-2.7-0.4-5.4-0.4-8.1-0.6c-1.4-0.1-1.7,0.4-1.7,1.7c0,13.1,0,26.2,0.1,39.2c0,2.2,0.4,4.5,2.9,5.6   c0.6,0.3,0.6,1.7,0.8,2.6c-0.6,0.3-1.3,0.4-1.9,0.5c-5.5,0-11.1,0-16.6,0c-0.6,0-1.2-0.2-1.8-0.5c0.1-0.9,0.2-2.3,0.8-2.6   c2.2-1.2,2.4-3,2.4-5.1C1249.4,225.4,1249.4,218.2,1249.4,211z"
   id="path79"
   style="fill:#ffffff" />
	<path
   class="st1"
   d="M1519.8,345.2c-20.7,0-41.4,0-62.1,0c-2.2,0-3.1-0.4-2.9-2.8s0-5,0.1-7.5c0-0.5,0.8-1.1,1.4-1.4   c0.5-0.1,1.1-0.1,1.6,0c41.2,0,82.4,0,123.7,0c3.6,0,3-0.5,3.1,3c0,2.4,0.1,4.8-0.1,7.2c0,0.5-0.8,1.1-1.4,1.3   c-0.6,0.1-1.3,0.2-1.9,0L1519.8,345.2z"
   id="path81"
   style="fill:#ffffff" />
	<path
   class="st1"
   d="M941.1,333.6c20.2,0,40.5,0,60.7-0.1c2.2,0,3.1,0.5,2.9,2.8c-0.2,2.4-0.2,4.8,0,7.2c0.1,1.3-0.4,1.8-1.7,1.7   c-0.5,0-0.9,0-1.4,0c-40.3,0-80.6,0-120.9,0c-3.6,0-3,0.5-3.1-3c0-2.3,0.1-4.6,0-6.9c-0.1-1.3,0.4-1.8,1.7-1.7c0.5,0,1.1,0,1.6,0   H941.1z"
   id="path83"
   style="fill:#ffffff" />
	<path
   class="st1"
   d="M1049.1,180.6c7.7,0,15.5,0.1,23.2,0c2.1,0,3.2,0.4,3.8,2.6c1.1,3.7,2.8,7.2,4.1,10.8c0.1,0.7,0.2,1.4,0.1,2.1   c-1.1-0.1-2.8,0.1-3.2-0.5c-2.4-3.5-5.7-4.1-9.5-3.9c-3.2,0.2-6.4,0.1-9.7,0c-1.3,0-2,0.1-2,1.7c0.1,13.3,0,26.5,0.1,39.8   c0.1,1.5,0.9,3,2.1,3.9c1,0.6,1.4,1.9,1,3c-0.1,0.4-1.3,0.7-2,0.7c-5.7,0.1-11.4,0.1-17.1,0c-0.6,0-1.7-0.6-1.7-1   c-0.1-0.8-0.7-1.8,0.9-2.4c2-0.7,2.9-2.5,2.9-4.7c0-13,0-26,0-39c0-1.7-0.4-2.2-2.1-2.1c-4.1,0.1-8.3,0-12.4,0   c-2.6-0.1-5,1.1-6.4,3.3c-1,1.6-2.3,1-3.6,1c0-0.9,0.1-1.8,0.3-2.7c1.3-3.6,3-7.1,4.2-10.7c0.5-1.6,1.2-1.9,2.7-1.9   C1032.9,180.6,1041,180.6,1049.1,180.6z"
   id="path85"
   style="fill:#ffffff" />
	<path
   class="st1"
   d="M1358.1,418.7c7.8,0,15.7,0,23.5,0c1.8,0,2.9,0.2,3.6,2.3c1.1,3.5,2.6,6.8,3.9,10.2c0.2,0.7,0.3,1.5,0.4,2.2   c-1.2-0.1-3.1,0.3-3.6-0.3c-2.6-3.5-6.2-3.5-10-3.4c-3.1,0.1-6.3,0.1-9.4,0c-1.4,0-1.7,0.4-1.7,1.7c0,13.1,0,26.1,0.1,39.2   c-0.2,2.1,1,4.1,3,5c0.5,0.2,0.7,1.6,0.8,2.4c0,0.2-1,0.8-1.6,0.8c-5.9,0.1-11.8,0.1-17.7,0c-0.6,0-1.6-0.6-1.5-0.8   c0-0.9,0.2-2.2,0.8-2.5c2-1,2.5-2.6,2.4-4.7c0-12.9-0.1-25.8,0-38.7c0-2.1-0.5-2.6-2.6-2.5c-3.8,0.2-7.6,0.1-11.3,0   c-2.3-0.1-4.5,0.8-6,2.5c-0.2,0.3-0.5,0.7-0.8,0.7c-1.3,0.2-2.6,0.3-3.9,0.5c0.2-0.8,0.5-1.6,0.8-2.4c1.3-3.5,2.7-7,3.9-10.5   c0.2-1.3,1.4-2.1,2.7-1.9C1341.9,418.8,1350,418.7,1358.1,418.7z"
   id="path87"
   style="fill:#ffffff" />
	<path
   class="st1"
   d="M1049.6,300.5c7.9,0,15.8,0.1,23.8-0.1c1.5-0.2,3,0.8,3.4,2.3c1.4,3.8,2.9,7.7,4.3,11.5   c0.1,0.3-0.4,1.1-0.6,1.1c-1.3,0-2.5,0.2-3.8-1.3c-1.7-1.7-3.9-2.7-6.3-3c-4-0.5-8.1-0.1-12.1-0.2c-1.3,0-1.7,0.4-1.7,1.7   c0,13.4,0,26.9,0.1,40.3c0.2,1.5,0.9,2.8,2.1,3.7c1,0.6,1.4,1.7,1,2.8c-0.1,0.4-1.3,0.6-2,0.6c-5.5,0-11,0.1-16.6,0   c-0.8,0-2-0.3-2.2-0.8c-0.4-0.9-0.1-2,0.9-2.5c0.1-0.1,0.2-0.1,0.3-0.1c1.9-0.7,2.5-2.4,2.5-4.3c0-13.2,0-26.3,0-39.5   c0-1.6-0.5-2-2-2c-4.2,0.1-8.5,0-12.7,0c-2.6,0-4.4,1.6-6.3,3.2c-0.7,0.6-1.5,1-2.4,1.2c-1.6,0.3-1.7-0.8-1.3-1.8   c1.6-4.1,3.2-8.2,4.9-12.2c0.2-0.5,1.4-0.8,2.1-0.9C1033.2,300.5,1041.4,300.5,1049.6,300.5z"
   id="path89"
   style="fill:#ffffff" />
	<path
   class="st1"
   d="M1503.7,180.6c2.8,0,5.7,0,8.6,0c0.6,0.1,1.2,0.3,1.6,0.8c-0.2,0.9,0.8,2-0.9,2.7c-1.3,0.8-2.1,2.1-2.2,3.6   c-0.1,15.2-0.1,30.4,0,45.5c0.2,1.5,0.9,2.9,2.1,3.8c1,0.6,1.4,1.9,1,3c-0.2,0.5-1.4,0.8-2.2,0.8c-5.3,0.1-10.7,0.1-16,0   c-0.7,0-1.4-0.2-2-0.6c0.1-1,0.2-2.2,0.8-2.7c1.6-1.4,2.5-3.4,2.4-5.5c-0.1-14.1,0-28.2,0-42.2c0-2.5-0.3-4.8-3.2-5.9   c-0.4-0.2-0.6-1.5-0.6-2.3c0-0.3,0.8-0.8,1.3-0.8C1497.5,180.6,1500.6,180.6,1503.7,180.6z"
   id="path91"
   style="fill:#ffffff" />
	<path
   class="st1"
   d="M1233.3,449.1c0-7,0.1-14-0.1-21c-0.1-2.4-0.2-5.1-3.3-6.2c-0.4-0.2-0.5-1.6-0.5-2.4c0-0.3,0.9-0.8,1.4-0.8   c6.1-0.1,12.1-0.1,18.2,0c0.4,0,1.2,0.6,1.2,0.9c0,0.8-0.1,2.1-0.6,2.3c-2.7,1.1-3.2,3.1-3.2,5.7c0,13.6,0,27.2,0.1,40.8   c0,2.8-0.1,5.8,3.3,7.3c0.4,0.2,0.5,1.6,0.4,2.4c0,0.3-0.9,0.7-1.4,0.7c-6.1,0.1-12.1,0.1-18.2,0c-0.4,0-1.2-0.6-1.2-0.9   c0-0.8,0.1-2.1,0.6-2.3c2.7-1.1,3.2-3.2,3.2-5.7C1233.3,463.1,1233.3,456.1,1233.3,449.1z"
   id="path93"
   style="fill:#ffffff" />
	<path
   class="st1"
   d="M1412.4,418.7c2.9,0,5.9,0,8.8,0c0.5,0,1.5,0.6,1.5,0.8c-0.1,0.8-0.3,2-0.8,2.3c-1.9,0.9-3.1,3-2.9,5.1   c0,14-0.1,28,0,42c0,2.5,0.2,5.2,3.1,6.7c0.5,0.3,0.6,1.7,0.6,2.5c0,0.2-1.1,0.7-1.7,0.7c-5.6,0.1-11.2,0.1-16.8,0   c-0.6,0-1.7-0.4-1.7-0.7c0-0.9,0.1-2.2,0.6-2.6c2.1-1.5,2.6-3.5,2.6-5.9c0-13.9,0-27.8,0-41.7c0-2.6-0.3-5-3.3-6.1   c-0.4-0.2-0.5-1.6-0.5-2.4c0-0.3,0.9-0.8,1.3-0.8C1406.3,418.7,1409.4,418.7,1412.4,418.7z"
   id="path95"
   style="fill:#ffffff" />
</g>
</svg>
