<?xml version="1.0" encoding="UTF-8" standalone="no"?>
<svg
   width="20"
   height="20"
   fill="currentColor"
   class="bi bi-question-circle-fill"
   viewBox="0 0 20 20"
   version="1.1"
   id="svg308"
   sodipodi:docname="question-circle-fill.svg"
   inkscape:version="1.2 (dc2aedaf03, 2022-05-15)"
   xmlns:inkscape="http://www.inkscape.org/namespaces/inkscape"
   xmlns:sodipodi="http://sodipodi.sourceforge.net/DTD/sodipodi-0.dtd"
   xmlns="http://www.w3.org/2000/svg"
   xmlns:svg="http://www.w3.org/2000/svg">
  <defs
     id="defs312" />
  <sodipodi:namedview
     id="namedview310"
     pagecolor="#ffffff"
     bordercolor="#666666"
     borderopacity="1.0"
     inkscape:showpageshadow="2"
     inkscape:pageopacity="0.0"
     inkscape:pagecheckerboard="0"
     inkscape:deskcolor="#d1d1d1"
     showgrid="false"
     inkscape:zoom="13.191961"
     inkscape:cx="-9.3617621"
     inkscape:cy="12.697127"
     inkscape:window-width="1368"
     inkscape:window-height="842"
     inkscape:window-x="-6"
     inkscape:window-y="-6"
     inkscape:window-maximized="1"
     inkscape:current-layer="svg308" />
  <path
     d="M 20,10 A 10,10 0 1 1 0,10 10,10 0 0 1 20,10 Z M 6.87,7.54125 h 1.0312501 c 0.1725,0 0.31,-0.14125 0.3325,-0.3125 0.1124993,-0.82 0.675,-1.4175 1.6775,-1.4175 0.8574999,0 1.6424999,0.42875 1.6424999,1.46 C 11.55375,8.065 11.08625,8.43 10.3475,8.985 9.5062501,9.59625 8.84,10.31 8.8875,11.46875 L 8.89125,11.74 a 0.3125,0.3125 0 0 0 0.3125001,0.3075 H 10.2175 A 0.3125,0.3125 0 0 0 10.53,11.735 v -0.13125 c 0,-0.8975 0.34125,-1.15875 1.2625,-1.8575 C 12.55375,9.1675 13.347501,8.525 13.347501,7.17625 13.347501,5.2875 11.7525,4.375 10.00625,4.375 8.4225,4.375 6.6875,5.1125 6.5687501,7.2325 A 0.29625,0.29625 0 0 0 6.87,7.54125 Z M 9.7762501,15.595 c 0.7624999,0 1.2862499,-0.4925 1.2862499,-1.15875 0,-0.69 -0.525,-1.175 -1.2862499,-1.175 -0.73,0 -1.2612501,0.485 -1.2612501,1.175 0,0.66625 0.5312501,1.15875 1.2625,1.15875 z"
     id="path306"
     style="stroke-width:1.25;fill:#0d7fc5;fill-opacity:1" />
</svg>
